<svg width="479" height="584" viewBox="0 0 479 584" fill="none" xmlns="http://www.w3.org/2000/svg">
<rect y="9" width="67" height="67" fill="#B52323"/>
<path d="M57 26.44L50.5599 20L33.9999 36.56L17.44 20L11 26.44L27.56 42.9999L11 59.5599L17.44 66L33.9999 49.44L50.5599 66L57 59.5599L40.44 42.9999L57 26.44Z" fill="#710F0F"/>
<path d="M95.4169 55V28.0442H103.618C105.491 28.0442 107.123 28.3733 108.515 29.0313C109.907 29.6894 110.983 30.6386 111.742 31.8788C112.502 33.0937 112.881 34.5617 112.881 36.2828C112.881 38.0039 112.502 39.4846 111.742 40.7248C110.983 41.9397 109.907 42.8762 108.515 43.5343C107.123 44.1924 105.491 44.5214 103.618 44.5214H98.682V55H95.4169ZM98.682 41.3323H103.238C105.364 41.3323 106.933 40.902 107.946 40.0414C108.958 39.1556 109.464 37.9027 109.464 36.2828C109.464 34.6376 108.958 33.3848 107.946 32.5242C106.933 31.6636 105.364 31.2334 103.238 31.2334H98.682V41.3323ZM123.421 55V34.8781H126.079L126.382 39.9655L126.079 39.8896C126.332 38.1685 126.876 36.9029 127.711 36.093C128.572 35.283 129.711 34.8781 131.128 34.8781H135.266V37.7635H131.166C130.179 37.7635 129.344 37.966 128.66 38.3709C128.002 38.7506 127.496 39.3201 127.142 40.0794C126.787 40.8134 126.61 41.7372 126.61 42.8509V55H123.421ZM118.182 55V52.1905H132.988V55H118.182ZM118.182 37.6876V34.8781H125.167V37.6876H118.182ZM148.919 55.4556C147.072 55.4556 145.452 55.0253 144.06 54.1648C142.693 53.3042 141.63 52.0893 140.87 50.52C140.111 48.9255 139.731 47.0651 139.731 44.939C139.731 42.7876 140.111 40.9273 140.87 39.3581C141.63 37.7888 142.693 36.5739 144.06 35.7133C145.452 34.8528 147.072 34.4225 148.919 34.4225C150.767 34.4225 152.374 34.8528 153.741 35.7133C155.133 36.5739 156.209 37.7888 156.968 39.3581C157.727 40.9273 158.107 42.7876 158.107 44.939C158.107 47.0651 157.727 48.9255 156.968 50.52C156.209 52.0893 155.133 53.3042 153.741 54.1648C152.374 55.0253 150.767 55.4556 148.919 55.4556ZM148.919 52.4183C150.767 52.4183 152.197 51.7602 153.209 50.4441C154.247 49.1026 154.766 47.2676 154.766 44.939C154.766 42.6105 154.247 40.7881 153.209 39.472C152.197 38.1305 150.767 37.4598 148.919 37.4598C147.072 37.4598 145.629 38.1305 144.591 39.472C143.579 40.7881 143.072 42.6105 143.072 44.939C143.072 47.2676 143.579 49.1026 144.591 50.4441C145.629 51.7602 147.072 52.4183 148.919 52.4183ZM172.937 55.4556C171.545 55.4556 170.304 55.1519 169.216 54.5444C168.128 53.9116 167.292 53.0511 166.71 51.9627L166.596 55H163.711V28.0442H166.9V37.6876C167.406 36.8523 168.191 36.1056 169.254 35.4476C170.317 34.7642 171.545 34.4225 172.937 34.4225C174.708 34.4225 176.24 34.8528 177.531 35.7133C178.821 36.5739 179.809 37.7888 180.492 39.3581C181.201 40.9273 181.555 42.7876 181.555 44.939C181.555 47.0904 181.201 48.9508 180.492 50.52C179.809 52.0893 178.821 53.3042 177.531 54.1648C176.24 55.0253 174.708 55.4556 172.937 55.4556ZM172.747 52.4183C174.443 52.4183 175.772 51.7476 176.733 50.4061C177.72 49.0647 178.214 47.2423 178.214 44.939C178.214 42.6105 177.72 40.7881 176.733 39.472C175.772 38.1305 174.468 37.4598 172.823 37.4598C171.583 37.4598 170.52 37.7635 169.634 38.3709C168.748 38.9531 168.064 39.801 167.584 40.9147C167.128 42.0283 166.9 43.3698 166.9 44.939C166.9 46.4577 167.128 47.7865 167.584 48.9255C168.064 50.0391 168.735 50.8997 169.596 51.5071C170.482 52.1146 171.532 52.4183 172.747 52.4183ZM193.424 55V33.4354C193.424 32.6254 193.196 31.9927 192.74 31.5371C192.285 31.0815 191.652 30.8537 190.842 30.8537H186.096V28.0442H190.994C192.841 28.0442 194.233 28.5251 195.17 29.4869C196.132 30.4234 196.613 31.8155 196.613 33.6632V55H193.424ZM185.337 55V52.1905H203.56V55H185.337ZM217.555 55.4556C215.657 55.4556 214.011 55.0253 212.619 54.1648C211.253 53.3042 210.19 52.0893 209.43 50.52C208.696 48.9255 208.329 47.0651 208.329 44.939C208.329 42.8129 208.696 40.9653 209.43 39.396C210.19 37.8268 211.24 36.6119 212.581 35.7513C213.948 34.8654 215.555 34.4225 217.403 34.4225C219.15 34.4225 220.693 34.8401 222.035 35.6754C223.376 36.4853 224.427 37.6749 225.186 39.2442C225.945 40.8134 226.325 42.7244 226.325 44.977V45.9262H211.67C211.797 48.0776 212.366 49.6974 213.379 50.7858C214.416 51.8741 215.809 52.4183 217.555 52.4183C218.871 52.4183 219.947 52.1146 220.782 51.5071C221.643 50.8744 222.237 50.0518 222.566 49.0394L225.983 49.3051C225.452 51.1022 224.439 52.5828 222.946 53.7471C221.478 54.8861 219.681 55.4556 217.555 55.4556ZM211.67 43.1167H222.832C222.68 41.1678 222.111 39.7377 221.124 38.8265C220.137 37.9153 218.896 37.4598 217.403 37.4598C215.859 37.4598 214.581 37.9407 213.569 38.9025C212.581 39.839 211.949 41.2437 211.67 43.1167ZM230.107 55V34.8781H233.03L233.144 39.3581L232.764 39.2821C232.992 37.7888 233.473 36.6119 234.207 35.7513C234.966 34.8654 235.928 34.4225 237.093 34.4225C238.282 34.4225 239.193 34.8528 239.826 35.7133C240.484 36.5739 240.889 37.8394 241.041 39.5099H240.661C240.889 37.9407 241.395 36.7004 242.18 35.7893C242.99 34.8781 244.002 34.4225 245.217 34.4225C246.837 34.4225 248.014 34.9793 248.748 36.093C249.482 37.2067 249.849 39.0543 249.849 41.636V55H246.66V42.0916C246.66 40.2945 246.47 39.0417 246.091 38.333C245.711 37.599 245.116 37.232 244.306 37.232C243.775 37.232 243.306 37.4091 242.901 37.7635C242.496 38.0925 242.167 38.624 241.914 39.3581C241.686 40.0921 241.573 41.0286 241.573 42.1675V55H238.383V42.0916C238.383 40.3705 238.194 39.1303 237.814 38.3709C237.46 37.6116 236.865 37.232 236.03 37.232C235.498 37.232 235.03 37.4091 234.625 37.7635C234.22 38.0925 233.891 38.624 233.638 39.3581C233.41 40.0921 233.296 41.0286 233.296 42.1675V55H230.107ZM260.085 55.4556C258.82 55.4556 257.681 55.2278 256.668 54.7722C255.656 54.3166 254.858 53.6838 254.276 52.8739C253.694 52.0387 253.403 51.0769 253.403 49.9885C253.403 48.2674 253.909 46.9386 254.922 46.0021C255.959 45.0403 257.579 44.3442 259.781 43.914L266.539 42.5472C266.539 40.8261 266.147 39.5479 265.362 38.7126C264.603 37.8774 263.502 37.4598 262.059 37.4598C260.667 37.4598 259.579 37.7761 258.794 38.4089C258.01 39.0164 257.465 39.9022 257.162 41.0665L253.783 40.8008C254.162 38.9025 255.061 37.3712 256.478 36.2069C257.921 35.0173 259.781 34.4225 262.059 34.4225C264.489 34.4225 266.375 35.1565 267.716 36.6245C269.058 38.0672 269.728 40.0667 269.728 42.6231V50.9756C269.728 51.4312 269.83 51.7476 270.032 51.9248C270.235 52.1019 270.538 52.1905 270.943 52.1905H272.234V55C272.082 55.0253 271.842 55.038 271.513 55.038C271.184 55.0633 270.867 55.0759 270.564 55.0759C269.703 55.0759 268.969 54.9367 268.362 54.6583C267.779 54.3799 267.337 53.937 267.033 53.3295C266.729 52.6967 266.565 51.8868 266.539 50.8997H267.147C266.97 51.7602 266.539 52.5449 265.856 53.2536C265.198 53.937 264.363 54.4811 263.35 54.8861C262.338 55.2658 261.249 55.4556 260.085 55.4556ZM260.389 52.6461C261.756 52.6461 262.895 52.4183 263.806 51.9627C264.717 51.4818 265.4 50.8238 265.856 49.9885C266.311 49.1279 266.539 48.1408 266.539 47.0272V45.2807L260.389 46.4956C259.022 46.7487 258.073 47.1411 257.541 47.6726C257.01 48.1788 256.744 48.8495 256.744 49.6848C256.744 50.6213 257.06 51.3553 257.693 51.8868C258.351 52.393 259.25 52.6461 260.389 52.6461ZM298.781 55L306.222 41.4462L298.932 28.0442H302.729L308.31 38.8645L313.891 28.0442H317.612L310.322 41.4841L317.764 55H313.967L308.234 44.0279L302.501 55H298.781Z" fill="#F5F5F5" fill-opacity="0.7"/>
<rect y="109" width="67" height="67" fill="#B52323"/>
<path d="M57 126.44L50.5599 120L33.9999 136.56L17.44 120L11 126.44L27.56 143L11 159.56L17.44 166L33.9999 149.44L50.5599 166L57 159.56L40.44 143L57 126.44Z" fill="#710F0F"/>
<path d="M95.4169 155V128.044H103.618C105.491 128.044 107.123 128.373 108.515 129.031C109.907 129.689 110.983 130.639 111.742 131.879C112.502 133.094 112.881 134.562 112.881 136.283C112.881 138.004 112.502 139.485 111.742 140.725C110.983 141.94 109.907 142.876 108.515 143.534C107.123 144.192 105.491 144.521 103.618 144.521H98.682V155H95.4169ZM98.682 141.332H103.238C105.364 141.332 106.933 140.902 107.946 140.041C108.958 139.156 109.464 137.903 109.464 136.283C109.464 134.638 108.958 133.385 107.946 132.524C106.933 131.664 105.364 131.233 103.238 131.233H98.682V141.332ZM123.421 155V134.878H126.079L126.382 139.966L126.079 139.89C126.332 138.168 126.876 136.903 127.711 136.093C128.572 135.283 129.711 134.878 131.128 134.878H135.266V137.763H131.166C130.179 137.763 129.344 137.966 128.66 138.371C128.002 138.751 127.496 139.32 127.142 140.079C126.787 140.813 126.61 141.737 126.61 142.851V155H123.421ZM118.182 155V152.191H132.988V155H118.182ZM118.182 137.688V134.878H125.167V137.688H118.182ZM148.919 155.456C147.072 155.456 145.452 155.025 144.06 154.165C142.693 153.304 141.63 152.089 140.87 150.52C140.111 148.925 139.731 147.065 139.731 144.939C139.731 142.788 140.111 140.927 140.87 139.358C141.63 137.789 142.693 136.574 144.06 135.713C145.452 134.853 147.072 134.422 148.919 134.422C150.767 134.422 152.374 134.853 153.741 135.713C155.133 136.574 156.209 137.789 156.968 139.358C157.727 140.927 158.107 142.788 158.107 144.939C158.107 147.065 157.727 148.925 156.968 150.52C156.209 152.089 155.133 153.304 153.741 154.165C152.374 155.025 150.767 155.456 148.919 155.456ZM148.919 152.418C150.767 152.418 152.197 151.76 153.209 150.444C154.247 149.103 154.766 147.268 154.766 144.939C154.766 142.61 154.247 140.788 153.209 139.472C152.197 138.13 150.767 137.46 148.919 137.46C147.072 137.46 145.629 138.13 144.591 139.472C143.579 140.788 143.072 142.61 143.072 144.939C143.072 147.268 143.579 149.103 144.591 150.444C145.629 151.76 147.072 152.418 148.919 152.418ZM172.937 155.456C171.545 155.456 170.304 155.152 169.216 154.544C168.128 153.912 167.292 153.051 166.71 151.963L166.596 155H163.711V128.044H166.9V137.688C167.406 136.852 168.191 136.106 169.254 135.448C170.317 134.764 171.545 134.422 172.937 134.422C174.708 134.422 176.24 134.853 177.531 135.713C178.821 136.574 179.809 137.789 180.492 139.358C181.201 140.927 181.555 142.788 181.555 144.939C181.555 147.09 181.201 148.951 180.492 150.52C179.809 152.089 178.821 153.304 177.531 154.165C176.24 155.025 174.708 155.456 172.937 155.456ZM172.747 152.418C174.443 152.418 175.772 151.748 176.733 150.406C177.72 149.065 178.214 147.242 178.214 144.939C178.214 142.61 177.72 140.788 176.733 139.472C175.772 138.13 174.468 137.46 172.823 137.46C171.583 137.46 170.52 137.763 169.634 138.371C168.748 138.953 168.064 139.801 167.584 140.915C167.128 142.028 166.9 143.37 166.9 144.939C166.9 146.458 167.128 147.786 167.584 148.925C168.064 150.039 168.735 150.9 169.596 151.507C170.482 152.115 171.532 152.418 172.747 152.418ZM193.424 155V133.435C193.424 132.625 193.196 131.993 192.74 131.537C192.285 131.081 191.652 130.854 190.842 130.854H186.096V128.044H190.994C192.841 128.044 194.233 128.525 195.17 129.487C196.132 130.423 196.613 131.815 196.613 133.663V155H193.424ZM185.337 155V152.191H203.56V155H185.337ZM217.555 155.456C215.657 155.456 214.011 155.025 212.619 154.165C211.253 153.304 210.19 152.089 209.43 150.52C208.696 148.925 208.329 147.065 208.329 144.939C208.329 142.813 208.696 140.965 209.43 139.396C210.19 137.827 211.24 136.612 212.581 135.751C213.948 134.865 215.555 134.422 217.403 134.422C219.15 134.422 220.693 134.84 222.035 135.675C223.376 136.485 224.427 137.675 225.186 139.244C225.945 140.813 226.325 142.724 226.325 144.977V145.926H211.67C211.797 148.078 212.366 149.697 213.379 150.786C214.416 151.874 215.809 152.418 217.555 152.418C218.871 152.418 219.947 152.115 220.782 151.507C221.643 150.874 222.237 150.052 222.566 149.039L225.983 149.305C225.452 151.102 224.439 152.583 222.946 153.747C221.478 154.886 219.681 155.456 217.555 155.456ZM211.67 143.117H222.832C222.68 141.168 222.111 139.738 221.124 138.827C220.137 137.915 218.896 137.46 217.403 137.46C215.859 137.46 214.581 137.941 213.569 138.902C212.581 139.839 211.949 141.244 211.67 143.117ZM230.107 155V134.878H233.03L233.144 139.358L232.764 139.282C232.992 137.789 233.473 136.612 234.207 135.751C234.966 134.865 235.928 134.422 237.093 134.422C238.282 134.422 239.193 134.853 239.826 135.713C240.484 136.574 240.889 137.839 241.041 139.51H240.661C240.889 137.941 241.395 136.7 242.18 135.789C242.99 134.878 244.002 134.422 245.217 134.422C246.837 134.422 248.014 134.979 248.748 136.093C249.482 137.207 249.849 139.054 249.849 141.636V155H246.66V142.092C246.66 140.295 246.47 139.042 246.091 138.333C245.711 137.599 245.116 137.232 244.306 137.232C243.775 137.232 243.306 137.409 242.901 137.763C242.496 138.093 242.167 138.624 241.914 139.358C241.686 140.092 241.573 141.029 241.573 142.168V155H238.383V142.092C238.383 140.37 238.194 139.13 237.814 138.371C237.46 137.612 236.865 137.232 236.03 137.232C235.498 137.232 235.03 137.409 234.625 137.763C234.22 138.093 233.891 138.624 233.638 139.358C233.41 140.092 233.296 141.029 233.296 142.168V155H230.107ZM260.085 155.456C258.82 155.456 257.681 155.228 256.668 154.772C255.656 154.317 254.858 153.684 254.276 152.874C253.694 152.039 253.403 151.077 253.403 149.989C253.403 148.267 253.909 146.939 254.922 146.002C255.959 145.04 257.579 144.344 259.781 143.914L266.539 142.547C266.539 140.826 266.147 139.548 265.362 138.713C264.603 137.877 263.502 137.46 262.059 137.46C260.667 137.46 259.579 137.776 258.794 138.409C258.01 139.016 257.465 139.902 257.162 141.067L253.783 140.801C254.162 138.902 255.061 137.371 256.478 136.207C257.921 135.017 259.781 134.422 262.059 134.422C264.489 134.422 266.375 135.156 267.716 136.625C269.058 138.067 269.728 140.067 269.728 142.623V150.976C269.728 151.431 269.83 151.748 270.032 151.925C270.235 152.102 270.538 152.191 270.943 152.191H272.234V155C272.082 155.025 271.842 155.038 271.513 155.038C271.184 155.063 270.867 155.076 270.564 155.076C269.703 155.076 268.969 154.937 268.362 154.658C267.779 154.38 267.337 153.937 267.033 153.33C266.729 152.697 266.565 151.887 266.539 150.9H267.147C266.97 151.76 266.539 152.545 265.856 153.254C265.198 153.937 264.363 154.481 263.35 154.886C262.338 155.266 261.249 155.456 260.085 155.456ZM260.389 152.646C261.756 152.646 262.895 152.418 263.806 151.963C264.717 151.482 265.4 150.824 265.856 149.989C266.311 149.128 266.539 148.141 266.539 147.027V145.281L260.389 146.496C259.022 146.749 258.073 147.141 257.541 147.673C257.01 148.179 256.744 148.85 256.744 149.685C256.744 150.621 257.06 151.355 257.693 151.887C258.351 152.393 259.25 152.646 260.389 152.646ZM306.678 155V143.99L298.401 128.044H302.122L308.272 140.649L314.423 128.044H318.143L309.943 143.99V155H306.678Z" fill="#F5F5F5" fill-opacity="0.7"/>
<rect y="209" width="67" height="67" fill="#B52323"/>
<path d="M57 226.44L50.5599 220L33.9999 236.56L17.44 220L11 226.44L27.56 243L11 259.56L17.44 266L33.9999 249.44L50.5599 266L57 259.56L40.44 243L57 226.44Z" fill="#710F0F"/>
<path d="M95.4169 255V228.044H103.618C105.491 228.044 107.123 228.373 108.515 229.031C109.907 229.689 110.983 230.639 111.742 231.879C112.502 233.094 112.881 234.562 112.881 236.283C112.881 238.004 112.502 239.485 111.742 240.725C110.983 241.94 109.907 242.876 108.515 243.534C107.123 244.192 105.491 244.521 103.618 244.521H98.682V255H95.4169ZM98.682 241.332H103.238C105.364 241.332 106.933 240.902 107.946 240.041C108.958 239.156 109.464 237.903 109.464 236.283C109.464 234.638 108.958 233.385 107.946 232.524C106.933 231.664 105.364 231.233 103.238 231.233H98.682V241.332ZM123.421 255V234.878H126.079L126.382 239.966L126.079 239.89C126.332 238.168 126.876 236.903 127.711 236.093C128.572 235.283 129.711 234.878 131.128 234.878H135.266V237.763H131.166C130.179 237.763 129.344 237.966 128.66 238.371C128.002 238.751 127.496 239.32 127.142 240.079C126.787 240.813 126.61 241.737 126.61 242.851V255H123.421ZM118.182 255V252.191H132.988V255H118.182ZM118.182 237.688V234.878H125.167V237.688H118.182ZM148.919 255.456C147.072 255.456 145.452 255.025 144.06 254.165C142.693 253.304 141.63 252.089 140.87 250.52C140.111 248.925 139.731 247.065 139.731 244.939C139.731 242.788 140.111 240.927 140.87 239.358C141.63 237.789 142.693 236.574 144.06 235.713C145.452 234.853 147.072 234.422 148.919 234.422C150.767 234.422 152.374 234.853 153.741 235.713C155.133 236.574 156.209 237.789 156.968 239.358C157.727 240.927 158.107 242.788 158.107 244.939C158.107 247.065 157.727 248.925 156.968 250.52C156.209 252.089 155.133 253.304 153.741 254.165C152.374 255.025 150.767 255.456 148.919 255.456ZM148.919 252.418C150.767 252.418 152.197 251.76 153.209 250.444C154.247 249.103 154.766 247.268 154.766 244.939C154.766 242.61 154.247 240.788 153.209 239.472C152.197 238.13 150.767 237.46 148.919 237.46C147.072 237.46 145.629 238.13 144.591 239.472C143.579 240.788 143.072 242.61 143.072 244.939C143.072 247.268 143.579 249.103 144.591 250.444C145.629 251.76 147.072 252.418 148.919 252.418ZM172.937 255.456C171.545 255.456 170.304 255.152 169.216 254.544C168.128 253.912 167.292 253.051 166.71 251.963L166.596 255H163.711V228.044H166.9V237.688C167.406 236.852 168.191 236.106 169.254 235.448C170.317 234.764 171.545 234.422 172.937 234.422C174.708 234.422 176.24 234.853 177.531 235.713C178.821 236.574 179.809 237.789 180.492 239.358C181.201 240.927 181.555 242.788 181.555 244.939C181.555 247.09 181.201 248.951 180.492 250.52C179.809 252.089 178.821 253.304 177.531 254.165C176.24 255.025 174.708 255.456 172.937 255.456ZM172.747 252.418C174.443 252.418 175.772 251.748 176.733 250.406C177.72 249.065 178.214 247.242 178.214 244.939C178.214 242.61 177.72 240.788 176.733 239.472C175.772 238.13 174.468 237.46 172.823 237.46C171.583 237.46 170.52 237.763 169.634 238.371C168.748 238.953 168.064 239.801 167.584 240.915C167.128 242.028 166.9 243.37 166.9 244.939C166.9 246.458 167.128 247.786 167.584 248.925C168.064 250.039 168.735 250.9 169.596 251.507C170.482 252.115 171.532 252.418 172.747 252.418ZM193.424 255V233.435C193.424 232.625 193.196 231.993 192.74 231.537C192.285 231.081 191.652 230.854 190.842 230.854H186.096V228.044H190.994C192.841 228.044 194.233 228.525 195.17 229.487C196.132 230.423 196.613 231.815 196.613 233.663V255H193.424ZM185.337 255V252.191H203.56V255H185.337ZM217.555 255.456C215.657 255.456 214.011 255.025 212.619 254.165C211.253 253.304 210.19 252.089 209.43 250.52C208.696 248.925 208.329 247.065 208.329 244.939C208.329 242.813 208.696 240.965 209.43 239.396C210.19 237.827 211.24 236.612 212.581 235.751C213.948 234.865 215.555 234.422 217.403 234.422C219.15 234.422 220.693 234.84 222.035 235.675C223.376 236.485 224.427 237.675 225.186 239.244C225.945 240.813 226.325 242.724 226.325 244.977V245.926H211.67C211.797 248.078 212.366 249.697 213.379 250.786C214.416 251.874 215.809 252.418 217.555 252.418C218.871 252.418 219.947 252.115 220.782 251.507C221.643 250.874 222.237 250.052 222.566 249.039L225.983 249.305C225.452 251.102 224.439 252.583 222.946 253.747C221.478 254.886 219.681 255.456 217.555 255.456ZM211.67 243.117H222.832C222.68 241.168 222.111 239.738 221.124 238.827C220.137 237.915 218.896 237.46 217.403 237.46C215.859 237.46 214.581 237.941 213.569 238.902C212.581 239.839 211.949 241.244 211.67 243.117ZM230.107 255V234.878H233.03L233.144 239.358L232.764 239.282C232.992 237.789 233.473 236.612 234.207 235.751C234.966 234.865 235.928 234.422 237.093 234.422C238.282 234.422 239.193 234.853 239.826 235.713C240.484 236.574 240.889 237.839 241.041 239.51H240.661C240.889 237.941 241.395 236.7 242.18 235.789C242.99 234.878 244.002 234.422 245.217 234.422C246.837 234.422 248.014 234.979 248.748 236.093C249.482 237.207 249.849 239.054 249.849 241.636V255H246.66V242.092C246.66 240.295 246.47 239.042 246.091 238.333C245.711 237.599 245.116 237.232 244.306 237.232C243.775 237.232 243.306 237.409 242.901 237.763C242.496 238.093 242.167 238.624 241.914 239.358C241.686 240.092 241.573 241.029 241.573 242.168V255H238.383V242.092C238.383 240.37 238.194 239.13 237.814 238.371C237.46 237.612 236.865 237.232 236.03 237.232C235.498 237.232 235.03 237.409 234.625 237.763C234.22 238.093 233.891 238.624 233.638 239.358C233.41 240.092 233.296 241.029 233.296 242.168V255H230.107ZM260.085 255.456C258.82 255.456 257.681 255.228 256.668 254.772C255.656 254.317 254.858 253.684 254.276 252.874C253.694 252.039 253.403 251.077 253.403 249.989C253.403 248.267 253.909 246.939 254.922 246.002C255.959 245.04 257.579 244.344 259.781 243.914L266.539 242.547C266.539 240.826 266.147 239.548 265.362 238.713C264.603 237.877 263.502 237.46 262.059 237.46C260.667 237.46 259.579 237.776 258.794 238.409C258.01 239.016 257.465 239.902 257.162 241.067L253.783 240.801C254.162 238.902 255.061 237.371 256.478 236.207C257.921 235.017 259.781 234.422 262.059 234.422C264.489 234.422 266.375 235.156 267.716 236.625C269.058 238.067 269.728 240.067 269.728 242.623V250.976C269.728 251.431 269.83 251.748 270.032 251.925C270.235 252.102 270.538 252.191 270.943 252.191H272.234V255C272.082 255.025 271.842 255.038 271.513 255.038C271.184 255.063 270.867 255.076 270.564 255.076C269.703 255.076 268.969 254.937 268.362 254.658C267.779 254.38 267.337 253.937 267.033 253.33C266.729 252.697 266.565 251.887 266.539 250.9H267.147C266.97 251.76 266.539 252.545 265.856 253.254C265.198 253.937 264.363 254.481 263.35 254.886C262.338 255.266 261.249 255.456 260.085 255.456ZM260.389 252.646C261.756 252.646 262.895 252.418 263.806 251.963C264.717 251.482 265.4 250.824 265.856 249.989C266.311 249.128 266.539 248.141 266.539 247.027V245.281L260.389 246.496C259.022 246.749 258.073 247.141 257.541 247.673C257.01 248.179 256.744 248.85 256.744 249.685C256.744 250.621 257.06 251.355 257.693 251.887C258.351 252.393 259.25 252.646 260.389 252.646ZM306.678 255V243.99L298.401 228.044H302.122L308.272 240.649L314.423 228.044H318.143L309.943 243.99V255H306.678Z" fill="#F5F5F5" fill-opacity="0.7"/>
<rect y="309" width="67" height="67" fill="#B52323"/>
<path d="M57 326.44L50.5599 320L33.9999 336.56L17.44 320L11 326.44L27.56 343L11 359.56L17.44 366L33.9999 349.44L50.5599 366L57 359.56L40.44 343L57 326.44Z" fill="#710F0F"/>
<path d="M95.4169 355V328.044H103.618C105.491 328.044 107.123 328.373 108.515 329.031C109.907 329.689 110.983 330.639 111.742 331.879C112.502 333.094 112.881 334.562 112.881 336.283C112.881 338.004 112.502 339.485 111.742 340.725C110.983 341.94 109.907 342.876 108.515 343.534C107.123 344.192 105.491 344.521 103.618 344.521H98.682V355H95.4169ZM98.682 341.332H103.238C105.364 341.332 106.933 340.902 107.946 340.041C108.958 339.156 109.464 337.903 109.464 336.283C109.464 334.638 108.958 333.385 107.946 332.524C106.933 331.664 105.364 331.233 103.238 331.233H98.682V341.332ZM123.421 355V334.878H126.079L126.382 339.966L126.079 339.89C126.332 338.168 126.876 336.903 127.711 336.093C128.572 335.283 129.711 334.878 131.128 334.878H135.266V337.763H131.166C130.179 337.763 129.344 337.966 128.66 338.371C128.002 338.751 127.496 339.32 127.142 340.079C126.787 340.813 126.61 341.737 126.61 342.851V355H123.421ZM118.182 355V352.191H132.988V355H118.182ZM118.182 337.688V334.878H125.167V337.688H118.182ZM148.919 355.456C147.072 355.456 145.452 355.025 144.06 354.165C142.693 353.304 141.63 352.089 140.87 350.52C140.111 348.925 139.731 347.065 139.731 344.939C139.731 342.788 140.111 340.927 140.87 339.358C141.63 337.789 142.693 336.574 144.06 335.713C145.452 334.853 147.072 334.422 148.919 334.422C150.767 334.422 152.374 334.853 153.741 335.713C155.133 336.574 156.209 337.789 156.968 339.358C157.727 340.927 158.107 342.788 158.107 344.939C158.107 347.065 157.727 348.925 156.968 350.52C156.209 352.089 155.133 353.304 153.741 354.165C152.374 355.025 150.767 355.456 148.919 355.456ZM148.919 352.418C150.767 352.418 152.197 351.76 153.209 350.444C154.247 349.103 154.766 347.268 154.766 344.939C154.766 342.61 154.247 340.788 153.209 339.472C152.197 338.13 150.767 337.46 148.919 337.46C147.072 337.46 145.629 338.13 144.591 339.472C143.579 340.788 143.072 342.61 143.072 344.939C143.072 347.268 143.579 349.103 144.591 350.444C145.629 351.76 147.072 352.418 148.919 352.418ZM172.937 355.456C171.545 355.456 170.304 355.152 169.216 354.544C168.128 353.912 167.292 353.051 166.71 351.963L166.596 355H163.711V328.044H166.9V337.688C167.406 336.852 168.191 336.106 169.254 335.448C170.317 334.764 171.545 334.422 172.937 334.422C174.708 334.422 176.24 334.853 177.531 335.713C178.821 336.574 179.809 337.789 180.492 339.358C181.201 340.927 181.555 342.788 181.555 344.939C181.555 347.09 181.201 348.951 180.492 350.52C179.809 352.089 178.821 353.304 177.531 354.165C176.24 355.025 174.708 355.456 172.937 355.456ZM172.747 352.418C174.443 352.418 175.772 351.748 176.733 350.406C177.72 349.065 178.214 347.242 178.214 344.939C178.214 342.61 177.72 340.788 176.733 339.472C175.772 338.13 174.468 337.46 172.823 337.46C171.583 337.46 170.52 337.763 169.634 338.371C168.748 338.953 168.064 339.801 167.584 340.915C167.128 342.028 166.9 343.37 166.9 344.939C166.9 346.458 167.128 347.786 167.584 348.925C168.064 350.039 168.735 350.9 169.596 351.507C170.482 352.115 171.532 352.418 172.747 352.418ZM193.424 355V333.435C193.424 332.625 193.196 331.993 192.74 331.537C192.285 331.081 191.652 330.854 190.842 330.854H186.096V328.044H190.994C192.841 328.044 194.233 328.525 195.17 329.487C196.132 330.423 196.613 331.815 196.613 333.663V355H193.424ZM185.337 355V352.191H203.56V355H185.337ZM217.555 355.456C215.657 355.456 214.011 355.025 212.619 354.165C211.253 353.304 210.19 352.089 209.43 350.52C208.696 348.925 208.329 347.065 208.329 344.939C208.329 342.813 208.696 340.965 209.43 339.396C210.19 337.827 211.24 336.612 212.581 335.751C213.948 334.865 215.555 334.422 217.403 334.422C219.15 334.422 220.693 334.84 222.035 335.675C223.376 336.485 224.427 337.675 225.186 339.244C225.945 340.813 226.325 342.724 226.325 344.977V345.926H211.67C211.797 348.078 212.366 349.697 213.379 350.786C214.416 351.874 215.809 352.418 217.555 352.418C218.871 352.418 219.947 352.115 220.782 351.507C221.643 350.874 222.237 350.052 222.566 349.039L225.983 349.305C225.452 351.102 224.439 352.583 222.946 353.747C221.478 354.886 219.681 355.456 217.555 355.456ZM211.67 343.117H222.832C222.68 341.168 222.111 339.738 221.124 338.827C220.137 337.915 218.896 337.46 217.403 337.46C215.859 337.46 214.581 337.941 213.569 338.902C212.581 339.839 211.949 341.244 211.67 343.117ZM230.107 355V334.878H233.03L233.144 339.358L232.764 339.282C232.992 337.789 233.473 336.612 234.207 335.751C234.966 334.865 235.928 334.422 237.093 334.422C238.282 334.422 239.193 334.853 239.826 335.713C240.484 336.574 240.889 337.839 241.041 339.51H240.661C240.889 337.941 241.395 336.7 242.18 335.789C242.99 334.878 244.002 334.422 245.217 334.422C246.837 334.422 248.014 334.979 248.748 336.093C249.482 337.207 249.849 339.054 249.849 341.636V355H246.66V342.092C246.66 340.295 246.47 339.042 246.091 338.333C245.711 337.599 245.116 337.232 244.306 337.232C243.775 337.232 243.306 337.409 242.901 337.763C242.496 338.093 242.167 338.624 241.914 339.358C241.686 340.092 241.573 341.029 241.573 342.168V355H238.383V342.092C238.383 340.37 238.194 339.13 237.814 338.371C237.46 337.612 236.865 337.232 236.03 337.232C235.498 337.232 235.03 337.409 234.625 337.763C234.22 338.093 233.891 338.624 233.638 339.358C233.41 340.092 233.296 341.029 233.296 342.168V355H230.107ZM260.085 355.456C258.82 355.456 257.681 355.228 256.668 354.772C255.656 354.317 254.858 353.684 254.276 352.874C253.694 352.039 253.403 351.077 253.403 349.989C253.403 348.267 253.909 346.939 254.922 346.002C255.959 345.04 257.579 344.344 259.781 343.914L266.539 342.547C266.539 340.826 266.147 339.548 265.362 338.713C264.603 337.877 263.502 337.46 262.059 337.46C260.667 337.46 259.579 337.776 258.794 338.409C258.01 339.016 257.465 339.902 257.162 341.067L253.783 340.801C254.162 338.902 255.061 337.371 256.478 336.207C257.921 335.017 259.781 334.422 262.059 334.422C264.489 334.422 266.375 335.156 267.716 336.625C269.058 338.067 269.728 340.067 269.728 342.623V350.976C269.728 351.431 269.83 351.748 270.032 351.925C270.235 352.102 270.538 352.191 270.943 352.191H272.234V355C272.082 355.025 271.842 355.038 271.513 355.038C271.184 355.063 270.867 355.076 270.564 355.076C269.703 355.076 268.969 354.937 268.362 354.658C267.779 354.38 267.337 353.937 267.033 353.33C266.729 352.697 266.565 351.887 266.539 350.9H267.147C266.97 351.76 266.539 352.545 265.856 353.254C265.198 353.937 264.363 354.481 263.35 354.886C262.338 355.266 261.249 355.456 260.085 355.456ZM260.389 352.646C261.756 352.646 262.895 352.418 263.806 351.963C264.717 351.482 265.4 350.824 265.856 349.989C266.311 349.128 266.539 348.141 266.539 347.027V345.281L260.389 346.496C259.022 346.749 258.073 347.141 257.541 347.673C257.01 348.179 256.744 348.85 256.744 349.685C256.744 350.621 257.06 351.355 257.693 351.887C258.351 352.393 259.25 352.646 260.389 352.646ZM306.678 355V343.99L298.401 328.044H302.122L308.272 340.649L314.423 328.044H318.143L309.943 343.99V355H306.678Z" fill="#F5F5F5" fill-opacity="0.7"/>
<rect y="409" width="67" height="67" fill="#B52323"/>
<path d="M57 426.44L50.5599 420L33.9999 436.56L17.44 420L11 426.44L27.56 443L11 459.56L17.44 466L33.9999 449.44L50.5599 466L57 459.56L40.44 443L57 426.44Z" fill="#710F0F"/>
<path d="M95.4169 455V428.044H103.618C105.491 428.044 107.123 428.373 108.515 429.031C109.907 429.689 110.983 430.639 111.742 431.879C112.502 433.094 112.881 434.562 112.881 436.283C112.881 438.004 112.502 439.485 111.742 440.725C110.983 441.94 109.907 442.876 108.515 443.534C107.123 444.192 105.491 444.521 103.618 444.521H98.682V455H95.4169ZM98.682 441.332H103.238C105.364 441.332 106.933 440.902 107.946 440.041C108.958 439.156 109.464 437.903 109.464 436.283C109.464 434.638 108.958 433.385 107.946 432.524C106.933 431.664 105.364 431.233 103.238 431.233H98.682V441.332ZM123.421 455V434.878H126.079L126.382 439.966L126.079 439.89C126.332 438.168 126.876 436.903 127.711 436.093C128.572 435.283 129.711 434.878 131.128 434.878H135.266V437.763H131.166C130.179 437.763 129.344 437.966 128.66 438.371C128.002 438.751 127.496 439.32 127.142 440.079C126.787 440.813 126.61 441.737 126.61 442.851V455H123.421ZM118.182 455V452.191H132.988V455H118.182ZM118.182 437.688V434.878H125.167V437.688H118.182ZM148.919 455.456C147.072 455.456 145.452 455.025 144.06 454.165C142.693 453.304 141.63 452.089 140.87 450.52C140.111 448.925 139.731 447.065 139.731 444.939C139.731 442.788 140.111 440.927 140.87 439.358C141.63 437.789 142.693 436.574 144.06 435.713C145.452 434.853 147.072 434.422 148.919 434.422C150.767 434.422 152.374 434.853 153.741 435.713C155.133 436.574 156.209 437.789 156.968 439.358C157.727 440.927 158.107 442.788 158.107 444.939C158.107 447.065 157.727 448.925 156.968 450.52C156.209 452.089 155.133 453.304 153.741 454.165C152.374 455.025 150.767 455.456 148.919 455.456ZM148.919 452.418C150.767 452.418 152.197 451.76 153.209 450.444C154.247 449.103 154.766 447.268 154.766 444.939C154.766 442.61 154.247 440.788 153.209 439.472C152.197 438.13 150.767 437.46 148.919 437.46C147.072 437.46 145.629 438.13 144.591 439.472C143.579 440.788 143.072 442.61 143.072 444.939C143.072 447.268 143.579 449.103 144.591 450.444C145.629 451.76 147.072 452.418 148.919 452.418ZM172.937 455.456C171.545 455.456 170.304 455.152 169.216 454.544C168.128 453.912 167.292 453.051 166.71 451.963L166.596 455H163.711V428.044H166.9V437.688C167.406 436.852 168.191 436.106 169.254 435.448C170.317 434.764 171.545 434.422 172.937 434.422C174.708 434.422 176.24 434.853 177.531 435.713C178.821 436.574 179.809 437.789 180.492 439.358C181.201 440.927 181.555 442.788 181.555 444.939C181.555 447.09 181.201 448.951 180.492 450.52C179.809 452.089 178.821 453.304 177.531 454.165C176.24 455.025 174.708 455.456 172.937 455.456ZM172.747 452.418C174.443 452.418 175.772 451.748 176.733 450.406C177.72 449.065 178.214 447.242 178.214 444.939C178.214 442.61 177.72 440.788 176.733 439.472C175.772 438.13 174.468 437.46 172.823 437.46C171.583 437.46 170.52 437.763 169.634 438.371C168.748 438.953 168.064 439.801 167.584 440.915C167.128 442.028 166.9 443.37 166.9 444.939C166.9 446.458 167.128 447.786 167.584 448.925C168.064 450.039 168.735 450.9 169.596 451.507C170.482 452.115 171.532 452.418 172.747 452.418ZM193.424 455V433.435C193.424 432.625 193.196 431.993 192.74 431.537C192.285 431.081 191.652 430.854 190.842 430.854H186.096V428.044H190.994C192.841 428.044 194.233 428.525 195.17 429.487C196.132 430.423 196.613 431.815 196.613 433.663V455H193.424ZM185.337 455V452.191H203.56V455H185.337ZM217.555 455.456C215.657 455.456 214.011 455.025 212.619 454.165C211.253 453.304 210.19 452.089 209.43 450.52C208.696 448.925 208.329 447.065 208.329 444.939C208.329 442.813 208.696 440.965 209.43 439.396C210.19 437.827 211.24 436.612 212.581 435.751C213.948 434.865 215.555 434.422 217.403 434.422C219.15 434.422 220.693 434.84 222.035 435.675C223.376 436.485 224.427 437.675 225.186 439.244C225.945 440.813 226.325 442.724 226.325 444.977V445.926H211.67C211.797 448.078 212.366 449.697 213.379 450.786C214.416 451.874 215.809 452.418 217.555 452.418C218.871 452.418 219.947 452.115 220.782 451.507C221.643 450.874 222.237 450.052 222.566 449.039L225.983 449.305C225.452 451.102 224.439 452.583 222.946 453.747C221.478 454.886 219.681 455.456 217.555 455.456ZM211.67 443.117H222.832C222.68 441.168 222.111 439.738 221.124 438.827C220.137 437.915 218.896 437.46 217.403 437.46C215.859 437.46 214.581 437.941 213.569 438.902C212.581 439.839 211.949 441.244 211.67 443.117ZM230.107 455V434.878H233.03L233.144 439.358L232.764 439.282C232.992 437.789 233.473 436.612 234.207 435.751C234.966 434.865 235.928 434.422 237.093 434.422C238.282 434.422 239.193 434.853 239.826 435.713C240.484 436.574 240.889 437.839 241.041 439.51H240.661C240.889 437.941 241.395 436.7 242.18 435.789C242.99 434.878 244.002 434.422 245.217 434.422C246.837 434.422 248.014 434.979 248.748 436.093C249.482 437.207 249.849 439.054 249.849 441.636V455H246.66V442.092C246.66 440.295 246.47 439.042 246.091 438.333C245.711 437.599 245.116 437.232 244.306 437.232C243.775 437.232 243.306 437.409 242.901 437.763C242.496 438.093 242.167 438.624 241.914 439.358C241.686 440.092 241.573 441.029 241.573 442.168V455H238.383V442.092C238.383 440.37 238.194 439.13 237.814 438.371C237.46 437.612 236.865 437.232 236.03 437.232C235.498 437.232 235.03 437.409 234.625 437.763C234.22 438.093 233.891 438.624 233.638 439.358C233.41 440.092 233.296 441.029 233.296 442.168V455H230.107ZM260.085 455.456C258.82 455.456 257.681 455.228 256.668 454.772C255.656 454.317 254.858 453.684 254.276 452.874C253.694 452.039 253.403 451.077 253.403 449.989C253.403 448.267 253.909 446.939 254.922 446.002C255.959 445.04 257.579 444.344 259.781 443.914L266.539 442.547C266.539 440.826 266.147 439.548 265.362 438.713C264.603 437.877 263.502 437.46 262.059 437.46C260.667 437.46 259.579 437.776 258.794 438.409C258.01 439.016 257.465 439.902 257.162 441.067L253.783 440.801C254.162 438.902 255.061 437.371 256.478 436.207C257.921 435.017 259.781 434.422 262.059 434.422C264.489 434.422 266.375 435.156 267.716 436.625C269.058 438.067 269.728 440.067 269.728 442.623V450.976C269.728 451.431 269.83 451.748 270.032 451.925C270.235 452.102 270.538 452.191 270.943 452.191H272.234V455C272.082 455.025 271.842 455.038 271.513 455.038C271.184 455.063 270.867 455.076 270.564 455.076C269.703 455.076 268.969 454.937 268.362 454.658C267.779 454.38 267.337 453.937 267.033 453.33C266.729 452.697 266.565 451.887 266.539 450.9H267.147C266.97 451.76 266.539 452.545 265.856 453.254C265.198 453.937 264.363 454.481 263.35 454.886C262.338 455.266 261.249 455.456 260.085 455.456ZM260.389 452.646C261.756 452.646 262.895 452.418 263.806 451.963C264.717 451.482 265.4 450.824 265.856 449.989C266.311 449.128 266.539 448.141 266.539 447.027V445.281L260.389 446.496C259.022 446.749 258.073 447.141 257.541 447.673C257.01 448.179 256.744 448.85 256.744 449.685C256.744 450.621 257.06 451.355 257.693 451.887C258.351 452.393 259.25 452.646 260.389 452.646ZM306.678 455V443.99L298.401 428.044H302.122L308.272 440.649L314.423 428.044H318.143L309.943 443.99V455H306.678Z" fill="#F5F5F5" fill-opacity="0.7"/>
<rect y="509" width="67" height="67" fill="#B52323"/>
<path d="M57 526.44L50.5599 520L33.9999 536.56L17.44 520L11 526.44L27.56 543L11 559.56L17.44 566L33.9999 549.44L50.5599 566L57 559.56L40.44 543L57 526.44Z" fill="#710F0F"/>
<path d="M95.4169 555V528.044H103.618C105.491 528.044 107.123 528.373 108.515 529.031C109.907 529.689 110.983 530.639 111.742 531.879C112.502 533.094 112.881 534.562 112.881 536.283C112.881 538.004 112.502 539.485 111.742 540.725C110.983 541.94 109.907 542.876 108.515 543.534C107.123 544.192 105.491 544.521 103.618 544.521H98.682V555H95.4169ZM98.682 541.332H103.238C105.364 541.332 106.933 540.902 107.946 540.041C108.958 539.156 109.464 537.903 109.464 536.283C109.464 534.638 108.958 533.385 107.946 532.524C106.933 531.664 105.364 531.233 103.238 531.233H98.682V541.332ZM123.421 555V534.878H126.079L126.382 539.966L126.079 539.89C126.332 538.168 126.876 536.903 127.711 536.093C128.572 535.283 129.711 534.878 131.128 534.878H135.266V537.763H131.166C130.179 537.763 129.344 537.966 128.66 538.371C128.002 538.751 127.496 539.32 127.142 540.079C126.787 540.813 126.61 541.737 126.61 542.851V555H123.421ZM118.182 555V552.191H132.988V555H118.182ZM118.182 537.688V534.878H125.167V537.688H118.182ZM148.919 555.456C147.072 555.456 145.452 555.025 144.06 554.165C142.693 553.304 141.63 552.089 140.87 550.52C140.111 548.925 139.731 547.065 139.731 544.939C139.731 542.788 140.111 540.927 140.87 539.358C141.63 537.789 142.693 536.574 144.06 535.713C145.452 534.853 147.072 534.422 148.919 534.422C150.767 534.422 152.374 534.853 153.741 535.713C155.133 536.574 156.209 537.789 156.968 539.358C157.727 540.927 158.107 542.788 158.107 544.939C158.107 547.065 157.727 548.925 156.968 550.52C156.209 552.089 155.133 553.304 153.741 554.165C152.374 555.025 150.767 555.456 148.919 555.456ZM148.919 552.418C150.767 552.418 152.197 551.76 153.209 550.444C154.247 549.103 154.766 547.268 154.766 544.939C154.766 542.61 154.247 540.788 153.209 539.472C152.197 538.13 150.767 537.46 148.919 537.46C147.072 537.46 145.629 538.13 144.591 539.472C143.579 540.788 143.072 542.61 143.072 544.939C143.072 547.268 143.579 549.103 144.591 550.444C145.629 551.76 147.072 552.418 148.919 552.418ZM172.937 555.456C171.545 555.456 170.304 555.152 169.216 554.544C168.128 553.912 167.292 553.051 166.71 551.963L166.596 555H163.711V528.044H166.9V537.688C167.406 536.852 168.191 536.106 169.254 535.448C170.317 534.764 171.545 534.422 172.937 534.422C174.708 534.422 176.24 534.853 177.531 535.713C178.821 536.574 179.809 537.789 180.492 539.358C181.201 540.927 181.555 542.788 181.555 544.939C181.555 547.09 181.201 548.951 180.492 550.52C179.809 552.089 178.821 553.304 177.531 554.165C176.24 555.025 174.708 555.456 172.937 555.456ZM172.747 552.418C174.443 552.418 175.772 551.748 176.733 550.406C177.72 549.065 178.214 547.242 178.214 544.939C178.214 542.61 177.72 540.788 176.733 539.472C175.772 538.13 174.468 537.46 172.823 537.46C171.583 537.46 170.52 537.763 169.634 538.371C168.748 538.953 168.064 539.801 167.584 540.915C167.128 542.028 166.9 543.37 166.9 544.939C166.9 546.458 167.128 547.786 167.584 548.925C168.064 550.039 168.735 550.9 169.596 551.507C170.482 552.115 171.532 552.418 172.747 552.418ZM193.424 555V533.435C193.424 532.625 193.196 531.993 192.74 531.537C192.285 531.081 191.652 530.854 190.842 530.854H186.096V528.044H190.994C192.841 528.044 194.233 528.525 195.17 529.487C196.132 530.423 196.613 531.815 196.613 533.663V555H193.424ZM185.337 555V552.191H203.56V555H185.337ZM217.555 555.456C215.657 555.456 214.011 555.025 212.619 554.165C211.253 553.304 210.19 552.089 209.43 550.52C208.696 548.925 208.329 547.065 208.329 544.939C208.329 542.813 208.696 540.965 209.43 539.396C210.19 537.827 211.24 536.612 212.581 535.751C213.948 534.865 215.555 534.422 217.403 534.422C219.15 534.422 220.693 534.84 222.035 535.675C223.376 536.485 224.427 537.675 225.186 539.244C225.945 540.813 226.325 542.724 226.325 544.977V545.926H211.67C211.797 548.078 212.366 549.697 213.379 550.786C214.416 551.874 215.809 552.418 217.555 552.418C218.871 552.418 219.947 552.115 220.782 551.507C221.643 550.874 222.237 550.052 222.566 549.039L225.983 549.305C225.452 551.102 224.439 552.583 222.946 553.747C221.478 554.886 219.681 555.456 217.555 555.456ZM211.67 543.117H222.832C222.68 541.168 222.111 539.738 221.124 538.827C220.137 537.915 218.896 537.46 217.403 537.46C215.859 537.46 214.581 537.941 213.569 538.902C212.581 539.839 211.949 541.244 211.67 543.117ZM230.107 555V534.878H233.03L233.144 539.358L232.764 539.282C232.992 537.789 233.473 536.612 234.207 535.751C234.966 534.865 235.928 534.422 237.093 534.422C238.282 534.422 239.193 534.853 239.826 535.713C240.484 536.574 240.889 537.839 241.041 539.51H240.661C240.889 537.941 241.395 536.7 242.18 535.789C242.99 534.878 244.002 534.422 245.217 534.422C246.837 534.422 248.014 534.979 248.748 536.093C249.482 537.207 249.849 539.054 249.849 541.636V555H246.66V542.092C246.66 540.295 246.47 539.042 246.091 538.333C245.711 537.599 245.116 537.232 244.306 537.232C243.775 537.232 243.306 537.409 242.901 537.763C242.496 538.093 242.167 538.624 241.914 539.358C241.686 540.092 241.573 541.029 241.573 542.168V555H238.383V542.092C238.383 540.37 238.194 539.13 237.814 538.371C237.46 537.612 236.865 537.232 236.03 537.232C235.498 537.232 235.03 537.409 234.625 537.763C234.22 538.093 233.891 538.624 233.638 539.358C233.41 540.092 233.296 541.029 233.296 542.168V555H230.107ZM260.085 555.456C258.82 555.456 257.681 555.228 256.668 554.772C255.656 554.317 254.858 553.684 254.276 552.874C253.694 552.039 253.403 551.077 253.403 549.989C253.403 548.267 253.909 546.939 254.922 546.002C255.959 545.04 257.579 544.344 259.781 543.914L266.539 542.547C266.539 540.826 266.147 539.548 265.362 538.713C264.603 537.877 263.502 537.46 262.059 537.46C260.667 537.46 259.579 537.776 258.794 538.409C258.01 539.016 257.465 539.902 257.162 541.067L253.783 540.801C254.162 538.902 255.061 537.371 256.478 536.207C257.921 535.017 259.781 534.422 262.059 534.422C264.489 534.422 266.375 535.156 267.716 536.625C269.058 538.067 269.728 540.067 269.728 542.623V550.976C269.728 551.431 269.83 551.748 270.032 551.925C270.235 552.102 270.538 552.191 270.943 552.191H272.234V555C272.082 555.025 271.842 555.038 271.513 555.038C271.184 555.063 270.867 555.076 270.564 555.076C269.703 555.076 268.969 554.937 268.362 554.658C267.779 554.38 267.337 553.937 267.033 553.33C266.729 552.697 266.565 551.887 266.539 550.9H267.147C266.97 551.76 266.539 552.545 265.856 553.254C265.198 553.937 264.363 554.481 263.35 554.886C262.338 555.266 261.249 555.456 260.085 555.456ZM260.389 552.646C261.756 552.646 262.895 552.418 263.806 551.963C264.717 551.482 265.4 550.824 265.856 549.989C266.311 549.128 266.539 548.141 266.539 547.027V545.281L260.389 546.496C259.022 546.749 258.073 547.141 257.541 547.673C257.01 548.179 256.744 548.85 256.744 549.685C256.744 550.621 257.06 551.355 257.693 551.887C258.351 552.393 259.25 552.646 260.389 552.646ZM306.678 555V543.99L298.401 528.044H302.122L308.272 540.649L314.423 528.044H318.143L309.943 543.99V555H306.678Z" fill="#F5F5F5" fill-opacity="0.7"/>
</svg>
