<svg width="879" height="282" viewBox="0 0 879 282" fill="none" xmlns="http://www.w3.org/2000/svg">
<path d="M210.741 128.411L267 128.406C265.183 132.007 260.83 138.698 258.559 142.469L240.417 172.586C222.562 202.37 204.505 232.934 186.281 262.445C182.608 268.703 178.86 274.917 175.039 281.087L148.663 231.941C150.275 228.738 153.944 222.994 155.889 219.747L170.486 195.424C183.782 173.252 197.164 150.358 210.741 128.411Z" fill="white"/>
<path d="M128.778 76.8404C134.249 76.5426 141.113 76.7816 146.721 76.7928L178.943 76.8135L218.666 76.8025C226.001 76.7975 234.063 76.6028 241.333 76.8772C238.05 82.2238 212.083 126.623 210.208 128.101C196.053 128.299 181.513 128.13 167.327 128.14L97.5213 128.15C100.207 123.885 127.223 77.9265 128.778 76.8404Z" fill="white"/>
<path d="M56.2588 152.676L0 152.681C1.81746 149.08 6.17003 142.389 8.44117 138.618L26.5828 108.5C44.4384 78.7172 62.4948 48.1531 80.7188 18.6421C84.3922 12.3841 88.1399 6.17006 91.9607 4.57764e-05L118.337 49.1457C116.725 52.3489 113.056 58.0927 111.111 61.34L96.5145 85.6626C83.2182 107.835 69.8361 130.729 56.2588 152.676Z" fill="white"/>
<path d="M138.222 204.246C132.751 204.544 125.887 204.305 120.279 204.294L88.0574 204.273L48.3345 204.284C40.9987 204.289 32.937 204.484 25.6672 204.21C28.9502 198.863 54.917 154.464 56.7922 152.986C70.9469 152.788 85.4866 152.956 99.6732 152.947L169.479 152.937C166.794 157.202 139.777 203.16 138.222 204.246Z" fill="white"/>
<path d="M320.948 146.513C314.461 141.718 310.936 134.526 310.372 124.937H322.781C323.345 131.283 325.743 135.796 329.973 138.616C334.204 141.436 340.409 142.847 348.588 142.847C365.228 142.847 373.689 137.347 373.689 126.065C373.689 121.271 371.997 117.463 368.895 114.784C365.651 112.245 360.715 110.553 354.088 109.707L340.973 108.156C322.076 105.9 312.628 97.1564 312.628 82.0673C312.628 73.3242 315.73 66.5552 322.217 61.7606C328.563 56.9659 337.306 54.4276 348.447 54.4276C359.164 54.4276 367.625 56.8249 373.83 61.4785C380.035 66.1322 383.561 73.0421 384.548 82.0673H372.138C371.574 76.4266 369.459 72.337 365.651 69.5166C361.703 66.6963 356.062 65.2861 348.447 65.2861C340.691 65.2861 334.909 66.6963 330.96 69.3756C327.012 72.196 325.038 76.1445 325.038 81.2212C325.038 85.7338 326.448 89.2593 329.55 91.7977C332.653 94.336 337.447 96.0282 343.934 96.8744L357.613 98.4256C376.792 100.964 386.381 109.989 386.381 125.219C386.381 134.385 382.996 141.436 376.228 146.372C369.459 151.449 360.01 153.846 348.024 153.846C336.319 153.846 327.294 151.449 320.948 146.513ZM408.426 119.86V120.425C408.426 136.078 415.618 143.834 430.284 143.834C435.784 143.834 440.014 142.565 443.117 140.026C446.219 137.488 447.771 134.103 447.912 130.155V129.732H459.757V130.296C459.616 134.809 458.347 138.898 455.95 142.565C453.552 146.231 450.168 149.051 445.655 151.167C441.143 153.282 435.925 154.269 430.002 154.269C419.426 154.269 411.247 151.449 405.324 145.526C399.401 139.603 396.44 131.001 396.44 119.719V113.938C396.44 102.938 399.26 94.336 404.901 88.4132C410.541 82.4904 418.298 79.388 428.451 79.388C438.322 79.388 446.078 82.2084 451.719 87.7081C457.36 93.2079 460.18 101.105 460.18 111.399V119.86H408.426ZM414.067 95.1821C410.683 98.5666 408.708 103.784 408.426 110.835H448.194V109.566C448.194 103.079 446.36 98.1435 442.976 94.9001C439.591 91.6567 434.656 89.9644 428.451 89.9644C422.246 89.9644 417.451 91.7977 414.067 95.1821ZM492.725 89.8234V131.565C492.725 135.514 493.571 138.334 495.404 140.026C497.096 141.718 500.058 142.565 504.288 142.565H510.352V153H502.314C487.93 153 480.738 146.09 480.738 132.27V89.8234H468.046V80.7982H480.738V65.145L492.725 60.2094V80.7982H511.903V89.8234H492.725ZM543.606 89.8234V131.565C543.606 135.514 544.452 138.334 546.286 140.026C547.978 141.718 550.939 142.565 555.17 142.565H561.234V153H553.196C538.812 153 531.62 146.09 531.62 132.27V89.8234H518.928V80.7982H531.62V65.145L543.606 60.2094V80.7982H562.785V89.8234H543.606ZM584.069 119.86V120.425C584.069 136.078 591.261 143.834 605.927 143.834C611.427 143.834 615.657 142.565 618.76 140.026C621.862 137.488 623.413 134.103 623.554 130.155V129.732H635.4V130.296C635.259 134.809 633.99 138.898 631.592 142.565C629.195 146.231 625.811 149.051 621.298 151.167C616.785 153.282 611.568 154.269 605.645 154.269C595.068 154.269 586.889 151.449 580.966 145.526C575.044 139.603 572.082 131.001 572.082 119.719V113.938C572.082 102.938 574.903 94.336 580.543 88.4132C586.184 82.4904 593.94 79.388 604.094 79.388C613.965 79.388 621.721 82.2084 627.362 87.7081C633.003 93.2079 635.823 101.105 635.823 111.399V119.86H584.069ZM589.71 95.1821C586.325 98.5666 584.351 103.784 584.069 110.835H623.836V109.566C623.836 103.079 622.003 98.1435 618.619 94.9001C615.234 91.6567 610.298 89.9644 604.094 89.9644C597.889 89.9644 593.094 91.7977 589.71 95.1821ZM678.754 55.6968H691.587V153H678.754V55.6968ZM770.279 131.001H722.615L713.872 153H700.475L741.088 55.6968H751.947L792.701 153H779.163L770.279 131.001ZM765.908 120.143L746.447 71.4909L726.986 120.143H765.908Z" fill="#F5F5F5"/>
<path d="M306.774 205.775L313.209 184.626H316.664L323.098 205.775H320.357L314.936 186.95L309.515 205.775H306.774ZM310.021 199.758L310.915 197.256H318.957L319.851 199.758H310.021ZM344.057 206.252C342.567 206.252 341.237 205.845 340.065 205.031C338.913 204.197 338 202.965 337.325 201.337C336.649 199.689 336.312 197.653 336.312 195.231C336.312 192.947 336.62 190.981 337.235 189.333C337.871 187.685 338.774 186.414 339.946 185.52C341.118 184.607 342.527 184.15 344.176 184.15C345.467 184.15 346.608 184.438 347.601 185.014C348.614 185.59 349.458 186.394 350.133 187.426C350.808 188.439 351.295 189.611 351.593 190.941L348.912 191.12C348.574 189.809 348.008 188.737 347.214 187.903C346.44 187.069 345.427 186.652 344.176 186.652C343.084 186.652 342.15 186.99 341.376 187.665C340.601 188.32 340.006 189.293 339.588 190.584C339.191 191.855 338.993 193.404 338.993 195.231C338.993 197.038 339.201 198.577 339.618 199.848C340.035 201.119 340.631 202.092 341.406 202.767C342.2 203.422 343.163 203.75 344.295 203.75C345.308 203.75 346.171 203.492 346.886 202.975C347.621 202.439 348.197 201.704 348.614 200.771C349.031 199.818 349.259 198.736 349.299 197.524H344.235V195.082H351.682V205.775H349.299L349.18 200.771L349.895 201.009C349.617 202.022 349.23 202.926 348.733 203.72C348.257 204.514 347.631 205.14 346.857 205.597C346.102 206.034 345.169 206.252 344.057 206.252ZM367.041 205.775V184.626H379.909V187.129H369.602V193.95H379.551V196.392H369.602V203.273H380.147V205.775H367.041ZM395.625 205.775V184.626H399.259L406.765 202.856V184.626H409.327V205.775H405.693L398.187 187.546V205.775H395.625ZM430.375 205.775V187.129H423.911V184.626H439.401V187.129H432.937V205.775H430.375ZM454.581 205.775V184.626H467.449V187.129H457.142V193.95H467.091V196.392H457.142V203.273H467.687V205.775H454.581ZM490.344 206.252C488.854 206.252 487.534 205.944 486.382 205.329C485.23 204.713 484.307 203.869 483.612 202.797C482.917 201.704 482.51 200.443 482.39 199.014L485.071 198.835C485.21 199.887 485.508 200.781 485.965 201.516C486.441 202.251 487.047 202.807 487.782 203.184C488.536 203.561 489.41 203.75 490.403 203.75C491.396 203.75 492.23 203.631 492.905 203.392C493.58 203.134 494.087 202.767 494.424 202.29C494.782 201.794 494.961 201.208 494.961 200.533C494.961 199.858 494.802 199.272 494.484 198.775C494.186 198.259 493.61 197.782 492.756 197.346C491.922 196.909 490.681 196.462 489.033 196.005C487.563 195.588 486.372 195.131 485.458 194.635C484.565 194.138 483.91 193.533 483.493 192.818C483.095 192.103 482.897 191.219 482.897 190.167C482.897 188.975 483.175 187.933 483.731 187.039C484.307 186.126 485.121 185.421 486.173 184.924C487.226 184.408 488.477 184.15 489.927 184.15C491.376 184.15 492.617 184.448 493.65 185.043C494.683 185.619 495.497 186.414 496.093 187.426C496.708 188.439 497.095 189.591 497.254 190.882L494.573 191.06C494.454 190.207 494.206 189.452 493.829 188.797C493.451 188.121 492.935 187.595 492.28 187.218C491.624 186.841 490.82 186.652 489.867 186.652C488.556 186.652 487.514 186.97 486.739 187.605C485.965 188.221 485.578 189.035 485.578 190.048C485.578 190.703 485.717 191.249 485.995 191.686C486.293 192.103 486.809 192.48 487.544 192.818C488.278 193.136 489.311 193.483 490.641 193.86C492.369 194.337 493.739 194.873 494.752 195.469C495.785 196.065 496.519 196.78 496.956 197.614C497.413 198.428 497.641 199.421 497.641 200.592C497.641 201.704 497.334 202.687 496.718 203.541C496.102 204.395 495.249 205.06 494.156 205.537C493.064 206.014 491.793 206.252 490.344 206.252ZM541.823 205.775V203.273H547.095V187.129H541.823V184.626H554.929V187.129H549.657V203.273H554.929V205.775H541.823ZM570.705 205.775V184.626H574.339L581.845 202.856V184.626H584.407V205.775H580.773L573.266 187.546V205.775H570.705ZM605.455 205.775V187.129H598.991V184.626H614.48V187.129H608.017V205.775H605.455ZM629.66 205.775V184.626H642.528V187.129H632.222V193.95H642.171V196.392H632.222V203.273H642.767V205.775H629.66ZM659.138 205.775V184.626H661.7V204.584L660.419 203.273H672.245V205.775H659.138ZM687.722 205.775V203.273H692.995V187.129H687.722V184.626H700.829V187.129H695.556V203.273H700.829V205.775H687.722ZM723.396 206.252C721.907 206.252 720.576 205.845 719.404 205.031C718.253 204.197 717.339 202.965 716.664 201.337C715.989 199.689 715.651 197.653 715.651 195.231C715.651 192.947 715.959 190.981 716.575 189.333C717.21 187.685 718.114 186.414 719.285 185.52C720.457 184.607 721.867 184.15 723.515 184.15C724.806 184.15 725.948 184.438 726.941 185.014C727.953 185.59 728.797 186.394 729.473 187.426C730.148 188.439 730.634 189.611 730.932 190.941L728.251 191.12C727.914 189.809 727.348 188.737 726.553 187.903C725.779 187.069 724.766 186.652 723.515 186.652C722.423 186.652 721.49 186.99 720.715 187.665C719.941 188.32 719.345 189.293 718.928 190.584C718.531 191.855 718.332 193.404 718.332 195.231C718.332 197.038 718.541 198.577 718.958 199.848C719.375 201.119 719.97 202.092 720.745 202.767C721.539 203.422 722.502 203.75 723.634 203.75C724.647 203.75 725.511 203.492 726.226 202.975C726.961 202.439 727.536 201.704 727.953 200.771C728.37 199.818 728.599 198.736 728.639 197.524H723.575V195.082H731.022V205.775H728.639L728.519 200.771L729.234 201.009C728.956 202.022 728.569 202.926 728.073 203.72C727.596 204.514 726.97 205.14 726.196 205.597C725.441 206.034 724.508 206.252 723.396 206.252ZM746.38 205.775V184.626H759.248V187.129H748.942V193.95H758.891V196.392H748.942V203.273H759.487V205.775H746.38ZM774.964 205.775V184.626H778.598L786.105 202.856V184.626H788.667V205.775H785.033L777.526 187.546V205.775H774.964ZM809.715 205.775V187.129H803.251V184.626H818.74V187.129H812.276V205.775H809.715ZM833.92 205.775V184.626H846.788V187.129H836.482V193.95H846.431V196.392H836.482V203.273H847.026V205.775H833.92ZM869.683 206.252C868.194 206.252 866.873 205.944 865.721 205.329C864.569 204.713 863.646 203.869 862.951 202.797C862.256 201.704 861.849 200.443 861.73 199.014L864.411 198.835C864.55 199.887 864.848 200.781 865.304 201.516C865.781 202.251 866.387 202.807 867.121 203.184C867.876 203.561 868.75 203.75 869.743 203.75C870.735 203.75 871.57 203.631 872.245 203.392C872.92 203.134 873.426 202.767 873.764 202.29C874.121 201.794 874.3 201.208 874.3 200.533C874.3 199.858 874.141 199.272 873.823 198.775C873.526 198.259 872.95 197.782 872.096 197.346C871.262 196.909 870.021 196.462 868.372 196.005C866.903 195.588 865.711 195.131 864.798 194.635C863.904 194.138 863.249 193.533 862.832 192.818C862.435 192.103 862.236 191.219 862.236 190.167C862.236 188.975 862.514 187.933 863.07 187.039C863.646 186.126 864.46 185.421 865.513 184.924C866.565 184.408 867.816 184.15 869.266 184.15C870.716 184.15 871.957 184.448 872.989 185.043C874.022 185.619 874.836 186.414 875.432 187.426C876.048 188.439 876.435 189.591 876.594 190.882L873.913 191.06C873.794 190.207 873.545 189.452 873.168 188.797C872.791 188.121 872.274 187.595 871.619 187.218C870.964 186.841 870.16 186.652 869.206 186.652C867.896 186.652 866.853 186.97 866.079 187.605C865.304 188.221 864.917 189.035 864.917 190.048C864.917 190.703 865.056 191.249 865.334 191.686C865.632 192.103 866.148 192.48 866.883 192.818C867.618 193.136 868.65 193.483 869.981 193.86C871.709 194.337 873.079 194.873 874.092 195.469C875.124 196.065 875.859 196.78 876.296 197.614C876.753 198.428 876.981 199.421 876.981 200.592C876.981 201.704 876.673 202.687 876.057 203.541C875.442 204.395 874.588 205.06 873.496 205.537C872.404 206.014 871.133 206.252 869.683 206.252ZM308.681 249.775V228.626H321.549V231.129H311.243V237.95H321.192V240.392H311.243V247.273H321.787V249.775H308.681ZM365.134 249.775L371.568 228.626H375.024L381.458 249.775H378.717L373.296 230.95L367.875 249.775H365.134ZM368.381 243.758L369.275 241.256H377.317L378.211 243.758H368.381ZM402.476 250.252C400.252 250.252 398.504 249.547 397.233 248.137C395.963 246.727 395.327 244.811 395.327 242.388V228.626H397.889V242.388C397.889 244.136 398.276 245.466 399.051 246.38C399.845 247.293 400.987 247.75 402.476 247.75C403.965 247.75 405.097 247.293 405.872 246.38C406.666 245.466 407.063 244.136 407.063 242.388V228.626H409.625V242.388C409.625 244.811 408.99 246.727 407.719 248.137C406.448 249.547 404.7 250.252 402.476 250.252ZM430.375 249.775V231.129H423.911V228.626H439.401V231.129H432.937V249.775H430.375ZM460.836 250.252C459.168 250.252 457.748 249.825 456.576 248.971C455.425 248.117 454.541 246.866 453.925 245.218C453.33 243.57 453.032 241.574 453.032 239.231C453.032 236.848 453.33 234.832 453.925 233.184C454.541 231.536 455.425 230.285 456.576 229.431C457.748 228.577 459.168 228.15 460.836 228.15C462.504 228.15 463.914 228.577 465.066 229.431C466.237 230.285 467.121 231.536 467.717 233.184C468.332 234.832 468.64 236.848 468.64 239.231C468.64 241.574 468.332 243.57 467.717 245.218C467.121 246.866 466.237 248.117 465.066 248.971C463.914 249.825 462.504 250.252 460.836 250.252ZM460.836 247.75C461.928 247.75 462.852 247.432 463.606 246.797C464.381 246.141 464.966 245.178 465.364 243.907C465.761 242.636 465.959 241.077 465.959 239.231C465.959 237.384 465.761 235.825 465.364 234.554C464.966 233.263 464.381 232.29 463.606 231.635C462.852 230.98 461.928 230.652 460.836 230.652C459.744 230.652 458.81 230.98 458.036 231.635C457.281 232.29 456.705 233.263 456.308 234.554C455.911 235.825 455.713 237.384 455.713 239.231C455.713 241.077 455.911 242.636 456.308 243.907C456.705 245.178 457.281 246.141 458.036 246.797C458.81 247.432 459.744 247.75 460.836 247.75ZM488.884 247.392L484.893 231.009H485.131V249.775H482.569V228.626H486.441L490.612 246.022H489.42L493.59 228.626H497.463V249.775H494.901V231.009H495.139L491.148 247.392H488.884ZM511.034 249.775L517.468 228.626H520.924L527.358 249.775H524.617L519.196 230.95L513.775 249.775H511.034ZM514.281 243.758L515.175 241.256H523.217L524.111 243.758H514.281ZM548.435 250.252C546.747 250.252 545.318 249.805 544.146 248.912C542.974 248.018 542.081 246.747 541.465 245.099C540.869 243.451 540.572 241.495 540.572 239.231C540.572 236.947 540.869 234.981 541.465 233.333C542.081 231.685 542.974 230.414 544.146 229.52C545.318 228.607 546.747 228.15 548.435 228.15C550.302 228.15 551.891 228.765 553.201 229.997C554.512 231.208 555.386 232.906 555.823 235.09L553.082 235.269C552.745 233.74 552.159 232.588 551.325 231.814C550.511 231.039 549.547 230.652 548.435 230.652C547.303 230.652 546.35 230.99 545.576 231.665C544.821 232.32 544.245 233.293 543.848 234.584C543.451 235.855 543.252 237.404 543.252 239.231C543.252 241.038 543.451 242.577 543.848 243.848C544.245 245.119 544.821 246.092 545.576 246.767C546.35 247.422 547.303 247.75 548.435 247.75C549.667 247.75 550.709 247.323 551.563 246.469C552.417 245.615 552.993 244.344 553.291 242.656L556.001 242.805C555.624 245.129 554.77 246.956 553.44 248.286C552.109 249.597 550.441 250.252 548.435 250.252ZM548.525 256.329C547.572 256.329 546.807 256.1 546.231 255.643C545.655 255.207 545.258 254.661 545.04 254.005L546.559 253.409C546.738 253.846 546.976 254.164 547.274 254.363C547.572 254.561 547.969 254.661 548.465 254.661C548.982 254.661 549.379 254.551 549.657 254.333C549.935 254.134 550.074 253.846 550.074 253.469C550.074 253.092 549.935 252.774 549.657 252.516C549.379 252.278 548.763 252.158 547.81 252.158L546.976 251.265L548.108 249.478H550.014L549.001 250.848C549.974 250.887 550.689 251.146 551.146 251.622C551.623 252.119 551.861 252.754 551.861 253.529C551.861 254.085 551.712 254.571 551.414 254.988C551.136 255.405 550.749 255.733 550.252 255.971C549.756 256.209 549.18 256.329 548.525 256.329ZM569.394 249.775L575.828 228.626H579.283L585.717 249.775H582.977L577.556 230.95L572.134 249.775H569.394ZM572.641 243.758L573.534 241.256H581.577L582.471 243.758H572.641ZM579.343 226.243C578.966 226.243 578.608 226.164 578.271 226.005C577.933 225.826 577.595 225.608 577.258 225.35C576.92 225.072 576.652 224.873 576.454 224.754C576.255 224.635 576.007 224.575 575.709 224.575C575.352 224.575 575.054 224.714 574.815 224.992C574.577 225.25 574.438 225.737 574.398 226.452H572.849C572.889 225.3 573.177 224.436 573.713 223.86C574.249 223.265 574.915 222.967 575.709 222.967C576.186 222.967 576.593 223.056 576.93 223.235C577.288 223.414 577.635 223.642 577.973 223.92C578.291 224.178 578.559 224.367 578.777 224.486C578.995 224.585 579.224 224.635 579.462 224.635C579.839 224.635 580.127 224.496 580.326 224.218C580.525 223.92 580.654 223.404 580.713 222.669H582.262C582.203 223.801 581.915 224.685 581.398 225.32C580.882 225.936 580.197 226.243 579.343 226.243ZM606.736 250.252C605.068 250.252 603.648 249.825 602.476 248.971C601.324 248.117 600.441 246.866 599.825 245.218C599.229 243.57 598.931 241.574 598.931 239.231C598.931 236.848 599.229 234.832 599.825 233.184C600.441 231.536 601.324 230.285 602.476 229.431C603.648 228.577 605.068 228.15 606.736 228.15C608.404 228.15 609.814 228.577 610.966 229.431C612.137 230.285 613.021 231.536 613.617 233.184C614.232 234.832 614.54 236.848 614.54 239.231C614.54 241.574 614.232 243.57 613.617 245.218C613.021 246.866 612.137 248.117 610.966 248.971C609.814 249.825 608.404 250.252 606.736 250.252ZM606.736 247.75C607.828 247.75 608.751 247.432 609.506 246.797C610.28 246.141 610.866 245.178 611.263 243.907C611.661 242.636 611.859 241.077 611.859 239.231C611.859 237.384 611.661 235.825 611.263 234.554C610.866 233.263 610.28 232.29 609.506 231.635C608.751 230.98 607.828 230.652 606.736 230.652C605.644 230.652 604.71 230.98 603.936 231.635C603.181 232.29 602.605 233.263 602.208 234.554C601.811 235.825 601.612 237.384 601.612 239.231C601.612 241.077 601.811 242.636 602.208 243.907C602.605 245.178 603.181 246.141 603.936 246.797C604.71 247.432 605.644 247.75 606.736 247.75Z" fill="#F5F5F5" fill-opacity="0.7"/>
</svg>
