<svg width="1171" height="1080" viewBox="0 0 1171 1080" fill="none" xmlns="http://www.w3.org/2000/svg">
<path d="M947.152 485.128L1200 485.103C1191.83 501.29 1172.27 531.36 1162.06 548.307L1080.53 683.668C1000.28 817.525 919.125 954.892 837.219 1087.53C820.709 1115.65 803.866 1143.58 786.694 1171.31L668.147 950.431C675.394 936.034 691.885 910.219 700.626 895.625L766.227 786.31C825.986 686.659 886.13 583.764 947.152 485.128Z" fill="white"/>
<path d="M578.779 253.35C603.367 252.011 634.215 253.085 659.422 253.136L982.766 253.179C1015.74 253.157 1051.97 252.282 1084.64 253.515C1069.89 277.545 953.182 477.092 944.754 483.733C881.138 484.625 815.791 483.866 752.031 483.91L438.298 483.955C450.367 464.786 571.788 258.231 578.779 253.35Z" fill="white"/>
<path d="M252.848 594.182L0 594.207C8.16835 578.019 27.7305 547.95 37.9378 531.003L119.473 395.642C199.723 261.785 280.875 124.418 362.781 -8.2157C379.291 -36.3415 396.134 -64.2696 413.306 -92L531.853 128.879C524.606 143.276 508.114 169.09 499.374 183.685L433.773 293C374.014 392.651 313.87 495.546 252.848 594.182Z" fill="white"/>
<path d="M621.221 825.96C596.633 827.299 565.785 826.225 540.578 826.174L217.234 826.131C184.264 826.153 148.032 827.028 115.358 825.795C130.113 801.765 246.818 602.218 255.246 595.577C318.862 594.685 384.209 595.444 447.969 595.4L761.702 595.355C749.633 614.524 628.212 821.079 621.221 825.96Z" fill="white"/>
</svg>
