<svg width="1358" height="302" viewBox="0 0 1358 302" fill="none" xmlns="http://www.w3.org/2000/svg">
<path d="M10.8911 74.5545C6.7022 70.3656 4.60776 63.9985 4.60776 55.537V46.489C4.60776 38.1113 6.7022 31.7442 10.9748 27.4715C15.2475 23.2827 21.1957 21.1044 28.7357 21.1044C36.1081 21.1044 41.9725 23.2827 46.2452 27.4715C50.434 31.7442 52.6123 38.1113 52.6123 46.489V55.537C52.6123 63.9147 50.434 70.2818 46.0776 74.5545C41.7212 78.8271 35.8568 80.9216 28.4006 80.9216C20.8606 80.9216 15.0799 78.8271 10.8911 74.5545ZM41.6374 55.3694V47.0755C41.6374 36.1844 37.281 30.7389 28.7357 30.7389C24.2955 30.7389 21.0281 32.0793 18.8499 34.7602C16.6717 37.441 15.6664 41.5461 15.6664 47.0755V55.3694C15.6664 60.7312 16.6717 64.6687 18.8499 67.182C21.0281 69.7791 24.2955 71.0358 28.7357 71.0358C37.281 71.0358 41.6374 65.8416 41.6374 55.3694ZM116.063 76.1462L122.681 88.294L114.303 92.9017L107.35 80.1676C105.171 80.6702 102.742 80.9216 100.229 80.9216C92.6886 80.9216 86.908 78.8271 82.7191 74.5545C78.5303 70.3656 76.4358 63.9985 76.4358 55.537V46.489C76.4358 38.1113 78.5303 31.7442 82.8029 27.4715C87.0756 23.2827 93.0238 21.1044 100.564 21.1044C107.936 21.1044 113.801 23.2827 118.073 27.4715C122.262 31.7442 124.44 38.1113 124.44 46.489V55.537C124.44 64.9201 121.592 71.7898 116.063 76.1462ZM90.678 67.182C92.8562 69.7791 96.1235 71.0358 100.564 71.0358C109.109 71.0358 113.465 65.8416 113.465 55.3694V47.0755C113.465 36.1844 109.109 30.7389 100.564 30.7389C96.1235 30.7389 92.8562 32.0793 90.678 34.7602C88.4998 37.441 87.4944 41.5461 87.4944 47.0755V55.3694C87.4944 60.7312 88.4998 64.6687 90.678 67.182ZM142.356 77.9056C138.838 76.23 136.073 73.7167 134.146 70.5331C132.219 67.3496 131.298 63.5796 131.298 59.2232V22.1935H142.272V58.8881C142.272 62.8256 143.278 65.8416 145.456 67.8523C147.55 69.9467 150.566 70.952 154.588 70.952C158.525 70.952 161.625 69.9467 163.803 67.8523C165.981 65.8416 167.071 62.8256 167.071 58.8881V22.1935H178.045V59.2232C178.045 63.5796 177.04 67.3496 175.113 70.5331C173.186 73.7167 170.422 76.23 166.903 77.9056C163.384 79.6649 159.279 80.5027 154.588 80.5027C149.896 80.5027 145.875 79.6649 142.356 77.9056ZM197.045 31.7442V46.0701H223.099V55.6208H197.045V70.4494H227.372V80H186.07V22.1935H227.372V31.7442H197.045ZM299.373 22.1935V80H288.398L261.673 41.7137V80H250.698V22.1935H261.673L288.398 60.5636V22.1935H299.373ZM343.291 68.7738H318.744L314.555 80H302.826L326.535 22.1935H335.499L359.208 80H347.479L343.291 68.7738ZM339.856 59.6421L330.975 36.1006L322.179 59.6421H339.856ZM317.655 9.37559C318.995 8.11893 320.168 7.19738 321.341 6.69471C322.514 6.19205 323.854 5.85694 325.362 5.85694C326.535 5.85694 327.624 6.0245 328.63 6.27583C329.551 6.61094 330.64 7.02982 331.897 7.53249C332.986 8.03515 333.908 8.45404 334.745 8.70538C335.499 8.9567 336.337 9.04048 337.342 9.04048C338.515 9.04048 339.521 8.87293 340.526 8.37027C341.447 7.8676 342.704 7.02982 344.38 5.68939V13.3969C343.039 14.7374 341.783 15.6589 340.61 16.1616C339.437 16.6642 338.18 16.9156 336.756 16.9156C335.499 16.9156 334.41 16.8318 333.489 16.4967C332.483 16.1616 331.394 15.7427 330.138 15.1562C329.97 15.1562 329.467 14.9887 328.797 14.6536C328.043 14.3185 327.373 14.1509 326.703 13.9834C326.032 13.8158 325.446 13.732 324.86 13.732C323.687 13.732 322.598 13.9834 321.592 14.486C320.587 14.9887 319.246 15.8265 317.655 16.9993V9.37559ZM366.436 74.5545C362.247 70.3656 360.153 63.9985 360.153 55.537V46.489C360.153 38.1113 362.247 31.7442 366.52 27.4715C370.793 23.2827 376.741 21.1044 384.281 21.1044C391.653 21.1044 397.518 23.2827 401.79 27.4715C405.979 31.7442 408.157 38.1113 408.157 46.489V55.537C408.157 63.9147 405.979 70.2818 401.623 74.5545C397.266 78.8271 391.402 80.9216 383.946 80.9216C376.406 80.9216 370.625 78.8271 366.436 74.5545ZM397.182 55.3694V47.0755C397.182 36.1844 392.826 30.7389 384.281 30.7389C379.84 30.7389 376.573 32.0793 374.395 34.7602C372.217 37.441 371.211 41.5461 371.211 47.0755V55.3694C371.211 60.7312 372.217 64.6687 374.395 67.182C376.573 69.7791 379.84 71.0358 384.281 71.0358C392.826 71.0358 397.182 65.8416 397.182 55.3694ZM443.291 31.7442V46.0701H469.346V55.6208H443.291V70.4494H473.618V80H432.316V22.1935H473.618V31.7442H443.291ZM483.497 75.8949C479.643 72.7951 477.465 68.2712 477.046 62.4067H487.518C487.853 65.5065 489.11 67.7685 491.204 69.1089C493.299 70.4494 496.398 71.1196 500.42 71.1196C508.295 71.1196 512.232 68.5225 512.232 63.3283C512.232 61.0663 511.395 59.307 509.887 58.1341C508.295 56.9612 505.698 56.1234 502.179 55.7045L496.063 54.9505C484.335 53.5263 478.47 48.1646 478.47 38.7815C478.47 33.4197 480.397 29.1471 484.335 26.0473C488.188 22.9475 493.55 21.3558 500.336 21.3558C506.871 21.3558 511.981 22.8638 515.667 25.796C519.354 28.812 521.364 33.0846 521.867 38.6139H511.311C511.06 35.8493 510.054 33.8386 508.211 32.4982C506.368 31.2415 503.687 30.5713 500.085 30.5713C496.398 30.5713 493.718 31.2415 491.875 32.4982C490.031 33.8386 489.11 35.5979 489.11 37.9437C489.11 40.1219 489.864 41.7137 491.539 42.8866C493.131 44.0595 495.728 44.8972 499.331 45.3161L506.284 46.2377C511.73 46.9917 515.919 48.751 518.767 51.4319C521.616 54.1128 523.04 57.799 523.04 62.4905C523.04 68.3549 520.945 72.7951 516.84 75.8949C512.651 78.9947 507.038 80.5027 499.833 80.5027C492.796 80.5027 487.351 78.9947 483.497 75.8949ZM569.989 31.7442H552.647V80H541.672V31.7442H524.33V22.1935H569.989V31.7442ZM604.263 68.7738H579.717L575.528 80H563.799L587.508 22.1935H596.472L620.181 80H608.452L604.263 68.7738ZM600.828 59.6421L591.948 36.1006L583.151 59.6421H600.828ZM591.78 5.35428H604.263L591.11 16.4967H581.727L591.78 5.35428ZM641.392 22.1935H652.367V80H641.392V22.1935ZM709.565 22.1935V80H698.59L671.865 41.7137V80H660.89V22.1935H671.865L698.59 60.5636V22.1935H709.565ZM723.742 74.5545C719.385 70.3656 717.291 63.9985 717.291 55.537V46.489C717.291 38.1113 719.469 31.7442 723.826 27.4715C728.182 23.2827 734.214 21.1044 742.005 21.1044C749.043 21.1044 754.739 22.8638 758.928 26.3824C763.117 29.9011 765.295 34.6764 765.295 40.8759V41.5461H754.321V41.211C754.321 38.0275 753.231 35.4304 751.053 33.5873C748.875 31.7442 745.859 30.7389 742.005 30.7389C737.397 30.7389 733.963 32.0793 731.701 34.7602C729.439 37.441 728.349 41.5461 728.349 47.0755V55.3694C728.349 60.7312 729.439 64.6687 731.784 67.182C734.046 69.7791 737.481 71.0358 742.089 71.0358C745.943 71.0358 748.875 70.198 751.053 68.3549C753.231 66.5118 754.321 63.9985 754.321 60.815V60.3961H765.212V60.815C765.212 67.182 763.117 72.1249 758.928 75.6436C754.739 79.1622 749.043 80.9216 741.921 80.9216C734.13 80.9216 728.098 78.8271 723.742 74.5545ZM772.153 22.1935H783.128V70.4494H812.952V80H772.153V22.1935ZM825.793 77.9056C822.275 76.23 819.51 73.7167 817.583 70.5331C815.656 67.3496 814.735 63.5796 814.735 59.2232V22.1935H825.709V58.8881C825.709 62.8256 826.715 65.8416 828.893 67.8523C830.987 69.9467 834.003 70.952 838.025 70.952C841.962 70.952 845.062 69.9467 847.24 67.8523C849.418 65.8416 850.508 62.8256 850.508 58.8881V22.1935H861.482V59.2232C861.482 63.5796 860.477 67.3496 858.55 70.5331C856.623 73.7167 853.859 76.23 850.34 77.9056C846.821 79.6649 842.716 80.5027 838.025 80.5027C833.333 80.5027 829.312 79.6649 825.793 77.9056ZM873.36 75.8949C869.507 72.7951 867.328 68.2712 866.91 62.4067H877.382C877.717 65.5065 878.974 67.7685 881.068 69.1089C883.162 70.4494 886.262 71.1196 890.284 71.1196C898.159 71.1196 902.096 68.5225 902.096 63.3283C902.096 61.0663 901.258 59.307 899.75 58.1341C898.159 56.9612 895.562 56.1234 892.043 55.7045L885.927 54.9505C874.198 53.5263 868.334 48.1646 868.334 38.7815C868.334 33.4197 870.261 29.1471 874.198 26.0473C878.052 22.9475 883.414 21.3558 890.2 21.3558C896.734 21.3558 901.845 22.8638 905.531 25.796C909.217 28.812 911.228 33.0846 911.731 38.6139H901.175C900.923 35.8493 899.918 33.8386 898.075 32.4982C896.232 31.2415 893.551 30.5713 889.948 30.5713C886.262 30.5713 883.581 31.2415 881.738 32.4982C879.895 33.8386 878.974 35.5979 878.974 37.9437C878.974 40.1219 879.728 41.7137 881.403 42.8866C882.995 44.0595 885.592 44.8972 889.194 45.3161L896.148 46.2377C901.593 46.9917 905.782 48.751 908.631 51.4319C911.479 54.1128 912.903 57.799 912.903 62.4905C912.903 68.3549 910.809 72.7951 906.704 75.8949C902.515 78.9947 896.902 80.5027 889.697 80.5027C882.66 80.5027 877.214 78.9947 873.36 75.8949ZM924.582 74.5545C920.393 70.3656 918.299 63.9985 918.299 55.537V46.489C918.299 38.1113 920.393 31.7442 924.666 27.4715C928.938 23.2827 934.886 21.1044 942.426 21.1044C949.799 21.1044 955.663 23.2827 959.936 27.4715C964.125 31.7442 966.303 38.1113 966.303 46.489V55.537C966.303 63.9147 964.125 70.2818 959.768 74.5545C955.412 78.8271 949.548 80.9216 942.091 80.9216C934.551 80.9216 928.771 78.8271 924.582 74.5545ZM955.328 55.3694V47.0755C955.328 36.1844 950.972 30.7389 942.426 30.7389C937.986 30.7389 934.719 32.0793 932.541 34.7602C930.363 37.441 929.357 41.5461 929.357 47.0755V55.3694C929.357 60.7312 930.363 64.6687 932.541 67.182C934.719 69.7791 937.986 71.0358 942.426 71.0358C950.972 71.0358 955.328 65.8416 955.328 55.3694Z" fill="#F5F5F5"/>
<path d="M52.4657 162.607C50.3143 162.607 48.4919 162.038 46.9986 160.899C45.5053 159.76 44.3663 158.14 43.5817 156.039C42.8224 153.939 42.4427 151.445 42.4427 148.56C42.4427 145.649 42.8224 143.144 43.5817 141.043C44.3663 138.942 45.5053 137.322 46.9986 136.183C48.4919 135.019 50.3143 134.437 52.4657 134.437C54.8449 134.437 56.8697 135.221 58.5402 136.791C60.2107 138.335 61.3244 140.499 61.8812 143.283L58.3884 143.511C57.9581 141.562 57.2114 140.094 56.1484 139.107C55.1107 138.119 53.8831 137.626 52.4657 137.626C51.023 137.626 49.8081 138.056 48.821 138.917C47.8592 139.752 47.1252 140.992 46.619 142.637C46.1127 144.257 45.8596 146.232 45.8596 148.56C45.8596 150.863 46.1127 152.825 46.619 154.445C47.1252 156.065 47.8592 157.305 48.821 158.165C49.8081 159.001 51.023 159.418 52.4657 159.418C54.035 159.418 55.3638 158.874 56.4521 157.786C57.5405 156.697 58.2745 155.078 58.6541 152.926L62.109 153.116C61.6281 156.077 60.5398 158.406 58.844 160.102C57.1482 161.772 55.0221 162.607 52.4657 162.607ZM73.7497 162.456C71.7502 162.456 70.1556 161.785 68.966 160.443C67.7764 159.077 67.1816 157.204 67.1816 154.824V141.878H70.3708V153.951C70.3708 155.9 70.7125 157.343 71.3958 158.279C72.1045 159.191 73.1802 159.646 74.6229 159.646C76.1922 159.646 77.4324 159.14 78.3436 158.127C79.2548 157.09 79.7104 155.672 79.7104 153.875V141.878H82.8995V162H79.8622V157.026L80.3558 157.292C79.9508 158.937 79.1789 160.216 78.0399 161.127C76.9009 162.013 75.4709 162.456 73.7497 162.456ZM98.2988 162.456C96.5524 162.456 95.0464 162.152 93.7809 161.544C92.5154 160.937 91.5156 160.127 90.7816 159.115C90.0729 158.077 89.6679 156.925 89.5667 155.66L92.9077 155.432C93.1102 156.672 93.6543 157.647 94.5402 158.355C95.4514 159.064 96.7043 159.418 98.2988 159.418C99.7922 159.418 100.944 159.203 101.754 158.773C102.589 158.343 103.007 157.672 103.007 156.761C103.007 156.179 102.867 155.698 102.589 155.318C102.311 154.938 101.792 154.622 101.032 154.369C100.273 154.09 99.1594 153.825 97.6914 153.572C95.7425 153.217 94.2112 152.787 93.0975 152.281C92.0092 151.749 91.2372 151.091 90.7816 150.307C90.326 149.522 90.0982 148.585 90.0982 147.497C90.0982 146.333 90.3893 145.295 90.9714 144.384C91.5536 143.473 92.4141 142.751 93.5531 142.22C94.6921 141.688 96.0842 141.422 97.7293 141.422C99.3998 141.422 100.792 141.726 101.906 142.334C103.045 142.916 103.943 143.7 104.601 144.688C105.259 145.649 105.69 146.712 105.892 147.877L102.551 148.104C102.399 147.396 102.108 146.776 101.678 146.244C101.273 145.687 100.729 145.257 100.045 144.953C99.3872 144.624 98.6026 144.46 97.6914 144.46C96.2234 144.46 95.135 144.751 94.4263 145.333C93.7176 145.915 93.3633 146.636 93.3633 147.497C93.3633 148.18 93.5278 148.725 93.8568 149.13C94.1859 149.535 94.7174 149.864 95.4514 150.117C96.1854 150.344 97.1599 150.56 98.3748 150.762C100.45 151.091 102.057 151.521 103.196 152.053C104.335 152.559 105.133 153.192 105.588 153.951C106.044 154.711 106.272 155.647 106.272 156.761C106.272 157.95 105.917 158.975 105.209 159.836C104.525 160.671 103.576 161.317 102.361 161.772C101.172 162.228 99.8175 162.456 98.2988 162.456ZM123.645 162C121.696 162 120.241 161.544 119.279 160.633C118.317 159.722 117.836 158.33 117.836 156.457V137.17H121.026V156.457C121.026 157.393 121.241 158.09 121.671 158.545C122.101 158.975 122.759 159.191 123.645 159.191H129.036V162H123.645ZM111.192 144.688V141.878H129.036V144.688H111.192ZM143.449 162.456C141.601 162.456 139.981 162.025 138.589 161.165C137.222 160.304 136.159 159.089 135.4 157.52C134.64 155.925 134.261 154.065 134.261 151.939C134.261 149.788 134.64 147.927 135.4 146.358C136.159 144.789 137.222 143.574 138.589 142.713C139.981 141.853 141.601 141.422 143.449 141.422C145.296 141.422 146.903 141.853 148.27 142.713C149.662 143.574 150.738 144.789 151.497 146.358C152.257 147.927 152.636 149.788 152.636 151.939C152.636 154.065 152.257 155.925 151.497 157.52C150.738 159.089 149.662 160.304 148.27 161.165C146.903 162.025 145.296 162.456 143.449 162.456ZM143.449 159.418C145.296 159.418 146.726 158.76 147.739 157.444C148.776 156.103 149.295 154.268 149.295 151.939C149.295 149.61 148.776 147.788 147.739 146.472C146.726 145.13 145.296 144.46 143.449 144.46C141.601 144.46 140.158 145.13 139.12 146.472C138.108 147.788 137.602 149.61 137.602 151.939C137.602 154.268 138.108 156.103 139.12 157.444C140.158 158.76 141.601 159.418 143.449 159.418ZM166.593 162.456C164.847 162.456 163.341 162.152 162.075 161.544C160.809 160.937 159.81 160.127 159.076 159.115C158.367 158.077 157.962 156.925 157.861 155.66L161.202 155.432C161.404 156.672 161.948 157.647 162.834 158.355C163.746 159.064 164.998 159.418 166.593 159.418C168.086 159.418 169.238 159.203 170.048 158.773C170.883 158.343 171.301 157.672 171.301 156.761C171.301 156.179 171.162 155.698 170.883 155.318C170.605 154.938 170.086 154.622 169.326 154.369C168.567 154.09 167.454 153.825 165.985 153.572C164.037 153.217 162.505 152.787 161.392 152.281C160.303 151.749 159.531 151.091 159.076 150.307C158.62 149.522 158.392 148.585 158.392 147.497C158.392 146.333 158.683 145.295 159.266 144.384C159.848 143.473 160.708 142.751 161.847 142.22C162.986 141.688 164.378 141.422 166.023 141.422C167.694 141.422 169.086 141.726 170.2 142.334C171.339 142.916 172.237 143.7 172.895 144.688C173.553 145.649 173.984 146.712 174.186 147.877L170.845 148.104C170.693 147.396 170.402 146.776 169.972 146.244C169.567 145.687 169.023 145.257 168.339 144.953C167.681 144.624 166.897 144.46 165.985 144.46C164.517 144.46 163.429 144.751 162.72 145.333C162.012 145.915 161.657 146.636 161.657 147.497C161.657 148.18 161.822 148.725 162.151 149.13C162.48 149.535 163.011 149.864 163.746 150.117C164.48 150.344 165.454 150.56 166.669 150.762C168.744 151.091 170.352 151.521 171.491 152.053C172.63 152.559 173.427 153.192 173.882 153.951C174.338 154.711 174.566 155.647 174.566 156.761C174.566 157.95 174.211 158.975 173.503 159.836C172.819 160.671 171.87 161.317 170.655 161.772C169.466 162.228 168.112 162.456 166.593 162.456ZM210.49 162.456C208.718 162.456 207.187 162.025 205.896 161.165C204.605 160.304 203.605 159.089 202.897 157.52C202.213 155.951 201.872 154.09 201.872 151.939C201.872 149.788 202.213 147.927 202.897 146.358C203.605 144.789 204.605 143.574 205.896 142.713C207.187 141.853 208.718 141.422 210.49 141.422C211.907 141.422 213.147 141.764 214.21 142.448C215.274 143.106 216.045 143.852 216.526 144.688V135.044H219.716V162H216.83L216.716 158.963C216.159 160.051 215.337 160.912 214.248 161.544C213.16 162.152 211.907 162.456 210.49 162.456ZM210.68 159.418C211.895 159.418 212.932 159.115 213.793 158.507C214.679 157.9 215.349 157.039 215.805 155.925C216.286 154.786 216.526 153.458 216.526 151.939C216.526 150.37 216.286 149.028 215.805 147.915C215.349 146.801 214.679 145.953 213.793 145.371C212.907 144.763 211.844 144.46 210.604 144.46C208.959 144.46 207.642 145.13 206.655 146.472C205.693 147.788 205.213 149.61 205.213 151.939C205.213 154.242 205.693 156.065 206.655 157.406C207.642 158.748 208.984 159.418 210.68 159.418ZM234.849 162.456C232.951 162.456 231.306 162.025 229.914 161.165C228.547 160.304 227.484 159.089 226.724 157.52C225.99 155.925 225.623 154.065 225.623 151.939C225.623 149.813 225.99 147.965 226.724 146.396C227.484 144.827 228.534 143.612 229.876 142.751C231.242 141.865 232.85 141.422 234.697 141.422C236.444 141.422 237.988 141.84 239.329 142.675C240.671 143.485 241.721 144.675 242.48 146.244C243.24 147.813 243.619 149.724 243.619 151.977V152.926H228.964C229.091 155.078 229.66 156.697 230.673 157.786C231.711 158.874 233.103 159.418 234.849 159.418C236.165 159.418 237.241 159.115 238.076 158.507C238.937 157.874 239.532 157.052 239.861 156.039L243.278 156.305C242.746 158.102 241.734 159.583 240.24 160.747C238.772 161.886 236.975 162.456 234.849 162.456ZM228.964 150.117H240.126C239.974 148.168 239.405 146.738 238.418 145.827C237.431 144.915 236.191 144.46 234.697 144.46C233.153 144.46 231.875 144.941 230.863 145.902C229.876 146.839 229.243 148.244 228.964 150.117ZM269.634 162L277.835 135.044H282.239L290.439 162H286.947L280.037 138.006L273.127 162H269.634ZM273.772 154.331L274.911 151.142H285.162L286.301 154.331H273.772ZM294.829 162V135.044H303.029C304.902 135.044 306.535 135.373 307.927 136.031C309.319 136.689 310.395 137.639 311.154 138.879C311.913 140.094 312.293 141.562 312.293 143.283C312.293 145.004 311.913 146.485 311.154 147.725C310.395 148.94 309.319 149.876 307.927 150.534C306.535 151.192 304.902 151.521 303.029 151.521H298.094V162H294.829ZM298.094 148.332H302.65C304.776 148.332 306.345 147.902 307.357 147.041C308.37 146.156 308.876 144.903 308.876 143.283C308.876 141.638 308.37 140.385 307.357 139.524C306.345 138.664 304.776 138.233 302.65 138.233H298.094V148.332ZM317.214 162V158.811H323.934V138.233H317.214V135.044H333.919V138.233H327.199V158.811H333.919V162H317.214Z" fill="#F5F5F5" fill-opacity="0.7"/>
<path d="M0 200V200.5H1358V200V199.5H0V200Z" fill="#3A3A3A"/>
<path d="M2.6 161L0 158.6L10.4 149L0 139.4L2.6 137L13 146.6L23.4 137L26 139.4L15.6 149L26 158.6L23.4 161L13 151.4L2.6 161Z" fill="#E8402D"/>
<path d="M50.2637 263.5L42.139 236.544H45.6318L52.8454 261.374H51.9342L59.1477 236.544H62.6406L54.5159 263.5H50.2637ZM75.4962 263.956C73.5979 263.956 71.9527 263.525 70.5606 262.665C69.1938 261.804 68.1308 260.589 67.3715 259.02C66.6375 257.425 66.2705 255.565 66.2705 253.439C66.2705 251.313 66.6375 249.465 67.3715 247.896C68.1308 246.327 69.1812 245.112 70.5226 244.251C71.8894 243.365 73.4966 242.922 75.3443 242.922C77.0907 242.922 78.6347 243.34 79.9761 244.175C81.3176 244.985 82.368 246.175 83.1273 247.744C83.8866 249.313 84.2663 251.224 84.2663 253.477V254.426H69.6115C69.738 256.578 70.3075 258.197 71.3199 259.286C72.3577 260.374 73.7497 260.918 75.4962 260.918C76.8123 260.918 77.888 260.615 78.7233 260.007C79.5838 259.374 80.1786 258.552 80.5077 257.539L83.9246 257.805C83.3931 259.602 82.3806 261.083 80.8873 262.247C79.4193 263.386 77.6223 263.956 75.4962 263.956ZM69.6115 251.617H80.7734C80.6216 249.668 80.0521 248.238 79.065 247.327C78.0778 246.415 76.8376 245.96 75.3443 245.96C73.8004 245.96 72.5222 246.441 71.5097 247.402C70.5226 248.339 69.8899 249.744 69.6115 251.617ZM95.1856 263.5V243.378H97.8432L98.147 248.466L97.8432 248.39C98.0963 246.668 98.6405 245.403 99.4758 244.593C100.336 243.783 101.475 243.378 102.893 243.378H107.031V246.263H102.931C101.944 246.263 101.108 246.466 100.425 246.871C99.7668 247.251 99.2606 247.82 98.9063 248.579C98.5519 249.313 98.3748 250.237 98.3748 251.351V263.5H95.1856ZM89.9463 263.5V260.691H104.753V263.5H89.9463ZM89.9463 246.188V243.378H96.9321V246.188H89.9463ZM121.937 263.956C120.545 263.956 119.304 263.652 118.216 263.044C117.128 262.412 116.292 261.551 115.71 260.463L115.596 263.5H112.711V236.544H115.9V246.188C116.406 245.352 117.191 244.606 118.254 243.948C119.317 243.264 120.545 242.922 121.937 242.922C123.708 242.922 125.24 243.353 126.531 244.213C127.821 245.074 128.809 246.289 129.492 247.858C130.201 249.427 130.555 251.288 130.555 253.439C130.555 255.59 130.201 257.451 129.492 259.02C128.809 260.589 127.821 261.804 126.531 262.665C125.24 263.525 123.708 263.956 121.937 263.956ZM121.747 260.918C123.443 260.918 124.772 260.248 125.733 258.906C126.72 257.565 127.214 255.742 127.214 253.439C127.214 251.11 126.72 249.288 125.733 247.972C124.772 246.63 123.468 245.96 121.823 245.96C120.583 245.96 119.52 246.263 118.634 246.871C117.748 247.453 117.064 248.301 116.584 249.415C116.128 250.528 115.9 251.87 115.9 253.439C115.9 254.958 116.128 256.286 116.584 257.425C117.064 258.539 117.735 259.4 118.596 260.007C119.482 260.615 120.532 260.918 121.747 260.918ZM140.791 263.956C139.525 263.956 138.386 263.728 137.374 263.272C136.362 262.817 135.564 262.184 134.982 261.374C134.4 260.539 134.109 259.577 134.109 258.489C134.109 256.767 134.615 255.439 135.628 254.502C136.665 253.54 138.285 252.844 140.487 252.414L147.245 251.047C147.245 249.326 146.853 248.048 146.068 247.213C145.309 246.377 144.208 245.96 142.765 245.96C141.373 245.96 140.285 246.276 139.5 246.909C138.716 247.516 138.171 248.402 137.868 249.567L134.489 249.301C134.868 247.402 135.767 245.871 137.184 244.707C138.627 243.517 140.487 242.922 142.765 242.922C145.195 242.922 147.081 243.656 148.422 245.125C149.764 246.567 150.434 248.567 150.434 251.123V259.476C150.434 259.931 150.536 260.248 150.738 260.425C150.941 260.602 151.244 260.691 151.649 260.691H152.94V263.5C152.788 263.525 152.548 263.538 152.219 263.538C151.89 263.563 151.573 263.576 151.27 263.576C150.409 263.576 149.675 263.437 149.068 263.158C148.485 262.88 148.042 262.437 147.739 261.83C147.435 261.197 147.27 260.387 147.245 259.4H147.853C147.675 260.26 147.245 261.045 146.562 261.754C145.904 262.437 145.068 262.981 144.056 263.386C143.044 263.766 141.955 263.956 140.791 263.956ZM141.095 261.146C142.461 261.146 143.6 260.918 144.512 260.463C145.423 259.982 146.106 259.324 146.562 258.489C147.017 257.628 147.245 256.641 147.245 255.527V253.781L141.095 254.996C139.728 255.249 138.779 255.641 138.247 256.173C137.716 256.679 137.45 257.35 137.45 258.185C137.45 259.121 137.766 259.855 138.399 260.387C139.057 260.893 139.956 261.146 141.095 261.146ZM166.593 263.956C164.847 263.956 163.341 263.652 162.075 263.044C160.809 262.437 159.81 261.627 159.076 260.615C158.367 259.577 157.962 258.425 157.861 257.16L161.202 256.932C161.404 258.172 161.948 259.147 162.834 259.855C163.746 260.564 164.998 260.918 166.593 260.918C168.086 260.918 169.238 260.703 170.048 260.273C170.883 259.843 171.301 259.172 171.301 258.261C171.301 257.679 171.162 257.198 170.883 256.818C170.605 256.438 170.086 256.122 169.326 255.869C168.567 255.59 167.454 255.325 165.985 255.072C164.037 254.717 162.505 254.287 161.392 253.781C160.303 253.249 159.531 252.591 159.076 251.807C158.62 251.022 158.392 250.085 158.392 248.997C158.392 247.833 158.683 246.795 159.266 245.884C159.848 244.973 160.708 244.251 161.847 243.72C162.986 243.188 164.378 242.922 166.023 242.922C167.694 242.922 169.086 243.226 170.2 243.834C171.339 244.416 172.237 245.2 172.895 246.188C173.553 247.149 173.984 248.212 174.186 249.377L170.845 249.604C170.693 248.896 170.402 248.276 169.972 247.744C169.567 247.187 169.023 246.757 168.339 246.453C167.681 246.124 166.897 245.96 165.985 245.96C164.517 245.96 163.429 246.251 162.72 246.833C162.012 247.415 161.657 248.136 161.657 248.997C161.657 249.68 161.822 250.225 162.151 250.63C162.48 251.035 163.011 251.364 163.746 251.617C164.48 251.844 165.454 252.06 166.669 252.262C168.744 252.591 170.352 253.021 171.491 253.553C172.63 254.059 173.427 254.692 173.882 255.451C174.338 256.211 174.566 257.147 174.566 258.261C174.566 259.45 174.211 260.475 173.503 261.336C172.819 262.171 171.87 262.817 170.655 263.272C169.466 263.728 168.112 263.956 166.593 263.956ZM210.49 263.956C208.718 263.956 207.187 263.525 205.896 262.665C204.605 261.804 203.605 260.589 202.897 259.02C202.213 257.451 201.872 255.59 201.872 253.439C201.872 251.288 202.213 249.427 202.897 247.858C203.605 246.289 204.605 245.074 205.896 244.213C207.187 243.353 208.718 242.922 210.49 242.922C211.907 242.922 213.147 243.264 214.21 243.948C215.274 244.606 216.045 245.352 216.526 246.188V236.544H219.716V263.5H216.83L216.716 260.463C216.159 261.551 215.337 262.412 214.248 263.044C213.16 263.652 211.907 263.956 210.49 263.956ZM210.68 260.918C211.895 260.918 212.932 260.615 213.793 260.007C214.679 259.4 215.349 258.539 215.805 257.425C216.286 256.286 216.526 254.958 216.526 253.439C216.526 251.87 216.286 250.528 215.805 249.415C215.349 248.301 214.679 247.453 213.793 246.871C212.907 246.263 211.844 245.96 210.604 245.96C208.959 245.96 207.642 246.63 206.655 247.972C205.693 249.288 205.213 251.11 205.213 253.439C205.213 255.742 205.693 257.565 206.655 258.906C207.642 260.248 208.984 260.918 210.68 260.918ZM234.849 263.956C232.951 263.956 231.306 263.525 229.914 262.665C228.547 261.804 227.484 260.589 226.724 259.02C225.99 257.425 225.623 255.565 225.623 253.439C225.623 251.313 225.99 249.465 226.724 247.896C227.484 246.327 228.534 245.112 229.876 244.251C231.242 243.365 232.85 242.922 234.697 242.922C236.444 242.922 237.988 243.34 239.329 244.175C240.671 244.985 241.721 246.175 242.48 247.744C243.24 249.313 243.619 251.224 243.619 253.477V254.426H228.964C229.091 256.578 229.66 258.197 230.673 259.286C231.711 260.374 233.103 260.918 234.849 260.918C236.165 260.918 237.241 260.615 238.076 260.007C238.937 259.374 239.532 258.552 239.861 257.539L243.278 257.805C242.746 259.602 241.734 261.083 240.24 262.247C238.772 263.386 236.975 263.956 234.849 263.956ZM228.964 251.617H240.126C239.974 249.668 239.405 248.238 238.418 247.327C237.431 246.415 236.191 245.96 234.697 245.96C233.153 245.96 231.875 246.441 230.863 247.402C229.876 248.339 229.243 249.744 228.964 251.617ZM277.379 263.956C276.114 263.956 274.975 263.728 273.962 263.272C272.95 262.817 272.153 262.184 271.57 261.374C270.988 260.539 270.697 259.577 270.697 258.489C270.697 256.767 271.203 255.439 272.216 254.502C273.254 253.54 274.873 252.844 277.075 252.414L283.833 251.047C283.833 249.326 283.441 248.048 282.656 247.213C281.897 246.377 280.796 245.96 279.353 245.96C277.961 245.96 276.873 246.276 276.088 246.909C275.304 247.516 274.76 248.402 274.456 249.567L271.077 249.301C271.457 247.402 272.355 245.871 273.772 244.707C275.215 243.517 277.075 242.922 279.353 242.922C281.783 242.922 283.669 243.656 285.01 245.125C286.352 246.567 287.023 248.567 287.023 251.123V259.476C287.023 259.931 287.124 260.248 287.326 260.425C287.529 260.602 287.832 260.691 288.237 260.691H289.528V263.5C289.376 263.525 289.136 263.538 288.807 263.538C288.478 263.563 288.162 263.576 287.858 263.576C286.997 263.576 286.263 263.437 285.656 263.158C285.074 262.88 284.631 262.437 284.327 261.83C284.023 261.197 283.859 260.387 283.833 259.4H284.441C284.264 260.26 283.833 261.045 283.15 261.754C282.492 262.437 281.657 262.981 280.644 263.386C279.632 263.766 278.543 263.956 277.379 263.956ZM277.683 261.146C279.05 261.146 280.189 260.918 281.1 260.463C282.011 259.982 282.694 259.324 283.15 258.489C283.606 257.628 283.833 256.641 283.833 255.527V253.781L277.683 254.996C276.316 255.249 275.367 255.641 274.835 256.173C274.304 256.679 274.038 257.35 274.038 258.185C274.038 259.121 274.355 259.855 274.987 260.387C275.645 260.893 276.544 261.146 277.683 261.146ZM294.601 263.5V243.378H297.524L297.638 248.503L297.258 248.162C297.512 246.972 297.967 245.998 298.625 245.238C299.309 244.454 300.119 243.872 301.055 243.492C301.992 243.112 302.979 242.922 304.016 242.922C305.56 242.922 306.839 243.264 307.851 243.948C308.889 244.631 309.673 245.555 310.205 246.719C310.736 247.858 311.002 249.136 311.002 250.554V263.5H307.813V251.465C307.813 249.592 307.446 248.174 306.712 247.213C305.978 246.226 304.852 245.732 303.333 245.732C302.295 245.732 301.359 245.96 300.524 246.415C299.688 246.846 299.018 247.491 298.511 248.352C298.03 249.187 297.79 250.225 297.79 251.465V263.5H294.601ZM324.161 263.956C322.162 263.956 320.567 263.285 319.378 261.943C318.188 260.577 317.593 258.704 317.593 256.324V243.378H320.783V255.451C320.783 257.4 321.124 258.843 321.808 259.779C322.516 260.691 323.592 261.146 325.035 261.146C326.604 261.146 327.844 260.64 328.755 259.627C329.667 258.59 330.122 257.172 330.122 255.375V243.378H333.311V263.5H330.274V258.526L330.768 258.792C330.363 260.437 329.591 261.716 328.452 262.627C327.313 263.513 325.883 263.956 324.161 263.956ZM323.858 240.72L326.364 235.861H329.932L326.515 240.72H323.858ZM340.13 263.5V243.378H343.054L343.168 248.503L342.788 248.162C343.041 246.972 343.497 245.998 344.155 245.238C344.838 244.454 345.648 243.872 346.584 243.492C347.521 243.112 348.508 242.922 349.546 242.922C351.09 242.922 352.368 243.264 353.38 243.948C354.418 244.631 355.203 245.555 355.734 246.719C356.266 247.858 356.532 249.136 356.532 250.554V263.5H353.342V251.465C353.342 249.592 352.975 248.174 352.241 247.213C351.507 246.226 350.381 245.732 348.862 245.732C347.825 245.732 346.888 245.96 346.053 246.415C345.218 246.846 344.547 247.491 344.041 248.352C343.56 249.187 343.319 250.225 343.319 251.465V263.5H340.13ZM371.627 263.956C369.754 263.956 368.122 263.525 366.73 262.665C365.337 261.804 364.262 260.589 363.502 259.02C362.743 257.425 362.363 255.565 362.363 253.439C362.363 251.313 362.743 249.465 363.502 247.896C364.262 246.327 365.337 245.112 366.73 244.251C368.122 243.365 369.754 242.922 371.627 242.922C373.12 242.922 374.449 243.201 375.614 243.758C376.778 244.289 377.74 245.074 378.499 246.112C379.258 247.149 379.777 248.415 380.056 249.908L376.715 250.136C376.411 248.795 375.803 247.769 374.892 247.061C374.006 246.327 372.918 245.96 371.627 245.96C369.779 245.96 368.324 246.63 367.261 247.972C366.223 249.288 365.704 251.11 365.704 253.439C365.704 255.768 366.223 257.603 367.261 258.944C368.324 260.26 369.779 260.918 371.627 260.918C372.918 260.918 374.032 260.539 374.968 259.779C375.93 259.02 376.563 257.881 376.866 256.362L380.207 256.59C379.929 258.084 379.397 259.387 378.613 260.501C377.828 261.589 376.841 262.437 375.652 263.044C374.462 263.652 373.12 263.956 371.627 263.956ZM393.595 263.5V243.378H396.784V263.5H393.595ZM385.508 263.5V260.691H403.731V263.5H385.508ZM385.887 246.188V243.378H396.784V246.188H385.887ZM393.291 240.227V236.506H396.632V240.227H393.291ZM416.625 263.956C414.777 263.956 413.157 263.525 411.765 262.665C410.399 261.804 409.336 260.589 408.576 259.02C407.817 257.425 407.437 255.565 407.437 253.439C407.437 251.288 407.817 249.427 408.576 247.858C409.336 246.289 410.399 245.074 411.765 244.213C413.157 243.353 414.777 242.922 416.625 242.922C418.473 242.922 420.08 243.353 421.447 244.213C422.839 245.074 423.914 246.289 424.674 247.858C425.433 249.427 425.813 251.288 425.813 253.439C425.813 255.565 425.433 257.425 424.674 259.02C423.914 260.589 422.839 261.804 421.447 262.665C420.08 263.525 418.473 263.956 416.625 263.956ZM416.625 260.918C418.473 260.918 419.903 260.26 420.915 258.944C421.953 257.603 422.472 255.768 422.472 253.439C422.472 251.11 421.953 249.288 420.915 247.972C419.903 246.63 418.473 245.96 416.625 245.96C414.777 245.96 413.335 246.63 412.297 247.972C411.284 249.288 410.778 251.11 410.778 253.439C410.778 255.768 411.284 257.603 412.297 258.944C413.335 260.26 414.777 260.918 416.625 260.918ZM439.769 263.956C438.023 263.956 436.517 263.652 435.251 263.044C433.986 262.437 432.986 261.627 432.252 260.615C431.543 259.577 431.138 258.425 431.037 257.16L434.378 256.932C434.581 258.172 435.125 259.147 436.011 259.855C436.922 260.564 438.175 260.918 439.769 260.918C441.263 260.918 442.414 260.703 443.224 260.273C444.06 259.843 444.477 259.172 444.477 258.261C444.477 257.679 444.338 257.198 444.06 256.818C443.781 256.438 443.262 256.122 442.503 255.869C441.744 255.59 440.63 255.325 439.162 255.072C437.213 254.717 435.682 254.287 434.568 253.781C433.48 253.249 432.708 252.591 432.252 251.807C431.797 251.022 431.569 250.085 431.569 248.997C431.569 247.833 431.86 246.795 432.442 245.884C433.024 244.973 433.885 244.251 435.024 243.72C436.163 243.188 437.555 242.922 439.2 242.922C440.87 242.922 442.262 243.226 443.376 243.834C444.515 244.416 445.414 245.2 446.072 246.188C446.73 247.149 447.16 248.212 447.363 249.377L444.022 249.604C443.87 248.896 443.579 248.276 443.148 247.744C442.743 247.187 442.199 246.757 441.516 246.453C440.858 246.124 440.073 245.96 439.162 245.96C437.694 245.96 436.606 246.251 435.897 246.833C435.188 247.415 434.834 248.136 434.834 248.997C434.834 249.68 434.998 250.225 435.327 250.63C435.656 251.035 436.188 251.364 436.922 251.617C437.656 251.844 438.63 252.06 439.845 252.262C441.921 252.591 443.528 253.021 444.667 253.553C445.806 254.059 446.603 254.692 447.059 255.451C447.514 256.211 447.742 257.147 447.742 258.261C447.742 259.45 447.388 260.475 446.679 261.336C445.996 262.171 445.047 262.817 443.832 263.272C442.642 263.728 441.288 263.956 439.769 263.956ZM485.261 263.956C483.363 263.956 481.717 263.525 480.325 262.665C478.958 261.804 477.895 260.589 477.136 259.02C476.402 257.425 476.035 255.565 476.035 253.439C476.035 251.313 476.402 249.465 477.136 247.896C477.895 246.327 478.946 245.112 480.287 244.251C481.654 243.365 483.261 242.922 485.109 242.922C486.855 242.922 488.399 243.34 489.741 244.175C491.082 244.985 492.133 246.175 492.892 247.744C493.651 249.313 494.031 251.224 494.031 253.477V254.426H479.376C479.503 256.578 480.072 258.197 481.085 259.286C482.122 260.374 483.514 260.918 485.261 260.918C486.577 260.918 487.653 260.615 488.488 260.007C489.348 259.374 489.943 258.552 490.272 257.539L493.689 257.805C493.158 259.602 492.145 261.083 490.652 262.247C489.184 263.386 487.387 263.956 485.261 263.956ZM479.376 251.617H490.538C490.386 249.668 489.817 248.238 488.83 247.327C487.842 246.415 486.602 245.96 485.109 245.96C483.565 245.96 482.287 246.441 481.274 247.402C480.287 248.339 479.655 249.744 479.376 251.617ZM530.828 263.956C529.082 263.956 527.576 263.652 526.31 263.044C525.045 262.437 524.045 261.627 523.311 260.615C522.602 259.577 522.197 258.425 522.096 257.16L525.437 256.932C525.64 258.172 526.184 259.147 527.07 259.855C527.981 260.564 529.234 260.918 530.828 260.918C532.322 260.918 533.473 260.703 534.283 260.273C535.118 259.843 535.536 259.172 535.536 258.261C535.536 257.679 535.397 257.198 535.118 256.818C534.84 256.438 534.321 256.122 533.562 255.869C532.802 255.59 531.689 255.325 530.221 255.072C528.272 254.717 526.741 254.287 525.627 253.781C524.539 253.249 523.767 252.591 523.311 251.807C522.855 251.022 522.628 250.085 522.628 248.997C522.628 247.833 522.919 246.795 523.501 245.884C524.083 244.973 524.943 244.251 526.082 243.72C527.221 243.188 528.614 242.922 530.259 242.922C531.929 242.922 533.321 243.226 534.435 243.834C535.574 244.416 536.472 245.2 537.131 246.188C537.789 247.149 538.219 248.212 538.421 249.377L535.08 249.604C534.929 248.896 534.637 248.276 534.207 247.744C533.802 247.187 533.258 246.757 532.575 246.453C531.917 246.124 531.132 245.96 530.221 245.96C528.753 245.96 527.664 246.251 526.956 246.833C526.247 247.415 525.893 248.136 525.893 248.997C525.893 249.68 526.057 250.225 526.386 250.63C526.715 251.035 527.247 251.364 527.981 251.617C528.715 251.844 529.689 252.06 530.904 252.262C532.98 252.591 534.587 253.021 535.726 253.553C536.865 254.059 537.662 254.692 538.118 255.451C538.573 256.211 538.801 257.147 538.801 258.261C538.801 259.45 538.447 260.475 537.738 261.336C537.055 262.171 536.105 262.817 534.891 263.272C533.701 263.728 532.347 263.956 530.828 263.956ZM552.947 263.5V243.378H556.137V263.5H552.947ZM544.861 263.5V260.691H563.084V263.5H544.861ZM545.24 246.188V243.378H556.137V246.188H545.24ZM552.644 240.227V236.506H555.985V240.227H552.644ZM566.107 263.5V243.378H569.03L569.144 247.858L568.764 247.782C568.992 246.289 569.473 245.112 570.207 244.251C570.966 243.365 571.928 242.922 573.093 242.922C574.282 242.922 575.193 243.353 575.826 244.213C576.484 245.074 576.889 246.339 577.041 248.01H576.661C576.889 246.441 577.395 245.2 578.18 244.289C578.99 243.378 580.002 242.922 581.217 242.922C582.837 242.922 584.014 243.479 584.748 244.593C585.482 245.707 585.849 247.554 585.849 250.136V263.5H582.66V250.592C582.66 248.795 582.47 247.542 582.09 246.833C581.711 246.099 581.116 245.732 580.306 245.732C579.775 245.732 579.306 245.909 578.901 246.263C578.496 246.593 578.167 247.124 577.914 247.858C577.686 248.592 577.573 249.529 577.573 250.668V263.5H574.383V250.592C574.383 248.87 574.194 247.63 573.814 246.871C573.46 246.112 572.865 245.732 572.03 245.732C571.498 245.732 571.03 245.909 570.625 246.263C570.22 246.593 569.891 247.124 569.638 247.858C569.41 248.592 569.296 249.529 569.296 250.668V263.5H566.107ZM598.477 263.5V243.378H601.666V263.5H598.477ZM590.39 263.5V260.691H608.614V263.5H590.39ZM590.77 246.188V243.378H601.666V246.188H590.77ZM598.173 240.227V236.506H601.514V240.227H598.173ZM620.482 263.5V241.935C620.482 241.125 620.255 240.493 619.799 240.037C619.343 239.581 618.711 239.354 617.901 239.354H613.155V236.544H618.052C619.9 236.544 621.292 237.025 622.229 237.987C623.191 238.923 623.671 240.315 623.671 242.163V263.5H620.482ZM612.396 263.5V260.691H630.619V263.5H612.396ZM641.614 263.956C640.349 263.956 639.21 263.728 638.198 263.272C637.185 262.817 636.388 262.184 635.806 261.374C635.224 260.539 634.932 259.577 634.932 258.489C634.932 256.767 635.439 255.439 636.451 254.502C637.489 253.54 639.109 252.844 641.311 252.414L648.069 251.047C648.069 249.326 647.676 248.048 646.892 247.213C646.132 246.377 645.031 245.96 643.589 245.96C642.197 245.96 641.108 246.276 640.324 246.909C639.539 247.516 638.995 248.402 638.691 249.567L635.312 249.301C635.692 247.402 636.59 245.871 638.008 244.707C639.45 243.517 641.311 242.922 643.589 242.922C646.019 242.922 647.904 243.656 649.246 245.125C650.587 246.567 651.258 248.567 651.258 251.123V259.476C651.258 259.931 651.359 260.248 651.562 260.425C651.764 260.602 652.068 260.691 652.473 260.691H653.764V263.5C653.612 263.525 653.371 263.538 653.042 263.538C652.713 263.563 652.397 263.576 652.093 263.576C651.233 263.576 650.498 263.437 649.891 263.158C649.309 262.88 648.866 262.437 648.562 261.83C648.259 261.197 648.094 260.387 648.069 259.4H648.676C648.499 260.26 648.069 261.045 647.385 261.754C646.727 262.437 645.892 262.981 644.88 263.386C643.867 263.766 642.779 263.956 641.614 263.956ZM641.918 261.146C643.285 261.146 644.424 260.918 645.335 260.463C646.246 259.982 646.93 259.324 647.385 258.489C647.841 257.628 648.069 256.641 648.069 255.527V253.781L641.918 254.996C640.551 255.249 639.602 255.641 639.071 256.173C638.539 256.679 638.273 257.35 638.273 258.185C638.273 259.121 638.59 259.855 639.223 260.387C639.881 260.893 640.779 261.146 641.918 261.146ZM664.303 263.5V243.378H666.961L667.265 248.466L666.961 248.39C667.214 246.668 667.758 245.403 668.593 244.593C669.454 243.783 670.593 243.378 672.01 243.378H676.149V246.263H672.048C671.061 246.263 670.226 246.466 669.542 246.871C668.884 247.251 668.378 247.82 668.024 248.579C667.67 249.313 667.492 250.237 667.492 251.351V263.5H664.303ZM659.064 263.5V260.691H673.871V263.5H659.064ZM659.064 246.188V243.378H666.05V246.188H659.064ZM690.143 263.956C688.245 263.956 686.6 263.525 685.208 262.665C683.841 261.804 682.778 260.589 682.018 259.02C681.284 257.425 680.917 255.565 680.917 253.439C680.917 251.313 681.284 249.465 682.018 247.896C682.778 246.327 683.828 245.112 685.17 244.251C686.536 243.365 688.144 242.922 689.991 242.922C691.738 242.922 693.282 243.34 694.623 244.175C695.965 244.985 697.015 246.175 697.774 247.744C698.534 249.313 698.913 251.224 698.913 253.477V254.426H684.258C684.385 256.578 684.954 258.197 685.967 259.286C687.005 260.374 688.397 260.918 690.143 260.918C691.459 260.918 692.535 260.615 693.37 260.007C694.231 259.374 694.826 258.552 695.155 257.539L698.572 257.805C698.04 259.602 697.028 261.083 695.534 262.247C694.066 263.386 692.269 263.956 690.143 263.956ZM684.258 251.617H695.42C695.269 249.668 694.699 248.238 693.712 247.327C692.725 246.415 691.485 245.96 689.991 245.96C688.447 245.96 687.169 246.441 686.157 247.402C685.17 248.339 684.537 249.744 684.258 251.617ZM712.946 263.956C711.199 263.956 709.693 263.652 708.428 263.044C707.162 262.437 706.163 261.627 705.429 260.615C704.72 259.577 704.315 258.425 704.214 257.16L707.555 256.932C707.757 258.172 708.301 259.147 709.187 259.855C710.098 260.564 711.351 260.918 712.946 260.918C714.439 260.918 715.591 260.703 716.401 260.273C717.236 259.843 717.654 259.172 717.654 258.261C717.654 257.679 717.514 257.198 717.236 256.818C716.958 256.438 716.439 256.122 715.679 255.869C714.92 255.59 713.806 255.325 712.338 255.072C710.389 254.717 708.858 254.287 707.744 253.781C706.656 253.249 705.884 252.591 705.429 251.807C704.973 251.022 704.745 250.085 704.745 248.997C704.745 247.833 705.036 246.795 705.618 245.884C706.201 244.973 707.061 244.251 708.2 243.72C709.339 243.188 710.731 242.922 712.376 242.922C714.047 242.922 715.439 243.226 716.553 243.834C717.692 244.416 718.59 245.2 719.248 246.188C719.906 247.149 720.337 248.212 720.539 249.377L717.198 249.604C717.046 248.896 716.755 248.276 716.325 247.744C715.92 247.187 715.376 246.757 714.692 246.453C714.034 246.124 713.25 245.96 712.338 245.96C710.87 245.96 709.782 246.251 709.073 246.833C708.365 247.415 708.01 248.136 708.01 248.997C708.01 249.68 708.175 250.225 708.504 250.63C708.833 251.035 709.364 251.364 710.098 251.617C710.832 251.844 711.807 252.06 713.022 252.262C715.097 252.591 716.704 253.021 717.843 253.553C718.982 254.059 719.78 254.692 720.235 255.451C720.691 256.211 720.919 257.147 720.919 258.261C720.919 259.45 720.564 260.475 719.856 261.336C719.172 262.171 718.223 262.817 717.008 263.272C715.819 263.728 714.464 263.956 712.946 263.956Z" fill="#F5F5F5" fill-opacity="0.7"/>
<path d="M0 301.5V302H1358V301.5V301H0V301.5Z" fill="#3A3A3A"/>
<path d="M2.6 262.5L0 260.1L10.4 250.5L0 240.9L2.6 238.5L13 248.1L23.4 238.5L26 240.9L15.6 250.5L26 260.1L23.4 262.5L13 252.9L2.6 262.5Z" fill="#E8402D"/>
</svg>
