<svg width="524" height="359" viewBox="0 0 524 359" fill="none" xmlns="http://www.w3.org/2000/svg">
<path d="M45.0723 26.8851C48.7585 30.0686 50.6016 34.5088 50.6016 40.2895C50.6016 45.9026 48.7585 50.259 45.0723 53.3588C41.3861 56.5423 36.1919 58.0503 29.4897 58.0503H15.9177V80H4.94287V22.1935H29.9086C36.3594 22.1935 41.3861 23.7853 45.0723 26.8851ZM39.6267 40.2057C39.6267 37.3573 38.789 35.2628 37.1972 33.8386C35.5216 32.4982 33.2597 31.7442 30.3274 31.7442H15.9177V48.4159H30.3274C36.527 48.4159 39.6267 45.735 39.6267 40.2057ZM78.1585 57.2963H66.681V80H55.7061V22.1935H80.8394C87.1227 22.1935 92.0655 23.7015 95.7518 26.7175C99.438 29.7335 101.281 34.0899 101.281 39.7868C101.281 43.9757 100.276 47.4106 98.2651 50.0914C96.2544 52.7723 93.406 54.783 89.5522 55.9559L103.878 80H90.8089L78.1585 57.2963ZM66.681 47.9132H81.1745C87.2902 47.9132 90.39 45.2323 90.39 39.7868C90.39 37.1059 89.5522 35.0953 87.9605 33.7548C86.2849 32.4144 84.0229 31.7442 81.1745 31.7442H66.681V47.9132ZM113.808 74.5545C109.62 70.3656 107.525 63.9985 107.525 55.537V46.489C107.525 38.1113 109.62 31.7442 113.892 27.4715C118.165 23.2827 124.113 21.1044 131.653 21.1044C139.025 21.1044 144.89 23.2827 149.163 27.4715C153.351 31.7442 155.53 38.1113 155.53 46.489V55.537C155.53 63.9147 153.351 70.2818 148.995 74.5545C144.639 78.8271 138.774 80.9216 131.318 80.9216C123.778 80.9216 117.997 78.8271 113.808 74.5545ZM144.555 55.3694V47.0755C144.555 36.1844 140.198 30.7389 131.653 30.7389C127.213 30.7389 123.945 32.0793 121.767 34.7602C119.589 37.441 118.584 41.5461 118.584 47.0755V55.3694C118.584 60.7312 119.589 64.6687 121.767 67.182C123.945 69.7791 127.213 71.0358 131.653 71.0358C140.198 71.0358 144.555 65.8416 144.555 55.3694ZM130.983 5.35428H143.466L130.313 16.4967H120.929L130.983 5.35428ZM178.64 50.0077L159.287 22.1935H172.775L185.593 41.2948L197.573 22.1935H210.81L191.793 49.505L212.905 80H199.417L184.923 58.3016L171.016 80H157.779L178.64 50.0077ZM215.616 22.1935H226.591V80H215.616V22.1935ZM293.005 22.1935V80H282.03V43.3892L267.872 68.8576H260.499L246.09 43.1379V80H235.115V22.1935H246.09L264.186 55.2856L282.03 22.1935H293.005ZM306.962 74.5545C302.773 70.3656 300.679 63.9985 300.679 55.537V46.489C300.679 38.1113 302.773 31.7442 307.046 27.4715C311.318 23.2827 317.267 21.1044 324.807 21.1044C332.179 21.1044 338.043 23.2827 342.316 27.4715C346.505 31.7442 348.683 38.1113 348.683 46.489V55.537C348.683 63.9147 346.505 70.2818 342.148 74.5545C337.792 78.8271 331.928 80.9216 324.471 80.9216C316.931 80.9216 311.151 78.8271 306.962 74.5545ZM337.708 55.3694V47.0755C337.708 36.1844 333.352 30.7389 324.807 30.7389C320.366 30.7389 317.099 32.0793 314.921 34.7602C312.743 37.441 311.737 41.5461 311.737 47.0755V55.3694C311.737 60.7312 312.743 64.6687 314.921 67.182C317.099 69.7791 320.366 71.0358 324.807 71.0358C333.352 71.0358 337.708 65.8416 337.708 55.3694ZM359.394 75.8949C355.54 72.7951 353.362 68.2712 352.943 62.4067H363.416C363.751 65.5065 365.007 67.7685 367.102 69.1089C369.196 70.4494 372.296 71.1196 376.317 71.1196C384.192 71.1196 388.13 68.5225 388.13 63.3283C388.13 61.0663 387.292 59.307 385.784 58.1341C384.192 56.9612 381.595 56.1234 378.077 55.7045L371.961 54.9505C360.232 53.5263 354.368 48.1646 354.368 38.7815C354.368 33.4197 356.294 29.1471 360.232 26.0473C364.086 22.9475 369.447 21.3558 376.233 21.3558C382.768 21.3558 387.879 22.8638 391.565 25.796C395.251 28.812 397.262 33.0846 397.764 38.6139H387.208C386.957 35.8493 385.952 33.8386 384.109 32.4982C382.265 31.2415 379.585 30.5713 375.982 30.5713C372.296 30.5713 369.615 31.2415 367.772 32.4982C365.929 33.8386 365.007 35.5979 365.007 37.9437C365.007 40.1219 365.761 41.7137 367.437 42.8866C369.029 44.0595 371.626 44.8972 375.228 45.3161L382.182 46.2377C387.627 46.9917 391.816 48.751 394.665 51.4319C397.513 54.1128 398.937 57.799 398.937 62.4905C398.937 68.3549 396.843 72.7951 392.738 75.8949C388.549 78.9947 382.936 80.5027 375.731 80.5027C368.693 80.5027 363.248 78.9947 359.394 75.8949ZM45.0723 124.885C48.7585 128.069 50.6016 132.509 50.6016 138.289C50.6016 143.903 48.7585 148.259 45.0723 151.359C41.3861 154.542 36.1919 156.05 29.4897 156.05H15.9177V178H4.94287V120.194H29.9086C36.3594 120.194 41.3861 121.785 45.0723 124.885ZM39.6267 138.206C39.6267 135.357 38.789 133.263 37.1972 131.839C35.5216 130.498 33.2597 129.744 30.3274 129.744H15.9177V146.416H30.3274C36.527 146.416 39.6267 143.735 39.6267 138.206ZM87.554 166.774H63.0072L58.8183 178H47.0895L70.7985 120.194H79.7627L103.472 178H91.7429L87.554 166.774ZM84.1191 157.642L75.2387 134.101L66.4421 157.642H84.1191ZM110.732 173.895C106.878 170.795 104.7 166.271 104.281 160.407H114.754C115.089 163.506 116.345 165.768 118.44 167.109C120.534 168.449 123.634 169.12 127.655 169.12C135.53 169.12 139.468 166.522 139.468 161.328C139.468 159.066 138.63 157.307 137.122 156.134C135.53 154.961 132.933 154.123 129.415 153.705L123.299 152.951C111.57 151.526 105.706 146.165 105.706 136.781C105.706 131.42 107.632 127.147 111.57 124.047C115.424 120.948 120.786 119.356 127.571 119.356C134.106 119.356 139.217 120.864 142.903 123.796C146.589 126.812 148.6 131.085 149.102 136.614H138.546C138.295 133.849 137.29 131.839 135.447 130.498C133.603 129.242 130.923 128.571 127.32 128.571C123.634 128.571 120.953 129.242 119.11 130.498C117.267 131.839 116.345 133.598 116.345 135.944C116.345 138.122 117.099 139.714 118.775 140.887C120.367 142.059 122.964 142.897 126.566 143.316L133.52 144.238C138.965 144.992 143.154 146.751 146.003 149.432C148.851 152.113 150.275 155.799 150.275 160.491C150.275 166.355 148.181 170.795 144.076 173.895C139.887 176.995 134.274 178.503 127.069 178.503C120.032 178.503 114.586 176.995 110.732 173.895ZM159.859 173.895C156.005 170.795 153.827 166.271 153.408 160.407H163.88C164.216 163.506 165.472 165.768 167.567 167.109C169.661 168.449 172.761 169.12 176.782 169.12C184.657 169.12 188.595 166.522 188.595 161.328C188.595 159.066 187.757 157.307 186.249 156.134C184.657 154.961 182.06 154.123 178.542 153.705L172.426 152.951C160.697 151.526 154.833 146.165 154.833 136.781C154.833 131.42 156.759 127.147 160.697 124.047C164.551 120.948 169.912 119.356 176.698 119.356C183.233 119.356 188.344 120.864 192.03 123.796C195.716 126.812 197.727 131.085 198.229 136.614H187.673C187.422 133.849 186.417 131.839 184.574 130.498C182.73 129.242 180.05 128.571 176.447 128.571C172.761 128.571 170.08 129.242 168.237 130.498C166.394 131.839 165.472 133.598 165.472 135.944C165.472 138.122 166.226 139.714 167.902 140.887C169.494 142.059 172.091 142.897 175.693 143.316L182.647 144.238C188.092 144.992 192.281 146.751 195.129 149.432C197.978 152.113 199.402 155.799 199.402 160.491C199.402 166.355 197.308 170.795 193.203 173.895C189.014 176.995 183.401 178.503 176.196 178.503C169.158 178.503 163.713 176.995 159.859 173.895ZM211.081 172.554C206.892 168.366 204.797 161.999 204.797 153.537V144.489C204.797 136.111 206.892 129.744 211.164 125.472C215.437 121.283 221.385 119.104 228.925 119.104C236.298 119.104 242.162 121.283 246.435 125.472C250.624 129.744 252.802 136.111 252.802 144.489V153.537C252.802 161.915 250.624 168.282 246.267 172.554C241.911 176.827 236.046 178.922 228.59 178.922C221.05 178.922 215.269 176.827 211.081 172.554ZM241.827 153.369V145.075C241.827 134.184 237.471 128.739 228.925 128.739C224.485 128.739 221.218 130.079 219.039 132.76C216.861 135.441 215.856 139.546 215.856 145.075V153.369C215.856 158.731 216.861 162.669 219.039 165.182C221.218 167.779 224.485 169.036 228.925 169.036C237.471 169.036 241.827 163.842 241.827 153.369ZM263.513 173.895C259.659 170.795 257.481 166.271 257.062 160.407H267.534C267.869 163.506 269.126 165.768 271.22 167.109C273.315 168.449 276.415 169.12 280.436 169.12C288.311 169.12 292.249 166.522 292.249 161.328C292.249 159.066 291.411 157.307 289.903 156.134C288.311 154.961 285.714 154.123 282.195 153.705L276.079 152.951C264.351 151.526 258.486 146.165 258.486 136.781C258.486 131.42 260.413 127.147 264.351 124.047C268.204 120.948 273.566 119.356 280.352 119.356C286.887 119.356 291.997 120.864 295.683 123.796C299.37 126.812 301.38 131.085 301.883 136.614H291.327C291.076 133.849 290.07 131.839 288.227 130.498C286.384 129.242 283.703 128.571 280.101 128.571C276.415 128.571 273.734 129.242 271.891 130.498C270.047 131.839 269.126 133.598 269.126 135.944C269.126 138.122 269.88 139.714 271.555 140.887C273.147 142.059 275.744 142.897 279.347 143.316L286.3 144.238C291.746 144.992 295.935 146.751 298.783 149.432C301.632 152.113 303.056 155.799 303.056 160.491C303.056 166.355 300.961 170.795 296.856 173.895C292.667 176.995 287.054 178.503 279.849 178.503C272.812 178.503 267.367 176.995 263.513 173.895Z" fill="#F5F5F5"/>
<path d="M0.987113 255L9.18775 228.044H13.5918L21.7924 255H18.2996L11.3898 231.006L4.47998 255H0.987113ZM5.1254 247.331L6.26437 244.142H16.5152L17.6541 247.331H5.1254ZM25.802 260.695V234.878H28.7633L28.8392 239.434L28.3837 239.206C28.8899 237.637 29.7251 236.447 30.8894 235.637C32.079 234.827 33.4458 234.422 34.9897 234.422C36.9893 234.422 38.6218 234.916 39.8873 235.903C41.1782 236.89 42.1273 238.181 42.7348 239.776C43.3422 241.37 43.6459 243.091 43.6459 244.939C43.6459 246.787 43.3422 248.508 42.7348 250.102C42.1273 251.697 41.1782 252.988 39.8873 253.975C38.6218 254.962 36.9893 255.456 34.9897 255.456C33.952 255.456 32.9775 255.278 32.0663 254.924C31.1805 254.57 30.4212 254.076 29.7884 253.443C29.1809 252.811 28.7633 252.064 28.5355 251.203L28.9911 250.672V260.695H25.802ZM34.686 252.418C36.4324 252.418 37.7992 251.76 38.7863 250.444C39.7987 249.128 40.3049 247.293 40.3049 244.939C40.3049 242.585 39.7987 240.75 38.7863 239.434C37.7992 238.118 36.4324 237.46 34.686 237.46C33.5217 237.46 32.5093 237.738 31.6487 238.295C30.8135 238.852 30.1554 239.687 29.6745 240.801C29.2189 241.914 28.9911 243.294 28.9911 244.939C28.9911 246.584 29.2189 247.964 29.6745 249.077C30.1301 250.191 30.7882 251.026 31.6487 251.583C32.5093 252.14 33.5217 252.418 34.686 252.418ZM54.1856 255V234.878H56.8432L57.147 239.966L56.8432 239.89C57.0963 238.168 57.6405 236.903 58.4758 236.093C59.3363 235.283 60.4753 234.878 61.8927 234.878H66.031V237.763H61.9307C60.9436 237.763 60.1083 237.966 59.4249 238.371C58.7668 238.751 58.2606 239.32 57.9063 240.079C57.5519 240.813 57.3748 241.737 57.3748 242.851V255H54.1856ZM48.9463 255V252.191H63.753V255H48.9463ZM48.9463 237.688V234.878H55.9321V237.688H48.9463ZM79.6839 255.456C77.8362 255.456 76.2163 255.025 74.8242 254.165C73.4575 253.304 72.3944 252.089 71.6351 250.52C70.8758 248.925 70.4961 247.065 70.4961 244.939C70.4961 242.788 70.8758 240.927 71.6351 239.358C72.3944 237.789 73.4575 236.574 74.8242 235.713C76.2163 234.853 77.8362 234.422 79.6839 234.422C81.5316 234.422 83.1388 234.853 84.5055 235.713C85.8976 236.574 86.9733 237.789 87.7326 239.358C88.492 240.927 88.8716 242.788 88.8716 244.939C88.8716 247.065 88.492 248.925 87.7326 250.52C86.9733 252.089 85.8976 253.304 84.5055 254.165C83.1388 255.025 81.5316 255.456 79.6839 255.456ZM79.6839 252.418C81.5316 252.418 82.9616 251.76 83.974 250.444C85.0118 249.103 85.5306 247.268 85.5306 244.939C85.5306 242.61 85.0118 240.788 83.974 239.472C82.9616 238.13 81.5316 237.46 79.6839 237.46C77.8362 237.46 76.3935 238.13 75.3558 239.472C74.3433 240.788 73.8371 242.61 73.8371 244.939C73.8371 247.268 74.3433 249.103 75.3558 250.444C76.3935 251.76 77.8362 252.418 79.6839 252.418ZM100.436 255L92.9571 234.878H96.45L102.449 251.735L108.447 234.878H111.94L104.461 255H100.436ZM122.556 255.456C121.29 255.456 120.151 255.228 119.139 254.772C118.126 254.317 117.329 253.684 116.747 252.874C116.165 252.039 115.874 251.077 115.874 249.989C115.874 248.267 116.38 246.939 117.392 246.002C118.43 245.04 120.05 244.344 122.252 243.914L129.01 242.547C129.01 240.826 128.618 239.548 127.833 238.713C127.074 237.877 125.973 237.46 124.53 237.46C123.138 237.46 122.049 237.776 121.265 238.409C120.48 239.016 119.936 239.902 119.632 241.067L116.253 240.801C116.633 238.902 117.532 237.371 118.949 236.207C120.392 235.017 122.252 234.422 124.53 234.422C126.96 234.422 128.845 235.156 130.187 236.625C131.528 238.067 132.199 240.067 132.199 242.623V250.976C132.199 251.431 132.3 251.748 132.503 251.925C132.705 252.102 133.009 252.191 133.414 252.191H134.705V255C134.553 255.025 134.312 255.038 133.983 255.038C133.654 255.063 133.338 255.076 133.034 255.076C132.174 255.076 131.44 254.937 130.832 254.658C130.25 254.38 129.807 253.937 129.503 253.33C129.2 252.697 129.035 251.887 129.01 250.9H129.617C129.44 251.76 129.01 252.545 128.326 253.254C127.668 253.937 126.833 254.481 125.821 254.886C124.808 255.266 123.72 255.456 122.556 255.456ZM122.859 252.646C124.226 252.646 125.365 252.418 126.276 251.963C127.188 251.482 127.871 250.824 128.326 249.989C128.782 249.128 129.01 248.141 129.01 247.027V245.281L122.859 246.496C121.493 246.749 120.543 247.141 120.012 247.673C119.48 248.179 119.215 248.85 119.215 249.685C119.215 250.621 119.531 251.355 120.164 251.887C120.822 252.393 121.72 252.646 122.859 252.646ZM148.51 255.456C146.637 255.456 145.004 255.025 143.612 254.165C142.22 253.304 141.144 252.089 140.385 250.52C139.625 248.925 139.246 247.065 139.246 244.939C139.246 242.813 139.625 240.965 140.385 239.396C141.144 237.827 142.22 236.612 143.612 235.751C145.004 234.865 146.637 234.422 148.51 234.422C150.003 234.422 151.332 234.701 152.496 235.258C153.66 235.789 154.622 236.574 155.381 237.612C156.141 238.649 156.66 239.915 156.938 241.408L153.597 241.636C153.293 240.295 152.686 239.269 151.775 238.561C150.889 237.827 149.8 237.46 148.51 237.46C146.662 237.46 145.206 238.13 144.143 239.472C143.106 240.788 142.587 242.61 142.587 244.939C142.587 247.268 143.106 249.103 144.143 250.444C145.206 251.76 146.662 252.418 148.51 252.418C149.8 252.418 150.914 252.039 151.851 251.279C152.812 250.52 153.445 249.381 153.749 247.862L157.09 248.09C156.811 249.584 156.28 250.887 155.495 252.001C154.711 253.089 153.723 253.937 152.534 254.544C151.344 255.152 150.003 255.456 148.51 255.456ZM148.092 263.352C146.877 263.352 145.903 263.061 145.169 262.479C144.435 261.922 143.928 261.226 143.65 260.391L145.586 259.632C145.814 260.189 146.118 260.594 146.497 260.847C146.877 261.1 147.383 261.226 148.016 261.226C148.674 261.226 149.18 261.087 149.535 260.809C149.889 260.556 150.066 260.189 150.066 259.708C150.066 259.227 149.889 258.822 149.535 258.493C149.18 258.189 148.396 258.037 147.181 258.037L146.118 256.898L147.56 254.62H149.99L148.699 256.367C149.94 256.417 150.851 256.746 151.433 257.354C152.04 257.987 152.344 258.797 152.344 259.784C152.344 260.492 152.154 261.113 151.775 261.644C151.42 262.176 150.927 262.593 150.294 262.897C149.661 263.201 148.927 263.352 148.092 263.352ZM168.085 255.456C166.82 255.456 165.681 255.228 164.668 254.772C163.656 254.317 162.858 253.684 162.276 252.874C161.694 252.039 161.403 251.077 161.403 249.989C161.403 248.267 161.909 246.939 162.922 246.002C163.959 245.04 165.579 244.344 167.781 243.914L174.539 242.547C174.539 240.826 174.147 239.548 173.362 238.713C172.603 237.877 171.502 237.46 170.059 237.46C168.667 237.46 167.579 237.776 166.794 238.409C166.01 239.016 165.465 239.902 165.162 241.067L161.783 240.801C162.162 238.902 163.061 237.371 164.478 236.207C165.921 235.017 167.781 234.422 170.059 234.422C172.489 234.422 174.375 235.156 175.716 236.625C177.058 238.067 177.728 240.067 177.728 242.623V250.976C177.728 251.431 177.83 251.748 178.032 251.925C178.235 252.102 178.538 252.191 178.943 252.191H180.234V255C180.082 255.025 179.842 255.038 179.513 255.038C179.184 255.063 178.867 255.076 178.564 255.076C177.703 255.076 176.969 254.937 176.362 254.658C175.779 254.38 175.337 253.937 175.033 253.33C174.729 252.697 174.565 251.887 174.539 250.9H175.147C174.97 251.76 174.539 252.545 173.856 253.254C173.198 253.937 172.363 254.481 171.35 254.886C170.338 255.266 169.249 255.456 168.085 255.456ZM168.389 252.646C169.756 252.646 170.895 252.418 171.806 251.963C172.717 251.482 173.4 250.824 173.856 249.989C174.311 249.128 174.539 248.141 174.539 247.027V245.281L168.389 246.496C167.022 246.749 166.073 247.141 165.541 247.673C165.01 248.179 164.744 248.85 164.744 249.685C164.744 250.621 165.06 251.355 165.693 251.887C166.351 252.393 167.25 252.646 168.389 252.646ZM172.413 231.841C171.932 231.841 171.477 231.74 171.046 231.537C170.616 231.309 170.186 231.031 169.756 230.702C169.325 230.347 168.984 230.094 168.73 229.943C168.477 229.791 168.161 229.715 167.781 229.715C167.326 229.715 166.946 229.892 166.642 230.246C166.339 230.575 166.161 231.195 166.111 232.107H164.137C164.187 230.639 164.554 229.538 165.238 228.804C165.921 228.044 166.769 227.665 167.781 227.665C168.389 227.665 168.908 227.778 169.338 228.006C169.794 228.234 170.236 228.525 170.667 228.879C171.072 229.209 171.413 229.449 171.692 229.601C171.97 229.727 172.261 229.791 172.565 229.791C173.046 229.791 173.413 229.613 173.666 229.259C173.919 228.879 174.084 228.221 174.16 227.285H176.134C176.058 228.728 175.691 229.854 175.033 230.664C174.375 231.448 173.502 231.841 172.413 231.841ZM193.507 255.456C191.66 255.456 190.04 255.025 188.648 254.165C187.281 253.304 186.218 252.089 185.459 250.52C184.699 248.925 184.32 247.065 184.32 244.939C184.32 242.788 184.699 240.927 185.459 239.358C186.218 237.789 187.281 236.574 188.648 235.713C190.04 234.853 191.66 234.422 193.507 234.422C195.355 234.422 196.962 234.853 198.329 235.713C199.721 236.574 200.797 237.789 201.556 239.358C202.315 240.927 202.695 242.788 202.695 244.939C202.695 247.065 202.315 248.925 201.556 250.52C200.797 252.089 199.721 253.304 198.329 254.165C196.962 255.025 195.355 255.456 193.507 255.456ZM193.507 252.418C195.355 252.418 196.785 251.76 197.798 250.444C198.835 249.103 199.354 247.268 199.354 244.939C199.354 242.61 198.835 240.788 197.798 239.472C196.785 238.13 195.355 237.46 193.507 237.46C191.66 237.46 190.217 238.13 189.179 239.472C188.167 240.788 187.661 242.61 187.661 244.939C187.661 247.268 188.167 249.103 189.179 250.444C190.217 251.76 191.66 252.418 193.507 252.418ZM214.26 260.923L216.044 255H213.994V250.368H218.55V254.468L216.158 260.923H214.26ZM259.144 255.456C257.878 255.456 256.739 255.228 255.727 254.772C254.715 254.317 253.917 253.684 253.335 252.874C252.753 252.039 252.462 251.077 252.462 249.989C252.462 248.267 252.968 246.939 253.981 246.002C255.018 245.04 256.638 244.344 258.84 243.914L265.598 242.547C265.598 240.826 265.206 239.548 264.421 238.713C263.662 237.877 262.561 237.46 261.118 237.46C259.726 237.46 258.638 237.776 257.853 238.409C257.068 239.016 256.524 239.902 256.221 241.067L252.842 240.801C253.221 238.902 254.12 237.371 255.537 236.207C256.98 235.017 258.84 234.422 261.118 234.422C263.548 234.422 265.434 235.156 266.775 236.625C268.117 238.067 268.787 240.067 268.787 242.623V250.976C268.787 251.431 268.888 251.748 269.091 251.925C269.293 252.102 269.597 252.191 270.002 252.191H271.293V255C271.141 255.025 270.901 255.038 270.572 255.038C270.243 255.063 269.926 255.076 269.622 255.076C268.762 255.076 268.028 254.937 267.42 254.658C266.838 254.38 266.395 253.937 266.092 253.33C265.788 252.697 265.623 251.887 265.598 250.9H266.206C266.028 251.76 265.598 252.545 264.915 253.254C264.257 253.937 263.421 254.481 262.409 254.886C261.397 255.266 260.308 255.456 259.144 255.456ZM259.448 252.646C260.814 252.646 261.953 252.418 262.865 251.963C263.776 251.482 264.459 250.824 264.915 249.989C265.37 249.128 265.598 248.141 265.598 247.027V245.281L259.448 246.496C258.081 246.749 257.132 247.141 256.6 247.673C256.069 248.179 255.803 248.85 255.803 249.685C255.803 250.621 256.119 251.355 256.752 251.887C257.41 252.393 258.309 252.646 259.448 252.646ZM284.946 255.456C283.199 255.456 281.693 255.152 280.428 254.544C279.162 253.937 278.163 253.127 277.429 252.115C276.72 251.077 276.315 249.925 276.214 248.66L279.555 248.432C279.757 249.672 280.301 250.647 281.187 251.355C282.098 252.064 283.351 252.418 284.946 252.418C286.439 252.418 287.591 252.203 288.401 251.773C289.236 251.343 289.654 250.672 289.654 249.761C289.654 249.179 289.514 248.698 289.236 248.318C288.958 247.938 288.439 247.622 287.679 247.369C286.92 247.09 285.806 246.825 284.338 246.572C282.39 246.217 280.858 245.787 279.745 245.281C278.656 244.749 277.884 244.091 277.429 243.307C276.973 242.522 276.745 241.585 276.745 240.497C276.745 239.333 277.036 238.295 277.618 237.384C278.201 236.473 279.061 235.751 280.2 235.22C281.339 234.688 282.731 234.422 284.376 234.422C286.047 234.422 287.439 234.726 288.553 235.334C289.692 235.916 290.59 236.7 291.248 237.688C291.906 238.649 292.337 239.712 292.539 240.877L289.198 241.104C289.046 240.396 288.755 239.776 288.325 239.244C287.92 238.687 287.376 238.257 286.692 237.953C286.034 237.624 285.25 237.46 284.338 237.46C282.87 237.46 281.782 237.751 281.073 238.333C280.365 238.915 280.01 239.636 280.01 240.497C280.01 241.18 280.175 241.725 280.504 242.13C280.833 242.535 281.364 242.864 282.098 243.117C282.832 243.344 283.807 243.56 285.022 243.762C287.097 244.091 288.705 244.521 289.843 245.053C290.982 245.559 291.78 246.192 292.235 246.951C292.691 247.711 292.919 248.647 292.919 249.761C292.919 250.95 292.564 251.975 291.856 252.836C291.172 253.671 290.223 254.317 289.008 254.772C287.819 255.228 286.465 255.456 284.946 255.456ZM307.711 255.456C305.964 255.456 304.458 255.152 303.193 254.544C301.927 253.937 300.927 253.127 300.193 252.115C299.485 251.077 299.08 249.925 298.978 248.66L302.319 248.432C302.522 249.672 303.066 250.647 303.952 251.355C304.863 252.064 306.116 252.418 307.711 252.418C309.204 252.418 310.356 252.203 311.165 251.773C312.001 251.343 312.418 250.672 312.418 249.761C312.418 249.179 312.279 248.698 312.001 248.318C311.722 247.938 311.203 247.622 310.444 247.369C309.685 247.09 308.571 246.825 307.103 246.572C305.154 246.217 303.623 245.787 302.509 245.281C301.421 244.749 300.649 244.091 300.193 243.307C299.738 242.522 299.51 241.585 299.51 240.497C299.51 239.333 299.801 238.295 300.383 237.384C300.965 236.473 301.826 235.751 302.965 235.22C304.104 234.688 305.496 234.422 307.141 234.422C308.812 234.422 310.204 234.726 311.317 235.334C312.456 235.916 313.355 236.7 314.013 237.688C314.671 238.649 315.101 239.712 315.304 240.877L311.963 241.104C311.811 240.396 311.52 239.776 311.09 239.244C310.685 238.687 310.14 238.257 309.457 237.953C308.799 237.624 308.014 237.46 307.103 237.46C305.635 237.46 304.547 237.751 303.838 238.333C303.129 238.915 302.775 239.636 302.775 240.497C302.775 241.18 302.94 241.725 303.269 242.13C303.598 242.535 304.129 242.864 304.863 243.117C305.597 243.344 306.572 243.56 307.787 243.762C309.862 244.091 311.469 244.521 312.608 245.053C313.747 245.559 314.544 246.192 315 246.951C315.456 247.711 315.683 248.647 315.683 249.761C315.683 250.95 315.329 251.975 314.62 252.836C313.937 253.671 312.988 254.317 311.773 254.772C310.583 255.228 309.229 255.456 307.711 255.456ZM329.83 255V234.878H333.019V255H329.83ZM321.743 255V252.191H339.967V255H321.743ZM322.123 237.688V234.878H333.019V237.688H322.123ZM329.526 231.727V228.006H332.867V231.727H329.526ZM344.66 255V234.878H347.583L347.697 240.003L347.317 239.662C347.57 238.472 348.026 237.498 348.684 236.738C349.367 235.954 350.177 235.372 351.114 234.992C352.05 234.612 353.037 234.422 354.075 234.422C355.619 234.422 356.897 234.764 357.91 235.448C358.948 236.131 359.732 237.055 360.264 238.219C360.795 239.358 361.061 240.636 361.061 242.054V255H357.872V242.965C357.872 241.092 357.505 239.674 356.771 238.713C356.037 237.726 354.91 237.232 353.392 237.232C352.354 237.232 351.418 237.46 350.582 237.915C349.747 238.346 349.076 238.991 348.57 239.852C348.089 240.687 347.849 241.725 347.849 242.965V255H344.66ZM372.967 255.456C371.702 255.456 370.563 255.228 369.55 254.772C368.538 254.317 367.741 253.684 367.159 252.874C366.576 252.039 366.285 251.077 366.285 249.989C366.285 248.267 366.792 246.939 367.804 246.002C368.842 245.04 370.462 244.344 372.664 243.914L379.422 242.547C379.422 240.826 379.029 239.548 378.245 238.713C377.485 237.877 376.384 237.46 374.942 237.46C373.55 237.46 372.461 237.776 371.677 238.409C370.892 239.016 370.348 239.902 370.044 241.067L366.665 240.801C367.045 238.902 367.943 237.371 369.361 236.207C370.803 235.017 372.664 234.422 374.942 234.422C377.371 234.422 379.257 235.156 380.599 236.625C381.94 238.067 382.611 240.067 382.611 242.623V250.976C382.611 251.431 382.712 251.748 382.914 251.925C383.117 252.102 383.421 252.191 383.826 252.191H385.116V255C384.965 255.025 384.724 255.038 384.395 255.038C384.066 255.063 383.75 255.076 383.446 255.076C382.585 255.076 381.851 254.937 381.244 254.658C380.662 254.38 380.219 253.937 379.915 253.33C379.611 252.697 379.447 251.887 379.422 250.9H380.029C379.852 251.76 379.422 252.545 378.738 253.254C378.08 253.937 377.245 254.481 376.232 254.886C375.22 255.266 374.132 255.456 372.967 255.456ZM373.271 252.646C374.638 252.646 375.777 252.418 376.688 251.963C377.599 251.482 378.283 250.824 378.738 249.989C379.194 249.128 379.422 248.141 379.422 247.027V245.281L373.271 246.496C371.904 246.749 370.955 247.141 370.424 247.673C369.892 248.179 369.626 248.85 369.626 249.685C369.626 250.621 369.943 251.355 370.576 251.887C371.234 252.393 372.132 252.646 373.271 252.646ZM401.351 255C399.402 255 397.947 254.544 396.985 253.633C396.023 252.722 395.542 251.33 395.542 249.457V230.17H398.731V249.457C398.731 250.393 398.947 251.09 399.377 251.545C399.807 251.975 400.465 252.191 401.351 252.191H406.742V255H401.351ZM388.898 237.688V234.878H406.742V237.688H388.898ZM419.75 255.456C417.75 255.456 416.156 254.785 414.966 253.443C413.776 252.077 413.182 250.204 413.182 247.824V234.878H416.371V246.951C416.371 248.9 416.712 250.343 417.396 251.279C418.105 252.191 419.18 252.646 420.623 252.646C422.192 252.646 423.432 252.14 424.344 251.127C425.255 250.09 425.71 248.672 425.71 246.875V234.878H428.899V255H425.862V250.026L426.356 250.292C425.951 251.937 425.179 253.216 424.04 254.127C422.901 255.013 421.471 255.456 419.75 255.456ZM441.186 255V234.878H443.843L444.147 239.966L443.843 239.89C444.096 238.168 444.64 236.903 445.476 236.093C446.336 235.283 447.475 234.878 448.893 234.878H453.031V237.763H448.931C447.944 237.763 447.108 237.966 446.425 238.371C445.767 238.751 445.261 239.32 444.906 240.079C444.552 240.813 444.375 241.737 444.375 242.851V255H441.186ZM435.946 255V252.191H450.753V255H435.946ZM435.946 237.688V234.878H442.932V237.688H435.946ZM464.026 255.456C462.761 255.456 461.622 255.228 460.609 254.772C459.597 254.317 458.8 253.684 458.217 252.874C457.635 252.039 457.344 251.077 457.344 249.989C457.344 248.267 457.85 246.939 458.863 246.002C459.901 245.04 461.52 244.344 463.722 243.914L470.48 242.547C470.48 240.826 470.088 239.548 469.303 238.713C468.544 237.877 467.443 237.46 466 237.46C464.608 237.46 463.52 237.776 462.735 238.409C461.951 239.016 461.407 239.902 461.103 241.067L457.724 240.801C458.104 238.902 459.002 237.371 460.419 236.207C461.862 235.017 463.722 234.422 466 234.422C468.43 234.422 470.316 235.156 471.657 236.625C472.999 238.067 473.67 240.067 473.67 242.623V250.976C473.67 251.431 473.771 251.748 473.973 251.925C474.176 252.102 474.479 252.191 474.884 252.191H476.175V255C476.023 255.025 475.783 255.038 475.454 255.038C475.125 255.063 474.809 255.076 474.505 255.076C473.644 255.076 472.91 254.937 472.303 254.658C471.721 254.38 471.278 253.937 470.974 253.33C470.67 252.697 470.506 251.887 470.48 250.9H471.088C470.911 251.76 470.48 252.545 469.797 253.254C469.139 253.937 468.304 254.481 467.291 254.886C466.279 255.266 465.191 255.456 464.026 255.456ZM464.33 252.646C465.697 252.646 466.836 252.418 467.747 251.963C468.658 251.482 469.341 250.824 469.797 249.989C470.253 249.128 470.48 248.141 470.48 247.027V245.281L464.33 246.496C462.963 246.749 462.014 247.141 461.483 247.673C460.951 248.179 460.685 248.85 460.685 249.685C460.685 250.621 461.002 251.355 461.634 251.887C462.292 252.393 463.191 252.646 464.33 252.646ZM487.436 260.923L489.221 255H487.171V250.368H491.726V254.468L489.335 260.923H487.436ZM11.3898 302.456C9.54209 302.456 7.92222 302.025 6.53013 301.165C5.16336 300.304 4.10032 299.089 3.341 297.52C2.58168 295.925 2.20202 294.065 2.20202 291.939C2.20202 289.788 2.58168 287.927 3.341 286.358C4.10032 284.789 5.16336 283.574 6.53013 282.713C7.92222 281.853 9.54209 281.422 11.3898 281.422C13.2374 281.422 14.8447 281.853 16.2114 282.713C17.6035 283.574 18.6792 284.789 19.4385 286.358C20.1979 287.927 20.5775 289.788 20.5775 291.939C20.5775 294.065 20.1979 295.925 19.4385 297.52C18.6792 299.089 17.6035 300.304 16.2114 301.165C14.8447 302.025 13.2374 302.456 11.3898 302.456ZM11.3898 299.418C13.2374 299.418 14.6675 298.76 15.6799 297.444C16.7176 296.103 17.2365 294.268 17.2365 291.939C17.2365 289.61 16.7176 287.788 15.6799 286.472C14.6675 285.13 13.2374 284.46 11.3898 284.46C9.54209 284.46 8.09939 285.13 7.06166 286.472C6.04923 287.788 5.54302 289.61 5.54302 291.939C5.54302 294.268 6.04923 296.103 7.06166 297.444C8.09939 298.76 9.54209 299.418 11.3898 299.418ZM25.9538 302V281.878H28.8772L28.9911 287.003L28.6115 286.662C28.8646 285.472 29.3201 284.498 29.9782 283.738C30.6616 282.954 31.4715 282.372 32.408 281.992C33.3445 281.612 34.3316 281.422 35.3694 281.422C36.9133 281.422 38.1915 281.764 39.2039 282.448C40.2417 283.131 41.0263 284.055 41.5578 285.219C42.0893 286.358 42.3551 287.636 42.3551 289.054V302H39.166V289.965C39.166 288.092 38.799 286.674 38.065 285.713C37.331 284.726 36.2046 284.232 34.686 284.232C33.6483 284.232 32.7118 284.46 31.8765 284.915C31.0413 285.346 30.3705 285.991 29.8643 286.852C29.3834 287.687 29.143 288.725 29.143 289.965V302H25.9538ZM58.172 302.456C56.78 302.456 55.5397 302.152 54.4514 301.544C53.363 300.912 52.5278 300.051 51.9456 298.963L51.8317 302H48.9463V275.044H52.1355V284.688C52.6417 283.852 53.4263 283.106 54.4894 282.448C55.5524 281.764 56.78 281.422 58.172 281.422C59.9438 281.422 61.4751 281.853 62.7659 282.713C64.0568 283.574 65.0439 284.789 65.7273 286.358C66.436 287.927 66.7903 289.788 66.7903 291.939C66.7903 294.09 66.436 295.951 65.7273 297.52C65.0439 299.089 64.0568 300.304 62.7659 301.165C61.4751 302.025 59.9438 302.456 58.172 302.456ZM57.9822 299.418C59.678 299.418 61.0068 298.748 61.9686 297.406C62.9558 296.065 63.4493 294.242 63.4493 291.939C63.4493 289.61 62.9558 287.788 61.9686 286.472C61.0068 285.13 59.7033 284.46 58.0582 284.46C56.8179 284.46 55.7549 284.763 54.869 285.371C53.9831 285.953 53.2998 286.801 52.8189 287.915C52.3633 289.028 52.1355 290.37 52.1355 291.939C52.1355 293.458 52.3633 294.786 52.8189 295.925C53.2998 297.039 53.9705 297.9 54.8311 298.507C55.7169 299.115 56.7673 299.418 57.9822 299.418ZM79.6839 302.456C77.8362 302.456 76.2163 302.025 74.8242 301.165C73.4575 300.304 72.3944 299.089 71.6351 297.52C70.8758 295.925 70.4961 294.065 70.4961 291.939C70.4961 289.788 70.8758 287.927 71.6351 286.358C72.3944 284.789 73.4575 283.574 74.8242 282.713C76.2163 281.853 77.8362 281.422 79.6839 281.422C81.5316 281.422 83.1388 281.853 84.5055 282.713C85.8976 283.574 86.9733 284.789 87.7326 286.358C88.492 287.927 88.8716 289.788 88.8716 291.939C88.8716 294.065 88.492 295.925 87.7326 297.52C86.9733 299.089 85.8976 300.304 84.5055 301.165C83.1388 302.025 81.5316 302.456 79.6839 302.456ZM79.6839 299.418C81.5316 299.418 82.9616 298.76 83.974 297.444C85.0118 296.103 85.5306 294.268 85.5306 291.939C85.5306 289.61 85.0118 287.788 83.974 286.472C82.9616 285.13 81.5316 284.46 79.6839 284.46C77.8362 284.46 76.3935 285.13 75.3558 286.472C74.3433 287.788 73.8371 289.61 73.8371 291.939C73.8371 294.268 74.3433 296.103 75.3558 297.444C76.3935 298.76 77.8362 299.418 79.6839 299.418ZM99.791 302.456C98.5254 302.456 97.3865 302.228 96.374 301.772C95.3616 301.317 94.5643 300.684 93.9822 299.874C93.4 299.039 93.109 298.077 93.109 296.989C93.109 295.267 93.6152 293.939 94.6276 293.002C95.6653 292.04 97.2852 291.344 99.4872 290.914L106.245 289.547C106.245 287.826 105.853 286.548 105.068 285.713C104.309 284.877 103.208 284.46 101.765 284.46C100.373 284.46 99.2848 284.776 98.5001 285.409C97.7155 286.016 97.1713 286.902 96.8676 288.067L93.4886 287.801C93.8683 285.902 94.7668 284.371 96.1842 283.207C97.6269 282.017 99.4872 281.422 101.765 281.422C104.195 281.422 106.081 282.156 107.422 283.625C108.764 285.067 109.434 287.067 109.434 289.623V297.976C109.434 298.431 109.536 298.748 109.738 298.925C109.941 299.102 110.244 299.191 110.649 299.191H111.94V302C111.788 302.025 111.548 302.038 111.219 302.038C110.89 302.063 110.573 302.076 110.27 302.076C109.409 302.076 108.675 301.937 108.068 301.658C107.485 301.38 107.042 300.937 106.739 300.33C106.435 299.697 106.27 298.887 106.245 297.9H106.853C106.675 298.76 106.245 299.545 105.562 300.254C104.904 300.937 104.068 301.481 103.056 301.886C102.044 302.266 100.955 302.456 99.791 302.456ZM100.095 299.646C101.461 299.646 102.6 299.418 103.512 298.963C104.423 298.482 105.106 297.824 105.562 296.989C106.017 296.128 106.245 295.141 106.245 294.027V292.281L100.095 293.496C98.7279 293.749 97.7788 294.141 97.2473 294.673C96.7157 295.179 96.45 295.85 96.45 296.685C96.45 297.621 96.7664 298.355 97.3991 298.887C98.0572 299.393 98.9557 299.646 100.095 299.646ZM122.48 302V281.878H125.137L125.441 286.966L125.137 286.89C125.39 285.168 125.935 283.903 126.77 283.093C127.63 282.283 128.769 281.878 130.187 281.878H134.325V284.763H130.225C129.238 284.763 128.402 284.966 127.719 285.371C127.061 285.751 126.555 286.32 126.2 287.079C125.846 287.813 125.669 288.737 125.669 289.851V302H122.48ZM117.24 302V299.191H132.047V302H117.24ZM117.24 284.688V281.878H124.226V284.688H117.24ZM146.725 302.456C144.953 302.456 143.422 302.025 142.131 301.165C140.84 300.304 139.841 299.089 139.132 297.52C138.449 295.951 138.107 294.09 138.107 291.939C138.107 289.788 138.449 287.927 139.132 286.358C139.841 284.789 140.84 283.574 142.131 282.713C143.422 281.853 144.953 281.422 146.725 281.422C148.143 281.422 149.383 281.764 150.446 282.448C151.509 283.106 152.281 283.852 152.762 284.688V275.044H155.951V302H153.065L152.952 298.963C152.395 300.051 151.572 300.912 150.484 301.544C149.395 302.152 148.143 302.456 146.725 302.456ZM146.915 299.418C148.13 299.418 149.168 299.115 150.028 298.507C150.914 297.9 151.585 297.039 152.04 295.925C152.521 294.786 152.762 293.458 152.762 291.939C152.762 290.37 152.521 289.028 152.04 287.915C151.585 286.801 150.914 285.953 150.028 285.371C149.142 284.763 148.079 284.46 146.839 284.46C145.194 284.46 143.878 285.13 142.891 286.472C141.929 287.788 141.448 289.61 141.448 291.939C141.448 294.242 141.929 296.065 142.891 297.406C143.878 298.748 145.219 299.418 146.915 299.418ZM170.477 302V281.878H173.666V302H170.477ZM162.39 302V299.191H180.614V302H162.39ZM162.77 284.688V281.878H173.666V284.688H162.77ZM170.173 278.727V275.006H173.514V278.727H170.173ZM185.307 302V281.878H188.23L188.344 287.003L187.964 286.662C188.217 285.472 188.673 284.498 189.331 283.738C190.015 282.954 190.824 282.372 191.761 281.992C192.697 281.612 193.685 281.422 194.722 281.422C196.266 281.422 197.544 281.764 198.557 282.448C199.595 283.131 200.379 284.055 200.911 285.219C201.442 286.358 201.708 287.636 201.708 289.054V302H198.519V289.965C198.519 288.092 198.152 286.674 197.418 285.713C196.684 284.726 195.558 284.232 194.039 284.232C193.001 284.232 192.065 284.46 191.229 284.915C190.394 285.346 189.723 285.991 189.217 286.852C188.736 287.687 188.496 288.725 188.496 289.965V302H185.307ZM216.158 308.15C214.716 308.15 213.412 307.91 212.248 307.429C211.083 306.948 210.109 306.265 209.324 305.379C208.54 304.493 208.008 303.468 207.73 302.304L211.071 302.076C211.375 303.012 211.906 303.746 212.665 304.278C213.45 304.835 214.614 305.113 216.158 305.113C217.981 305.113 219.373 304.746 220.334 304.012C221.322 303.278 221.815 302.177 221.815 300.709V297.444C221.334 298.507 220.562 299.355 219.499 299.988C218.436 300.621 217.247 300.937 215.93 300.937C214.235 300.937 212.716 300.519 211.375 299.684C210.058 298.849 209.021 297.697 208.261 296.229C207.527 294.761 207.16 293.078 207.16 291.18C207.16 289.256 207.527 287.573 208.261 286.13C208.995 284.662 210.008 283.511 211.299 282.675C212.615 281.84 214.108 281.422 215.779 281.422C217.196 281.422 218.461 281.752 219.575 282.41C220.714 283.068 221.511 283.954 221.967 285.067V281.878H225.004V300.633C225.004 302.202 224.65 303.544 223.941 304.658C223.233 305.797 222.22 306.657 220.904 307.239C219.588 307.847 218.006 308.15 216.158 308.15ZM216.082 297.9C217.803 297.9 219.183 297.305 220.221 296.115C221.258 294.9 221.79 293.255 221.815 291.18C221.84 289.788 221.613 288.598 221.132 287.611C220.676 286.599 220.005 285.827 219.12 285.295C218.259 284.738 217.247 284.46 216.082 284.46C214.311 284.46 212.931 285.067 211.944 286.282C210.982 287.472 210.501 289.104 210.501 291.18C210.501 293.255 210.995 294.9 211.982 296.115C212.994 297.305 214.361 297.9 216.082 297.9ZM262.143 302.456C260.245 302.456 258.6 302.025 257.208 301.165C255.841 300.304 254.778 299.089 254.019 297.52C253.284 295.925 252.917 294.065 252.917 291.939C252.917 289.813 253.284 287.965 254.019 286.396C254.778 284.827 255.828 283.612 257.17 282.751C258.536 281.865 260.144 281.422 261.991 281.422C263.738 281.422 265.282 281.84 266.623 282.675C267.965 283.485 269.015 284.675 269.774 286.244C270.534 287.813 270.913 289.724 270.913 291.977V292.926H256.258C256.385 295.078 256.955 296.697 257.967 297.786C259.005 298.874 260.397 299.418 262.143 299.418C263.459 299.418 264.535 299.115 265.37 298.507C266.231 297.874 266.826 297.052 267.155 296.039L270.572 296.305C270.04 298.102 269.028 299.583 267.534 300.747C266.066 301.886 264.269 302.456 262.143 302.456ZM256.258 290.117H267.42C267.269 288.168 266.699 286.738 265.712 285.827C264.725 284.915 263.485 284.46 261.991 284.46C260.447 284.46 259.169 284.941 258.157 285.902C257.17 286.839 256.537 288.244 256.258 290.117ZM307.065 302V281.878H310.254V302H307.065ZM298.978 302V299.191H317.202V302H298.978ZM299.358 284.688V281.878H310.254V284.688H299.358ZM306.761 278.727V275.006H310.102V278.727H306.761ZM321.895 302V281.878H324.818L324.932 287.003L324.553 286.662C324.806 285.472 325.261 284.498 325.919 283.738C326.603 282.954 327.413 282.372 328.349 281.992C329.286 281.612 330.273 281.422 331.311 281.422C332.854 281.422 334.133 281.764 335.145 282.448C336.183 283.131 336.967 284.055 337.499 285.219C338.03 286.358 338.296 287.636 338.296 289.054V302H335.107V289.965C335.107 288.092 334.74 286.674 334.006 285.713C333.272 284.726 332.146 284.232 330.627 284.232C329.589 284.232 328.653 284.46 327.818 284.915C326.982 285.346 326.312 285.991 325.805 286.852C325.325 287.687 325.084 288.725 325.084 289.965V302H321.895ZM352.595 302V281.878H355.784V302H352.595ZM344.508 302V299.191H362.731V302H344.508ZM344.887 284.688V281.878H355.784V284.688H344.887ZM352.557 279.22L355.062 274.361H358.631L355.214 279.22H352.557ZM376.157 302.456C374.284 302.456 372.651 302.025 371.259 301.165C369.867 300.304 368.791 299.089 368.032 297.52C367.273 295.925 366.893 294.065 366.893 291.939C366.893 289.813 367.273 287.965 368.032 286.396C368.791 284.827 369.867 283.612 371.259 282.751C372.651 281.865 374.284 281.422 376.157 281.422C377.65 281.422 378.979 281.701 380.143 282.258C381.307 282.789 382.269 283.574 383.028 284.612C383.788 285.649 384.307 286.915 384.585 288.408L381.244 288.636C380.94 287.295 380.333 286.269 379.422 285.561C378.536 284.827 377.447 284.46 376.157 284.46C374.309 284.46 372.854 285.13 371.79 286.472C370.753 287.788 370.234 289.61 370.234 291.939C370.234 294.268 370.753 296.103 371.79 297.444C372.854 298.76 374.309 299.418 376.157 299.418C377.447 299.418 378.561 299.039 379.498 298.279C380.459 297.52 381.092 296.381 381.396 294.862L384.737 295.09C384.458 296.584 383.927 297.887 383.142 299.001C382.358 300.089 381.371 300.937 380.181 301.544C378.991 302.152 377.65 302.456 376.157 302.456ZM398.124 302V281.878H401.313V302H398.124ZM390.037 302V299.191H408.261V302H390.037ZM390.417 284.688V281.878H401.313V284.688H390.417ZM397.82 278.727V275.006H401.161V278.727H397.82ZM421.154 302.456C419.307 302.456 417.687 302.025 416.295 301.165C414.928 300.304 413.865 299.089 413.106 297.52C412.346 295.925 411.967 294.065 411.967 291.939C411.967 289.788 412.346 287.927 413.106 286.358C413.865 284.789 414.928 283.574 416.295 282.713C417.687 281.853 419.307 281.422 421.154 281.422C423.002 281.422 424.609 281.853 425.976 282.713C427.368 283.574 428.444 284.789 429.203 286.358C429.963 287.927 430.342 289.788 430.342 291.939C430.342 294.065 429.963 295.925 429.203 297.52C428.444 299.089 427.368 300.304 425.976 301.165C424.609 302.025 423.002 302.456 421.154 302.456ZM421.154 299.418C423.002 299.418 424.432 298.76 425.445 297.444C426.482 296.103 427.001 294.268 427.001 291.939C427.001 289.61 426.482 287.788 425.445 286.472C424.432 285.13 423.002 284.46 421.154 284.46C419.307 284.46 417.864 285.13 416.826 286.472C415.814 287.788 415.308 289.61 415.308 291.939C415.308 294.268 415.814 296.103 416.826 297.444C417.864 298.76 419.307 299.418 421.154 299.418ZM465.431 302.456C463.659 302.456 462.128 302.025 460.837 301.165C459.546 300.304 458.546 299.089 457.838 297.52C457.154 295.951 456.813 294.09 456.813 291.939C456.813 289.788 457.154 287.927 457.838 286.358C458.546 284.789 459.546 283.574 460.837 282.713C462.128 281.853 463.659 281.422 465.431 281.422C466.848 281.422 468.089 281.764 469.152 282.448C470.215 283.106 470.987 283.852 471.468 284.688V275.044H474.657V302H471.771L471.657 298.963C471.101 300.051 470.278 300.912 469.19 301.544C468.101 302.152 466.848 302.456 465.431 302.456ZM465.621 299.418C466.836 299.418 467.873 299.115 468.734 298.507C469.62 297.9 470.291 297.039 470.746 295.925C471.227 294.786 471.468 293.458 471.468 291.939C471.468 290.37 471.227 289.028 470.746 287.915C470.291 286.801 469.62 285.953 468.734 285.371C467.848 284.763 466.785 284.46 465.545 284.46C463.9 284.46 462.584 285.13 461.596 286.472C460.635 287.788 460.154 289.61 460.154 291.939C460.154 294.242 460.635 296.065 461.596 297.406C462.584 298.748 463.925 299.418 465.621 299.418ZM489.449 302.456C487.601 302.456 485.981 302.025 484.589 301.165C483.222 300.304 482.159 299.089 481.4 297.52C480.64 295.925 480.261 294.065 480.261 291.939C480.261 289.788 480.64 287.927 481.4 286.358C482.159 284.789 483.222 283.574 484.589 282.713C485.981 281.853 487.601 281.422 489.449 281.422C491.296 281.422 492.903 281.853 494.27 282.713C495.662 283.574 496.738 284.789 497.497 286.358C498.257 287.927 498.636 289.788 498.636 291.939C498.636 294.065 498.257 295.925 497.497 297.52C496.738 299.089 495.662 300.304 494.27 301.165C492.903 302.025 491.296 302.456 489.449 302.456ZM489.449 299.418C491.296 299.418 492.726 298.76 493.739 297.444C494.776 296.103 495.295 294.268 495.295 291.939C495.295 289.61 494.776 287.788 493.739 286.472C492.726 285.13 491.296 284.46 489.449 284.46C487.601 284.46 486.158 285.13 485.12 286.472C484.108 287.788 483.602 289.61 483.602 291.939C483.602 294.268 484.108 296.103 485.12 297.444C486.158 298.76 487.601 299.418 489.449 299.418ZM3.03727 354.695V328.878H5.99861L6.07454 333.434L5.61895 333.206C6.12516 331.637 6.96041 330.447 8.1247 329.637C9.3143 328.827 10.6811 328.422 12.225 328.422C14.2246 328.422 15.8571 328.916 17.1226 329.903C18.4135 330.89 19.3626 332.181 19.9701 333.776C20.5775 335.37 20.8812 337.091 20.8812 338.939C20.8812 340.787 20.5775 342.508 19.9701 344.102C19.3626 345.697 18.4135 346.988 17.1226 347.975C15.8571 348.962 14.2246 349.456 12.225 349.456C11.1873 349.456 10.2128 349.278 9.30164 348.924C8.41577 348.57 7.65645 348.076 7.02369 347.443C6.41624 346.811 5.99861 346.064 5.77082 345.203L6.22641 344.672V354.695H3.03727ZM11.9213 346.418C13.6677 346.418 15.0345 345.76 16.0216 344.444C17.034 343.128 17.5402 341.293 17.5402 338.939C17.5402 336.585 17.034 334.75 16.0216 333.434C15.0345 332.118 13.6677 331.46 11.9213 331.46C10.757 331.46 9.74458 331.738 8.88402 332.295C8.04877 332.852 7.39069 333.687 6.90979 334.801C6.4542 335.914 6.22641 337.294 6.22641 338.939C6.22641 340.584 6.4542 341.964 6.90979 343.077C7.36538 344.191 8.02346 345.026 8.88402 345.583C9.74458 346.14 10.757 346.418 11.9213 346.418ZM31.4209 349V328.878H34.0785L34.3823 333.966L34.0785 333.89C34.3316 332.168 34.8758 330.903 35.7111 330.093C36.5716 329.283 37.7106 328.878 39.128 328.878H43.2663V331.763H39.166C38.1789 331.763 37.3436 331.966 36.6602 332.371C36.0021 332.751 35.4959 333.32 35.1416 334.079C34.7872 334.813 34.6101 335.737 34.6101 336.851V349H31.4209ZM26.1816 349V346.191H40.9883V349H26.1816ZM26.1816 331.688V328.878H33.1674V331.688H26.1816ZM56.9192 349.456C55.0715 349.456 53.4516 349.025 52.0595 348.165C50.6928 347.304 49.6297 346.089 48.8704 344.52C48.1111 342.925 47.7314 341.065 47.7314 338.939C47.7314 336.788 48.1111 334.927 48.8704 333.358C49.6297 331.789 50.6928 330.574 52.0595 329.713C53.4516 328.853 55.0715 328.422 56.9192 328.422C58.7668 328.422 60.3741 328.853 61.7408 329.713C63.1329 330.574 64.2086 331.789 64.9679 333.358C65.7273 334.927 66.1069 336.788 66.1069 338.939C66.1069 341.065 65.7273 342.925 64.9679 344.52C64.2086 346.089 63.1329 347.304 61.7408 348.165C60.3741 349.025 58.7668 349.456 56.9192 349.456ZM56.9192 346.418C58.7668 346.418 60.1969 345.76 61.2093 344.444C62.2471 343.103 62.7659 341.268 62.7659 338.939C62.7659 336.61 62.2471 334.788 61.2093 333.472C60.1969 332.13 58.7668 331.46 56.9192 331.46C55.0715 331.46 53.6288 332.13 52.5911 333.472C51.5786 334.788 51.0724 336.61 51.0724 338.939C51.0724 341.268 51.5786 343.103 52.5911 344.444C53.6288 345.76 55.0715 346.418 56.9192 346.418ZM72.4704 354.695V351.885H78.8486C79.8357 351.885 80.5698 351.67 81.0507 351.24C81.5569 350.81 81.81 349.987 81.81 348.772V328.878H84.9991V349C84.9991 350.848 84.5435 352.252 83.6323 353.214C82.7212 354.201 81.2531 354.695 79.2283 354.695H72.4704ZM72.85 331.688V328.878H83.6323V331.688H72.85ZM81.6201 325.727V322.006H84.9611V325.727H81.6201ZM102.79 349.456C100.892 349.456 99.2468 349.025 97.8547 348.165C96.4879 347.304 95.4249 346.089 94.6656 344.52C93.9316 342.925 93.5646 341.065 93.5646 338.939C93.5646 336.813 93.9316 334.965 94.6656 333.396C95.4249 331.827 96.4753 330.612 97.8167 329.751C99.1835 328.865 100.791 328.422 102.638 328.422C104.385 328.422 105.929 328.84 107.27 329.675C108.612 330.485 109.662 331.675 110.421 333.244C111.181 334.813 111.56 336.724 111.56 338.977V339.926H96.9056C97.0321 342.078 97.6016 343.697 98.614 344.786C99.6518 345.874 101.044 346.418 102.79 346.418C104.106 346.418 105.182 346.115 106.017 345.507C106.878 344.874 107.473 344.052 107.802 343.039L111.219 343.305C110.687 345.102 109.675 346.583 108.181 347.747C106.713 348.886 104.916 349.456 102.79 349.456ZM96.9056 337.117H108.068C107.916 335.168 107.346 333.738 106.359 332.827C105.372 331.915 104.132 331.46 102.638 331.46C101.094 331.46 99.8163 331.941 98.8039 332.902C97.8167 333.839 97.184 335.244 96.9056 337.117ZM128.175 349C126.226 349 124.77 348.544 123.809 347.633C122.847 346.722 122.366 345.33 122.366 343.457V324.17H125.555V343.457C125.555 344.393 125.77 345.09 126.2 345.545C126.631 345.975 127.289 346.191 128.175 346.191H133.566V349H128.175ZM115.722 331.688V328.878H133.566V331.688H115.722ZM147.978 349.456C146.13 349.456 144.51 349.025 143.118 348.165C141.752 347.304 140.689 346.089 139.929 344.52C139.17 342.925 138.79 341.065 138.79 338.939C138.79 336.788 139.17 334.927 139.929 333.358C140.689 331.789 141.752 330.574 143.118 329.713C144.51 328.853 146.13 328.422 147.978 328.422C149.826 328.422 151.433 328.853 152.8 329.713C154.192 330.574 155.267 331.789 156.027 333.358C156.786 334.927 157.166 336.788 157.166 338.939C157.166 341.065 156.786 342.925 156.027 344.52C155.267 346.089 154.192 347.304 152.8 348.165C151.433 349.025 149.826 349.456 147.978 349.456ZM147.978 346.418C149.826 346.418 151.256 345.76 152.268 344.444C153.306 343.103 153.825 341.268 153.825 338.939C153.825 336.61 153.306 334.788 152.268 333.472C151.256 332.13 149.826 331.46 147.978 331.46C146.13 331.46 144.688 332.13 143.65 333.472C142.637 334.788 142.131 336.61 142.131 338.939C142.131 341.268 142.637 343.103 143.65 344.444C144.688 345.76 146.13 346.418 147.978 346.418ZM194.039 349.456C192.166 349.456 190.533 349.025 189.141 348.165C187.749 347.304 186.674 346.089 185.914 344.52C185.155 342.925 184.775 341.065 184.775 338.939C184.775 336.813 185.155 334.965 185.914 333.396C186.674 331.827 187.749 330.612 189.141 329.751C190.533 328.865 192.166 328.422 194.039 328.422C195.532 328.422 196.861 328.701 198.025 329.258C199.19 329.789 200.151 330.574 200.911 331.612C201.67 332.649 202.189 333.915 202.467 335.408L199.126 335.636C198.823 334.295 198.215 333.269 197.304 332.561C196.418 331.827 195.33 331.46 194.039 331.46C192.191 331.46 190.736 332.13 189.673 333.472C188.635 334.788 188.116 336.61 188.116 338.939C188.116 341.268 188.635 343.103 189.673 344.444C190.736 345.76 192.191 346.418 194.039 346.418C195.33 346.418 196.443 346.039 197.38 345.279C198.342 344.52 198.974 343.381 199.278 341.862L202.619 342.09C202.341 343.584 201.809 344.887 201.025 346.001C200.24 347.089 199.253 347.937 198.063 348.544C196.874 349.152 195.532 349.456 194.039 349.456ZM216.272 349.456C214.424 349.456 212.805 349.025 211.412 348.165C210.046 347.304 208.983 346.089 208.223 344.52C207.464 342.925 207.084 341.065 207.084 338.939C207.084 336.788 207.464 334.927 208.223 333.358C208.983 331.789 210.046 330.574 211.412 329.713C212.805 328.853 214.424 328.422 216.272 328.422C218.12 328.422 219.727 328.853 221.094 329.713C222.486 330.574 223.562 331.789 224.321 333.358C225.08 334.927 225.46 336.788 225.46 338.939C225.46 341.065 225.08 342.925 224.321 344.52C223.562 346.089 222.486 347.304 221.094 348.165C219.727 349.025 218.12 349.456 216.272 349.456ZM216.272 346.418C218.12 346.418 219.55 345.76 220.562 344.444C221.6 343.103 222.119 341.268 222.119 338.939C222.119 336.61 221.6 334.788 220.562 333.472C219.55 332.13 218.12 331.46 216.272 331.46C214.424 331.46 212.982 332.13 211.944 333.472C210.932 334.788 210.425 336.61 210.425 338.939C210.425 341.268 210.932 343.103 211.944 344.444C212.982 345.76 214.424 346.418 216.272 346.418ZM229.166 349V328.878H232.089L232.203 333.358L231.823 333.282C232.051 331.789 232.532 330.612 233.266 329.751C234.025 328.865 234.987 328.422 236.151 328.422C237.341 328.422 238.252 328.853 238.885 329.713C239.543 330.574 239.948 331.839 240.1 333.51H239.72C239.948 331.941 240.454 330.7 241.239 329.789C242.049 328.878 243.061 328.422 244.276 328.422C245.896 328.422 247.073 328.979 247.807 330.093C248.541 331.207 248.908 333.054 248.908 335.636V349H245.719V336.092C245.719 334.295 245.529 333.042 245.149 332.333C244.77 331.599 244.175 331.232 243.365 331.232C242.833 331.232 242.365 331.409 241.96 331.763C241.555 332.093 241.226 332.624 240.973 333.358C240.745 334.092 240.631 335.029 240.631 336.168V349H237.442V336.092C237.442 334.37 237.252 333.13 236.873 332.371C236.518 331.612 235.924 331.232 235.088 331.232C234.557 331.232 234.089 331.409 233.684 331.763C233.279 332.093 232.95 332.624 232.696 333.358C232.469 334.092 232.355 335.029 232.355 336.168V349H229.166ZM285.098 349.456C283.225 349.456 281.592 349.025 280.2 348.165C278.808 347.304 277.732 346.089 276.973 344.52C276.214 342.925 275.834 341.065 275.834 338.939C275.834 336.813 276.214 334.965 276.973 333.396C277.732 331.827 278.808 330.612 280.2 329.751C281.592 328.865 283.225 328.422 285.098 328.422C286.591 328.422 287.92 328.701 289.084 329.258C290.248 329.789 291.21 330.574 291.97 331.612C292.729 332.649 293.248 333.915 293.526 335.408L290.185 335.636C289.881 334.295 289.274 333.269 288.363 332.561C287.477 331.827 286.389 331.46 285.098 331.46C283.25 331.46 281.795 332.13 280.732 333.472C279.694 334.788 279.175 336.61 279.175 338.939C279.175 341.268 279.694 343.103 280.732 344.444C281.795 345.76 283.25 346.418 285.098 346.418C286.389 346.418 287.502 346.039 288.439 345.279C289.401 344.52 290.033 343.381 290.337 341.862L293.678 342.09C293.4 343.584 292.868 344.887 292.083 346.001C291.299 347.089 290.312 347.937 289.122 348.544C287.933 349.152 286.591 349.456 285.098 349.456ZM304.597 349V328.878H307.255L307.559 333.966L307.255 333.89C307.508 332.168 308.052 330.903 308.888 330.093C309.748 329.283 310.887 328.878 312.304 328.878H316.443V331.763H312.342C311.355 331.763 310.52 331.966 309.837 332.371C309.179 332.751 308.672 333.32 308.318 334.079C307.964 334.813 307.787 335.737 307.787 336.851V349H304.597ZM299.358 349V346.191H314.165V349H299.358ZM299.358 331.688V328.878H306.344V331.688H299.358ZM330.096 349.456C328.248 349.456 326.628 349.025 325.236 348.165C323.869 347.304 322.806 346.089 322.047 344.52C321.288 342.925 320.908 341.065 320.908 338.939C320.908 336.788 321.288 334.927 322.047 333.358C322.806 331.789 323.869 330.574 325.236 329.713C326.628 328.853 328.248 328.422 330.096 328.422C331.943 328.422 333.551 328.853 334.917 329.713C336.309 330.574 337.385 331.789 338.144 333.358C338.904 334.927 339.283 336.788 339.283 338.939C339.283 341.065 338.904 342.925 338.144 344.52C337.385 346.089 336.309 347.304 334.917 348.165C333.551 349.025 331.943 349.456 330.096 349.456ZM330.096 346.418C331.943 346.418 333.373 345.76 334.386 344.444C335.423 343.103 335.942 341.268 335.942 338.939C335.942 336.61 335.423 334.788 334.386 333.472C333.373 332.13 331.943 331.46 330.096 331.46C328.248 331.46 326.805 332.13 325.767 333.472C324.755 334.788 324.249 336.61 324.249 338.939C324.249 341.268 324.755 343.103 325.767 344.444C326.805 345.76 328.248 346.418 330.096 346.418ZM344.66 349V328.878H347.583L347.697 334.003L347.317 333.662C347.57 332.472 348.026 331.498 348.684 330.738C349.367 329.954 350.177 329.372 351.114 328.992C352.05 328.612 353.037 328.422 354.075 328.422C355.619 328.422 356.897 328.764 357.91 329.448C358.948 330.131 359.732 331.055 360.264 332.219C360.795 333.358 361.061 334.636 361.061 336.054V349H357.872V336.965C357.872 335.092 357.505 333.674 356.771 332.713C356.037 331.726 354.91 331.232 353.392 331.232C352.354 331.232 351.418 331.46 350.582 331.915C349.747 332.346 349.076 332.991 348.57 333.852C348.089 334.687 347.849 335.725 347.849 336.965V349H344.66ZM375.625 349.456C373.777 349.456 372.157 349.025 370.765 348.165C369.399 347.304 368.336 346.089 367.576 344.52C366.817 342.925 366.437 341.065 366.437 338.939C366.437 336.788 366.817 334.927 367.576 333.358C368.336 331.789 369.399 330.574 370.765 329.713C372.157 328.853 373.777 328.422 375.625 328.422C377.473 328.422 379.08 328.853 380.447 329.713C381.839 330.574 382.914 331.789 383.674 333.358C384.433 334.927 384.813 336.788 384.813 338.939C384.813 341.065 384.433 342.925 383.674 344.52C382.914 346.089 381.839 347.304 380.447 348.165C379.08 349.025 377.473 349.456 375.625 349.456ZM375.625 346.418C377.473 346.418 378.903 345.76 379.915 344.444C380.953 343.103 381.472 341.268 381.472 338.939C381.472 336.61 380.953 334.788 379.915 333.472C378.903 332.13 377.473 331.46 375.625 331.46C373.777 331.46 372.335 332.13 371.297 333.472C370.284 334.788 369.778 336.61 369.778 338.939C369.778 341.268 370.284 343.103 371.297 344.444C372.335 345.76 373.777 346.418 375.625 346.418ZM398.276 355.15C396.833 355.15 395.53 354.91 394.365 354.429C393.201 353.948 392.227 353.265 391.442 352.379C390.657 351.493 390.126 350.468 389.847 349.304L393.188 349.076C393.492 350.012 394.024 350.746 394.783 351.278C395.568 351.835 396.732 352.113 398.276 352.113C400.098 352.113 401.49 351.746 402.452 351.012C403.439 350.278 403.933 349.177 403.933 347.709V344.444C403.452 345.507 402.68 346.355 401.617 346.988C400.554 347.621 399.364 347.937 398.048 347.937C396.352 347.937 394.834 347.519 393.492 346.684C392.176 345.849 391.138 344.697 390.379 343.229C389.645 341.761 389.278 340.078 389.278 338.18C389.278 336.256 389.645 334.573 390.379 333.13C391.113 331.662 392.125 330.511 393.416 329.675C394.732 328.84 396.226 328.422 397.896 328.422C399.314 328.422 400.579 328.752 401.693 329.41C402.832 330.068 403.629 330.954 404.085 332.067V328.878H407.122V347.633C407.122 349.202 406.768 350.544 406.059 351.658C405.35 352.797 404.338 353.657 403.022 354.239C401.705 354.847 400.124 355.15 398.276 355.15ZM398.2 344.9C399.921 344.9 401.3 344.305 402.338 343.115C403.376 341.9 403.907 340.255 403.933 338.18C403.958 336.788 403.73 335.598 403.249 334.611C402.794 333.599 402.123 332.827 401.237 332.295C400.377 331.738 399.364 331.46 398.2 331.46C396.428 331.46 395.049 332.067 394.062 333.282C393.1 334.472 392.619 336.104 392.619 338.18C392.619 340.255 393.112 341.9 394.1 343.115C395.112 344.305 396.479 344.9 398.2 344.9ZM418.421 349V328.878H421.079L421.382 333.966L421.079 333.89C421.332 332.168 421.876 330.903 422.711 330.093C423.572 329.283 424.711 328.878 426.128 328.878H430.266V331.763H426.166C425.179 331.763 424.344 331.966 423.66 332.371C423.002 332.751 422.496 333.32 422.142 334.079C421.787 334.813 421.61 335.737 421.61 336.851V349H418.421ZM413.182 349V346.191H427.988V349H413.182ZM413.182 331.688V328.878H420.167V331.688H413.182ZM441.262 349.456C439.996 349.456 438.857 349.228 437.845 348.772C436.832 348.317 436.035 347.684 435.453 346.874C434.871 346.039 434.58 345.077 434.58 343.989C434.58 342.267 435.086 340.939 436.098 340.002C437.136 339.04 438.756 338.344 440.958 337.914L447.716 336.547C447.716 334.826 447.323 333.548 446.539 332.713C445.779 331.877 444.678 331.46 443.236 331.46C441.844 331.46 440.755 331.776 439.971 332.409C439.186 333.016 438.642 333.902 438.338 335.067L434.959 334.801C435.339 332.902 436.237 331.371 437.655 330.207C439.097 329.017 440.958 328.422 443.236 328.422C445.666 328.422 447.551 329.156 448.893 330.625C450.234 332.067 450.905 334.067 450.905 336.623V344.976C450.905 345.431 451.006 345.748 451.209 345.925C451.411 346.102 451.715 346.191 452.12 346.191H453.411V349C453.259 349.025 453.018 349.038 452.689 349.038C452.36 349.063 452.044 349.076 451.74 349.076C450.88 349.076 450.146 348.937 449.538 348.658C448.956 348.38 448.513 347.937 448.209 347.33C447.906 346.697 447.741 345.887 447.716 344.9H448.323C448.146 345.76 447.716 346.545 447.032 347.254C446.374 347.937 445.539 348.481 444.527 348.886C443.514 349.266 442.426 349.456 441.262 349.456ZM441.565 346.646C442.932 346.646 444.071 346.418 444.982 345.963C445.893 345.482 446.577 344.824 447.032 343.989C447.488 343.128 447.716 342.141 447.716 341.027V339.281L441.565 340.496C440.198 340.749 439.249 341.141 438.718 341.673C438.186 342.179 437.921 342.85 437.921 343.685C437.921 344.621 438.237 345.355 438.87 345.887C439.528 346.393 440.426 346.646 441.565 346.646ZM456.813 349V328.878H459.736L459.85 333.358L459.47 333.282C459.698 331.789 460.179 330.612 460.913 329.751C461.672 328.865 462.634 328.422 463.798 328.422C464.988 328.422 465.899 328.853 466.532 329.713C467.19 330.574 467.595 331.839 467.747 333.51H467.367C467.595 331.941 468.101 330.7 468.886 329.789C469.696 328.878 470.708 328.422 471.923 328.422C473.543 328.422 474.72 328.979 475.454 330.093C476.188 331.207 476.555 333.054 476.555 335.636V349H473.366V336.092C473.366 334.295 473.176 333.042 472.796 332.333C472.417 331.599 471.822 331.232 471.012 331.232C470.48 331.232 470.012 331.409 469.607 331.763C469.202 332.093 468.873 332.624 468.62 333.358C468.392 334.092 468.278 335.029 468.278 336.168V349H465.089V336.092C465.089 334.37 464.899 333.13 464.52 332.371C464.165 331.612 463.571 331.232 462.735 331.232C462.204 331.232 461.736 331.409 461.331 331.763C460.926 332.093 460.597 332.624 460.344 333.358C460.116 334.092 460.002 335.029 460.002 336.168V349H456.813ZM486.791 349.456C485.525 349.456 484.386 349.228 483.374 348.772C482.362 348.317 481.564 347.684 480.982 346.874C480.4 346.039 480.109 345.077 480.109 343.989C480.109 342.267 480.615 340.939 481.628 340.002C482.665 339.04 484.285 338.344 486.487 337.914L493.245 336.547C493.245 334.826 492.853 333.548 492.068 332.713C491.309 331.877 490.208 331.46 488.765 331.46C487.373 331.46 486.285 331.776 485.5 332.409C484.715 333.016 484.171 333.902 483.868 335.067L480.489 334.801C480.868 332.902 481.767 331.371 483.184 330.207C484.627 329.017 486.487 328.422 488.765 328.422C491.195 328.422 493.081 329.156 494.422 330.625C495.764 332.067 496.434 334.067 496.434 336.623V344.976C496.434 345.431 496.536 345.748 496.738 345.925C496.94 346.102 497.244 346.191 497.649 346.191H498.94V349C498.788 349.025 498.548 349.038 498.219 349.038C497.89 349.063 497.573 349.076 497.27 349.076C496.409 349.076 495.675 348.937 495.067 348.658C494.485 348.38 494.042 347.937 493.739 347.33C493.435 346.697 493.27 345.887 493.245 344.9H493.853C493.675 345.76 493.245 346.545 492.562 347.254C491.904 347.937 491.068 348.481 490.056 348.886C489.044 349.266 487.955 349.456 486.791 349.456ZM487.095 346.646C488.461 346.646 489.6 346.418 490.512 345.963C491.423 345.482 492.106 344.824 492.562 343.989C493.017 343.128 493.245 342.141 493.245 341.027V339.281L487.095 340.496C485.728 340.749 484.779 341.141 484.247 341.673C483.716 342.179 483.45 342.85 483.45 343.685C483.45 344.621 483.766 345.355 484.399 345.887C485.057 346.393 485.956 346.646 487.095 346.646Z" fill="#F5F5F5" fill-opacity="0.7"/>
</svg>
