<svg width="1397" height="247" viewBox="0 0 1397 247" fill="none" xmlns="http://www.w3.org/2000/svg">
<path d="M59.3195 86.5229H18.8143L11.3844 105.218H-0.000211252L34.5131 22.5295H43.7406L78.3737 105.218H66.8693L59.3195 86.5229ZM55.6045 77.2954L39.0669 35.9513L22.5293 77.2954H55.6045ZM112.505 99.7051C106.993 95.6306 103.997 89.5189 103.517 81.3699H114.063C114.542 86.7626 116.58 90.5974 120.175 92.9942C123.77 95.3909 129.043 96.5893 135.993 96.5893C150.134 96.5893 157.324 91.9156 157.324 82.3286C157.324 78.2541 155.886 75.0185 153.25 72.7416C150.494 70.5845 146.299 69.1464 140.667 68.4274L129.522 67.1092C113.464 65.1918 105.435 57.7618 105.435 44.9392C105.435 37.5092 108.071 31.757 113.584 27.6825C118.976 23.608 126.406 21.451 135.873 21.451C144.981 21.451 152.171 23.4882 157.444 27.4429C162.717 31.3975 165.713 37.2696 166.552 44.9392H156.006C155.527 40.1457 153.729 36.6704 150.494 34.2736C147.138 31.8769 142.345 30.6785 135.873 30.6785C129.282 30.6785 124.369 31.8769 121.014 34.1538C117.658 36.5505 115.98 39.906 115.98 44.2202C115.98 48.055 117.179 51.0509 119.815 53.208C122.452 55.3651 126.526 56.8031 132.039 57.5222L143.663 58.8404C159.961 60.9975 168.11 68.6671 168.11 81.6096C168.11 89.399 165.234 95.3909 159.481 99.5852C153.729 103.899 145.7 105.937 135.514 105.937C125.567 105.937 117.898 103.899 112.505 99.7051ZM189.96 32.2364V58.361H230.105V68.0679H189.96V95.5108H236.816V105.218H179.054V22.5295H236.816V32.2364H189.96ZM304.366 32.2364H277.643V105.218H266.857V32.2364H240.133V22.5295H304.366V32.2364ZM372.299 32.2364H345.575V105.218H334.789V32.2364H308.065V22.5295H372.299V32.2364ZM390.011 32.2364V58.361H430.157V68.0679H390.011V95.5108H436.868V105.218H379.106V22.5295H436.868V32.2364H390.011ZM472.157 22.5295H483.062V105.218H472.157V22.5295ZM549.935 86.5229H509.43L502 105.218H490.615L525.128 22.5295H534.356L568.989 105.218H557.484L549.935 86.5229ZM546.22 77.2954L529.682 35.9513L513.144 77.2954H546.22ZM603.12 99.7051C597.608 95.6306 594.612 89.5189 594.132 81.3699H604.678C605.157 86.7626 607.195 90.5974 610.79 92.9942C614.385 95.3909 619.658 96.5893 626.608 96.5893C640.749 96.5893 647.94 91.9156 647.94 82.3286C647.94 78.2541 646.502 75.0185 643.865 72.7416C641.109 70.5845 636.915 69.1464 631.282 68.4274L620.137 67.1092C604.079 65.1918 596.05 57.7618 596.05 44.9392C596.05 37.5092 598.686 31.757 604.199 27.6825C609.591 23.608 617.021 21.451 626.489 21.451C635.596 21.451 642.787 23.4882 648.059 27.4429C653.332 31.3975 656.328 37.2696 657.167 44.9392H646.621C646.142 40.1457 644.344 36.6704 641.109 34.2736C637.753 31.8769 632.96 30.6785 626.489 30.6785C619.898 30.6785 614.984 31.8769 611.629 34.1538C608.273 36.5505 606.596 39.906 606.596 44.2202C606.596 48.055 607.794 51.0509 610.43 53.208C613.067 55.3651 617.141 56.8031 622.654 57.5222L634.278 58.8404C650.576 60.9975 658.725 68.6671 658.725 81.6096C658.725 89.399 655.849 95.3909 650.097 99.5852C644.344 103.899 636.315 105.937 626.129 105.937C616.183 105.937 608.513 103.899 603.12 99.7051ZM680.575 32.2364V58.361H720.72V68.0679H680.575V95.5108H727.431V105.218H669.67V22.5295H727.431V32.2364H680.575ZM773.411 69.9853H749.443V105.218H738.538V22.5295H774.609C783.717 22.5295 790.667 24.5668 795.461 28.6412C800.254 32.7157 802.771 38.5878 802.771 46.2574C802.771 52.2493 801.213 57.2825 798.097 61.1173C794.982 64.9521 790.548 67.5885 784.676 68.9068L805.168 105.218H792.705L773.411 69.9853ZM749.443 60.5181H774.849C780.601 60.5181 784.915 59.4396 787.671 57.0428C790.428 54.7659 791.866 51.1708 791.866 46.2574C791.866 41.4639 790.308 37.9886 787.432 35.7117C784.556 33.4348 780.122 32.2364 774.13 32.2364H749.443V60.5181ZM867.009 86.5229H826.504L819.074 105.218H807.689L842.202 22.5295H851.43L886.063 105.218H874.559L867.009 86.5229ZM863.294 77.2954L846.756 35.9513L830.219 77.2954H863.294ZM849.872 -2.74318e-06H862.695L846.037 15.3392H836.45L849.872 -2.74318e-06ZM923.67 97.1885C917.678 91.0768 914.802 81.9691 914.802 69.8655V57.7618C914.802 45.7781 917.798 36.6704 923.789 30.5586C929.781 24.4469 938.41 21.3311 949.435 21.3311C960.34 21.3311 968.729 24.4469 974.721 30.5586C980.712 36.6704 983.708 45.7781 983.708 57.7618V69.8655C983.708 81.9691 980.593 91.0768 974.601 97.1885C968.609 103.3 960.1 106.296 949.075 106.296C938.05 106.296 929.662 103.3 923.67 97.1885ZM967.051 89.9982C970.886 85.6841 972.923 79.093 972.923 69.9853V58.361C972.923 49.0137 970.886 42.1829 967.051 37.7489C963.096 33.4348 957.224 31.1578 949.315 31.1578C941.286 31.1578 935.294 33.4348 931.459 37.7489C927.624 42.1829 925.707 49.0137 925.707 58.361V69.9853C925.707 79.093 927.624 85.6841 931.459 89.9982C935.294 94.3124 941.286 96.4695 949.315 96.4695C957.224 96.4695 963.096 94.3124 967.051 89.9982ZM1081.27 69.7456C1083.67 73.1011 1084.86 77.1756 1084.86 82.2088C1084.86 89.7585 1082.47 95.5108 1077.79 99.3456C1073 103.3 1066.17 105.218 1057.18 105.218H1020.15V22.5295H1056.46C1065.21 22.5295 1071.92 24.4469 1076.48 28.1619C1081.03 31.9967 1083.43 37.5092 1083.43 44.6995C1083.43 49.0137 1082.35 52.6088 1080.19 55.7246C1078.03 58.8404 1074.92 61.1173 1070.96 62.5554C1075.52 63.9934 1078.87 66.3902 1081.27 69.7456ZM1031.06 32.1165V58.1214H1056.46C1061.86 58.1214 1065.93 57.1626 1068.57 55.0056C1071.2 52.8485 1072.64 49.6129 1072.64 45.1789C1072.64 40.8647 1071.32 37.5092 1068.69 35.3522C1066.05 33.1951 1061.98 32.1165 1056.7 32.1165H1031.06ZM1069.88 92.1553C1072.52 89.8784 1073.96 86.2832 1073.96 81.4897C1073.96 72.3821 1068.21 67.7084 1056.7 67.7084H1031.06V95.6306H1057.42C1062.93 95.6306 1067.13 94.5521 1069.88 92.1553ZM1132.55 69.9853H1108.59V105.218H1097.68V22.5295H1133.75C1142.86 22.5295 1149.81 24.5668 1154.6 28.6412C1159.4 32.7157 1161.91 38.5878 1161.91 46.2574C1161.91 52.2493 1160.36 57.2825 1157.24 61.1173C1154.12 64.9521 1149.69 67.5885 1143.82 68.9068L1164.31 105.218H1151.85L1132.55 69.9853ZM1108.59 60.5181H1133.99C1139.74 60.5181 1144.06 59.4396 1146.81 57.0428C1149.57 54.7659 1151.01 51.1708 1151.01 46.2574C1151.01 41.4639 1149.45 37.9886 1146.57 35.7117C1143.7 33.4348 1139.26 32.2364 1133.27 32.2364H1108.59V60.5181ZM1226.15 86.5229H1185.65L1178.22 105.218H1166.83L1201.35 22.5295H1210.57L1245.21 105.218H1233.7L1226.15 86.5229ZM1222.44 77.2954L1205.9 35.9513L1189.36 77.2954H1222.44ZM1305.28 48.2946V47.8153C1305.28 42.5424 1303.37 38.3481 1299.65 35.472C1295.94 32.5959 1290.66 31.1578 1283.83 31.1578C1275.68 31.1578 1269.69 33.4348 1265.86 37.7489C1261.9 42.1829 1259.98 49.0137 1259.98 58.361V69.9853C1259.98 79.093 1261.9 85.6841 1265.86 89.9982C1269.81 94.3124 1275.8 96.4695 1283.95 96.4695C1290.78 96.4695 1296.06 95.0314 1299.77 92.1553C1303.37 89.2792 1305.28 85.2047 1305.28 79.6922V79.2128H1316.07V79.812C1316.07 87.0023 1313.79 92.8743 1309.48 97.4282C1305.04 101.982 1298.93 104.738 1291.14 105.817L1283.35 123.433H1273.05L1281.91 106.296C1271.37 105.937 1263.34 102.701 1257.59 96.5893C1251.84 90.5974 1249.08 81.6096 1249.08 69.8655V57.7618C1249.08 45.7781 1252.07 36.6704 1258.19 30.5586C1264.18 24.4469 1272.81 21.3311 1283.95 21.3311C1293.9 21.3311 1301.81 23.7279 1307.56 28.2817C1313.31 32.9554 1316.19 39.4266 1316.19 47.6955V48.2946H1305.28ZM1336.76 97.1885C1330.77 91.0768 1327.89 81.9691 1327.89 69.8655V57.7618C1327.89 45.7781 1330.89 36.6704 1336.88 30.5586C1342.87 24.4469 1351.5 21.3311 1362.53 21.3311C1373.43 21.3311 1381.82 24.4469 1387.81 30.5586C1393.81 36.6704 1396.8 45.7781 1396.8 57.7618V69.8655C1396.8 81.9691 1393.69 91.0768 1387.69 97.1885C1381.7 103.3 1373.19 106.296 1362.17 106.296C1351.14 106.296 1342.75 103.3 1336.76 97.1885ZM1380.14 89.9982C1383.98 85.6841 1386.02 79.093 1386.02 69.9853V58.361C1386.02 49.0137 1383.98 42.1829 1380.14 37.7489C1376.19 33.4348 1370.32 31.1578 1362.41 31.1578C1354.38 31.1578 1348.39 33.4348 1344.55 37.7489C1340.72 42.1829 1338.8 49.0137 1338.8 58.361V69.9853C1338.8 79.093 1340.72 85.6841 1344.55 89.9982C1348.39 94.3124 1354.38 96.4695 1362.41 96.4695C1370.32 96.4695 1376.19 94.3124 1380.14 89.9982Z" fill="#737373"/>
<path d="M89.962 163.53H122.198C133.223 163.53 141.732 166.525 147.724 172.398C153.716 178.389 156.831 187.497 156.831 199.721V209.907C156.831 222.25 153.716 231.358 147.604 237.35C141.372 243.342 132.744 246.218 121.599 246.218H89.962V163.53ZM122.079 232.556C128.55 232.556 133.343 230.759 136.459 227.163C139.575 223.568 141.133 217.816 141.133 209.907V200.559C141.133 192.41 139.575 186.538 136.459 182.823C133.343 179.108 128.55 177.191 122.079 177.191H105.661V232.556H122.079ZM182.37 177.191V197.683H219.64V211.345H182.37V232.556H225.751V246.218H166.671V163.53H225.751V177.191H182.37ZM259.837 163.53H275.536V246.218H259.837V163.53ZM339.019 230.159H303.906L297.914 246.218H281.137L315.051 163.53H327.874L361.788 246.218H345.011L339.019 230.159ZM334.105 217.097L321.403 183.423L308.82 217.097H334.105ZM391.409 163.53H423.646C434.671 163.53 443.179 166.525 449.171 172.398C455.163 178.389 458.279 187.497 458.279 199.721V209.907C458.279 222.25 455.163 231.358 449.051 237.35C442.82 243.342 434.191 246.218 423.047 246.218H391.409V163.53ZM423.526 232.556C429.997 232.556 434.791 230.759 437.906 227.163C441.022 223.568 442.58 217.816 442.58 209.907V200.559C442.58 192.41 441.022 186.538 437.906 182.823C434.791 179.108 429.997 177.191 423.526 177.191H407.108V232.556H423.526ZM519.409 230.159H484.297L478.305 246.218H461.528L495.442 163.53H508.264L542.178 246.218H525.401L519.409 230.159ZM514.496 217.097L501.793 183.423L489.21 217.097H514.496ZM577.312 240.346C571.8 235.912 568.684 229.44 568.085 221.052H583.065C583.544 225.486 585.342 228.721 588.338 230.639C591.333 232.556 595.767 233.515 601.52 233.515C612.784 233.515 618.417 229.8 618.417 222.37C618.417 219.134 617.218 216.618 615.061 214.94C612.784 213.262 609.069 212.064 604.036 211.465L595.288 210.386C578.511 208.349 570.122 200.679 570.122 187.257C570.122 179.588 572.878 173.476 578.511 169.042C584.023 164.608 591.693 162.331 601.4 162.331C610.747 162.331 618.057 164.488 623.33 168.683C628.603 172.997 631.479 179.108 632.198 187.018H617.099C616.739 183.063 615.301 180.187 612.665 178.27C610.028 176.472 606.193 175.513 601.04 175.513C595.767 175.513 591.933 176.472 589.296 178.27C586.66 180.187 585.342 182.704 585.342 186.059C585.342 189.175 586.42 191.452 588.817 193.129C591.094 194.807 594.809 196.006 599.962 196.605L609.908 197.923C617.698 199.002 623.69 201.518 627.764 205.353C631.839 209.188 633.876 214.461 633.876 221.172C633.876 229.56 630.88 235.912 625.008 240.346C619.016 244.78 610.987 246.937 600.681 246.937C590.614 246.937 582.825 244.78 577.312 240.346ZM657.891 243.222C652.858 240.825 648.903 237.23 646.147 232.676C643.391 228.122 642.073 222.729 642.073 216.498V163.53H657.771V216.018C657.771 221.651 659.21 225.965 662.325 228.841C665.321 231.837 669.635 233.275 675.388 233.275C681.02 233.275 685.454 231.837 688.57 228.841C691.686 225.965 693.243 221.651 693.243 216.018V163.53H708.942V216.498C708.942 222.729 707.504 228.122 704.748 232.676C701.992 237.23 698.037 240.825 693.004 243.222C687.971 245.738 682.099 246.937 675.388 246.937C668.677 246.937 662.924 245.738 657.891 243.222ZM768.434 230.159H733.322L727.33 246.218H710.552L744.467 163.53H757.289L791.203 246.218H774.426L768.434 230.159ZM763.521 217.097L750.818 183.423L738.235 217.097H763.521ZM836.524 177.191V197.683H873.793V211.345H836.524V232.556H879.905V246.218H820.825V163.53H879.905V177.191H836.524ZM971.331 163.53V246.218H955.632V193.848L935.38 230.279H924.834L904.222 193.489V246.218H888.523V163.53H904.222L930.107 210.865L955.632 163.53H971.331ZM1040.19 170.24C1045.46 174.794 1048.1 181.146 1048.1 189.414C1048.1 197.444 1045.46 203.675 1040.19 208.109C1034.92 212.663 1027.49 214.82 1017.9 214.82H998.485V246.218H982.787V163.53H1018.5C1027.73 163.53 1034.92 165.806 1040.19 170.24ZM1032.4 189.295C1032.4 185.22 1031.2 182.224 1028.92 180.187C1026.53 178.27 1023.29 177.191 1019.1 177.191H998.485V201.039H1019.1C1027.97 201.039 1032.4 197.204 1032.4 189.295ZM1087.52 213.742H1071.1V246.218H1055.4V163.53H1091.35C1100.34 163.53 1107.41 165.687 1112.68 170.001C1117.96 174.315 1120.59 180.546 1120.59 188.695C1120.59 194.687 1119.15 199.601 1116.28 203.436C1113.4 207.27 1109.33 210.146 1103.81 211.824L1124.31 246.218H1105.61L1087.52 213.742ZM1071.1 200.32H1091.83C1100.58 200.32 1105.01 196.485 1105.01 188.695C1105.01 184.861 1103.81 181.985 1101.54 180.067C1099.14 178.15 1095.91 177.191 1091.83 177.191H1071.1V200.32ZM1146.87 177.191V197.683H1184.14V211.345H1146.87V232.556H1190.25V246.218H1131.17V163.53H1190.25V177.191H1146.87ZM1204.38 240.346C1198.87 235.912 1195.76 229.44 1195.16 221.052H1210.14C1210.62 225.486 1212.41 228.721 1215.41 230.639C1218.4 232.556 1222.84 233.515 1228.59 233.515C1239.86 233.515 1245.49 229.8 1245.49 222.37C1245.49 219.134 1244.29 216.618 1242.13 214.94C1239.86 213.262 1236.14 212.064 1231.11 211.465L1222.36 210.386C1205.58 208.349 1197.19 200.679 1197.19 187.257C1197.19 179.588 1199.95 173.476 1205.58 169.042C1211.09 164.608 1218.76 162.331 1228.47 162.331C1237.82 162.331 1245.13 164.488 1250.4 168.683C1255.67 172.997 1258.55 179.108 1259.27 187.018H1244.17C1243.81 183.063 1242.37 180.187 1239.74 178.27C1237.1 176.472 1233.26 175.513 1228.11 175.513C1222.84 175.513 1219 176.472 1216.37 178.27C1213.73 180.187 1212.41 182.704 1212.41 186.059C1212.41 189.175 1213.49 191.452 1215.89 193.129C1218.16 194.807 1221.88 196.006 1227.03 196.605L1236.98 197.923C1244.77 199.002 1250.76 201.518 1254.84 205.353C1258.91 209.188 1260.95 214.461 1260.95 221.172C1260.95 229.56 1257.95 235.912 1252.08 240.346C1246.09 244.78 1238.06 246.937 1227.75 246.937C1217.69 246.937 1209.9 244.78 1204.38 240.346ZM1320.43 230.159H1285.32L1279.33 246.218H1262.55L1296.47 163.53H1309.29L1343.2 246.218H1326.43L1320.43 230.159ZM1315.52 217.097L1302.82 183.423L1290.24 217.097H1315.52Z" fill="black"/>
</svg>
