<svg width="644" height="158" viewBox="0 0 644 158" fill="none" xmlns="http://www.w3.org/2000/svg">
<path d="M6.4512 53.45C2.09478 49.2612 0.000339032 42.8941 0.000339032 34.4325V25.3846C0.000339032 17.0068 2.17855 10.6397 6.53498 6.36709C10.8914 2.17822 16.9234 9.61696e-06 24.7147 9.61696e-06C31.752 9.61696e-06 37.4489 1.75933 41.6377 5.27799C45.8266 8.79664 48.0048 13.572 48.0048 19.7715V20.4417H37.03V20.1066C37.03 16.9231 35.9409 14.326 33.7627 12.4829C31.5844 10.6397 28.5685 9.63442 24.7147 9.63442C20.1069 9.63442 16.6721 10.9749 14.4101 13.6557C12.1481 16.3366 11.059 20.4417 11.059 25.971V34.265C11.059 39.6268 12.1481 43.5643 14.4938 46.0776C16.7558 48.6747 20.1907 49.9314 24.7985 49.9314C28.6522 49.9314 31.5844 49.0936 33.7627 47.2505C35.9409 45.4074 37.03 42.8941 37.03 39.7105V39.2916H47.9211V39.7105C47.9211 46.0776 45.8266 51.0205 41.6377 54.5391C37.4489 58.0578 31.752 59.8171 24.6309 59.8171C16.8396 59.8171 10.8076 57.7227 6.4512 53.45ZM60.8103 53.45C56.6215 49.2612 54.527 42.8941 54.527 34.4325V25.3846C54.527 17.0068 56.6215 10.6397 60.8941 6.36709C65.1668 2.17822 71.115 9.61696e-06 78.6549 9.61696e-06C86.0274 9.61696e-06 91.8918 2.17822 96.1644 6.36709C100.353 10.6397 102.532 17.0068 102.532 25.3846V34.4325C102.532 42.8103 100.353 49.1774 95.9969 53.45C91.6405 57.7227 85.776 59.8171 78.3198 59.8171C70.7799 59.8171 64.9992 57.7227 60.8103 53.45ZM91.5567 34.265V25.971C91.5567 15.08 87.2002 9.63442 78.6549 9.63442C74.2147 9.63442 70.9474 10.9749 68.7692 13.6557C66.591 16.3366 65.5857 20.4417 65.5857 25.971V34.265C65.5857 39.6268 66.591 43.5643 68.7692 46.0776C70.9474 48.6747 74.2147 49.9314 78.6549 49.9314C87.2002 49.9314 91.5567 44.7372 91.5567 34.265ZM167.279 1.08911V58.8956H156.304V22.2848L142.146 47.7532H134.773L120.364 22.0335V58.8956H109.389V1.08911H120.364L138.46 34.1812L156.304 1.08911H167.279ZM181.236 53.45C177.047 49.2612 174.953 42.8941 174.953 34.4325V25.3846C174.953 17.0068 177.047 10.6397 181.32 6.36709C185.592 2.17822 191.541 9.61696e-06 199.08 9.61696e-06C206.453 9.61696e-06 212.317 2.17822 216.59 6.36709C220.779 10.6397 222.957 17.0068 222.957 25.3846V34.4325C222.957 42.8103 220.779 49.1774 216.422 53.45C212.066 57.7227 206.202 59.8171 198.745 59.8171C191.205 59.8171 185.425 57.7227 181.236 53.45ZM211.982 34.265V25.971C211.982 15.08 207.626 9.63442 199.08 9.63442C194.64 9.63442 191.373 10.9749 189.195 13.6557C187.017 16.3366 186.011 20.4417 186.011 25.971V34.265C186.011 39.6268 187.017 43.5643 189.195 46.0776C191.373 48.6747 194.64 49.9314 199.08 49.9314C207.626 49.9314 211.982 44.7372 211.982 34.265ZM258.091 10.6397V25.4684H284.313V35.019H258.091V58.8956H247.116V1.08911H288.418V10.6397H258.091ZM305.092 56.8011C301.574 55.1256 298.809 52.6123 296.882 49.4287C294.955 46.2452 294.034 42.4752 294.034 38.1188V1.08911H305.009V37.7836C305.009 41.7212 306.014 44.7372 308.192 46.7478C310.287 48.8423 313.303 49.8476 317.324 49.8476C321.261 49.8476 324.361 48.8423 326.539 46.7478C328.718 44.7372 329.807 41.7212 329.807 37.7836V1.08911H340.782V38.1188C340.782 42.4752 339.776 46.2452 337.849 49.4287C335.922 52.6123 333.158 55.1256 329.639 56.8011C326.12 58.5605 322.015 59.3982 317.324 59.3982C312.632 59.3982 308.611 58.5605 305.092 56.8011ZM397.481 1.08911V58.8956H386.506L359.781 20.6093V58.8956H348.806V1.08911H359.781L386.506 39.4592V1.08911H397.481ZM411.657 53.45C407.301 49.2612 405.206 42.8941 405.206 34.4325V25.3846C405.206 17.0068 407.385 10.6397 411.741 6.36709C416.097 2.17822 422.129 9.61696e-06 429.921 9.61696e-06C436.958 9.61696e-06 442.655 1.75933 446.844 5.27799C451.033 8.79664 453.211 13.572 453.211 19.7715V20.4417H442.236V20.1066C442.236 16.9231 441.147 14.326 438.969 12.4829C436.791 10.6397 433.775 9.63442 429.921 9.63442C425.313 9.63442 421.878 10.9749 419.616 13.6557C417.354 16.3366 416.265 20.4417 416.265 25.971V34.265C416.265 39.6268 417.354 43.5643 419.7 46.0776C421.962 48.6747 425.397 49.9314 430.005 49.9314C433.858 49.9314 436.791 49.0936 438.969 47.2505C441.147 45.4074 442.236 42.8941 442.236 39.7105V39.2916H453.127V39.7105C453.127 46.0776 451.033 51.0205 446.844 54.5391C442.655 58.0578 436.958 59.8171 429.837 59.8171C422.046 59.8171 416.014 57.7227 411.657 53.45ZM460.571 1.08911H471.546V58.8956H460.571V1.08911ZM486.018 53.45C481.829 49.2612 479.734 42.8941 479.734 34.4325V25.3846C479.734 17.0068 481.829 10.6397 486.101 6.36709C490.374 2.17822 496.322 9.61696e-06 503.862 9.61696e-06C511.235 9.61696e-06 517.099 2.17822 521.372 6.36709C525.561 10.6397 527.739 17.0068 527.739 25.3846V34.4325C527.739 42.8103 525.561 49.1774 521.204 53.45C516.848 57.7227 510.983 59.8171 503.527 59.8171C495.987 59.8171 490.207 57.7227 486.018 53.45ZM516.764 34.265V25.971C516.764 15.08 512.408 9.63442 503.862 9.63442C499.422 9.63442 496.155 10.9749 493.977 13.6557C491.798 16.3366 490.793 20.4417 490.793 25.971V34.265C490.793 39.6268 491.798 43.5643 493.977 46.0776C496.155 48.6747 499.422 49.9314 503.862 49.9314C512.408 49.9314 516.764 44.7372 516.764 34.265ZM583.271 1.08911V58.8956H572.296L545.571 20.6093V58.8956H534.596V1.08911H545.571L572.296 39.4592V1.08911H583.271ZM627.189 47.6694H602.642L598.453 58.8956H586.724L610.433 1.08911H619.397L643.106 58.8956H631.377L627.189 47.6694ZM623.754 38.5376L614.873 14.9962L606.077 38.5376H623.754ZM49.0102 99.0891V156.896H38.0353L11.3103 118.609V156.896H0.335449V99.0891H11.3103L38.0353 137.459V99.0891H49.0102ZM92.9279 145.669H68.3811L64.1922 156.896H52.4634L76.1724 99.0891H85.1366L108.846 156.896H97.1167L92.9279 145.669ZM89.493 136.538L80.6126 112.996L71.816 136.538H89.493ZM169.683 103.781C173.369 106.964 175.212 111.404 175.212 117.185C175.212 122.798 173.369 127.155 169.683 130.254C165.997 133.438 160.803 134.946 154.1 134.946H140.529V156.896H129.554V99.0891H154.519C160.97 99.0891 165.997 100.681 169.683 103.781ZM164.238 117.101C164.238 114.253 163.4 112.158 161.808 110.734C160.132 109.394 157.87 108.64 154.938 108.64H140.529V125.311H154.938C161.138 125.311 164.238 122.631 164.238 117.101ZM202.769 134.192H191.292V156.896H180.317V99.0891H205.45C211.733 99.0891 216.676 100.597 220.363 103.613C224.049 106.629 225.892 110.986 225.892 116.682C225.892 120.871 224.887 124.306 222.876 126.987C220.865 129.668 218.017 131.679 214.163 132.851L228.489 156.896H215.42L202.769 134.192ZM191.292 124.809H205.785C211.901 124.809 215.001 122.128 215.001 116.682C215.001 114.002 214.163 111.991 212.571 110.65C210.896 109.31 208.634 108.64 205.785 108.64H191.292V124.809ZM269.964 145.669H245.417L241.228 156.896H229.5L253.209 99.0891H262.173L285.882 156.896H274.153L269.964 145.669ZM266.529 136.538L257.649 112.996L248.852 136.538H266.529ZM257.481 82.2498H269.964L256.811 93.3922H247.428L257.481 82.2498ZM325.353 108.64H308.011V156.896H297.036V108.64H279.694V99.0891H325.353V108.64ZM329.428 99.0891H340.403V156.896H329.428V99.0891ZM355.042 151.45C350.686 147.261 348.591 140.894 348.591 132.433V123.385C348.591 115.007 350.769 108.64 355.126 104.367C359.482 100.178 365.514 98 373.306 98C380.343 98 386.04 99.7593 390.229 103.278C394.417 106.797 396.596 111.572 396.596 117.771V118.442H385.621V118.107C385.621 114.923 384.532 112.326 382.354 110.483C380.175 108.64 377.159 107.634 373.306 107.634C368.698 107.634 365.263 108.975 363.001 111.656C360.739 114.337 359.65 118.442 359.65 123.971V132.265C359.65 137.627 360.739 141.564 363.085 144.078C365.347 146.675 368.782 147.931 373.389 147.931C377.243 147.931 380.175 147.094 382.354 145.25C384.532 143.407 385.621 140.894 385.621 137.711V137.292H396.512V137.711C396.512 144.078 394.417 149.02 390.229 152.539C386.04 156.058 380.343 157.817 373.222 157.817C365.43 157.817 359.398 155.723 355.042 151.45ZM439.31 145.669H414.763L410.574 156.896H398.845L422.554 99.0891H431.518L455.227 156.896H443.499L439.31 145.669ZM435.875 136.538L426.994 112.996L418.198 136.538H435.875Z" fill="#F5F5F5"/>
</svg>
