<svg width="459" height="158" viewBox="0 0 459 158" fill="none" xmlns="http://www.w3.org/2000/svg">
<path d="M6.45086 53.0311C2.26199 48.7585 0.167555 42.3914 0.167555 33.9299V25.4683C0.167555 17.0906 2.26199 10.7235 6.53464 6.45086C10.7235 2.17821 16.7555 -3.99482e-06 24.5468 -3.99482e-06C31.5003 -3.99482e-06 37.0296 1.67555 41.051 4.85909C45.0723 8.12641 47.0829 12.6504 47.0829 18.431V18.8499H39.4592V18.5148C39.4592 14.8286 38.1187 11.8964 35.5216 9.88574C32.9245 7.87508 29.2383 6.86975 24.463 6.86975C18.7662 6.86975 14.5773 8.46152 11.8964 11.4775C9.13174 14.5773 7.7913 19.3526 7.7913 25.8872V34.0137C7.7913 40.3807 9.13174 44.9885 11.8964 48.0045C14.6611 51.0205 18.8499 52.5285 24.5468 52.5285C29.3221 52.5285 33.0083 51.5231 35.6054 49.5125C38.1187 47.5018 39.4592 44.6534 39.4592 40.7996V40.4645H46.9992V40.8834C46.9992 46.7478 44.9047 51.2718 40.8834 54.5391C36.8621 57.8065 31.3328 59.3982 24.3792 59.3982C16.6717 59.3982 10.6397 57.3038 6.45086 53.0311ZM61.4665 53.0311C57.2776 48.7585 55.2669 42.3914 55.2669 33.9299V25.4683C55.2669 17.0906 57.3614 10.7235 61.5503 6.45086C65.7391 2.17821 71.7711 -3.99482e-06 79.4786 -3.99482e-06C87.1024 -3.99482e-06 92.9668 2.17821 97.1557 6.45086C101.345 10.7235 103.439 17.0906 103.439 25.4683V33.9299C103.439 42.3914 101.261 48.7585 97.0719 53.0311C92.883 57.3038 86.9348 59.3982 79.2273 59.3982C71.5198 59.3982 65.6554 57.3038 61.4665 53.0311ZM91.7939 48.0045C94.4748 44.9885 95.899 40.3807 95.899 34.0137V25.8872C95.899 19.3526 94.4748 14.5773 91.7939 11.4775C89.0293 8.46152 84.9242 6.86975 79.3949 6.86975C73.7818 6.86975 69.5929 8.46152 66.912 11.4775C64.2311 14.5773 62.8907 19.3526 62.8907 25.8872V34.0137C62.8907 40.3807 64.2311 44.9885 66.912 48.0045C69.5929 51.0205 73.7818 52.5285 79.3949 52.5285C84.9242 52.5285 89.0293 51.0205 91.7939 48.0045ZM160.937 0.83777V58.6442H153.313L120.221 13.9071V58.6442H112.597V0.83777H120.221L153.313 45.6587V0.83777H160.937ZM210.592 7.62375H191.909V58.6442H184.369V7.62375H165.687V0.83777H210.592V7.62375ZM222.974 7.62375V25.8872H251.04V32.6732H222.974V51.8583H255.731V58.6442H215.351V0.83777H255.731V7.62375H222.974ZM280.084 28.5681L259.726 0.83777H268.774L284.692 22.7037L300.442 0.83777H309.238L289.048 28.3168L311.249 58.6442H302.201L284.273 34.1812L266.763 58.6442H257.967L280.084 28.5681ZM355.436 7.62375H336.754V58.6442H329.214V7.62375H310.532V0.83777H355.436V7.62375ZM363.101 53.0311C358.912 48.7585 356.901 42.3914 356.901 33.9299V25.4683C356.901 17.0906 358.996 10.7235 363.184 6.45086C367.373 2.17821 373.405 -3.99482e-06 381.113 -3.99482e-06C388.737 -3.99482e-06 394.601 2.17821 398.79 6.45086C402.979 10.7235 405.073 17.0906 405.073 25.4683V33.9299C405.073 42.3914 402.895 48.7585 398.706 53.0311C394.517 57.3038 388.569 59.3982 380.862 59.3982C373.154 59.3982 367.29 57.3038 363.101 53.0311ZM393.428 48.0045C396.109 44.9885 397.533 40.3807 397.533 34.0137V25.8872C397.533 19.3526 396.109 14.5773 393.428 11.4775C390.663 8.46152 386.558 6.86975 381.029 6.86975C375.416 6.86975 371.227 8.46152 368.546 11.4775C365.865 14.5773 364.525 19.3526 364.525 25.8872V34.0137C364.525 40.3807 365.865 44.9885 368.546 48.0045C371.227 51.0205 375.416 52.5285 381.029 52.5285C386.558 52.5285 390.663 51.0205 393.428 48.0045ZM-2.68295e-07 98.8378H22.5361C30.2437 98.8378 36.1919 100.932 40.3807 105.037C44.5696 109.226 46.7478 115.593 46.7478 124.139V131.26C46.7478 139.889 44.5696 146.256 40.297 150.445C35.9405 154.634 29.9086 156.644 22.1173 156.644H-2.68295e-07V98.8378ZM22.4524 147.094C26.9763 147.094 30.3274 145.837 32.5057 143.324C34.6839 140.81 35.773 136.789 35.773 131.26V124.725C35.773 119.028 34.6839 114.923 32.5057 112.326C30.3274 109.729 26.9763 108.388 22.4524 108.388H10.9748V147.094H22.4524ZM89.4835 145.418H64.9367L60.7478 156.644H49.019L72.728 98.8378H81.6922L105.401 156.644H93.6724L89.4835 145.418ZM86.0486 136.286L77.1682 112.745L68.3716 136.286H86.0486ZM148.562 133.941H137.084V156.644H126.109V98.8378H151.243C157.526 98.8378 162.469 100.346 166.155 103.362C169.841 106.378 171.684 110.734 171.684 116.431C171.684 120.62 170.679 124.055 168.668 126.736C166.658 129.417 163.809 131.427 159.955 132.6L174.281 156.644H161.212L148.562 133.941ZM137.084 124.557H151.578C157.693 124.557 160.793 121.877 160.793 116.431C160.793 113.75 159.955 111.74 158.364 110.399C156.688 109.059 154.426 108.388 151.578 108.388H137.084V124.557ZM190.056 108.388V122.714H216.111V132.265H190.056V147.094H220.384V156.644H179.082V98.8378H220.384V108.388H190.056ZM237.467 154.55C233.949 152.874 231.184 150.361 229.257 147.177C227.33 143.994 226.409 140.224 226.409 135.867V98.8378H237.383V135.532C237.383 139.47 238.389 142.486 240.567 144.496C242.661 146.591 245.677 147.596 249.699 147.596C253.636 147.596 256.736 146.591 258.914 144.496C261.092 142.486 262.182 139.47 262.182 135.532V98.8378H273.156V135.867C273.156 140.224 272.151 143.994 270.224 147.177C268.297 150.361 265.533 152.874 262.014 154.55C258.495 156.309 254.39 157.147 249.699 157.147C245.007 157.147 240.986 156.309 237.467 154.55ZM329.855 98.8378V156.644H318.881L292.156 118.358V156.644H281.181V98.8378H292.156L318.881 137.208V98.8378H329.855ZM338.419 98.8378H349.394V156.644H338.419V98.8378ZM393.774 145.418H369.228L365.039 156.644H353.31L377.019 98.8378H385.983L409.692 156.644H397.963L393.774 145.418ZM390.34 136.286L381.459 112.745L372.662 136.286H390.34ZM368.138 86.0198C369.479 84.7632 370.652 83.8416 371.825 83.3389C372.998 82.8363 374.338 82.5012 375.846 82.5012C377.019 82.5012 378.108 82.6687 379.113 82.9201C380.035 83.2552 381.124 83.674 382.381 84.1767C383.47 84.6794 384.391 85.0983 385.229 85.3496C385.983 85.6009 386.821 85.6847 387.826 85.6847C388.999 85.6847 390.004 85.5172 391.01 85.0145C391.931 84.5118 393.188 83.674 394.863 82.3336V90.0411C393.523 91.3816 392.266 92.3031 391.094 92.8058C389.921 93.3085 388.664 93.5598 387.24 93.5598C385.983 93.5598 384.894 93.476 383.972 93.1409C382.967 92.8058 381.878 92.3869 380.621 91.8005C380.454 91.8005 379.951 91.6329 379.281 91.2978C378.527 90.9627 377.857 90.7951 377.186 90.6276C376.516 90.46 375.93 90.3762 375.343 90.3762C374.17 90.3762 373.081 90.6276 372.076 91.1302C371.071 91.6329 369.73 92.4707 368.138 93.6436V86.0198ZM416.92 151.199C412.731 147.01 410.637 140.643 410.637 132.181V123.133C410.637 114.755 412.731 108.388 417.004 104.116C421.276 99.9269 427.225 97.7487 434.764 97.7487C442.137 97.7487 448.001 99.9269 452.274 104.116C456.463 108.388 458.641 114.755 458.641 123.133V132.181C458.641 140.559 456.463 146.926 452.106 151.199C447.75 155.471 441.886 157.566 434.429 157.566C426.889 157.566 421.109 155.471 416.92 151.199ZM447.666 132.014V123.72C447.666 112.829 443.31 107.383 434.764 107.383C430.324 107.383 427.057 108.724 424.879 111.404C422.701 114.085 421.695 118.19 421.695 123.72V132.014C421.695 137.375 422.701 141.313 424.879 143.826C427.057 146.423 430.324 147.68 434.764 147.68C443.31 147.68 447.666 142.486 447.666 132.014Z" fill="#F5F5F5"/>
</svg>
