<svg width="764" height="131" viewBox="0 0 764 131" fill="none" xmlns="http://www.w3.org/2000/svg">
<path d="M-0.000191554 27.7151L8.20044 0.759305H12.6045L20.8051 27.7151H17.3123L10.4025 3.72064L3.49267 27.7151H-0.000191554ZM4.13809 20.046L5.27707 16.8568H15.5279L16.6668 20.046H4.13809ZM24.8147 33.41V7.59317H27.776L27.8519 12.1491L27.3964 11.9213C27.9026 10.352 28.7378 9.16242 29.9021 8.35248C31.0917 7.54254 32.4585 7.13757 34.0024 7.13757C36.002 7.13757 37.6345 7.63113 38.9 8.61824C40.1909 9.60536 41.14 10.8962 41.7475 12.4908C42.3549 14.0853 42.6586 15.8065 42.6586 17.6541C42.6586 19.5018 42.3549 21.2229 41.7475 22.8175C41.14 24.4121 40.1909 25.7029 38.9 26.69C37.6345 27.6771 36.002 28.1707 34.0024 28.1707C32.9647 28.1707 31.9902 27.9935 31.079 27.6392C30.1932 27.2848 29.4339 26.7913 28.8011 26.1585C28.1936 25.5257 27.776 24.7791 27.5482 23.9185L28.0038 23.387V33.41H24.8147ZM33.6987 25.1334C35.4451 25.1334 36.8119 24.4753 37.799 23.1592C38.8114 21.843 39.3176 20.008 39.3176 17.6541C39.3176 15.3002 38.8114 13.4652 37.799 12.1491C36.8119 10.8329 35.4451 10.1748 33.6987 10.1748C32.5344 10.1748 31.522 10.4533 30.6614 11.0101C29.8262 11.5669 29.1681 12.4022 28.6872 13.5158C28.2316 14.6295 28.0038 16.0089 28.0038 17.6541C28.0038 19.2993 28.2316 20.6787 28.6872 21.7924C29.1428 22.9061 29.8009 23.7413 30.6614 24.2982C31.522 24.855 32.5344 25.1334 33.6987 25.1334ZM53.1983 27.7151V7.59317H55.8559L56.1597 12.6806L55.8559 12.6047C56.109 10.8835 56.6532 9.61801 57.4885 8.80807C58.349 7.99814 59.488 7.59317 60.9054 7.59317H65.0437V10.4786H60.9434C59.9563 10.4786 59.121 10.6811 58.4376 11.086C57.7795 11.4657 57.2733 12.0352 56.919 12.7945C56.5646 13.5285 56.3875 14.4523 56.3875 15.566V27.7151H53.1983ZM47.959 27.7151V24.9056H62.7657V27.7151H47.959ZM47.959 10.4026V7.59317H54.9448V10.4026H47.959ZM79.0383 28.1707C77.14 28.1707 75.4948 27.7404 74.1027 26.8798C72.7359 26.0193 71.6729 24.8044 70.9136 23.2351C70.1796 21.6405 69.8126 19.7802 69.8126 17.6541C69.8126 15.528 70.1796 13.6804 70.9136 12.1111C71.6729 10.5419 72.7233 9.32694 74.0647 8.46638C75.4315 7.58051 77.0387 7.13757 78.8864 7.13757C80.6328 7.13757 82.1768 7.5552 83.5182 8.39045C84.8597 9.20039 85.9101 10.39 86.6694 11.9592C87.4287 13.5285 87.8084 15.4395 87.8084 17.6921V18.6412H73.1536C73.2801 20.7926 73.8496 22.4125 74.862 23.5009C75.8998 24.5892 77.2918 25.1334 79.0383 25.1334C80.3544 25.1334 81.4301 24.8297 82.2654 24.2222C83.1259 23.5895 83.7207 22.7669 84.0498 21.7544L87.4667 22.0202C86.9352 23.8173 85.9228 25.2979 84.4294 26.4622C82.9614 27.6012 81.1644 28.1707 79.0383 28.1707ZM73.1536 15.8318H84.3155C84.1637 13.8828 83.5942 12.4528 82.6071 11.5416C81.6199 10.6304 80.3797 10.1748 78.8864 10.1748C77.3425 10.1748 76.0643 10.6557 75.0519 11.6176C74.0647 12.554 73.432 13.9588 73.1536 15.8318ZM101.841 28.1707C100.095 28.1707 98.5885 27.867 97.323 27.2595C96.0575 26.652 95.0577 25.8421 94.3237 24.8297C93.615 23.7919 93.21 22.6403 93.1088 21.3748L96.4498 21.147C96.6523 22.3872 97.1964 23.3617 98.0823 24.0704C98.9935 24.7791 100.246 25.1334 101.841 25.1334C103.334 25.1334 104.486 24.9183 105.296 24.488C106.131 24.0577 106.549 23.387 106.549 22.4758C106.549 21.8937 106.409 21.4127 106.131 21.0331C105.853 20.6534 105.334 20.337 104.574 20.0839C103.815 19.8055 102.701 19.5398 101.233 19.2867C99.2846 18.9323 97.7533 18.502 96.6396 17.9958C95.5513 17.4643 94.7793 16.8062 94.3237 16.0216C93.8681 15.237 93.6403 14.3005 93.6403 13.2121C93.6403 12.0478 93.9314 11.0101 94.5135 10.0989C95.0957 9.18773 95.9562 8.46638 97.0952 7.93486C98.2342 7.40334 99.6263 7.13757 101.271 7.13757C102.942 7.13757 104.334 7.4413 105.448 8.04876C106.587 8.6309 107.485 9.41553 108.143 10.4026C108.801 11.3644 109.232 12.4275 109.434 13.5918L106.093 13.8196C105.941 13.1109 105.65 12.4908 105.22 11.9592C104.815 11.4024 104.271 10.9721 103.587 10.6684C102.929 10.3394 102.145 10.1748 101.233 10.1748C99.7655 10.1748 98.6771 10.4659 97.9684 11.0481C97.2597 11.6302 96.9054 12.3516 96.9054 13.2121C96.9054 13.8955 97.0699 14.4397 97.3989 14.8447C97.728 15.2496 98.2595 15.5787 98.9935 15.8318C99.7275 16.0596 100.702 16.2747 101.917 16.4772C103.992 16.8062 105.6 17.2365 106.739 17.768C107.878 18.2742 108.675 18.907 109.13 19.6663C109.586 20.4256 109.814 21.3621 109.814 22.4758C109.814 23.6654 109.459 24.6905 108.751 25.551C108.067 26.3863 107.118 27.0317 105.903 27.4873C104.714 27.9429 103.36 28.1707 101.841 28.1707ZM124.568 28.1707C122.669 28.1707 121.024 27.7404 119.632 26.8798C118.265 26.0193 117.202 24.8044 116.443 23.2351C115.709 21.6405 115.342 19.7802 115.342 17.6541C115.342 15.528 115.709 13.6804 116.443 12.1111C117.202 10.5419 118.253 9.32694 119.594 8.46638C120.961 7.58051 122.568 7.13757 124.416 7.13757C126.162 7.13757 127.706 7.5552 129.048 8.39045C130.389 9.20039 131.439 10.39 132.199 11.9592C132.958 13.5285 133.338 15.4395 133.338 17.6921V18.6412H118.683C118.81 20.7926 119.379 22.4125 120.391 23.5009C121.429 24.5892 122.821 25.1334 124.568 25.1334C125.884 25.1334 126.96 24.8297 127.795 24.2222C128.655 23.5895 129.25 22.7669 129.579 21.7544L132.996 22.0202C132.465 23.8173 131.452 25.2979 129.959 26.4622C128.491 27.6012 126.694 28.1707 124.568 28.1707ZM118.683 15.8318H129.845C129.693 13.8828 129.124 12.4528 128.136 11.5416C127.149 10.6304 125.909 10.1748 124.416 10.1748C122.872 10.1748 121.594 10.6557 120.581 11.6176C119.594 12.554 118.961 13.9588 118.683 15.8318ZM138.79 27.7151V7.59317H141.713L141.827 12.7186L141.448 12.3769C141.701 11.1873 142.156 10.2128 142.814 9.45349C143.498 8.66887 144.308 8.08672 145.244 7.70706C146.181 7.3274 147.168 7.13757 148.206 7.13757C149.75 7.13757 151.028 7.47927 152.04 8.16265C153.078 8.84604 153.863 9.76988 154.394 10.9342C154.926 12.0731 155.191 13.3513 155.191 14.7687V27.7151H152.002V15.6799C152.002 13.8069 151.635 12.3895 150.901 11.4277C150.167 10.4406 149.041 9.94705 147.522 9.94705C146.484 9.94705 145.548 10.1748 144.713 10.6304C143.877 11.0607 143.207 11.7061 142.701 12.5667C142.22 13.4019 141.979 14.4397 141.979 15.6799V27.7151H138.79ZM172.717 27.7151C170.768 27.7151 169.312 27.2595 168.351 26.3483C167.389 25.4371 166.908 24.0451 166.908 22.1721V2.88539H170.097V22.1721C170.097 23.1086 170.312 23.8046 170.742 24.2602C171.173 24.6905 171.831 24.9056 172.717 24.9056H178.108V27.7151H172.717ZM160.264 10.4026V7.59317H178.108V10.4026H160.264ZM189.862 28.1707C188.597 28.1707 187.458 27.9429 186.446 27.4873C185.433 27.0317 184.636 26.3989 184.054 25.589C183.472 24.7537 183.18 23.7919 183.18 22.7036C183.18 20.9825 183.687 19.6537 184.699 18.7172C185.737 17.7554 187.357 17.0593 189.559 16.629L196.317 15.2623C196.317 13.5412 195.924 12.263 195.14 11.4277C194.38 10.5925 193.279 10.1748 191.837 10.1748C190.445 10.1748 189.356 10.4912 188.572 11.124C187.787 11.7314 187.243 12.6173 186.939 13.7816L183.56 13.5158C183.94 11.6176 184.838 10.0863 186.256 8.92197C187.698 7.73237 189.559 7.13757 191.837 7.13757C194.267 7.13757 196.152 7.87158 197.494 9.3396C198.835 10.7823 199.506 12.7818 199.506 15.3382V23.6907C199.506 24.1463 199.607 24.4627 199.81 24.6399C200.012 24.817 200.316 24.9056 200.721 24.9056H202.012V27.7151C201.86 27.7404 201.619 27.7531 201.29 27.7531C200.961 27.7784 200.645 27.791 200.341 27.791C199.481 27.791 198.746 27.6518 198.139 27.3734C197.557 27.095 197.114 26.652 196.81 26.0446C196.507 25.4118 196.342 24.6019 196.317 23.6148H196.924C196.747 24.4753 196.317 25.26 195.633 25.9687C194.975 26.652 194.14 27.1962 193.128 27.6012C192.115 27.9808 191.027 28.1707 189.862 28.1707ZM190.166 25.3612C191.533 25.3612 192.672 25.1334 193.583 24.6778C194.494 24.1969 195.178 23.5388 195.633 22.7036C196.089 21.843 196.317 20.8559 196.317 19.7423V17.9958L190.166 19.2107C188.799 19.4638 187.85 19.8561 187.319 20.3877C186.787 20.8939 186.521 21.5646 186.521 22.3999C186.521 23.3364 186.838 24.0704 187.471 24.6019C188.129 25.1081 189.027 25.3612 190.166 25.3612ZM215.816 28.1707C213.943 28.1707 212.311 27.7404 210.919 26.8798C209.527 26.0193 208.451 24.8044 207.692 23.2351C206.932 21.6405 206.553 19.7802 206.553 17.6541C206.553 15.528 206.932 13.6804 207.692 12.1111C208.451 10.5419 209.527 9.32694 210.919 8.46638C212.311 7.58051 213.943 7.13757 215.816 7.13757C217.31 7.13757 218.638 7.41599 219.803 7.97282C220.967 8.50435 221.929 9.28898 222.688 10.3267C223.447 11.3644 223.966 12.63 224.245 14.1233L220.904 14.3511C220.6 13.0096 219.993 11.9846 219.081 11.2759C218.196 10.5419 217.107 10.1748 215.816 10.1748C213.969 10.1748 212.513 10.8456 211.45 12.187C210.413 13.5032 209.894 15.3256 209.894 17.6541C209.894 19.9827 210.413 21.8177 211.45 23.1592C212.513 24.4753 213.969 25.1334 215.816 25.1334C217.107 25.1334 218.221 24.7537 219.157 23.9944C220.119 23.2351 220.752 22.0961 221.056 20.5775L224.397 20.8053C224.118 22.2986 223.587 23.6021 222.802 24.7158C222.017 25.8041 221.03 26.652 219.841 27.2595C218.651 27.867 217.31 28.1707 215.816 28.1707ZM215.399 36.0676C214.184 36.0676 213.209 35.7765 212.475 35.1944C211.741 34.6375 211.235 33.9415 210.957 33.1062L212.893 32.3469C213.121 32.9038 213.424 33.3087 213.804 33.5618C214.184 33.8149 214.69 33.9415 215.323 33.9415C215.981 33.9415 216.487 33.8023 216.841 33.5239C217.196 33.2708 217.373 32.9038 217.373 32.4229C217.373 31.942 217.196 31.537 216.841 31.2079C216.487 30.9042 215.702 30.7524 214.488 30.7524L213.424 29.6134L214.867 27.3354H217.297L216.006 29.0819C217.246 29.1325 218.158 29.4615 218.74 30.069C219.347 30.7017 219.651 31.5117 219.651 32.4988C219.651 33.2075 219.461 33.8276 219.081 34.3591C218.727 34.8906 218.233 35.3083 217.601 35.612C216.968 35.9157 216.234 36.0676 215.399 36.0676ZM235.392 28.1707C234.126 28.1707 232.987 27.9429 231.975 27.4873C230.963 27.0317 230.165 26.3989 229.583 25.589C229.001 24.7537 228.71 23.7919 228.71 22.7036C228.71 20.9825 229.216 19.6537 230.229 18.7172C231.266 17.7554 232.886 17.0593 235.088 16.629L241.846 15.2623C241.846 13.5412 241.454 12.263 240.669 11.4277C239.91 10.5925 238.809 10.1748 237.366 10.1748C235.974 10.1748 234.886 10.4912 234.101 11.124C233.316 11.7314 232.772 12.6173 232.469 13.7816L229.09 13.5158C229.469 11.6176 230.368 10.0863 231.785 8.92197C233.228 7.73237 235.088 7.13757 237.366 7.13757C239.796 7.13757 241.682 7.87158 243.023 9.3396C244.364 10.7823 245.035 12.7818 245.035 15.3382V23.6907C245.035 24.1463 245.136 24.4627 245.339 24.6399C245.541 24.817 245.845 24.9056 246.25 24.9056H247.541V27.7151C247.389 27.7404 247.149 27.7531 246.82 27.7531C246.491 27.7784 246.174 27.791 245.87 27.791C245.01 27.791 244.276 27.6518 243.668 27.3734C243.086 27.095 242.643 26.652 242.34 26.0446C242.036 25.4118 241.871 24.6019 241.846 23.6148H242.454C242.276 24.4753 241.846 25.26 241.163 25.9687C240.505 26.652 239.669 27.1962 238.657 27.6012C237.645 27.9808 236.556 28.1707 235.392 28.1707ZM235.696 25.3612C237.062 25.3612 238.201 25.1334 239.113 24.6778C240.024 24.1969 240.707 23.5388 241.163 22.7036C241.618 21.843 241.846 20.8559 241.846 19.7423V17.9958L235.696 19.2107C234.329 19.4638 233.38 19.8561 232.848 20.3877C232.317 20.8939 232.051 21.5646 232.051 22.3999C232.051 23.3364 232.367 24.0704 233 24.6019C233.658 25.1081 234.557 25.3612 235.696 25.3612ZM239.72 4.5559C239.239 4.5559 238.784 4.45465 238.353 4.25217C237.923 4.02437 237.493 3.74596 237.062 3.41692C236.632 3.06257 236.29 2.80946 236.037 2.6576C235.784 2.50574 235.468 2.42981 235.088 2.42981C234.633 2.42981 234.253 2.60698 233.949 2.96133C233.645 3.29036 233.468 3.91047 233.418 4.82166H231.443C231.494 3.35364 231.861 2.25263 232.544 1.51862C233.228 0.759305 234.076 0.379647 235.088 0.379647C235.696 0.379647 236.214 0.493544 236.645 0.72134C237.1 0.949135 237.543 1.24021 237.974 1.59456C238.379 1.92359 238.72 2.16404 238.999 2.31591C239.277 2.44246 239.568 2.50574 239.872 2.50574C240.353 2.50574 240.72 2.32856 240.973 1.97421C241.226 1.59456 241.39 0.93648 241.466 -1.17868e-05H243.441C243.365 1.44269 242.998 2.56901 242.34 3.37895C241.682 4.16358 240.808 4.5559 239.72 4.5559ZM260.814 28.1707C258.967 28.1707 257.347 27.7404 255.955 26.8798C254.588 26.0193 253.525 24.8044 252.765 23.2351C252.006 21.6405 251.626 19.7802 251.626 17.6541C251.626 15.5027 252.006 13.6424 252.765 12.0731C253.525 10.5039 254.588 9.28898 255.955 8.42842C257.347 7.56785 258.967 7.13757 260.814 7.13757C262.662 7.13757 264.269 7.56785 265.636 8.42842C267.028 9.28898 268.104 10.5039 268.863 12.0731C269.622 13.6424 270.002 15.5027 270.002 17.6541C270.002 19.7802 269.622 21.6405 268.863 23.2351C268.104 24.8044 267.028 26.0193 265.636 26.8798C264.269 27.7404 262.662 28.1707 260.814 28.1707ZM260.814 25.1334C262.662 25.1334 264.092 24.4753 265.104 23.1592C266.142 21.8177 266.661 19.9827 266.661 17.6541C266.661 15.3256 266.142 13.5032 265.104 12.187C264.092 10.8456 262.662 10.1748 260.814 10.1748C258.967 10.1748 257.524 10.8456 256.486 12.187C255.474 13.5032 254.967 15.3256 254.967 17.6541C254.967 19.9827 255.474 21.8177 256.486 23.1592C257.524 24.4753 258.967 25.1334 260.814 25.1334ZM305.091 28.1707C303.319 28.1707 301.788 27.7404 300.497 26.8798C299.206 26.0193 298.206 24.8044 297.498 23.2351C296.814 21.6659 296.472 19.8055 296.472 17.6541C296.472 15.5027 296.814 13.6424 297.498 12.0731C298.206 10.5039 299.206 9.28898 300.497 8.42842C301.788 7.56785 303.319 7.13757 305.091 7.13757C306.508 7.13757 307.748 7.47927 308.811 8.16265C309.874 8.82073 310.646 9.56739 311.127 10.4026V0.759305H314.316V27.7151H311.431L311.317 24.6778C310.76 25.7662 309.938 26.6267 308.849 27.2595C307.761 27.867 306.508 28.1707 305.091 28.1707ZM305.281 25.1334C306.495 25.1334 307.533 24.8297 308.394 24.2222C309.28 23.6148 309.95 22.7542 310.406 21.6405C310.887 20.5016 311.127 19.1728 311.127 17.6541C311.127 16.0849 310.887 14.7434 310.406 13.6297C309.95 12.5161 309.28 11.6682 308.394 11.086C307.508 10.4786 306.445 10.1748 305.205 10.1748C303.559 10.1748 302.243 10.8456 301.256 12.187C300.294 13.5032 299.813 15.3256 299.813 17.6541C299.813 19.9574 300.294 21.7798 301.256 23.1212C302.243 24.4627 303.585 25.1334 305.281 25.1334ZM329.108 28.1707C327.261 28.1707 325.641 27.7404 324.249 26.8798C322.882 26.0193 321.819 24.8044 321.06 23.2351C320.3 21.6405 319.921 19.7802 319.921 17.6541C319.921 15.5027 320.3 13.6424 321.06 12.0731C321.819 10.5039 322.882 9.28898 324.249 8.42842C325.641 7.56785 327.261 7.13757 329.108 7.13757C330.956 7.13757 332.563 7.56785 333.93 8.42842C335.322 9.28898 336.398 10.5039 337.157 12.0731C337.916 13.6424 338.296 15.5027 338.296 17.6541C338.296 19.7802 337.916 21.6405 337.157 23.2351C336.398 24.8044 335.322 26.0193 333.93 26.8798C332.563 27.7404 330.956 28.1707 329.108 28.1707ZM329.108 25.1334C330.956 25.1334 332.386 24.4753 333.398 23.1592C334.436 21.8177 334.955 19.9827 334.955 17.6541C334.955 15.3256 334.436 13.5032 333.398 12.187C332.386 10.8456 330.956 10.1748 329.108 10.1748C327.261 10.1748 325.818 10.8456 324.78 12.187C323.768 13.5032 323.262 15.3256 323.262 17.6541C323.262 19.9827 323.768 21.8177 324.78 23.1592C325.818 24.4753 327.261 25.1334 329.108 25.1334ZM352.253 28.1707C350.506 28.1707 349 27.867 347.735 27.2595C346.469 26.652 345.469 25.8421 344.735 24.8297C344.027 23.7919 343.622 22.6403 343.521 21.3748L346.862 21.147C347.064 22.3872 347.608 23.3617 348.494 24.0704C349.405 24.7791 350.658 25.1334 352.253 25.1334C353.746 25.1334 354.898 24.9183 355.708 24.488C356.543 24.0577 356.96 23.387 356.96 22.4758C356.96 21.8937 356.821 21.4127 356.543 21.0331C356.264 20.6534 355.746 20.337 354.986 20.0839C354.227 19.8055 353.113 19.5398 351.645 19.2867C349.696 18.9323 348.165 18.502 347.051 17.9958C345.963 17.4643 345.191 16.8062 344.735 16.0216C344.28 15.237 344.052 14.3005 344.052 13.2121C344.052 12.0478 344.343 11.0101 344.925 10.0989C345.507 9.18773 346.368 8.46638 347.507 7.93486C348.646 7.40334 350.038 7.13757 351.683 7.13757C353.354 7.13757 354.746 7.4413 355.859 8.04876C356.998 8.6309 357.897 9.41553 358.555 10.4026C359.213 11.3644 359.643 12.4275 359.846 13.5918L356.505 13.8196C356.353 13.1109 356.062 12.4908 355.632 11.9592C355.227 11.4024 354.682 10.9721 353.999 10.6684C353.341 10.3394 352.556 10.1748 351.645 10.1748C350.177 10.1748 349.089 10.4659 348.38 11.0481C347.671 11.6302 347.317 12.3516 347.317 13.2121C347.317 13.8955 347.482 14.4397 347.811 14.8447C348.14 15.2496 348.671 15.5787 349.405 15.8318C350.139 16.0596 351.114 16.2747 352.329 16.4772C354.404 16.8062 356.011 17.2365 357.15 17.768C358.289 18.2742 359.087 18.907 359.542 19.6663C359.998 20.4256 360.226 21.3621 360.226 22.4758C360.226 23.6654 359.871 24.6905 359.162 25.551C358.479 26.3863 357.53 27.0317 356.315 27.4873C355.125 27.9429 353.771 28.1707 352.253 28.1707ZM400.364 27.7151C398.415 27.7151 396.959 27.2595 395.998 26.3483C395.036 25.4371 394.555 24.0451 394.555 22.1721V2.88539H397.744V22.1721C397.744 23.1086 397.959 23.8046 398.39 24.2602C398.82 24.6905 399.478 24.9056 400.364 24.9056H405.755V27.7151H400.364ZM387.911 10.4026V7.59317H405.755V10.4026H387.911ZM419.901 27.7151V7.59317H423.091V27.7151H419.901ZM411.815 27.7151V24.9056H430.038V27.7151H411.815ZM412.194 10.4026V7.59317H423.091V10.4026H412.194ZM419.598 4.442V0.72134H422.939V4.442H419.598ZM434.579 33.41V7.59317H437.541L437.617 12.1491L437.161 11.9213C437.667 10.352 438.502 9.16242 439.667 8.35248C440.856 7.54254 442.223 7.13757 443.767 7.13757C445.767 7.13757 447.399 7.63113 448.665 8.61824C449.956 9.60536 450.905 10.8962 451.512 12.4908C452.12 14.0853 452.423 15.8065 452.423 17.6541C452.423 19.5018 452.12 21.2229 451.512 22.8175C450.905 24.4121 449.956 25.7029 448.665 26.69C447.399 27.6771 445.767 28.1707 443.767 28.1707C442.729 28.1707 441.755 27.9935 440.844 27.6392C439.958 27.2848 439.199 26.7913 438.566 26.1585C437.958 25.5257 437.541 24.7791 437.313 23.9185L437.768 23.387V33.41H434.579ZM443.463 25.1334C445.21 25.1334 446.577 24.4753 447.564 23.1592C448.576 21.843 449.082 20.008 449.082 17.6541C449.082 15.3002 448.576 13.4652 447.564 12.1491C446.577 10.8329 445.21 10.1748 443.463 10.1748C442.299 10.1748 441.287 10.4533 440.426 11.0101C439.591 11.5669 438.933 12.4022 438.452 13.5158C437.996 14.6295 437.768 16.0089 437.768 17.6541C437.768 19.2993 437.996 20.6787 438.452 21.7924C438.907 22.9061 439.566 23.7413 440.426 24.2982C441.287 24.855 442.299 25.1334 443.463 25.1334ZM465.697 28.1707C463.849 28.1707 462.229 27.7404 460.837 26.8798C459.47 26.0193 458.407 24.8044 457.648 23.2351C456.888 21.6405 456.509 19.7802 456.509 17.6541C456.509 15.5027 456.888 13.6424 457.648 12.0731C458.407 10.5039 459.47 9.28898 460.837 8.42842C462.229 7.56785 463.849 7.13757 465.697 7.13757C467.544 7.13757 469.151 7.56785 470.518 8.42842C471.91 9.28898 472.986 10.5039 473.745 12.0731C474.505 13.6424 474.884 15.5027 474.884 17.6541C474.884 19.7802 474.505 21.6405 473.745 23.2351C472.986 24.8044 471.91 26.0193 470.518 26.8798C469.151 27.7404 467.544 28.1707 465.697 28.1707ZM465.697 25.1334C467.544 25.1334 468.974 24.4753 469.987 23.1592C471.024 21.8177 471.543 19.9827 471.543 17.6541C471.543 15.3256 471.024 13.5032 469.987 12.187C468.974 10.8456 467.544 10.1748 465.697 10.1748C463.849 10.1748 462.406 10.8456 461.368 12.187C460.356 13.5032 459.85 15.3256 459.85 17.6541C459.85 19.9827 460.356 21.8177 461.368 23.1592C462.406 24.4753 463.849 25.1334 465.697 25.1334ZM488.841 28.1707C487.094 28.1707 485.588 27.867 484.323 27.2595C483.057 26.652 482.058 25.8421 481.324 24.8297C480.615 23.7919 480.21 22.6403 480.109 21.3748L483.45 21.147C483.652 22.3872 484.196 23.3617 485.082 24.0704C485.993 24.7791 487.246 25.1334 488.841 25.1334C490.334 25.1334 491.486 24.9183 492.296 24.488C493.131 24.0577 493.549 23.387 493.549 22.4758C493.549 21.8937 493.409 21.4127 493.131 21.0331C492.853 20.6534 492.334 20.337 491.574 20.0839C490.815 19.8055 489.701 19.5398 488.233 19.2867C486.285 18.9323 484.753 18.502 483.64 17.9958C482.551 17.4643 481.779 16.8062 481.324 16.0216C480.868 15.237 480.64 14.3005 480.64 13.2121C480.64 12.0478 480.931 11.0101 481.513 10.0989C482.096 9.18773 482.956 8.46638 484.095 7.93486C485.234 7.40334 486.626 7.13757 488.271 7.13757C489.942 7.13757 491.334 7.4413 492.448 8.04876C493.587 8.6309 494.485 9.41553 495.143 10.4026C495.801 11.3644 496.232 12.4275 496.434 13.5918L493.093 13.8196C492.941 13.1109 492.65 12.4908 492.22 11.9592C491.815 11.4024 491.271 10.9721 490.587 10.6684C489.929 10.3394 489.145 10.1748 488.233 10.1748C486.765 10.1748 485.677 10.4659 484.968 11.0481C484.26 11.6302 483.905 12.3516 483.905 13.2121C483.905 13.8955 484.07 14.4397 484.399 14.8447C484.728 15.2496 485.259 15.5787 485.993 15.8318C486.727 16.0596 487.702 16.2747 488.917 16.4772C490.992 16.8062 492.6 17.2365 493.738 17.768C494.877 18.2742 495.675 18.907 496.13 19.6663C496.586 20.4256 496.814 21.3621 496.814 22.4758C496.814 23.6654 496.459 24.6905 495.751 25.551C495.067 26.3863 494.118 27.0317 492.903 27.4873C491.714 27.9429 490.36 28.1707 488.841 28.1707ZM532.738 28.1707C530.966 28.1707 529.435 27.7404 528.144 26.8798C526.853 26.0193 525.853 24.8044 525.145 23.2351C524.461 21.6659 524.12 19.8055 524.12 17.6541C524.12 15.5027 524.461 13.6424 525.145 12.0731C525.853 10.5039 526.853 9.28898 528.144 8.42842C529.435 7.56785 530.966 7.13757 532.738 7.13757C534.155 7.13757 535.395 7.47927 536.458 8.16265C537.521 8.82073 538.293 9.56739 538.774 10.4026V0.759305H541.963V27.7151H539.078L538.964 24.6778C538.407 25.7662 537.585 26.6267 536.496 27.2595C535.408 27.867 534.155 28.1707 532.738 28.1707ZM532.928 25.1334C534.143 25.1334 535.18 24.8297 536.041 24.2222C536.927 23.6148 537.597 22.7542 538.053 21.6405C538.534 20.5016 538.774 19.1728 538.774 17.6541C538.774 16.0849 538.534 14.7434 538.053 13.6297C537.597 12.5161 536.927 11.6682 536.041 11.086C535.155 10.4786 534.092 10.1748 532.852 10.1748C531.206 10.1748 529.89 10.8456 528.903 12.187C527.941 13.5032 527.461 15.3256 527.461 17.6541C527.461 19.9574 527.941 21.7798 528.903 23.1212C529.89 24.4627 531.232 25.1334 532.928 25.1334ZM557.097 28.1707C555.199 28.1707 553.554 27.7404 552.161 26.8798C550.795 26.0193 549.732 24.8044 548.972 23.2351C548.238 21.6405 547.871 19.7802 547.871 17.6541C547.871 15.528 548.238 13.6804 548.972 12.1111C549.732 10.5419 550.782 9.32694 552.124 8.46638C553.49 7.58051 555.098 7.13757 556.945 7.13757C558.692 7.13757 560.236 7.5552 561.577 8.39045C562.918 9.20039 563.969 10.39 564.728 11.9592C565.488 13.5285 565.867 15.4395 565.867 17.6921V18.6412H551.212C551.339 20.7926 551.908 22.4125 552.921 23.5009C553.959 24.5892 555.351 25.1334 557.097 25.1334C558.413 25.1334 559.489 24.8297 560.324 24.2222C561.185 23.5895 561.78 22.7669 562.109 21.7544L565.525 22.0202C564.994 23.8173 563.982 25.2979 562.488 26.4622C561.02 27.6012 559.223 28.1707 557.097 28.1707ZM551.212 15.8318H562.374C562.222 13.8828 561.653 12.4528 560.666 11.5416C559.679 10.6304 558.439 10.1748 556.945 10.1748C555.401 10.1748 554.123 10.6557 553.111 11.6176C552.124 12.554 551.491 13.9588 551.212 15.8318ZM599.627 28.1707C598.362 28.1707 597.223 27.9429 596.21 27.4873C595.198 27.0317 594.401 26.3989 593.818 25.589C593.236 24.7537 592.945 23.7919 592.945 22.7036C592.945 20.9825 593.451 19.6537 594.464 18.7172C595.502 17.7554 597.121 17.0593 599.323 16.629L606.081 15.2623C606.081 13.5412 605.689 12.263 604.904 11.4277C604.145 10.5925 603.044 10.1748 601.601 10.1748C600.209 10.1748 599.121 10.4912 598.336 11.124C597.552 11.7314 597.008 12.6173 596.704 13.7816L593.325 13.5158C593.704 11.6176 594.603 10.0863 596.02 8.92197C597.463 7.73237 599.323 7.13757 601.601 7.13757C604.031 7.13757 605.917 7.87158 607.258 9.3396C608.6 10.7823 609.271 12.7818 609.271 15.3382V23.6907C609.271 24.1463 609.372 24.4627 609.574 24.6399C609.777 24.817 610.08 24.9056 610.485 24.9056H611.776V27.7151C611.624 27.7404 611.384 27.7531 611.055 27.7531C610.726 27.7784 610.409 27.791 610.106 27.791C609.245 27.791 608.511 27.6518 607.904 27.3734C607.322 27.095 606.879 26.652 606.575 26.0446C606.271 25.4118 606.107 24.6019 606.081 23.6148H606.689C606.512 24.4753 606.081 25.26 605.398 25.9687C604.74 26.652 603.905 27.1962 602.892 27.6012C601.88 27.9808 600.791 28.1707 599.627 28.1707ZM599.931 25.3612C601.298 25.3612 602.437 25.1334 603.348 24.6778C604.259 24.1969 604.942 23.5388 605.398 22.7036C605.854 21.843 606.081 20.8559 606.081 19.7423V17.9958L599.931 19.2107C598.564 19.4638 597.615 19.8561 597.083 20.3877C596.552 20.8939 596.286 21.5646 596.286 22.3999C596.286 23.3364 596.603 24.0704 597.235 24.6019C597.893 25.1081 598.792 25.3612 599.931 25.3612ZM624.936 33.8656C623.493 33.8656 622.189 33.6251 621.025 33.1442C619.861 32.6633 618.886 31.9799 618.102 31.0941C617.317 30.2082 616.786 29.1831 616.507 28.0188L619.848 27.791C620.152 28.7275 620.683 29.4615 621.443 29.993C622.227 30.5499 623.392 30.8283 624.936 30.8283C626.758 30.8283 628.15 30.4613 629.112 29.7273C630.099 28.9933 630.592 27.8923 630.592 26.4242V23.1592C630.112 24.2222 629.34 25.0701 628.277 25.7029C627.213 26.3357 626.024 26.652 624.708 26.652C623.012 26.652 621.493 26.2344 620.152 25.3992C618.836 24.5639 617.798 23.4123 617.039 21.9443C616.305 20.4763 615.938 18.7931 615.938 16.8948C615.938 14.9712 616.305 13.288 617.039 11.8453C617.773 10.3773 618.785 9.2257 620.076 8.39045C621.392 7.5552 622.885 7.13757 624.556 7.13757C625.973 7.13757 627.239 7.46661 628.352 8.12469C629.491 8.78276 630.289 9.66863 630.744 10.7823V7.59317H633.782V26.3483C633.782 27.9176 633.427 29.259 632.719 30.3727C632.01 31.5117 630.997 32.3722 629.681 32.9544C628.365 33.5618 626.783 33.8656 624.936 33.8656ZM624.86 23.6148C626.581 23.6148 627.96 23.02 628.998 21.8304C630.036 20.6155 630.567 18.9703 630.592 16.8948C630.618 15.5027 630.39 14.3131 629.909 13.326C629.453 12.3136 628.783 11.5416 627.897 11.0101C627.036 10.4533 626.024 10.1748 624.86 10.1748C623.088 10.1748 621.708 10.7823 620.721 11.9972C619.76 13.1868 619.279 14.8193 619.279 16.8948C619.279 18.9703 619.772 20.6155 620.759 21.8304C621.772 23.02 623.138 23.6148 624.86 23.6148ZM648.156 28.1707C646.258 28.1707 644.612 27.7404 643.22 26.8798C641.853 26.0193 640.79 24.8044 640.031 23.2351C639.297 21.6405 638.93 19.7802 638.93 17.6541C638.93 15.528 639.297 13.6804 640.031 12.1111C640.79 10.5419 641.841 9.32694 643.182 8.46638C644.549 7.58051 646.156 7.13757 648.004 7.13757C649.75 7.13757 651.294 7.5552 652.636 8.39045C653.977 9.20039 655.028 10.39 655.787 11.9592C656.546 13.5285 656.926 15.4395 656.926 17.6921V18.6412H642.271C642.398 20.7926 642.967 22.4125 643.98 23.5009C645.017 24.5892 646.409 25.1334 648.156 25.1334C649.472 25.1334 650.548 24.8297 651.383 24.2222C652.243 23.5895 652.838 22.7669 653.167 21.7544L656.584 22.0202C656.053 23.8173 655.04 25.2979 653.547 26.4622C652.079 27.6012 650.282 28.1707 648.156 28.1707ZM642.271 15.8318H653.433C653.281 13.8828 652.712 12.4528 651.725 11.5416C650.738 10.6304 649.497 10.1748 648.004 10.1748C646.46 10.1748 645.182 10.6557 644.169 11.6176C643.182 12.554 642.55 13.9588 642.271 15.8318ZM662.378 27.7151V7.59317H665.302L665.415 12.7186L665.036 12.3769C665.289 11.1873 665.745 10.2128 666.403 9.45349C667.086 8.66887 667.896 8.08672 668.832 7.70706C669.769 7.3274 670.756 7.13757 671.794 7.13757C673.338 7.13757 674.616 7.47927 675.628 8.16265C676.666 8.84604 677.451 9.76988 677.982 10.9342C678.514 12.0731 678.779 13.3513 678.779 14.7687V27.7151H675.59V15.6799C675.59 13.8069 675.223 12.3895 674.489 11.4277C673.755 10.4406 672.629 9.94705 671.11 9.94705C670.073 9.94705 669.136 10.1748 668.301 10.6304C667.466 11.0607 666.795 11.7061 666.289 12.5667C665.808 13.4019 665.567 14.4397 665.567 15.6799V27.7151H662.378ZM696.305 27.7151C694.356 27.7151 692.901 27.2595 691.939 26.3483C690.977 25.4371 690.496 24.0451 690.496 22.1721V2.88539H693.685V22.1721C693.685 23.1086 693.9 23.8046 694.331 24.2602C694.761 24.6905 695.419 24.9056 696.305 24.9056H701.696V27.7151H696.305ZM683.852 10.4026V7.59317H701.696V10.4026H683.852ZM716.45 28.1707C714.552 28.1707 712.906 27.7404 711.514 26.8798C710.148 26.0193 709.085 24.8044 708.325 23.2351C707.591 21.6405 707.224 19.7802 707.224 17.6541C707.224 15.528 707.591 13.6804 708.325 12.1111C709.085 10.5419 710.135 9.32694 711.476 8.46638C712.843 7.58051 714.45 7.13757 716.298 7.13757C718.045 7.13757 719.588 7.5552 720.93 8.39045C722.271 9.20039 723.322 10.39 724.081 11.9592C724.84 13.5285 725.22 15.4395 725.22 17.6921V18.6412H710.565C710.692 20.7926 711.261 22.4125 712.274 23.5009C713.311 24.5892 714.704 25.1334 716.45 25.1334C717.766 25.1334 718.842 24.8297 719.677 24.2222C720.538 23.5895 721.132 22.7669 721.461 21.7544L724.878 22.0202C724.347 23.8173 723.334 25.2979 721.841 26.4622C720.373 27.6012 718.576 28.1707 716.45 28.1707ZM710.565 15.8318H721.727C721.575 13.8828 721.006 12.4528 720.019 11.5416C719.032 10.6304 717.791 10.1748 716.298 10.1748C714.754 10.1748 713.476 10.6557 712.464 11.6176C711.476 12.554 710.844 13.9588 710.565 15.8318ZM739.253 28.1707C737.506 28.1707 736 27.867 734.735 27.2595C733.469 26.652 732.469 25.8421 731.735 24.8297C731.027 23.7919 730.622 22.6403 730.52 21.3748L733.861 21.147C734.064 22.3872 734.608 23.3617 735.494 24.0704C736.405 24.7791 737.658 25.1334 739.253 25.1334C740.746 25.1334 741.898 24.9183 742.708 24.488C743.543 24.0577 743.96 23.387 743.96 22.4758C743.96 21.8937 743.821 21.4127 743.543 21.0331C743.264 20.6534 742.746 20.337 741.986 20.0839C741.227 19.8055 740.113 19.5398 738.645 19.2867C736.696 18.9323 735.165 18.502 734.051 17.9958C732.963 17.4643 732.191 16.8062 731.735 16.0216C731.28 15.237 731.052 14.3005 731.052 13.2121C731.052 12.0478 731.343 11.0101 731.925 10.0989C732.507 9.18773 733.368 8.46638 734.507 7.93486C735.646 7.40334 737.038 7.13757 738.683 7.13757C740.354 7.13757 741.746 7.4413 742.859 8.04876C743.998 8.6309 744.897 9.41553 745.555 10.4026C746.213 11.3644 746.643 12.4275 746.846 13.5918L743.505 13.8196C743.353 13.1109 743.062 12.4908 742.632 11.9592C742.227 11.4024 741.682 10.9721 740.999 10.6684C740.341 10.3394 739.556 10.1748 738.645 10.1748C737.177 10.1748 736.089 10.4659 735.38 11.0481C734.671 11.6302 734.317 12.3516 734.317 13.2121C734.317 13.8955 734.482 14.4397 734.811 14.8447C735.14 15.2496 735.671 15.5787 736.405 15.8318C737.139 16.0596 738.114 16.2747 739.329 16.4772C741.404 16.8062 743.011 17.2365 744.15 17.768C745.289 18.2742 746.087 18.907 746.542 19.6663C746.998 20.4256 747.225 21.3621 747.225 22.4758C747.225 23.6654 746.871 24.6905 746.162 25.551C745.479 26.3863 744.53 27.0317 743.315 27.4873C742.125 27.9429 740.771 28.1707 739.253 28.1707ZM759.284 27.7151V23.0832H763.992V27.7151H759.284ZM759.284 13.0603V8.42842H763.992V13.0603H759.284ZM7.74485 75.1707C6.47932 75.1707 5.34034 74.9429 4.32792 74.4873C3.3155 74.0317 2.51821 73.3989 1.93607 72.589C1.35393 71.7537 1.06285 70.7919 1.06285 69.7036C1.06285 67.9825 1.56907 66.6537 2.58149 65.7172C3.61922 64.7554 5.2391 64.0593 7.44112 63.629L14.1991 62.2623C14.1991 60.5412 13.8067 59.263 13.0221 58.4277C12.2628 57.5925 11.1618 57.1748 9.71908 57.1748C8.32699 57.1748 7.23864 57.4912 6.45401 58.124C5.66938 58.7314 5.1252 59.6173 4.82148 60.7816L1.44251 60.5158C1.82217 58.6176 2.7207 57.0863 4.13809 55.922C5.58079 54.7324 7.44112 54.1376 9.71908 54.1376C12.1489 54.1376 14.0345 54.8716 15.376 56.3396C16.7175 57.7823 17.3882 59.7818 17.3882 62.3382V70.6907C17.3882 71.1463 17.4894 71.4627 17.6919 71.6399C17.8944 71.817 18.1981 71.9056 18.6031 71.9056H19.8939V74.7151C19.7421 74.7404 19.5016 74.7531 19.1726 74.7531C18.8435 74.7784 18.5272 74.791 18.2234 74.791C17.3629 74.791 16.6289 74.6518 16.0214 74.3734C15.4393 74.095 14.9963 73.652 14.6926 73.0446C14.3889 72.4118 14.2244 71.6019 14.1991 70.6148H14.8065C14.6293 71.4753 14.1991 72.26 13.5157 72.9687C12.8576 73.652 12.0223 74.1962 11.0099 74.6012C9.99749 74.9808 8.90914 75.1707 7.74485 75.1707ZM8.04858 72.3612C9.41535 72.3612 10.5543 72.1334 11.4655 71.6778C12.3767 71.1969 13.0601 70.5388 13.5157 69.7036C13.9713 68.843 14.1991 67.8559 14.1991 66.7423V64.9958L8.04858 66.2107C6.68181 66.4638 5.73266 66.8561 5.20114 67.3877C4.66961 67.8939 4.40385 68.5646 4.40385 69.3999C4.40385 70.3364 4.72023 71.0704 5.353 71.6019C6.01107 72.1081 6.9096 72.3612 8.04858 72.3612ZM36.1285 74.7151C34.1796 74.7151 32.7242 74.2595 31.7624 73.3483C30.8006 72.4371 30.3197 71.0451 30.3197 69.1721V49.8854H33.5089V69.1721C33.5089 70.1086 33.724 70.8046 34.1543 71.2602C34.5846 71.6905 35.2426 71.9056 36.1285 71.9056H41.5197V74.7151H36.1285ZM23.6757 57.4026V54.5932H41.5197V57.4026H23.6757ZM56.2736 75.1707C54.3753 75.1707 52.7301 74.7404 51.338 73.8798C49.9712 73.0193 48.9082 71.8044 48.1489 70.2351C47.4149 68.6405 47.0479 66.7802 47.0479 64.6541C47.0479 62.528 47.4149 60.6804 48.1489 59.1111C48.9082 57.5419 49.9586 56.3269 51.3 55.4664C52.6668 54.5805 54.274 54.1376 56.1217 54.1376C57.8681 54.1376 59.4121 54.5552 60.7535 55.3905C62.095 56.2004 63.1454 57.39 63.9047 58.9592C64.664 60.5285 65.0437 62.4395 65.0437 64.6921V65.6412H50.3889C50.5154 67.7926 51.0849 69.4125 52.0973 70.5009C53.135 71.5892 54.5271 72.1334 56.2736 72.1334C57.5897 72.1334 58.6654 71.8297 59.5007 71.2222C60.3612 70.5895 60.956 69.7669 61.2851 68.7544L64.702 69.0202C64.1705 70.8173 63.158 72.2979 61.6647 73.4622C60.1967 74.6012 58.3997 75.1707 56.2736 75.1707ZM50.3889 62.8318H61.5508C61.399 60.8828 60.8295 59.4528 59.8424 58.5416C58.8552 57.6304 57.615 57.1748 56.1217 57.1748C54.5778 57.1748 53.2996 57.6557 52.2871 58.6176C51.3 59.554 50.6673 60.9588 50.3889 62.8318ZM70.4959 74.7151V54.5932H73.4193L73.5332 59.7186L73.1536 59.3769C73.4067 58.1873 73.8623 57.2128 74.5203 56.4535C75.2037 55.6689 76.0137 55.0867 76.9501 54.7071C77.8866 54.3274 78.8737 54.1376 79.9115 54.1376C81.4554 54.1376 82.7336 54.4793 83.746 55.1627C84.7838 55.846 85.5684 56.7699 86.0999 57.9342C86.6314 59.0731 86.8972 60.3513 86.8972 61.7687V74.7151H83.7081V62.6799C83.7081 60.8069 83.3411 59.3895 82.6071 58.4277C81.8731 57.4406 80.7467 56.9471 79.2281 56.9471C78.1904 56.9471 77.2539 57.1748 76.4186 57.6304C75.5834 58.0607 74.9126 58.7061 74.4064 59.5667C73.9255 60.4019 73.6851 61.4397 73.6851 62.6799V74.7151H70.4959ZM100.208 75.1707C98.4367 75.1707 96.9054 74.7404 95.6145 73.8798C94.3237 73.0193 93.3239 71.8044 92.6152 70.2351C91.9318 68.6659 91.5901 66.8055 91.5901 64.6541C91.5901 62.5027 91.9318 60.6424 92.6152 59.0731C93.3239 57.5039 94.3237 56.289 95.6145 55.4284C96.9054 54.5679 98.4367 54.1376 100.208 54.1376C101.626 54.1376 102.866 54.4793 103.929 55.1627C104.992 55.8207 105.764 56.5674 106.245 57.4026V47.7593H109.434V74.7151H106.549L106.435 71.6778C105.878 72.7662 105.055 73.6267 103.967 74.2595C102.879 74.867 101.626 75.1707 100.208 75.1707ZM100.398 72.1334C101.613 72.1334 102.651 71.8297 103.511 71.2222C104.397 70.6148 105.068 69.7542 105.524 68.6405C106.005 67.5016 106.245 66.1728 106.245 64.6541C106.245 63.0849 106.005 61.7434 105.524 60.6297C105.068 59.5161 104.397 58.6682 103.511 58.086C102.626 57.4786 101.563 57.1748 100.322 57.1748C98.6771 57.1748 97.361 57.8456 96.3738 59.187C95.412 60.5032 94.9311 62.3256 94.9311 64.6541C94.9311 66.9574 95.412 68.7798 96.3738 70.1212C97.361 71.4627 98.7024 72.1334 100.398 72.1334ZM123.96 74.7151V54.5932H127.149V74.7151H123.96ZM115.873 74.7151V71.9056H134.097V74.7151H115.873ZM116.253 57.4026V54.5932H127.149V57.4026H116.253ZM123.656 51.442V47.7213H126.997V51.442H123.656ZM137.12 74.7151V54.5932H140.043L140.157 59.0731L139.777 58.9972C140.005 57.5039 140.486 56.3269 141.22 55.4664C141.979 54.5805 142.941 54.1376 144.105 54.1376C145.295 54.1376 146.206 54.5679 146.839 55.4284C147.497 56.289 147.902 57.5545 148.054 59.225H147.674C147.902 57.6557 148.408 56.4155 149.193 55.5043C150.003 54.5932 151.015 54.1376 152.23 54.1376C153.85 54.1376 155.027 54.6944 155.761 55.8081C156.495 56.9217 156.862 58.7694 156.862 61.3511V74.7151H153.673V61.8067C153.673 60.0096 153.483 58.7568 153.103 58.0481C152.724 57.3141 152.129 56.9471 151.319 56.9471C150.787 56.9471 150.319 57.1242 149.914 57.4786C149.509 57.8076 149.18 58.3391 148.927 59.0731C148.699 59.8071 148.585 60.7436 148.585 61.8826V74.7151H145.396V61.8067C145.396 60.0856 145.206 58.8453 144.827 58.086C144.472 57.3267 143.877 56.9471 143.042 56.9471C142.511 56.9471 142.042 57.1242 141.637 57.4786C141.233 57.8076 140.903 58.3391 140.65 59.0731C140.423 59.8071 140.309 60.7436 140.309 61.8826V74.7151H137.12ZM170.097 75.1707C168.199 75.1707 166.554 74.7404 165.162 73.8798C163.795 73.0193 162.732 71.8044 161.972 70.2351C161.238 68.6405 160.871 66.7802 160.871 64.6541C160.871 62.528 161.238 60.6804 161.972 59.1111C162.732 57.5419 163.782 56.3269 165.124 55.4664C166.49 54.5805 168.098 54.1376 169.945 54.1376C171.692 54.1376 173.236 54.5552 174.577 55.3905C175.919 56.2004 176.969 57.39 177.728 58.9592C178.488 60.5285 178.867 62.4395 178.867 64.6921V65.6412H164.212C164.339 67.7926 164.908 69.4125 165.921 70.5009C166.959 71.5892 168.351 72.1334 170.097 72.1334C171.413 72.1334 172.489 71.8297 173.324 71.2222C174.185 70.5895 174.78 69.7669 175.109 68.7544L178.526 69.0202C177.994 70.8173 176.982 72.2979 175.488 73.4622C174.02 74.6012 172.223 75.1707 170.097 75.1707ZM164.212 62.8318H175.374C175.222 60.8828 174.653 59.4528 173.666 58.5416C172.679 57.6304 171.439 57.1748 169.945 57.1748C168.401 57.1748 167.123 57.6557 166.111 58.6176C165.124 59.554 164.491 60.9588 164.212 62.8318ZM184.319 74.7151V54.5932H187.243L187.357 59.7186L186.977 59.3769C187.23 58.1873 187.686 57.2128 188.344 56.4535C189.027 55.6689 189.837 55.0867 190.774 54.7071C191.71 54.3274 192.697 54.1376 193.735 54.1376C195.279 54.1376 196.557 54.4793 197.57 55.1627C198.607 55.846 199.392 56.7699 199.923 57.9342C200.455 59.0731 200.721 60.3513 200.721 61.7687V74.7151H197.532V62.6799C197.532 60.8069 197.165 59.3895 196.431 58.4277C195.697 57.4406 194.57 56.9471 193.052 56.9471C192.014 56.9471 191.077 57.1748 190.242 57.6304C189.407 58.0607 188.736 58.7061 188.23 59.5667C187.749 60.4019 187.509 61.4397 187.509 62.6799V74.7151H184.319ZM218.246 74.7151C216.297 74.7151 214.842 74.2595 213.88 73.3483C212.918 72.4371 212.437 71.0451 212.437 69.1721V49.8854H215.626V69.1721C215.626 70.1086 215.842 70.8046 216.272 71.2602C216.702 71.6905 217.36 71.9056 218.246 71.9056H223.637V74.7151H218.246ZM205.793 57.4026V54.5932H223.637V57.4026H205.793ZM238.049 75.1707C236.202 75.1707 234.582 74.7404 233.19 73.8798C231.823 73.0193 230.76 71.8044 230.001 70.2351C229.241 68.6405 228.862 66.7802 228.862 64.6541C228.862 62.5027 229.241 60.6424 230.001 59.0731C230.76 57.5039 231.823 56.289 233.19 55.4284C234.582 54.5679 236.202 54.1376 238.049 54.1376C239.897 54.1376 241.504 54.5679 242.871 55.4284C244.263 56.289 245.339 57.5039 246.098 59.0731C246.858 60.6424 247.237 62.5027 247.237 64.6541C247.237 66.7802 246.858 68.6405 246.098 70.2351C245.339 71.8044 244.263 73.0193 242.871 73.8798C241.504 74.7404 239.897 75.1707 238.049 75.1707ZM238.049 72.1334C239.897 72.1334 241.327 71.4753 242.34 70.1592C243.377 68.8177 243.896 66.9827 243.896 64.6541C243.896 62.3256 243.377 60.5032 242.34 59.187C241.327 57.8456 239.897 57.1748 238.049 57.1748C236.202 57.1748 234.759 57.8456 233.721 59.187C232.709 60.5032 232.203 62.3256 232.203 64.6541C232.203 66.9827 232.709 68.8177 233.721 70.1592C234.759 71.4753 236.202 72.1334 238.049 72.1334ZM258.802 80.6378L260.586 74.7151H258.536V70.0832H263.092V74.1836L260.7 80.6378H258.802ZM304.331 74.7151L296.852 54.5932H300.345L306.344 71.45L312.342 54.5932H315.835L308.356 74.7151H304.331ZM329.45 75.1707C327.552 75.1707 325.907 74.7404 324.514 73.8798C323.148 73.0193 322.085 71.8044 321.325 70.2351C320.591 68.6405 320.224 66.7802 320.224 64.6541C320.224 62.528 320.591 60.6804 321.325 59.1111C322.085 57.5419 323.135 56.3269 324.476 55.4664C325.843 54.5805 327.45 54.1376 329.298 54.1376C331.045 54.1376 332.589 54.5552 333.93 55.3905C335.271 56.2004 336.322 57.39 337.081 58.9592C337.84 60.5285 338.22 62.4395 338.22 64.6921V65.6412H323.565C323.692 67.7926 324.261 69.4125 325.274 70.5009C326.311 71.5892 327.704 72.1334 329.45 72.1334C330.766 72.1334 331.842 71.8297 332.677 71.2222C333.538 70.5895 334.132 69.7669 334.461 68.7544L337.878 69.0202C337.347 70.8173 336.334 72.2979 334.841 73.4622C333.373 74.6012 331.576 75.1707 329.45 75.1707ZM323.565 62.8318H334.727C334.575 60.8828 334.006 59.4528 333.019 58.5416C332.032 57.6304 330.791 57.1748 329.298 57.1748C327.754 57.1748 326.476 57.6557 325.464 58.6176C324.476 59.554 323.844 60.9588 323.565 62.8318ZM343.672 74.7151V54.5932H346.596L346.71 59.7186L346.33 59.3769C346.583 58.1873 347.039 57.2128 347.697 56.4535C348.38 55.6689 349.19 55.0867 350.127 54.7071C351.063 54.3274 352.05 54.1376 353.088 54.1376C354.632 54.1376 355.91 54.4793 356.922 55.1627C357.96 55.846 358.745 56.7699 359.276 57.9342C359.808 59.0731 360.074 60.3513 360.074 61.7687V74.7151H356.885V62.6799C356.885 60.8069 356.518 59.3895 355.784 58.4277C355.049 57.4406 353.923 56.9471 352.405 56.9471C351.367 56.9471 350.43 57.1748 349.595 57.6304C348.76 58.0607 348.089 58.7061 347.583 59.5667C347.102 60.4019 346.862 61.4397 346.862 62.6799V74.7151H343.672ZM373.385 75.1707C371.613 75.1707 370.082 74.7404 368.791 73.8798C367.5 73.0193 366.5 71.8044 365.792 70.2351C365.108 68.6659 364.767 66.8055 364.767 64.6541C364.767 62.5027 365.108 60.6424 365.792 59.0731C366.5 57.5039 367.5 56.289 368.791 55.4284C370.082 54.5679 371.613 54.1376 373.385 54.1376C374.802 54.1376 376.042 54.4793 377.106 55.1627C378.169 55.8207 378.941 56.5674 379.421 57.4026V47.7593H382.611V74.7151H379.725L379.611 71.6778C379.054 72.7662 378.232 73.6267 377.143 74.2595C376.055 74.867 374.802 75.1707 373.385 75.1707ZM373.575 72.1334C374.79 72.1334 375.827 71.8297 376.688 71.2222C377.574 70.6148 378.244 69.7542 378.7 68.6405C379.181 67.5016 379.421 66.1728 379.421 64.6541C379.421 63.0849 379.181 61.7434 378.7 60.6297C378.244 59.5161 377.574 58.6682 376.688 58.086C375.802 57.4786 374.739 57.1748 373.499 57.1748C371.854 57.1748 370.537 57.8456 369.55 59.187C368.588 60.5032 368.108 62.3256 368.108 64.6541C368.108 66.9574 368.588 68.7798 369.55 70.1212C370.537 71.4627 371.879 72.1334 373.575 72.1334ZM394.745 75.1707C393.479 75.1707 392.34 74.9429 391.328 74.4873C390.315 74.0317 389.518 73.3989 388.936 72.589C388.354 71.7537 388.063 70.7919 388.063 69.7036C388.063 67.9825 388.569 66.6537 389.581 65.7172C390.619 64.7554 392.239 64.0593 394.441 63.629L401.199 62.2623C401.199 60.5412 400.807 59.263 400.022 58.4277C399.263 57.5925 398.162 57.1748 396.719 57.1748C395.327 57.1748 394.239 57.4912 393.454 58.124C392.669 58.7314 392.125 59.6173 391.821 60.7816L388.442 60.5158C388.822 58.6176 389.721 57.0863 391.138 55.922C392.581 54.7324 394.441 54.1376 396.719 54.1376C399.149 54.1376 401.035 54.8716 402.376 56.3396C403.717 57.7823 404.388 59.7818 404.388 62.3382V70.6907C404.388 71.1463 404.489 71.4627 404.692 71.6399C404.894 71.817 405.198 71.9056 405.603 71.9056H406.894V74.7151C406.742 74.7404 406.502 74.7531 406.173 74.7531C405.844 74.7784 405.527 74.791 405.223 74.791C404.363 74.791 403.629 74.6518 403.021 74.3734C402.439 74.095 401.996 73.652 401.693 73.0446C401.389 72.4118 401.224 71.6019 401.199 70.6148H401.806C401.629 71.4753 401.199 72.26 400.516 72.9687C399.858 73.652 399.022 74.1962 398.01 74.6012C396.997 74.9808 395.909 75.1707 394.745 75.1707ZM395.049 72.3612C396.415 72.3612 397.554 72.1334 398.465 71.6778C399.377 71.1969 400.06 70.5388 400.516 69.7036C400.971 68.843 401.199 67.8559 401.199 66.7423V64.9958L395.049 66.2107C393.682 66.4638 392.733 66.8561 392.201 67.3877C391.67 67.8939 391.404 68.5646 391.404 69.3999C391.404 70.3364 391.72 71.0704 392.353 71.6019C393.011 72.1081 393.91 72.3612 395.049 72.3612ZM420.547 75.1707C418.8 75.1707 417.294 74.867 416.029 74.2595C414.763 73.652 413.764 72.8421 413.03 71.8297C412.321 70.7919 411.916 69.6403 411.815 68.3748L415.156 68.147C415.358 69.3872 415.902 70.3617 416.788 71.0704C417.699 71.7791 418.952 72.1334 420.547 72.1334C422.04 72.1334 423.192 71.9183 424.002 71.488C424.837 71.0577 425.255 70.387 425.255 69.4758C425.255 68.8937 425.115 68.4127 424.837 68.0331C424.559 67.6534 424.04 67.337 423.28 67.0839C422.521 66.8055 421.407 66.5398 419.939 66.2867C417.99 65.9323 416.459 65.502 415.345 64.9958C414.257 64.4643 413.485 63.8062 413.03 63.0216C412.574 62.237 412.346 61.3005 412.346 60.2121C412.346 59.0478 412.637 58.0101 413.219 57.0989C413.802 56.1877 414.662 55.4664 415.801 54.9349C416.94 54.4033 418.332 54.1376 419.977 54.1376C421.648 54.1376 423.04 54.4413 424.154 55.0488C425.293 55.6309 426.191 56.4155 426.849 57.4026C427.507 58.3644 427.937 59.4275 428.14 60.5918L424.799 60.8196C424.647 60.1109 424.356 59.4908 423.926 58.9592C423.521 58.4024 422.977 57.9721 422.293 57.6684C421.635 57.3394 420.851 57.1748 419.939 57.1748C418.471 57.1748 417.383 57.4659 416.674 58.0481C415.966 58.6302 415.611 59.3516 415.611 60.2121C415.611 60.8955 415.776 61.4397 416.105 61.8447C416.434 62.2496 416.965 62.5787 417.699 62.8318C418.433 63.0596 419.408 63.2747 420.623 63.4772C422.698 63.8062 424.305 64.2365 425.444 64.768C426.583 65.2742 427.381 65.907 427.836 66.6663C428.292 67.4256 428.52 68.3621 428.52 69.4758C428.52 70.6654 428.165 71.6905 427.457 72.551C426.773 73.3863 425.824 74.0317 424.609 74.4873C423.42 74.9429 422.065 75.1707 420.547 75.1707ZM466.038 75.1707C464.14 75.1707 462.495 74.7404 461.103 73.8798C459.736 73.0193 458.673 71.8044 457.914 70.2351C457.18 68.6405 456.813 66.7802 456.813 64.6541C456.813 62.528 457.18 60.6804 457.914 59.1111C458.673 57.5419 459.723 56.3269 461.065 55.4664C462.431 54.5805 464.039 54.1376 465.886 54.1376C467.633 54.1376 469.177 54.5552 470.518 55.3905C471.86 56.2004 472.91 57.39 473.669 58.9592C474.429 60.5285 474.808 62.4395 474.808 64.6921V65.6412H460.154C460.28 67.7926 460.85 69.4125 461.862 70.5009C462.9 71.5892 464.292 72.1334 466.038 72.1334C467.354 72.1334 468.43 71.8297 469.265 71.2222C470.126 70.5895 470.721 69.7669 471.05 68.7544L474.467 69.0202C473.935 70.8173 472.923 72.2979 471.429 73.4622C469.961 74.6012 468.164 75.1707 466.038 75.1707ZM460.154 62.8318H471.315C471.164 60.8828 470.594 59.4528 469.607 58.5416C468.62 57.6304 467.38 57.1748 465.886 57.1748C464.342 57.1748 463.064 57.6557 462.052 58.6176C461.065 59.554 460.432 60.9588 460.154 62.8318ZM511.606 75.1707C509.859 75.1707 508.353 74.867 507.088 74.2595C505.822 73.652 504.822 72.8421 504.088 71.8297C503.38 70.7919 502.975 69.6403 502.873 68.3748L506.214 68.147C506.417 69.3872 506.961 70.3617 507.847 71.0704C508.758 71.7791 510.011 72.1334 511.606 72.1334C513.099 72.1334 514.251 71.9183 515.061 71.488C515.896 71.0577 516.313 70.387 516.313 69.4758C516.313 68.8937 516.174 68.4127 515.896 68.0331C515.617 67.6534 515.098 67.337 514.339 67.0839C513.58 66.8055 512.466 66.5398 510.998 66.2867C509.049 65.9323 507.518 65.502 506.404 64.9958C505.316 64.4643 504.544 63.8062 504.088 63.0216C503.633 62.237 503.405 61.3005 503.405 60.2121C503.405 59.0478 503.696 58.0101 504.278 57.0989C504.86 56.1877 505.721 55.4664 506.86 54.9349C507.999 54.4033 509.391 54.1376 511.036 54.1376C512.707 54.1376 514.099 54.4413 515.212 55.0488C516.351 55.6309 517.25 56.4155 517.908 57.4026C518.566 58.3644 518.996 59.4275 519.199 60.5918L515.858 60.8196C515.706 60.1109 515.415 59.4908 514.985 58.9592C514.58 58.4024 514.035 57.9721 513.352 57.6684C512.694 57.3394 511.909 57.1748 510.998 57.1748C509.53 57.1748 508.442 57.4659 507.733 58.0481C507.024 58.6302 506.67 59.3516 506.67 60.2121C506.67 60.8955 506.835 61.4397 507.164 61.8447C507.493 62.2496 508.024 62.5787 508.758 62.8318C509.492 63.0596 510.467 63.2747 511.682 63.4772C513.757 63.8062 515.364 64.2365 516.503 64.768C517.642 65.2742 518.439 65.907 518.895 66.6663C519.351 67.4256 519.578 68.3621 519.578 69.4758C519.578 70.6654 519.224 71.6905 518.515 72.551C517.832 73.3863 516.883 74.0317 515.668 74.4873C514.478 74.9429 513.124 75.1707 511.606 75.1707ZM532.586 75.1707C530.586 75.1707 528.992 74.4999 527.802 73.1585C526.613 71.7917 526.018 69.9187 526.018 67.5395V54.5932H529.207V66.6663C529.207 68.6152 529.549 70.0579 530.232 70.9944C530.941 71.9056 532.016 72.3612 533.459 72.3612C535.028 72.3612 536.269 71.855 537.18 70.8426C538.091 69.8048 538.547 68.3874 538.547 66.5904V54.5932H541.736V74.7151H538.698V69.7416L539.192 70.0073C538.787 71.6525 538.015 72.9307 536.876 73.8419C535.737 74.7277 534.307 75.1707 532.586 75.1707ZM548.403 80.41V54.5932H551.364L551.44 59.1491L550.985 58.9213C551.491 57.352 552.326 56.1624 553.49 55.3525C554.68 54.5425 556.047 54.1376 557.591 54.1376C559.59 54.1376 561.223 54.6311 562.488 55.6182C563.779 56.6054 564.728 57.8962 565.336 59.4908C565.943 61.0853 566.247 62.8065 566.247 64.6541C566.247 66.5018 565.943 68.2229 565.336 69.8175C564.728 71.4121 563.779 72.7029 562.488 73.69C561.223 74.6771 559.59 75.1707 557.591 75.1707C556.553 75.1707 555.578 74.9935 554.667 74.6392C553.781 74.2848 553.022 73.7913 552.389 73.1585C551.782 72.5257 551.364 71.7791 551.136 70.9185L551.592 70.387V80.41H548.403ZM557.287 72.1334C559.033 72.1334 560.4 71.4753 561.387 70.1592C562.4 68.843 562.906 67.008 562.906 64.6541C562.906 62.3002 562.4 60.4652 561.387 59.1491C560.4 57.8329 559.033 57.1748 557.287 57.1748C556.123 57.1748 555.11 57.4533 554.25 58.0101C553.414 58.5669 552.756 59.4022 552.275 60.5158C551.82 61.6295 551.592 63.0089 551.592 64.6541C551.592 66.2993 551.82 67.6787 552.275 68.7924C552.731 69.9061 553.389 70.7413 554.25 71.2982C555.11 71.855 556.123 72.1334 557.287 72.1334ZM579.52 75.1707C577.672 75.1707 576.053 74.7404 574.66 73.8798C573.294 73.0193 572.231 71.8044 571.471 70.2351C570.712 68.6405 570.332 66.7802 570.332 64.6541C570.332 62.5027 570.712 60.6424 571.471 59.0731C572.231 57.5039 573.294 56.289 574.66 55.4284C576.053 54.5679 577.672 54.1376 579.52 54.1376C581.368 54.1376 582.975 54.5679 584.342 55.4284C585.734 56.289 586.81 57.5039 587.569 59.0731C588.328 60.6424 588.708 62.5027 588.708 64.6541C588.708 66.7802 588.328 68.6405 587.569 70.2351C586.81 71.8044 585.734 73.0193 584.342 73.8798C582.975 74.7404 581.368 75.1707 579.52 75.1707ZM579.52 72.1334C581.368 72.1334 582.798 71.4753 583.81 70.1592C584.848 68.8177 585.367 66.9827 585.367 64.6541C585.367 62.3256 584.848 60.5032 583.81 59.187C582.798 57.8456 581.368 57.1748 579.52 57.1748C577.672 57.1748 576.23 57.8456 575.192 59.187C574.18 60.5032 573.673 62.3256 573.673 64.6541C573.673 66.9827 574.18 68.8177 575.192 70.1592C576.23 71.4753 577.672 72.1334 579.52 72.1334ZM599.551 74.7151V54.5932H602.209L602.513 59.6806L602.209 59.6047C602.462 57.8835 603.006 56.618 603.841 55.8081C604.702 54.9981 605.841 54.5932 607.258 54.5932H611.397V57.4786H607.296C606.309 57.4786 605.474 57.6811 604.791 58.086C604.132 58.4657 603.626 59.0352 603.272 59.7945C602.918 60.5285 602.74 61.4523 602.74 62.566V74.7151H599.551ZM594.312 74.7151V71.9056H609.119V74.7151H594.312ZM594.312 57.4026V54.5932H601.298V57.4026H594.312ZM628.011 74.7151C626.062 74.7151 624.607 74.2595 623.645 73.3483C622.683 72.4371 622.202 71.0451 622.202 69.1721V49.8854H625.391V69.1721C625.391 70.1086 625.606 70.8046 626.037 71.2602C626.467 71.6905 627.125 71.9056 628.011 71.9056H633.402V74.7151H628.011ZM615.558 57.4026V54.5932H633.402V57.4026H615.558ZM648.156 75.1707C646.258 75.1707 644.612 74.7404 643.22 73.8798C641.853 73.0193 640.79 71.8044 640.031 70.2351C639.297 68.6405 638.93 66.7802 638.93 64.6541C638.93 62.528 639.297 60.6804 640.031 59.1111C640.79 57.5419 641.841 56.3269 643.182 55.4664C644.549 54.5805 646.156 54.1376 648.004 54.1376C649.75 54.1376 651.294 54.5552 652.636 55.3905C653.977 56.2004 655.028 57.39 655.787 58.9592C656.546 60.5285 656.926 62.4395 656.926 64.6921V65.6412H642.271C642.398 67.7926 642.967 69.4125 643.98 70.5009C645.017 71.5892 646.409 72.1334 648.156 72.1334C649.472 72.1334 650.548 71.8297 651.383 71.2222C652.243 70.5895 652.838 69.7669 653.167 68.7544L656.584 69.0202C656.053 70.8173 655.04 72.2979 653.547 73.4622C652.079 74.6012 650.282 75.1707 648.156 75.1707ZM642.271 62.8318H653.433C653.281 60.8828 652.712 59.4528 651.725 58.5416C650.738 57.6304 649.497 57.1748 648.004 57.1748C646.46 57.1748 645.182 57.6557 644.169 58.6176C643.182 59.554 642.55 60.9588 642.271 62.8318ZM10.934 122.171C9.061 122.171 7.42847 121.74 6.03638 120.88C4.6443 120.019 3.5686 118.804 2.80928 117.235C2.04997 115.641 1.67031 113.78 1.67031 111.654C1.67031 109.528 2.04997 107.68 2.80928 106.111C3.5686 104.542 4.6443 103.327 6.03638 102.466C7.42847 101.581 9.061 101.138 10.934 101.138C12.4273 101.138 13.7561 101.416 14.9204 101.973C16.0847 102.504 17.0465 103.289 17.8058 104.327C18.5651 105.364 19.084 106.63 19.3624 108.123L16.0214 108.351C15.7177 107.01 15.1102 105.985 14.1991 105.276C13.3132 104.542 12.2248 104.175 10.934 104.175C9.08631 104.175 7.63095 104.846 6.56791 106.187C5.53017 107.503 5.01131 109.326 5.01131 111.654C5.01131 113.983 5.53017 115.818 6.56791 117.159C7.63095 118.475 9.08631 119.133 10.934 119.133C12.2248 119.133 13.3385 118.754 14.275 117.994C15.2368 117.235 15.8696 116.096 16.1733 114.578L19.5143 114.805C19.2359 116.299 18.7043 117.602 17.9197 118.716C17.1351 119.804 16.148 120.652 14.9584 121.259C13.7688 121.867 12.4273 122.171 10.934 122.171ZM33.1672 122.171C31.3195 122.171 29.6996 121.74 28.3075 120.88C26.9408 120.019 25.8777 118.804 25.1184 117.235C24.3591 115.641 23.9794 113.78 23.9794 111.654C23.9794 109.503 24.3591 107.642 25.1184 106.073C25.8777 104.504 26.9408 103.289 28.3075 102.428C29.6996 101.568 31.3195 101.138 33.1672 101.138C35.0148 101.138 36.6221 101.568 37.9888 102.428C39.3809 103.289 40.4566 104.504 41.2159 106.073C41.9753 107.642 42.3549 109.503 42.3549 111.654C42.3549 113.78 41.9753 115.641 41.2159 117.235C40.4566 118.804 39.3809 120.019 37.9888 120.88C36.6221 121.74 35.0148 122.171 33.1672 122.171ZM33.1672 119.133C35.0148 119.133 36.4449 118.475 37.4573 117.159C38.495 115.818 39.0139 113.983 39.0139 111.654C39.0139 109.326 38.495 107.503 37.4573 106.187C36.4449 104.846 35.0148 104.175 33.1672 104.175C31.3195 104.175 29.8768 104.846 28.8391 106.187C27.8266 107.503 27.3204 109.326 27.3204 111.654C27.3204 113.983 27.8266 115.818 28.8391 117.159C29.8768 118.475 31.3195 119.133 33.1672 119.133ZM46.0607 121.715V101.593H48.9841L49.098 106.073L48.7184 105.997C48.9461 104.504 49.427 103.327 50.1611 102.466C50.9204 101.581 51.8822 101.138 53.0465 101.138C54.2361 101.138 55.1472 101.568 55.78 102.428C56.4381 103.289 56.8431 104.555 56.9949 106.225H56.6153C56.8431 104.656 57.3493 103.416 58.1339 102.504C58.9438 101.593 59.9563 101.138 61.1712 101.138C62.791 101.138 63.968 101.694 64.702 102.808C65.436 103.922 65.803 105.769 65.803 108.351V121.715H62.6139V108.807C62.6139 107.01 62.424 105.757 62.0444 105.048C61.6647 104.314 61.0699 103.947 60.26 103.947C59.7285 103.947 59.2602 104.124 58.8552 104.479C58.4503 104.808 58.1212 105.339 57.8681 106.073C57.6403 106.807 57.5264 107.744 57.5264 108.883V121.715H54.3373V108.807C54.3373 107.086 54.1475 105.845 53.7678 105.086C53.4135 104.327 52.8187 103.947 51.9834 103.947C51.4519 103.947 50.9836 104.124 50.5787 104.479C50.1737 104.808 49.8447 105.339 49.5916 106.073C49.3638 106.807 49.2499 107.744 49.2499 108.883V121.715H46.0607ZM98.1203 121.715V100.302C98.1203 98.5053 98.5759 97.1385 99.4871 96.202C100.424 95.2402 101.841 94.7593 103.739 94.7593H110.193V97.5688H103.739C102.955 97.5688 102.347 97.8219 101.917 98.3281C101.512 98.809 101.309 99.4671 101.309 100.302V121.715H98.1203ZM92.7291 104.403V101.593H109.814V104.403H92.7291ZM122.821 122.171C120.822 122.171 119.227 121.5 118.038 120.158C116.848 118.792 116.253 116.919 116.253 114.54V101.593H119.442V113.666C119.442 115.615 119.784 117.058 120.467 117.994C121.176 118.906 122.252 119.361 123.694 119.361C125.264 119.361 126.504 118.855 127.415 117.843C128.326 116.805 128.782 115.387 128.782 113.59V101.593H131.971V121.715H128.934V116.742L129.427 117.007C129.022 118.653 128.25 119.931 127.111 120.842C125.972 121.728 124.542 122.171 122.821 122.171ZM138.79 121.715V101.593H141.713L141.827 106.719L141.448 106.377C141.701 105.187 142.156 104.213 142.814 103.453C143.498 102.669 144.308 102.087 145.244 101.707C146.181 101.327 147.168 101.138 148.206 101.138C149.75 101.138 151.028 101.479 152.04 102.163C153.078 102.846 153.863 103.77 154.394 104.934C154.926 106.073 155.191 107.351 155.191 108.769V121.715H152.002V109.68C152.002 107.807 151.635 106.39 150.901 105.428C150.167 104.441 149.041 103.947 147.522 103.947C146.484 103.947 145.548 104.175 144.713 104.63C143.877 105.061 143.207 105.706 142.701 106.567C142.22 107.402 141.979 108.44 141.979 109.68V121.715H138.79ZM170.287 122.171C168.414 122.171 166.781 121.74 165.389 120.88C163.997 120.019 162.922 118.804 162.162 117.235C161.403 115.641 161.023 113.78 161.023 111.654C161.023 109.528 161.403 107.68 162.162 106.111C162.922 104.542 163.997 103.327 165.389 102.466C166.781 101.581 168.414 101.138 170.287 101.138C171.78 101.138 173.109 101.416 174.273 101.973C175.438 102.504 176.399 103.289 177.159 104.327C177.918 105.364 178.437 106.63 178.715 108.123L175.374 108.351C175.071 107.01 174.463 105.985 173.552 105.276C172.666 104.542 171.578 104.175 170.287 104.175C168.439 104.175 166.984 104.846 165.921 106.187C164.883 107.503 164.364 109.326 164.364 111.654C164.364 113.983 164.883 115.818 165.921 117.159C166.984 118.475 168.439 119.133 170.287 119.133C171.578 119.133 172.691 118.754 173.628 117.994C174.59 117.235 175.222 116.096 175.526 114.578L178.867 114.805C178.589 116.299 178.057 117.602 177.273 118.716C176.488 119.804 175.501 120.652 174.311 121.259C173.122 121.867 171.78 122.171 170.287 122.171ZM169.869 130.068C168.654 130.068 167.68 129.777 166.946 129.194C166.212 128.638 165.706 127.941 165.427 127.106L167.364 126.347C167.591 126.904 167.895 127.309 168.275 127.562C168.654 127.815 169.161 127.941 169.793 127.941C170.451 127.941 170.958 127.802 171.312 127.524C171.666 127.271 171.844 126.904 171.844 126.423C171.844 125.942 171.666 125.537 171.312 125.208C170.958 124.904 170.173 124.752 168.958 124.752L167.895 123.613L169.338 121.335H171.768L170.477 123.082C171.717 123.132 172.628 123.462 173.21 124.069C173.818 124.702 174.121 125.512 174.121 126.499C174.121 127.207 173.932 127.828 173.552 128.359C173.198 128.891 172.704 129.308 172.071 129.612C171.439 129.916 170.705 130.068 169.869 130.068ZM192.52 122.171C190.672 122.171 189.053 121.74 187.66 120.88C186.294 120.019 185.231 118.804 184.471 117.235C183.712 115.641 183.332 113.78 183.332 111.654C183.332 109.503 183.712 107.642 184.471 106.073C185.231 104.504 186.294 103.289 187.66 102.428C189.053 101.568 190.672 101.138 192.52 101.138C194.368 101.138 195.975 101.568 197.342 102.428C198.734 103.289 199.81 104.504 200.569 106.073C201.328 107.642 201.708 109.503 201.708 111.654C201.708 113.78 201.328 115.641 200.569 117.235C199.81 118.804 198.734 120.019 197.342 120.88C195.975 121.74 194.368 122.171 192.52 122.171ZM192.52 119.133C194.368 119.133 195.798 118.475 196.81 117.159C197.848 115.818 198.367 113.983 198.367 111.654C198.367 109.326 197.848 107.503 196.81 106.187C195.798 104.846 194.368 104.175 192.52 104.175C190.672 104.175 189.23 104.846 188.192 106.187C187.18 107.503 186.673 109.326 186.673 111.654C186.673 113.983 187.18 115.818 188.192 117.159C189.23 118.475 190.672 119.133 192.52 119.133ZM194.798 98.5559C194.317 98.5559 193.862 98.4547 193.431 98.2522C193.001 98.0244 192.571 97.746 192.14 97.4169C191.71 97.0626 191.368 96.8095 191.115 96.6576C190.862 96.5057 190.546 96.4298 190.166 96.4298C189.711 96.4298 189.331 96.607 189.027 96.9613C188.724 97.2904 188.546 97.9105 188.496 98.8217H186.521C186.572 97.3536 186.939 96.2526 187.622 95.5186C188.306 94.7593 189.154 94.3796 190.166 94.3796C190.774 94.3796 191.293 94.4935 191.723 94.7213C192.178 94.9491 192.621 95.2402 193.052 95.5946C193.457 95.9236 193.798 96.164 194.077 96.3159C194.355 96.4425 194.646 96.5057 194.95 96.5057C195.431 96.5057 195.798 96.3286 196.051 95.9742C196.304 95.5946 196.469 94.9365 196.544 94H198.519C198.443 95.4427 198.076 96.569 197.418 97.379C196.76 98.1636 195.886 98.5559 194.798 98.5559ZM215.626 122.171C213.728 122.171 212.083 121.74 210.691 120.88C209.324 120.019 208.261 118.804 207.502 117.235C206.768 115.641 206.401 113.78 206.401 111.654C206.401 109.528 206.768 107.68 207.502 106.111C208.261 104.542 209.312 103.327 210.653 102.466C212.02 101.581 213.627 101.138 215.475 101.138C217.221 101.138 218.765 101.555 220.106 102.39C221.448 103.2 222.498 104.39 223.258 105.959C224.017 107.529 224.397 109.439 224.397 111.692V112.641H209.742C209.868 114.793 210.438 116.413 211.45 117.501C212.488 118.589 213.88 119.133 215.626 119.133C216.943 119.133 218.018 118.83 218.854 118.222C219.714 117.589 220.309 116.767 220.638 115.754L224.055 116.02C223.523 117.817 222.511 119.298 221.018 120.462C219.55 121.601 217.753 122.171 215.626 122.171ZM209.742 109.832H220.904C220.752 107.883 220.182 106.453 219.195 105.542C218.208 104.63 216.968 104.175 215.475 104.175C213.931 104.175 212.653 104.656 211.64 105.618C210.653 106.554 210.02 107.959 209.742 109.832ZM238.429 122.171C236.683 122.171 235.177 121.867 233.911 121.259C232.646 120.652 231.646 119.842 230.912 118.83C230.203 117.792 229.798 116.64 229.697 115.375L233.038 115.147C233.24 116.387 233.785 117.362 234.671 118.07C235.582 118.779 236.835 119.133 238.429 119.133C239.922 119.133 241.074 118.918 241.884 118.488C242.719 118.058 243.137 117.387 243.137 116.476C243.137 115.894 242.998 115.413 242.719 115.033C242.441 114.653 241.922 114.337 241.163 114.084C240.403 113.806 239.29 113.54 237.822 113.287C235.873 112.932 234.341 112.502 233.228 111.996C232.139 111.464 231.367 110.806 230.912 110.022C230.456 109.237 230.229 108.3 230.229 107.212C230.229 106.048 230.52 105.01 231.102 104.099C231.684 103.188 232.544 102.466 233.683 101.935C234.822 101.403 236.214 101.138 237.86 101.138C239.53 101.138 240.922 101.441 242.036 102.049C243.175 102.631 244.073 103.416 244.731 104.403C245.39 105.364 245.82 106.427 246.022 107.592L242.681 107.82C242.529 107.111 242.238 106.491 241.808 105.959C241.403 105.402 240.859 104.972 240.176 104.668C239.518 104.339 238.733 104.175 237.822 104.175C236.354 104.175 235.265 104.466 234.557 105.048C233.848 105.63 233.494 106.352 233.494 107.212C233.494 107.896 233.658 108.44 233.987 108.845C234.316 109.25 234.848 109.579 235.582 109.832C236.316 110.06 237.29 110.275 238.505 110.477C240.581 110.806 242.188 111.237 243.327 111.768C244.466 112.274 245.263 112.907 245.719 113.666C246.174 114.426 246.402 115.362 246.402 116.476C246.402 117.665 246.048 118.69 245.339 119.551C244.656 120.386 243.706 121.032 242.492 121.487C241.302 121.943 239.948 122.171 238.429 122.171Z" fill="#F5F5F5" fill-opacity="0.7"/>
</svg>
