<svg width="1358" height="504" viewBox="0 0 1358 504" fill="none" xmlns="http://www.w3.org/2000/svg">
<path d="M15.9177 31.7442V46.0701H41.9725V55.6208H15.9177V70.4494H46.2452V80H4.94287V22.1935H46.2452V31.7442H15.9177ZM100.945 22.1935V80H89.9698L63.2448 41.7137V80H52.2699V22.1935H63.2448L89.9698 60.5636V22.1935H100.945ZM150.224 31.7442H132.882V80H121.907V31.7442H104.565V22.1935H150.224V31.7442ZM176.249 57.2963H164.771V80H153.796V22.1935H178.93C185.213 22.1935 190.156 23.7015 193.842 26.7175C197.528 29.7335 199.371 34.0899 199.371 39.7868C199.371 43.9757 198.366 47.4106 196.355 50.0914C194.345 52.7723 191.496 54.783 187.643 55.9559L201.968 80H188.899L176.249 57.2963ZM164.771 47.9132H179.265C185.381 47.9132 188.48 45.2323 188.48 39.7868C188.48 37.1059 187.643 35.0953 186.051 33.7548C184.375 32.4144 182.113 31.7442 179.265 31.7442H164.771V47.9132ZM217.744 31.7442V46.0701H243.798V55.6208H217.744V70.4494H248.071V80H206.769V22.1935H248.071V31.7442H217.744ZM258.659 74.5545C254.303 70.3656 252.124 63.9985 252.124 55.537V46.489C252.124 38.1113 254.303 31.7442 258.659 27.4715C263.015 23.2827 269.047 21.1044 276.839 21.1044C281.446 21.1044 285.552 21.9422 289.07 23.4502C292.589 24.9582 295.27 27.2202 297.197 30.1524C299.124 33.1684 300.129 36.6033 300.129 40.6246V41.2948H289.154V40.9597C289.154 37.9437 288.065 35.4304 285.887 33.5873C283.708 31.7442 280.692 30.7389 276.839 30.7389C272.231 30.7389 268.796 32.0793 266.534 34.7602C264.272 37.441 263.183 41.4624 263.183 46.9917V55.2856C263.183 60.7312 264.272 64.7525 266.534 67.2658C268.796 69.7791 272.231 71.0358 276.922 71.0358C281.111 71.0358 284.211 70.198 286.222 68.3549C288.232 66.5118 289.238 63.8309 289.238 60.1447V58.0503H276.587V49.0023H300.129V58.553C300.129 66.0929 298.034 71.706 293.846 75.3922C289.657 79.0784 283.96 80.9216 276.755 80.9216C269.047 80.9216 263.015 78.8271 258.659 74.5545ZM342.843 68.7738H318.296L314.107 80H302.378L326.087 22.1935H335.052L358.761 80H347.032L342.843 68.7738ZM339.408 59.6421L330.528 36.1006L321.731 59.6421H339.408ZM330.36 5.35428H342.843L329.69 16.4967H320.307L330.36 5.35428ZM352.978 22.1935H364.707L378.698 63.8309L392.772 22.1935H404.501L383.054 80H374.258L352.978 22.1935ZM418.915 31.7442V46.0701H444.97V55.6208H418.915V70.4494H449.242V80H407.94V22.1935H449.242V31.7442H418.915ZM455.77 22.1935H466.745V80H455.77V22.1935ZM478.304 75.8949C474.45 72.7951 472.272 68.2712 471.853 62.4067H482.325C482.66 65.5065 483.917 67.7685 486.011 69.1089C488.106 70.4494 491.206 71.1196 495.227 71.1196C503.102 71.1196 507.04 68.5225 507.04 63.3283C507.04 61.0663 506.202 59.307 504.694 58.1341C503.102 56.9612 500.505 56.1234 496.986 55.7045L490.87 54.9505C479.142 53.5263 473.277 48.1646 473.277 38.7815C473.277 33.4197 475.204 29.1471 479.142 26.0473C482.995 22.9475 488.357 21.3558 495.143 21.3558C501.678 21.3558 506.788 22.8638 510.474 25.796C514.161 28.812 516.171 33.0846 516.674 38.6139H506.118C505.867 35.8493 504.861 33.8386 503.018 32.4982C501.175 31.2415 498.494 30.5713 494.892 30.5713C491.206 30.5713 488.525 31.2415 486.682 32.4982C484.839 33.8386 483.917 35.5979 483.917 37.9437C483.917 40.1219 484.671 41.7137 486.347 42.8866C487.938 44.0595 490.535 44.8972 494.138 45.3161L501.091 46.2377C506.537 46.9917 510.726 48.751 513.574 51.4319C516.423 54.1128 517.847 57.799 517.847 62.4905C517.847 68.3549 515.752 72.7951 511.647 75.8949C507.458 78.9947 501.845 80.5027 494.64 80.5027C487.603 80.5027 482.158 78.9947 478.304 75.8949ZM4.94287 120.194H27.479C35.1865 120.194 41.1347 122.288 45.3236 126.393C49.5125 130.582 51.6907 136.949 51.6907 145.494V152.615C51.6907 161.245 49.5125 167.612 45.2398 171.8C40.8834 175.989 34.8514 178 27.0601 178H4.94287V120.194ZM27.3952 168.449C31.9192 168.449 35.2703 167.193 37.4485 164.679C39.6267 162.166 40.7159 158.145 40.7159 152.615V146.081C40.7159 140.384 39.6267 136.279 37.4485 133.682C35.2703 131.085 31.9192 129.744 27.3952 129.744H15.9177V168.449H27.3952ZM64.5178 172.554C60.3289 168.366 58.2345 161.999 58.2345 153.537V144.489C58.2345 136.111 60.3289 129.744 64.6016 125.472C68.8742 121.283 74.8224 119.104 82.3624 119.104C89.7348 119.104 95.5993 121.283 99.8719 125.472C104.061 129.744 106.239 136.111 106.239 144.489V153.537C106.239 161.915 104.061 168.282 99.7043 172.554C95.3479 176.827 89.4835 178.922 82.0273 178.922C74.4873 178.922 68.7067 176.827 64.5178 172.554ZM95.2641 153.369V145.075C95.2641 134.184 90.9077 128.739 82.3624 128.739C77.9222 128.739 74.6549 130.079 72.4767 132.76C70.2985 135.441 69.2931 139.546 69.2931 145.075V153.369C69.2931 158.731 70.2985 162.669 72.4767 165.182C74.6549 167.779 77.9222 169.036 82.3624 169.036C90.9077 169.036 95.2641 163.842 95.2641 153.369ZM170.527 124.885C174.213 128.069 176.056 132.509 176.056 138.289C176.056 143.903 174.213 148.259 170.527 151.359C166.841 154.542 161.647 156.05 154.944 156.05H141.373V178H130.398V120.194H155.363C161.814 120.194 166.841 121.785 170.527 124.885ZM165.082 138.206C165.082 135.357 164.244 133.263 162.652 131.839C160.976 130.498 158.714 129.744 155.782 129.744H141.373V146.416H155.782C161.982 146.416 165.082 143.735 165.082 138.206ZM203.613 155.296H192.136V178H181.161V120.194H206.294C212.577 120.194 217.52 121.702 221.207 124.718C224.893 127.734 226.736 132.09 226.736 137.787C226.736 141.976 225.731 145.411 223.72 148.091C221.709 150.772 218.861 152.783 215.007 153.956L229.333 178H216.264L203.613 155.296ZM192.136 145.913H206.629C212.745 145.913 215.845 143.232 215.845 137.787C215.845 135.106 215.007 133.095 213.415 131.755C211.74 130.414 209.478 129.744 206.629 129.744H192.136V145.913ZM239.263 172.554C235.074 168.366 232.98 161.999 232.98 153.537V144.489C232.98 136.111 235.074 129.744 239.347 125.472C243.62 121.283 249.568 119.104 257.108 119.104C264.48 119.104 270.345 121.283 274.617 125.472C278.806 129.744 280.984 136.111 280.984 144.489V153.537C280.984 161.915 278.806 168.282 274.45 172.554C270.093 176.827 264.229 178.922 256.773 178.922C249.233 178.922 243.452 176.827 239.263 172.554ZM270.01 153.369V145.075C270.01 134.184 265.653 128.739 257.108 128.739C252.668 128.739 249.4 130.079 247.222 132.76C245.044 135.441 244.039 139.546 244.039 145.075V153.369C244.039 158.731 245.044 162.669 247.222 165.182C249.4 167.779 252.668 169.036 257.108 169.036C265.653 169.036 270.01 163.842 270.01 153.369ZM284.909 168.366H290.02C292.533 168.366 294.293 167.947 295.298 166.941C296.219 165.936 296.722 164.177 296.722 161.663V120.194H307.781V163.506C307.781 168.366 306.524 171.968 304.011 174.398C301.497 176.827 297.727 178 292.868 178H284.909V168.366ZM327.326 129.744V144.07H353.381V153.621H327.326V168.449H357.654V178H316.352V120.194H357.654V129.744H327.326ZM404.897 129.744H387.555V178H376.58V129.744H359.238V120.194H404.897V129.744ZM411.881 172.554C407.693 168.366 405.598 161.999 405.598 153.537V144.489C405.598 136.111 407.693 129.744 411.965 125.472C416.238 121.283 422.186 119.104 429.726 119.104C437.098 119.104 442.963 121.283 447.236 125.472C451.424 129.744 453.603 136.111 453.603 144.489V153.537C453.603 161.915 451.424 168.282 447.068 172.554C442.712 176.827 436.847 178.922 429.391 178.922C421.851 178.922 416.07 176.827 411.881 172.554ZM442.628 153.369V145.075C442.628 134.184 438.271 128.739 429.726 128.739C425.286 128.739 422.019 130.079 419.84 132.76C417.662 135.441 416.657 139.546 416.657 145.075V153.369C416.657 158.731 417.662 162.669 419.84 165.182C422.019 167.779 425.286 169.036 429.726 169.036C438.271 169.036 442.628 163.842 442.628 153.369Z" fill="#F5F5F5"/>
<path d="M53.2576 261L61.4583 234.044H65.8623L74.0629 261H70.5701L63.6603 237.006L56.7505 261H53.2576ZM57.3959 253.331L58.5349 250.142H68.7857L69.9246 253.331H57.3959ZM86.3111 267.15C84.8684 267.15 83.5649 266.91 82.4006 266.429C81.2363 265.948 80.2618 265.265 79.4772 264.379C78.6926 263.493 78.1611 262.468 77.8827 261.304L81.2237 261.076C81.5274 262.012 82.0589 262.746 82.8182 263.278C83.6028 263.835 84.7671 264.113 86.3111 264.113C88.1334 264.113 89.5255 263.746 90.4873 263.012C91.4744 262.278 91.968 261.177 91.968 259.709V256.444C91.4871 257.507 90.7151 258.355 89.6521 258.988C88.589 259.621 87.3994 259.937 86.0833 259.937C84.3875 259.937 82.8688 259.519 81.5274 258.684C80.2112 257.849 79.1735 256.697 78.4142 255.229C77.6802 253.761 77.3132 252.078 77.3132 250.18C77.3132 248.256 77.6802 246.573 78.4142 245.13C79.1482 243.662 80.1606 242.511 81.4514 241.675C82.7676 240.84 84.2609 240.422 85.9314 240.422C87.3488 240.422 88.6143 240.752 89.728 241.41C90.867 242.068 91.6643 242.954 92.1199 244.067V240.878H95.1571V259.633C95.1571 261.202 94.8028 262.544 94.0941 263.658C93.3854 264.797 92.373 265.657 91.0568 266.239C89.7407 266.847 88.1588 267.15 86.3111 267.15ZM86.2351 256.9C87.9563 256.9 89.3357 256.305 90.3734 255.115C91.4112 253.9 91.9427 252.255 91.968 250.18C91.9933 248.788 91.7655 247.598 91.2846 246.611C90.829 245.599 90.1583 244.827 89.2724 244.295C88.4119 243.738 87.3994 243.46 86.2351 243.46C84.4634 243.46 83.084 244.067 82.0969 245.282C81.1351 246.472 80.6542 248.104 80.6542 250.18C80.6542 252.255 81.1477 253.9 82.1348 255.115C83.1473 256.305 84.514 256.9 86.2351 256.9ZM109.531 261.456C107.633 261.456 105.988 261.025 104.596 260.165C103.229 259.304 102.166 258.089 101.407 256.52C100.673 254.925 100.306 253.065 100.306 250.939C100.306 248.813 100.673 246.965 101.407 245.396C102.166 243.827 103.216 242.612 104.558 241.751C105.925 240.865 107.532 240.422 109.38 240.422C111.126 240.422 112.67 240.84 114.011 241.675C115.353 242.485 116.403 243.675 117.163 245.244C117.922 246.813 118.301 248.724 118.301 250.977V251.926H103.647C103.773 254.078 104.343 255.697 105.355 256.786C106.393 257.874 107.785 258.418 109.531 258.418C110.848 258.418 111.923 258.115 112.758 257.507C113.619 256.874 114.214 256.052 114.543 255.039L117.96 255.305C117.428 257.102 116.416 258.583 114.923 259.747C113.455 260.886 111.657 261.456 109.531 261.456ZM103.647 249.117H114.809C114.657 247.168 114.087 245.738 113.1 244.827C112.113 243.915 110.873 243.46 109.38 243.46C107.836 243.46 106.557 243.941 105.545 244.902C104.558 245.839 103.925 247.244 103.647 249.117ZM123.754 261V240.878H126.677L126.791 246.003L126.411 245.662C126.664 244.472 127.12 243.498 127.778 242.738C128.462 241.954 129.271 241.372 130.208 240.992C131.144 240.612 132.132 240.422 133.169 240.422C134.713 240.422 135.991 240.764 137.004 241.448C138.042 242.131 138.826 243.055 139.358 244.219C139.889 245.358 140.155 246.636 140.155 248.054V261H136.966V248.965C136.966 247.092 136.599 245.674 135.865 244.713C135.131 243.726 134.005 243.232 132.486 243.232C131.448 243.232 130.512 243.46 129.676 243.915C128.841 244.346 128.17 244.991 127.664 245.852C127.183 246.687 126.943 247.725 126.943 248.965V261H123.754ZM157.68 261C155.732 261 154.276 260.544 153.314 259.633C152.353 258.722 151.872 257.33 151.872 255.457V236.17H155.061V255.457C155.061 256.393 155.276 257.09 155.706 257.545C156.136 257.975 156.795 258.191 157.68 258.191H163.072V261H157.68ZM145.228 243.688V240.878H163.072V243.688H145.228ZM177.825 261.456C175.927 261.456 174.282 261.025 172.89 260.165C171.523 259.304 170.46 258.089 169.701 256.52C168.967 254.925 168.6 253.065 168.6 250.939C168.6 248.813 168.967 246.965 169.701 245.396C170.46 243.827 171.51 242.612 172.852 241.751C174.219 240.865 175.826 240.422 177.674 240.422C179.42 240.422 180.964 240.84 182.305 241.675C183.647 242.485 184.697 243.675 185.457 245.244C186.216 246.813 186.596 248.724 186.596 250.977V251.926H171.941C172.067 254.078 172.637 255.697 173.649 256.786C174.687 257.874 176.079 258.418 177.825 258.418C179.142 258.418 180.217 258.115 181.053 257.507C181.913 256.874 182.508 256.052 182.837 255.039L186.254 255.305C185.722 257.102 184.71 258.583 183.217 259.747C181.749 260.886 179.952 261.456 177.825 261.456ZM171.941 249.117H183.103C182.951 247.168 182.381 245.738 181.394 244.827C180.407 243.915 179.167 243.46 177.674 243.46C176.13 243.46 174.851 243.941 173.839 244.902C172.852 245.839 172.219 247.244 171.941 249.117ZM200.628 261.456C198.882 261.456 197.376 261.152 196.11 260.544C194.845 259.937 193.845 259.127 193.111 258.115C192.402 257.077 191.997 255.925 191.896 254.66L195.237 254.432C195.439 255.672 195.984 256.647 196.87 257.355C197.781 258.064 199.034 258.418 200.628 258.418C202.121 258.418 203.273 258.203 204.083 257.773C204.918 257.343 205.336 256.672 205.336 255.761C205.336 255.179 205.197 254.698 204.918 254.318C204.64 253.938 204.121 253.622 203.362 253.369C202.602 253.09 201.489 252.825 200.021 252.572C198.072 252.217 196.54 251.787 195.427 251.281C194.338 250.749 193.567 250.091 193.111 249.307C192.655 248.522 192.428 247.585 192.428 246.497C192.428 245.333 192.719 244.295 193.301 243.384C193.883 242.473 194.743 241.751 195.882 241.22C197.021 240.688 198.413 240.422 200.059 240.422C201.729 240.422 203.121 240.726 204.235 241.334C205.374 241.916 206.272 242.7 206.93 243.688C207.589 244.649 208.019 245.712 208.221 246.877L204.88 247.104C204.728 246.396 204.437 245.776 204.007 245.244C203.602 244.687 203.058 244.257 202.375 243.953C201.717 243.624 200.932 243.46 200.021 243.46C198.553 243.46 197.464 243.751 196.756 244.333C196.047 244.915 195.693 245.636 195.693 246.497C195.693 247.18 195.857 247.725 196.186 248.13C196.515 248.535 197.047 248.864 197.781 249.117C198.515 249.344 199.489 249.56 200.704 249.762C202.78 250.091 204.387 250.521 205.526 251.053C206.665 251.559 207.462 252.192 207.918 252.951C208.373 253.711 208.601 254.647 208.601 255.761C208.601 256.95 208.247 257.975 207.538 258.836C206.855 259.671 205.905 260.317 204.691 260.772C203.501 261.228 202.147 261.456 200.628 261.456ZM246.309 261.456C244.436 261.456 242.804 261.025 241.412 260.165C240.02 259.304 238.944 258.089 238.185 256.52C237.425 254.925 237.046 253.065 237.046 250.939C237.046 248.813 237.425 246.965 238.185 245.396C238.944 243.827 240.02 242.612 241.412 241.751C242.804 240.865 244.436 240.422 246.309 240.422C247.803 240.422 249.132 240.701 250.296 241.258C251.46 241.789 252.422 242.574 253.181 243.612C253.941 244.649 254.459 245.915 254.738 247.408L251.397 247.636C251.093 246.295 250.486 245.269 249.574 244.561C248.689 243.827 247.6 243.46 246.309 243.46C244.462 243.46 243.006 244.13 241.943 245.472C240.906 246.788 240.387 248.61 240.387 250.939C240.387 253.268 240.906 255.103 241.943 256.444C243.006 257.76 244.462 258.418 246.309 258.418C247.6 258.418 248.714 258.039 249.65 257.279C250.612 256.52 251.245 255.381 251.549 253.862L254.89 254.09C254.611 255.584 254.08 256.887 253.295 258.001C252.511 259.089 251.523 259.937 250.334 260.544C249.144 261.152 247.803 261.456 246.309 261.456ZM268.543 261.456C266.695 261.456 265.075 261.025 263.683 260.165C262.316 259.304 261.253 258.089 260.494 256.52C259.735 254.925 259.355 253.065 259.355 250.939C259.355 248.788 259.735 246.927 260.494 245.358C261.253 243.789 262.316 242.574 263.683 241.713C265.075 240.853 266.695 240.422 268.543 240.422C270.39 240.422 271.998 240.853 273.364 241.713C274.756 242.574 275.832 243.789 276.591 245.358C277.351 246.927 277.73 248.788 277.73 250.939C277.73 253.065 277.351 254.925 276.591 256.52C275.832 258.089 274.756 259.304 273.364 260.165C271.998 261.025 270.39 261.456 268.543 261.456ZM268.543 258.418C270.39 258.418 271.82 257.76 272.833 256.444C273.87 255.103 274.389 253.268 274.389 250.939C274.389 248.61 273.87 246.788 272.833 245.472C271.82 244.13 270.39 243.46 268.543 243.46C266.695 243.46 265.252 244.13 264.215 245.472C263.202 246.788 262.696 248.61 262.696 250.939C262.696 253.268 263.202 255.103 264.215 256.444C265.252 257.76 266.695 258.418 268.543 258.418ZM283.107 261V240.878H286.03L286.144 246.003L285.764 245.662C286.017 244.472 286.473 243.498 287.131 242.738C287.814 241.954 288.624 241.372 289.561 240.992C290.497 240.612 291.484 240.422 292.522 240.422C294.066 240.422 295.344 240.764 296.357 241.448C297.395 242.131 298.179 243.055 298.711 244.219C299.242 245.358 299.508 246.636 299.508 248.054V261H296.319V248.965C296.319 247.092 295.952 245.674 295.218 244.713C294.484 243.726 293.357 243.232 291.839 243.232C290.801 243.232 289.865 243.46 289.029 243.915C288.194 244.346 287.523 244.991 287.017 245.852C286.536 246.687 286.296 247.725 286.296 248.965V261H283.107ZM310.731 261V239.587C310.731 237.79 311.187 236.423 312.098 235.487C313.034 234.525 314.452 234.044 316.35 234.044H322.804V236.854H316.35C315.565 236.854 314.958 237.107 314.528 237.613C314.123 238.094 313.92 238.752 313.92 239.587V261H310.731ZM305.34 243.688V240.878H322.425V243.688H305.34ZM336.571 261V240.878H339.76V261H336.571ZM328.484 261V258.191H346.708V261H328.484ZM328.864 243.688V240.878H339.76V243.688H328.864ZM336.267 237.727V234.006H339.608V237.727H336.267ZM359.488 267.15C358.045 267.15 356.741 266.91 355.577 266.429C354.413 265.948 353.438 265.265 352.654 264.379C351.869 263.493 351.338 262.468 351.059 261.304L354.4 261.076C354.704 262.012 355.235 262.746 355.995 263.278C356.779 263.835 357.944 264.113 359.488 264.113C361.31 264.113 362.702 263.746 363.664 263.012C364.651 262.278 365.144 261.177 365.144 259.709V256.444C364.664 257.507 363.892 258.355 362.829 258.988C361.765 259.621 360.576 259.937 359.26 259.937C357.564 259.937 356.045 259.519 354.704 258.684C353.388 257.849 352.35 256.697 351.591 255.229C350.857 253.761 350.49 252.078 350.49 250.18C350.49 248.256 350.857 246.573 351.591 245.13C352.325 243.662 353.337 242.511 354.628 241.675C355.944 240.84 357.437 240.422 359.108 240.422C360.525 240.422 361.791 240.752 362.904 241.41C364.043 242.068 364.841 242.954 365.296 244.067V240.878H368.334V259.633C368.334 261.202 367.979 262.544 367.271 263.658C366.562 264.797 365.549 265.657 364.233 266.239C362.917 266.847 361.335 267.15 359.488 267.15ZM359.412 256.9C361.133 256.9 362.512 256.305 363.55 255.115C364.588 253.9 365.119 252.255 365.144 250.18C365.17 248.788 364.942 247.598 364.461 246.611C364.005 245.599 363.335 244.827 362.449 244.295C361.588 243.738 360.576 243.46 359.412 243.46C357.64 243.46 356.26 244.067 355.273 245.282C354.312 246.472 353.831 248.104 353.831 250.18C353.831 252.255 354.324 253.9 355.311 255.115C356.324 256.305 357.69 256.9 359.412 256.9ZM380.961 261.456C378.962 261.456 377.367 260.785 376.178 259.443C374.988 258.077 374.393 256.204 374.393 253.824V240.878H377.582V252.951C377.582 254.9 377.924 256.343 378.607 257.279C379.316 258.191 380.392 258.646 381.835 258.646C383.404 258.646 384.644 258.14 385.555 257.127C386.466 256.09 386.922 254.672 386.922 252.875V240.878H390.111V261H387.074V256.026L387.567 256.292C387.162 257.937 386.391 259.216 385.252 260.127C384.113 261.013 382.682 261.456 380.961 261.456ZM402.397 261V240.878H405.055L405.359 245.966L405.055 245.89C405.308 244.168 405.852 242.903 406.687 242.093C407.548 241.283 408.687 240.878 410.104 240.878H414.243V243.763H410.142C409.155 243.763 408.32 243.966 407.637 244.371C406.978 244.751 406.472 245.32 406.118 246.079C405.764 246.813 405.586 247.737 405.586 248.851V261H402.397ZM397.158 261V258.191H411.965V261H397.158ZM397.158 243.688V240.878H404.144V243.688H397.158ZM425.238 261.456C423.972 261.456 422.833 261.228 421.821 260.772C420.809 260.317 420.011 259.684 419.429 258.874C418.847 258.039 418.556 257.077 418.556 255.989C418.556 254.267 419.062 252.939 420.075 252.002C421.112 251.04 422.732 250.344 424.934 249.914L431.692 248.547C431.692 246.826 431.3 245.548 430.515 244.713C429.756 243.877 428.655 243.46 427.212 243.46C425.82 243.46 424.732 243.776 423.947 244.409C423.162 245.016 422.618 245.902 422.315 247.067L418.936 246.801C419.315 244.902 420.214 243.371 421.631 242.207C423.074 241.017 424.934 240.422 427.212 240.422C429.642 240.422 431.528 241.156 432.869 242.625C434.211 244.067 434.881 246.067 434.881 248.623V256.976C434.881 257.431 434.983 257.748 435.185 257.925C435.387 258.102 435.691 258.191 436.096 258.191H437.387V261C437.235 261.025 436.995 261.038 436.666 261.038C436.337 261.063 436.02 261.076 435.717 261.076C434.856 261.076 434.122 260.937 433.514 260.658C432.932 260.38 432.489 259.937 432.186 259.33C431.882 258.697 431.717 257.887 431.692 256.9H432.3C432.122 257.76 431.692 258.545 431.009 259.254C430.351 259.937 429.515 260.481 428.503 260.886C427.491 261.266 426.402 261.456 425.238 261.456ZM425.542 258.646C426.908 258.646 428.047 258.418 428.959 257.963C429.87 257.482 430.553 256.824 431.009 255.989C431.464 255.128 431.692 254.141 431.692 253.027V251.281L425.542 252.496C424.175 252.749 423.226 253.141 422.694 253.673C422.163 254.179 421.897 254.85 421.897 255.685C421.897 256.621 422.213 257.355 422.846 257.887C423.504 258.393 424.403 258.646 425.542 258.646ZM449.407 261.456C447.636 261.456 446.104 261.025 444.813 260.165C443.523 259.304 442.523 258.089 441.814 256.52C441.131 254.951 440.789 253.09 440.789 250.939C440.789 248.788 441.131 246.927 441.814 245.358C442.523 243.789 443.523 242.574 444.813 241.713C446.104 240.853 447.636 240.422 449.407 240.422C450.825 240.422 452.065 240.764 453.128 241.448C454.191 242.106 454.963 242.852 455.444 243.688V234.044H458.633V261H455.748L455.634 257.963C455.077 259.051 454.254 259.912 453.166 260.544C452.078 261.152 450.825 261.456 449.407 261.456ZM449.597 258.418C450.812 258.418 451.85 258.115 452.71 257.507C453.596 256.9 454.267 256.039 454.723 254.925C455.203 253.786 455.444 252.458 455.444 250.939C455.444 249.37 455.203 248.028 454.723 246.915C454.267 245.801 453.596 244.953 452.71 244.371C451.825 243.763 450.761 243.46 449.521 243.46C447.876 243.46 446.56 244.13 445.573 245.472C444.611 246.788 444.13 248.61 444.13 250.939C444.13 253.242 444.611 255.065 445.573 256.406C446.56 257.748 447.901 258.418 449.597 258.418ZM473.425 261.456C471.577 261.456 469.957 261.025 468.565 260.165C467.199 259.304 466.136 258.089 465.376 256.52C464.617 254.925 464.237 253.065 464.237 250.939C464.237 248.788 464.617 246.927 465.376 245.358C466.136 243.789 467.199 242.574 468.565 241.713C469.957 240.853 471.577 240.422 473.425 240.422C475.273 240.422 476.88 240.853 478.247 241.713C479.639 242.574 480.714 243.789 481.474 245.358C482.233 246.927 482.613 248.788 482.613 250.939C482.613 253.065 482.233 254.925 481.474 256.52C480.714 258.089 479.639 259.304 478.247 260.165C476.88 261.025 475.273 261.456 473.425 261.456ZM473.425 258.418C475.273 258.418 476.703 257.76 477.715 256.444C478.753 255.103 479.272 253.268 479.272 250.939C479.272 248.61 478.753 246.788 477.715 245.472C476.703 244.13 475.273 243.46 473.425 243.46C471.577 243.46 470.135 244.13 469.097 245.472C468.084 246.788 467.578 248.61 467.578 250.939C467.578 253.268 468.084 255.103 469.097 256.444C470.135 257.76 471.577 258.418 473.425 258.418ZM496.569 261.456C494.823 261.456 493.317 261.152 492.051 260.544C490.786 259.937 489.786 259.127 489.052 258.115C488.343 257.077 487.938 255.925 487.837 254.66L491.178 254.432C491.381 255.672 491.925 256.647 492.811 257.355C493.722 258.064 494.975 258.418 496.569 258.418C498.063 258.418 499.214 258.203 500.024 257.773C500.859 257.343 501.277 256.672 501.277 255.761C501.277 255.179 501.138 254.698 500.859 254.318C500.581 253.938 500.062 253.622 499.303 253.369C498.544 253.09 497.43 252.825 495.962 252.572C494.013 252.217 492.482 251.787 491.368 251.281C490.28 250.749 489.508 250.091 489.052 249.307C488.596 248.522 488.369 247.585 488.369 246.497C488.369 245.333 488.66 244.295 489.242 243.384C489.824 242.473 490.685 241.751 491.824 241.22C492.963 240.688 494.355 240.422 496 240.422C497.67 240.422 499.062 240.726 500.176 241.334C501.315 241.916 502.214 242.7 502.872 243.688C503.53 244.649 503.96 245.712 504.162 246.877L500.821 247.104C500.67 246.396 500.379 245.776 499.948 245.244C499.543 244.687 498.999 244.257 498.316 243.953C497.658 243.624 496.873 243.46 495.962 243.46C494.494 243.46 493.405 243.751 492.697 244.333C491.988 244.915 491.634 245.636 491.634 246.497C491.634 247.18 491.798 247.725 492.127 248.13C492.456 248.535 492.988 248.864 493.722 249.117C494.456 249.344 495.43 249.56 496.645 249.762C498.721 250.091 500.328 250.521 501.467 251.053C502.606 251.559 503.403 252.192 503.859 252.951C504.314 253.711 504.542 254.647 504.542 255.761C504.542 256.95 504.188 257.975 503.479 258.836C502.796 259.671 501.847 260.317 500.632 260.772C499.442 261.228 498.088 261.456 496.569 261.456Z" fill="#F5F5F5" fill-opacity="0.7"/>
<path d="M9.56175 254.219C9.56175 256.86 7.42128 259 4.78088 259C2.14047 259 0 256.86 0 254.219C0 251.579 2.14047 249.438 4.78088 249.438C7.42128 249.438 9.56175 251.579 9.56175 254.219Z" fill="#0C9663"/>
<path d="M21.3235 239.781C21.3235 242.421 19.183 244.562 16.5426 244.562C13.9022 244.562 11.7617 242.421 11.7617 239.781C11.7617 237.14 13.9022 235 16.5426 235C19.183 235 21.3235 237.14 21.3235 239.781Z" fill="#0C9663"/>
<path d="M33.0832 254.219C33.0832 256.86 30.9428 259 28.3024 259C25.662 259 23.5215 256.86 23.5215 254.219C23.5215 251.579 25.662 249.438 28.3024 249.438C30.9428 249.438 33.0832 251.579 33.0832 254.219Z" fill="#0C9663"/>
<path d="M0 299.5V300H1358V299.5V299H0V299.5Z" fill="#3A3A3A"/>
<path d="M55.6874 363V336.044H62.0657C64.3943 336.044 66.4191 336.576 68.1402 337.639C69.8867 338.677 71.2281 340.208 72.1646 342.233C73.1264 344.232 73.6073 346.675 73.6073 349.56C73.6073 352.445 73.1264 354.888 72.1646 356.887C71.2281 358.887 69.8867 360.406 68.1402 361.443C66.4191 362.481 64.3943 363 62.0657 363H55.6874ZM58.9525 359.811H61.8759C64.5082 359.811 66.5457 358.963 67.9884 357.267C69.4564 355.546 70.1904 352.977 70.1904 349.56C70.1904 346.143 69.4564 343.574 67.9884 341.853C66.5457 340.107 64.5082 339.233 61.8759 339.233H58.9525V359.811ZM83.7674 363.456C82.5018 363.456 81.3629 363.228 80.3504 362.772C79.338 362.317 78.5407 361.684 77.9586 360.874C77.3764 360.039 77.0854 359.077 77.0854 357.989C77.0854 356.267 77.5916 354.939 78.604 354.002C79.6417 353.04 81.2616 352.344 83.4636 351.914L90.2216 350.547C90.2216 348.826 89.8293 347.548 89.0446 346.713C88.2853 345.877 87.1843 345.46 85.7416 345.46C84.3495 345.46 83.2612 345.776 82.4765 346.409C81.6919 347.016 81.1477 347.902 80.844 349.067L77.465 348.801C77.8447 346.902 78.7432 345.371 80.1606 344.207C81.6033 343.017 83.4636 342.422 85.7416 342.422C88.1714 342.422 90.057 343.156 91.3985 344.625C92.74 346.067 93.4107 348.067 93.4107 350.623V358.976C93.4107 359.431 93.5119 359.748 93.7144 359.925C93.9169 360.102 94.2206 360.191 94.6256 360.191H95.9165V363C95.7646 363.025 95.5241 363.038 95.1951 363.038C94.8661 363.063 94.5497 363.076 94.246 363.076C93.3854 363.076 92.6514 362.937 92.0439 362.658C91.4618 362.38 91.0189 361.937 90.7151 361.33C90.4114 360.697 90.2469 359.887 90.2216 358.9H90.829C90.6518 359.76 90.2216 360.545 89.5382 361.254C88.8801 361.937 88.0449 362.481 87.0324 362.886C86.02 363.266 84.9317 363.456 83.7674 363.456ZM84.0711 360.646C85.4379 360.646 86.5768 360.418 87.488 359.963C88.3992 359.482 89.0826 358.824 89.5382 357.989C89.9938 357.128 90.2216 356.141 90.2216 355.027V353.281L84.0711 354.496C82.7043 354.749 81.7552 355.141 81.2237 355.673C80.6921 356.179 80.4264 356.85 80.4264 357.685C80.4264 358.621 80.7428 359.355 81.3755 359.887C82.0336 360.393 82.9321 360.646 84.0711 360.646ZM109.569 363.456C107.823 363.456 106.317 363.152 105.051 362.544C103.786 361.937 102.786 361.127 102.052 360.115C101.343 359.077 100.938 357.925 100.837 356.66L104.178 356.432C104.381 357.672 104.925 358.647 105.811 359.355C106.722 360.064 107.975 360.418 109.569 360.418C111.063 360.418 112.214 360.203 113.024 359.773C113.859 359.343 114.277 358.672 114.277 357.761C114.277 357.179 114.138 356.698 113.859 356.318C113.581 355.938 113.062 355.622 112.303 355.369C111.544 355.09 110.43 354.825 108.962 354.572C107.013 354.217 105.482 353.787 104.368 353.281C103.28 352.749 102.508 352.091 102.052 351.307C101.597 350.522 101.369 349.585 101.369 348.497C101.369 347.333 101.66 346.295 102.242 345.384C102.824 344.473 103.685 343.751 104.824 343.22C105.963 342.688 107.355 342.422 109 342.422C110.67 342.422 112.062 342.726 113.176 343.334C114.315 343.916 115.214 344.7 115.872 345.688C116.53 346.649 116.96 347.712 117.163 348.877L113.822 349.104C113.67 348.396 113.379 347.776 112.948 347.244C112.543 346.687 111.999 346.257 111.316 345.953C110.658 345.624 109.873 345.46 108.962 345.46C107.494 345.46 106.406 345.751 105.697 346.333C104.988 346.915 104.634 347.636 104.634 348.497C104.634 349.18 104.798 349.725 105.127 350.13C105.456 350.535 105.988 350.864 106.722 351.117C107.456 351.344 108.43 351.56 109.645 351.762C111.721 352.091 113.328 352.521 114.467 353.053C115.606 353.559 116.403 354.192 116.859 354.951C117.314 355.711 117.542 356.647 117.542 357.761C117.542 358.95 117.188 359.975 116.479 360.836C115.796 361.671 114.847 362.317 113.632 362.772C112.442 363.228 111.088 363.456 109.569 363.456ZM124.361 363V336.044H127.55V347.32L127.171 347.244C127.424 346.13 127.854 345.219 128.462 344.511C129.069 343.802 129.816 343.283 130.702 342.954C131.587 342.6 132.549 342.422 133.587 342.422C135.03 342.422 136.245 342.752 137.232 343.41C138.244 344.042 139.003 344.941 139.51 346.105C140.041 347.244 140.307 348.56 140.307 350.054V363H137.118V350.965C137.118 349.016 136.763 347.573 136.055 346.637C135.371 345.7 134.321 345.232 132.904 345.232C131.284 345.232 129.98 345.726 128.993 346.713C128.031 347.7 127.55 349.13 127.55 351.003V363H124.361ZM155.972 363.456C154.58 363.456 153.34 363.152 152.251 362.544C151.163 361.912 150.328 361.051 149.746 359.963L149.632 363H146.746V336.044H149.935V345.688C150.442 344.852 151.226 344.106 152.289 343.448C153.352 342.764 154.58 342.422 155.972 342.422C157.744 342.422 159.275 342.853 160.566 343.713C161.857 344.574 162.844 345.789 163.527 347.358C164.236 348.927 164.59 350.788 164.59 352.939C164.59 355.09 164.236 356.951 163.527 358.52C162.844 360.089 161.857 361.304 160.566 362.165C159.275 363.025 157.744 363.456 155.972 363.456ZM155.782 360.418C157.478 360.418 158.807 359.748 159.769 358.406C160.756 357.065 161.249 355.242 161.249 352.939C161.249 350.61 160.756 348.788 159.769 347.472C158.807 346.13 157.503 345.46 155.858 345.46C154.618 345.46 153.555 345.763 152.669 346.371C151.783 346.953 151.1 347.801 150.619 348.915C150.163 350.028 149.935 351.37 149.935 352.939C149.935 354.458 150.163 355.786 150.619 356.925C151.1 358.039 151.77 358.9 152.631 359.507C153.517 360.115 154.567 360.418 155.782 360.418ZM177.484 363.456C175.636 363.456 174.016 363.025 172.624 362.165C171.257 361.304 170.194 360.089 169.435 358.52C168.676 356.925 168.296 355.065 168.296 352.939C168.296 350.788 168.676 348.927 169.435 347.358C170.194 345.789 171.257 344.574 172.624 343.713C174.016 342.853 175.636 342.422 177.484 342.422C179.331 342.422 180.939 342.853 182.305 343.713C183.698 344.574 184.773 345.789 185.533 347.358C186.292 348.927 186.672 350.788 186.672 352.939C186.672 355.065 186.292 356.925 185.533 358.52C184.773 360.089 183.698 361.304 182.305 362.165C180.939 363.025 179.331 363.456 177.484 363.456ZM177.484 360.418C179.331 360.418 180.762 359.76 181.774 358.444C182.812 357.103 183.331 355.268 183.331 352.939C183.331 350.61 182.812 348.788 181.774 347.472C180.762 346.13 179.331 345.46 177.484 345.46C175.636 345.46 174.193 346.13 173.156 347.472C172.143 348.788 171.637 350.61 171.637 352.939C171.637 355.268 172.143 357.103 173.156 358.444C174.193 359.76 175.636 360.418 177.484 360.418ZM197.591 363.456C196.325 363.456 195.186 363.228 194.174 362.772C193.162 362.317 192.364 361.684 191.782 360.874C191.2 360.039 190.909 359.077 190.909 357.989C190.909 356.267 191.415 354.939 192.428 354.002C193.465 353.04 195.085 352.344 197.287 351.914L204.045 350.547C204.045 348.826 203.653 347.548 202.868 346.713C202.109 345.877 201.008 345.46 199.565 345.46C198.173 345.46 197.085 345.776 196.3 346.409C195.515 347.016 194.971 347.902 194.668 349.067L191.289 348.801C191.668 346.902 192.567 345.371 193.984 344.207C195.427 343.017 197.287 342.422 199.565 342.422C201.995 342.422 203.881 343.156 205.222 344.625C206.563 346.067 207.234 348.067 207.234 350.623V358.976C207.234 359.431 207.335 359.748 207.538 359.925C207.74 360.102 208.044 360.191 208.449 360.191H209.74V363C209.588 363.025 209.348 363.038 209.019 363.038C208.69 363.063 208.373 363.076 208.069 363.076C207.209 363.076 206.475 362.937 205.867 362.658C205.285 362.38 204.842 361.937 204.539 361.33C204.235 360.697 204.07 359.887 204.045 358.9H204.653C204.475 359.76 204.045 360.545 203.362 361.254C202.704 361.937 201.868 362.481 200.856 362.886C199.844 363.266 198.755 363.456 197.591 363.456ZM197.895 360.646C199.261 360.646 200.4 360.418 201.312 359.963C202.223 359.482 202.906 358.824 203.362 357.989C203.817 357.128 204.045 356.141 204.045 355.027V353.281L197.895 354.496C196.528 354.749 195.579 355.141 195.047 355.673C194.516 356.179 194.25 356.85 194.25 357.685C194.25 358.621 194.566 359.355 195.199 359.887C195.857 360.393 196.756 360.646 197.895 360.646ZM220.28 363V342.878H222.937L223.241 347.966L222.937 347.89C223.19 346.168 223.735 344.903 224.57 344.093C225.43 343.283 226.569 342.878 227.987 342.878H232.125V345.763H228.025C227.038 345.763 226.202 345.966 225.519 346.371C224.861 346.751 224.355 347.32 224 348.079C223.646 348.813 223.469 349.737 223.469 350.851V363H220.28ZM215.04 363V360.191H229.847V363H215.04ZM215.04 345.688V342.878H222.026V345.688H215.04ZM244.525 363.456C242.753 363.456 241.222 363.025 239.931 362.165C238.64 361.304 237.641 360.089 236.932 358.52C236.248 356.951 235.907 355.09 235.907 352.939C235.907 350.788 236.248 348.927 236.932 347.358C237.641 345.789 238.64 344.574 239.931 343.713C241.222 342.853 242.753 342.422 244.525 342.422C245.942 342.422 247.183 342.764 248.246 343.448C249.309 344.106 250.081 344.852 250.562 345.688V336.044H253.751V363H250.865L250.751 359.963C250.195 361.051 249.372 361.912 248.284 362.544C247.195 363.152 245.942 363.456 244.525 363.456ZM244.715 360.418C245.93 360.418 246.968 360.115 247.828 359.507C248.714 358.9 249.385 358.039 249.84 356.925C250.321 355.786 250.562 354.458 250.562 352.939C250.562 351.37 250.321 350.028 249.84 348.915C249.385 347.801 248.714 346.953 247.828 346.371C246.942 345.763 245.879 345.46 244.639 345.46C242.994 345.46 241.678 346.13 240.69 347.472C239.729 348.788 239.248 350.61 239.248 352.939C239.248 355.242 239.729 357.065 240.69 358.406C241.678 359.748 243.019 360.418 244.715 360.418Z" fill="#F5F5F5" fill-opacity="0.7"/>
<path d="M9.56175 356.219C9.56175 358.86 7.42128 361 4.78088 361C2.14047 361 0 358.86 0 356.219C0 353.579 2.14047 351.438 4.78088 351.438C7.42128 351.438 9.56175 353.579 9.56175 356.219Z" fill="#0C9663"/>
<path d="M21.3235 341.781C21.3235 344.421 19.183 346.562 16.5426 346.562C13.9022 346.562 11.7617 344.421 11.7617 341.781C11.7617 339.14 13.9022 337 16.5426 337C19.183 337 21.3235 339.14 21.3235 341.781Z" fill="#0C9663"/>
<path d="M33.0832 356.219C33.0832 358.86 30.9428 361 28.3024 361C25.662 361 23.5215 358.86 23.5215 356.219C23.5215 353.579 25.662 351.438 28.3024 351.438C30.9428 351.438 33.0832 353.579 33.0832 356.219Z" fill="#0C9663"/>
<path d="M0 401.5V402H1358V401.5V401H0V401.5Z" fill="#3A3A3A"/>
<path d="M62.0277 465V441.233H53.7891V438.044H73.5314V441.233H65.2928V465H62.0277ZM83.6914 465V444.878H86.349L86.6528 449.966L86.349 449.89C86.6022 448.168 87.1463 446.903 87.9816 446.093C88.8421 445.283 89.9811 444.878 91.3985 444.878H95.5368V447.763H91.4365C90.4494 447.763 89.6141 447.966 88.9307 448.371C88.2727 448.751 87.7664 449.32 87.4121 450.079C87.0577 450.813 86.8806 451.737 86.8806 452.851V465H83.6914ZM78.4521 465V462.191H93.2588V465H78.4521ZM78.4521 447.688V444.878H85.4379V447.688H78.4521ZM109.531 465.456C107.633 465.456 105.988 465.025 104.596 464.165C103.229 463.304 102.166 462.089 101.407 460.52C100.673 458.925 100.306 457.065 100.306 454.939C100.306 452.813 100.673 450.965 101.407 449.396C102.166 447.827 103.216 446.612 104.558 445.751C105.925 444.865 107.532 444.422 109.38 444.422C111.126 444.422 112.67 444.84 114.011 445.675C115.353 446.485 116.403 447.675 117.163 449.244C117.922 450.813 118.301 452.724 118.301 454.977V455.926H103.647C103.773 458.078 104.343 459.697 105.355 460.786C106.393 461.874 107.785 462.418 109.531 462.418C110.848 462.418 111.923 462.115 112.758 461.507C113.619 460.874 114.214 460.052 114.543 459.039L117.96 459.305C117.428 461.102 116.416 462.583 114.923 463.747C113.455 464.886 111.657 465.456 109.531 465.456ZM103.647 453.117H114.809C114.657 451.168 114.087 449.738 113.1 448.827C112.113 447.915 110.873 447.46 109.38 447.46C107.836 447.46 106.557 447.941 105.545 448.902C104.558 449.839 103.925 451.244 103.647 453.117ZM131.689 465V444.878H134.878V465H131.689ZM123.602 465V462.191H141.826V465H123.602ZM123.982 447.688V444.878H134.878V447.688H123.982ZM131.385 441.727V438.006H134.726V441.727H131.385ZM146.518 465V444.878H149.442L149.556 450.003L149.176 449.662C149.429 448.472 149.885 447.498 150.543 446.738C151.226 445.954 152.036 445.372 152.973 444.992C153.909 444.612 154.896 444.422 155.934 444.422C157.478 444.422 158.756 444.764 159.769 445.448C160.806 446.131 161.591 447.055 162.122 448.219C162.654 449.358 162.92 450.636 162.92 452.054V465H159.731V452.965C159.731 451.092 159.364 449.674 158.63 448.713C157.896 447.726 156.769 447.232 155.251 447.232C154.213 447.232 153.276 447.46 152.441 447.915C151.606 448.346 150.935 448.991 150.429 449.852C149.948 450.687 149.708 451.725 149.708 452.965V465H146.518ZM174.826 465.456C173.561 465.456 172.422 465.228 171.409 464.772C170.397 464.317 169.6 463.684 169.017 462.874C168.435 462.039 168.144 461.077 168.144 459.989C168.144 458.267 168.65 456.939 169.663 456.002C170.701 455.04 172.32 454.344 174.522 453.914L181.28 452.547C181.28 450.826 180.888 449.548 180.103 448.713C179.344 447.877 178.243 447.46 176.8 447.46C175.408 447.46 174.32 447.776 173.535 448.409C172.751 449.016 172.207 449.902 171.903 451.067L168.524 450.801C168.904 448.902 169.802 447.371 171.219 446.207C172.662 445.017 174.522 444.422 176.8 444.422C179.23 444.422 181.116 445.156 182.457 446.625C183.799 448.067 184.47 450.067 184.47 452.623V460.976C184.47 461.431 184.571 461.748 184.773 461.925C184.976 462.102 185.279 462.191 185.684 462.191H186.975V465C186.823 465.025 186.583 465.038 186.254 465.038C185.925 465.063 185.608 465.076 185.305 465.076C184.444 465.076 183.71 464.937 183.103 464.658C182.521 464.38 182.078 463.937 181.774 463.33C181.47 462.697 181.306 461.887 181.28 460.9H181.888C181.711 461.76 181.28 462.545 180.597 463.254C179.939 463.937 179.104 464.481 178.091 464.886C177.079 465.266 175.99 465.456 174.826 465.456ZM175.13 462.646C176.497 462.646 177.636 462.418 178.547 461.963C179.458 461.482 180.141 460.824 180.597 459.989C181.053 459.128 181.28 458.141 181.28 457.027V455.281L175.13 456.496C173.763 456.749 172.814 457.141 172.282 457.673C171.751 458.179 171.485 458.85 171.485 459.685C171.485 460.621 171.802 461.355 172.434 461.887C173.092 462.393 173.991 462.646 175.13 462.646ZM190.377 465V444.878H193.301L193.415 449.358L193.035 449.282C193.263 447.789 193.744 446.612 194.478 445.751C195.237 444.865 196.199 444.422 197.363 444.422C198.553 444.422 199.464 444.853 200.097 445.713C200.755 446.574 201.16 447.839 201.312 449.51H200.932C201.16 447.941 201.666 446.7 202.451 445.789C203.26 444.878 204.273 444.422 205.488 444.422C207.108 444.422 208.285 444.979 209.019 446.093C209.753 447.207 210.12 449.054 210.12 451.636V465H206.93V452.092C206.93 450.295 206.741 449.042 206.361 448.333C205.981 447.599 205.387 447.232 204.577 447.232C204.045 447.232 203.577 447.409 203.172 447.763C202.767 448.093 202.438 448.624 202.185 449.358C201.957 450.092 201.843 451.029 201.843 452.168V465H198.654V452.092C198.654 450.37 198.464 449.13 198.084 448.371C197.73 447.612 197.135 447.232 196.3 447.232C195.769 447.232 195.3 447.409 194.895 447.763C194.49 448.093 194.161 448.624 193.908 449.358C193.68 450.092 193.567 451.029 193.567 452.168V465H190.377ZM223.355 465.456C221.457 465.456 219.811 465.025 218.419 464.165C217.053 463.304 215.99 462.089 215.23 460.52C214.496 458.925 214.129 457.065 214.129 454.939C214.129 452.813 214.496 450.965 215.23 449.396C215.99 447.827 217.04 446.612 218.381 445.751C219.748 444.865 221.355 444.422 223.203 444.422C224.949 444.422 226.493 444.84 227.835 445.675C229.176 446.485 230.227 447.675 230.986 449.244C231.745 450.813 232.125 452.724 232.125 454.977V455.926H217.47C217.597 458.078 218.166 459.697 219.179 460.786C220.216 461.874 221.608 462.418 223.355 462.418C224.671 462.418 225.747 462.115 226.582 461.507C227.443 460.874 228.037 460.052 228.366 459.039L231.783 459.305C231.252 461.102 230.239 462.583 228.746 463.747C227.278 464.886 225.481 465.456 223.355 465.456ZM217.47 453.117H228.632C228.48 451.168 227.911 449.738 226.924 448.827C225.937 447.915 224.696 447.46 223.203 447.46C221.659 447.46 220.381 447.941 219.368 448.902C218.381 449.839 217.749 451.244 217.47 453.117ZM237.577 465V444.878H240.501L240.615 450.003L240.235 449.662C240.488 448.472 240.944 447.498 241.602 446.738C242.285 445.954 243.095 445.372 244.031 444.992C244.968 444.612 245.955 444.422 246.993 444.422C248.537 444.422 249.815 444.764 250.827 445.448C251.865 446.131 252.65 447.055 253.181 448.219C253.713 449.358 253.979 450.636 253.979 452.054V465H250.789V452.965C250.789 451.092 250.422 449.674 249.688 448.713C248.954 447.726 247.828 447.232 246.309 447.232C245.272 447.232 244.335 447.46 243.5 447.915C242.665 448.346 241.994 448.991 241.488 449.852C241.007 450.687 240.766 451.725 240.766 452.965V465H237.577ZM271.504 465C269.555 465 268.1 464.544 267.138 463.633C266.176 462.722 265.695 461.33 265.695 459.457V440.17H268.884V459.457C268.884 460.393 269.099 461.09 269.53 461.545C269.96 461.975 270.618 462.191 271.504 462.191H276.895V465H271.504ZM259.051 447.688V444.878H276.895V447.688H259.051ZM291.307 465.456C289.46 465.456 287.84 465.025 286.448 464.165C285.081 463.304 284.018 462.089 283.259 460.52C282.499 458.925 282.12 457.065 282.12 454.939C282.12 452.788 282.499 450.927 283.259 449.358C284.018 447.789 285.081 446.574 286.448 445.713C287.84 444.853 289.46 444.422 291.307 444.422C293.155 444.422 294.762 444.853 296.129 445.713C297.521 446.574 298.597 447.789 299.356 449.358C300.115 450.927 300.495 452.788 300.495 454.939C300.495 457.065 300.115 458.925 299.356 460.52C298.597 462.089 297.521 463.304 296.129 464.165C294.762 465.025 293.155 465.456 291.307 465.456ZM291.307 462.418C293.155 462.418 294.585 461.76 295.597 460.444C296.635 459.103 297.154 457.268 297.154 454.939C297.154 452.61 296.635 450.788 295.597 449.472C294.585 448.13 293.155 447.46 291.307 447.46C289.46 447.46 288.017 448.13 286.979 449.472C285.967 450.788 285.461 452.61 285.461 454.939C285.461 457.268 285.967 459.103 286.979 460.444C288.017 461.76 289.46 462.418 291.307 462.418ZM337.178 465.456C335.28 465.456 333.635 465.025 332.243 464.165C330.876 463.304 329.813 462.089 329.054 460.52C328.32 458.925 327.953 457.065 327.953 454.939C327.953 452.813 328.32 450.965 329.054 449.396C329.813 447.827 330.863 446.612 332.205 445.751C333.572 444.865 335.179 444.422 337.027 444.422C338.773 444.422 340.317 444.84 341.658 445.675C343 446.485 344.05 447.675 344.81 449.244C345.569 450.813 345.949 452.724 345.949 454.977V455.926H331.294C331.42 458.078 331.99 459.697 333.002 460.786C334.04 461.874 335.432 462.418 337.178 462.418C338.495 462.418 339.57 462.115 340.406 461.507C341.266 460.874 341.861 460.052 342.19 459.039L345.607 459.305C345.075 461.102 344.063 462.583 342.57 463.747C341.102 464.886 339.305 465.456 337.178 465.456ZM331.294 453.117H342.456C342.304 451.168 341.734 449.738 340.747 448.827C339.76 447.915 338.52 447.46 337.027 447.46C335.483 447.46 334.204 447.941 333.192 448.902C332.205 449.839 331.572 451.244 331.294 453.117ZM382.746 465.456C380.999 465.456 379.493 465.152 378.228 464.544C376.962 463.937 375.963 463.127 375.229 462.115C374.52 461.077 374.115 459.925 374.014 458.66L377.355 458.432C377.557 459.672 378.101 460.647 378.987 461.355C379.898 462.064 381.151 462.418 382.746 462.418C384.239 462.418 385.391 462.203 386.201 461.773C387.036 461.343 387.454 460.672 387.454 459.761C387.454 459.179 387.314 458.698 387.036 458.318C386.758 457.938 386.239 457.622 385.479 457.369C384.72 457.09 383.606 456.825 382.138 456.572C380.189 456.217 378.658 455.787 377.544 455.281C376.456 454.749 375.684 454.091 375.229 453.307C374.773 452.522 374.545 451.585 374.545 450.497C374.545 449.333 374.836 448.295 375.418 447.384C376.001 446.473 376.861 445.751 378 445.22C379.139 444.688 380.531 444.422 382.176 444.422C383.847 444.422 385.239 444.726 386.353 445.334C387.492 445.916 388.39 446.7 389.048 447.688C389.706 448.649 390.136 449.712 390.339 450.877L386.998 451.104C386.846 450.396 386.555 449.776 386.125 449.244C385.72 448.687 385.176 448.257 384.492 447.953C383.834 447.624 383.05 447.46 382.138 447.46C380.67 447.46 379.582 447.751 378.873 448.333C378.165 448.915 377.81 449.636 377.81 450.497C377.81 451.18 377.975 451.725 378.304 452.13C378.633 452.535 379.164 452.864 379.898 453.117C380.632 453.344 381.607 453.56 382.822 453.762C384.897 454.091 386.504 454.521 387.643 455.053C388.782 455.559 389.58 456.192 390.035 456.951C390.491 457.711 390.719 458.647 390.719 459.761C390.719 460.95 390.364 461.975 389.656 462.836C388.972 463.671 388.023 464.317 386.808 464.772C385.619 465.228 384.264 465.456 382.746 465.456ZM403.726 465.456C401.727 465.456 400.132 464.785 398.942 463.443C397.753 462.077 397.158 460.204 397.158 457.824V444.878H400.347V456.951C400.347 458.9 400.689 460.343 401.372 461.279C402.081 462.191 403.157 462.646 404.599 462.646C406.169 462.646 407.409 462.14 408.32 461.127C409.231 460.09 409.687 458.672 409.687 456.875V444.878H412.876V465H409.839V460.026L410.332 460.292C409.927 461.937 409.155 463.216 408.016 464.127C406.877 465.013 405.447 465.456 403.726 465.456ZM419.543 470.695V444.878H422.504L422.58 449.434L422.125 449.206C422.631 447.637 423.466 446.447 424.63 445.637C425.82 444.827 427.187 444.422 428.731 444.422C430.73 444.422 432.363 444.916 433.628 445.903C434.919 446.89 435.868 448.181 436.476 449.776C437.083 451.37 437.387 453.091 437.387 454.939C437.387 456.787 437.083 458.508 436.476 460.102C435.868 461.697 434.919 462.988 433.628 463.975C432.363 464.962 430.73 465.456 428.731 465.456C427.693 465.456 426.719 465.278 425.807 464.924C424.922 464.57 424.162 464.076 423.529 463.443C422.922 462.811 422.504 462.064 422.277 461.203L422.732 460.672V470.695H419.543ZM428.427 462.418C430.173 462.418 431.54 461.76 432.527 460.444C433.54 459.128 434.046 457.293 434.046 454.939C434.046 452.585 433.54 450.75 432.527 449.434C431.54 448.118 430.173 447.46 428.427 447.46C427.263 447.46 426.25 447.738 425.39 448.295C424.555 448.852 423.896 449.687 423.416 450.801C422.96 451.914 422.732 453.294 422.732 454.939C422.732 456.584 422.96 457.964 423.416 459.077C423.871 460.191 424.529 461.026 425.39 461.583C426.25 462.14 427.263 462.418 428.427 462.418ZM450.66 465.456C448.813 465.456 447.193 465.025 445.801 464.165C444.434 463.304 443.371 462.089 442.611 460.52C441.852 458.925 441.472 457.065 441.472 454.939C441.472 452.788 441.852 450.927 442.611 449.358C443.371 447.789 444.434 446.574 445.801 445.713C447.193 444.853 448.813 444.422 450.66 444.422C452.508 444.422 454.115 444.853 455.482 445.713C456.874 446.574 457.95 447.789 458.709 449.358C459.468 450.927 459.848 452.788 459.848 454.939C459.848 457.065 459.468 458.925 458.709 460.52C457.95 462.089 456.874 463.304 455.482 464.165C454.115 465.025 452.508 465.456 450.66 465.456ZM450.66 462.418C452.508 462.418 453.938 461.76 454.95 460.444C455.988 459.103 456.507 457.268 456.507 454.939C456.507 452.61 455.988 450.788 454.95 449.472C453.938 448.13 452.508 447.46 450.66 447.46C448.813 447.46 447.37 448.13 446.332 449.472C445.32 450.788 444.813 452.61 444.813 454.939C444.813 457.268 445.32 459.103 446.332 460.444C447.37 461.76 448.813 462.418 450.66 462.418ZM470.691 465V444.878H473.349L473.653 449.966L473.349 449.89C473.602 448.168 474.146 446.903 474.982 446.093C475.842 445.283 476.981 444.878 478.398 444.878H482.537V447.763H478.436C477.449 447.763 476.614 447.966 475.931 448.371C475.273 448.751 474.766 449.32 474.412 450.079C474.058 450.813 473.881 451.737 473.881 452.851V465H470.691ZM465.452 465V462.191H480.259V465H465.452ZM465.452 447.688V444.878H472.438V447.688H465.452ZM499.151 465C497.202 465 495.747 464.544 494.785 463.633C493.823 462.722 493.342 461.33 493.342 459.457V440.17H496.531V459.457C496.531 460.393 496.746 461.09 497.177 461.545C497.607 461.975 498.265 462.191 499.151 462.191H504.542V465H499.151ZM486.698 447.688V444.878H504.542V447.688H486.698ZM519.296 465.456C517.398 465.456 515.753 465.025 514.36 464.165C512.994 463.304 511.931 462.089 511.171 460.52C510.437 458.925 510.07 457.065 510.07 454.939C510.07 452.813 510.437 450.965 511.171 449.396C511.931 447.827 512.981 446.612 514.323 445.751C515.689 444.865 517.296 444.422 519.144 444.422C520.891 444.422 522.435 444.84 523.776 445.675C525.117 446.485 526.168 447.675 526.927 449.244C527.686 450.813 528.066 452.724 528.066 454.977V455.926H513.411C513.538 458.078 514.107 459.697 515.12 460.786C516.158 461.874 517.55 462.418 519.296 462.418C520.612 462.418 521.688 462.115 522.523 461.507C523.384 460.874 523.978 460.052 524.308 459.039L527.724 459.305C527.193 461.102 526.181 462.583 524.687 463.747C523.219 464.886 521.422 465.456 519.296 465.456ZM513.411 453.117H524.573C524.421 451.168 523.852 449.738 522.865 448.827C521.878 447.915 520.637 447.46 519.144 447.46C517.6 447.46 516.322 447.941 515.31 448.902C514.323 449.839 513.69 451.244 513.411 453.117Z" fill="#F5F5F5" fill-opacity="0.7"/>
<path d="M9.56175 458.219C9.56175 460.86 7.42128 463 4.78088 463C2.14047 463 0 460.86 0 458.219C0 455.579 2.14047 453.438 4.78088 453.438C7.42128 453.438 9.56175 455.579 9.56175 458.219Z" fill="#0C9663"/>
<path d="M21.3235 443.781C21.3235 446.421 19.183 448.562 16.5426 448.562C13.9022 448.562 11.7617 446.421 11.7617 443.781C11.7617 441.14 13.9022 439 16.5426 439C19.183 439 21.3235 441.14 21.3235 443.781Z" fill="#0C9663"/>
<path d="M33.0832 458.219C33.0832 460.86 30.9428 463 28.3024 463C25.662 463 23.5215 460.86 23.5215 458.219C23.5215 455.579 25.662 453.438 28.3024 453.438C30.9428 453.438 33.0832 455.579 33.0832 458.219Z" fill="#0C9663"/>
<path d="M0 503.5V504H1358V503.5V503H0V503.5Z" fill="#3A3A3A"/>
</svg>
