<svg width="948" height="544" viewBox="0 0 948 544" fill="none" xmlns="http://www.w3.org/2000/svg">
<rect x="0.5" y="0.5" width="947" height="543" rx="42.5" fill="black" fill-opacity="0.78"/>
<rect x="0.5" y="0.5" width="947" height="543" rx="42.5" stroke="#919191"/>
<path d="M74.5576 109.347C73.3271 109.347 72.2849 109.022 71.4308 108.37C70.5767 107.719 69.9253 106.792 69.4765 105.591C69.0423 104.389 68.8251 102.964 68.8251 101.313C68.8251 99.6486 69.0423 98.2154 69.4765 97.0139C69.9253 95.8124 70.5767 94.886 71.4308 94.2346C72.2849 93.5687 73.3271 93.2357 74.5576 93.2357C75.9183 93.2357 77.0764 93.6845 78.0318 94.582C78.9872 95.465 79.6242 96.7027 79.9426 98.2951L77.9449 98.4253C77.6989 97.3107 77.2718 96.4711 76.6638 95.9065C76.0703 95.342 75.3682 95.0597 74.5576 95.0597C73.7325 95.0597 73.0376 95.3058 72.4731 95.798C71.923 96.2757 71.5032 96.985 71.2137 97.9259C70.9241 98.8524 70.7794 99.9815 70.7794 101.313C70.7794 102.631 70.9241 103.752 71.2137 104.679C71.5032 105.605 71.923 106.315 72.4731 106.807C73.0376 107.285 73.7325 107.523 74.5576 107.523C75.4551 107.523 76.2151 107.212 76.8375 106.59C77.46 105.967 77.8798 105.041 78.0969 103.81L80.0729 103.919C79.7979 105.613 79.1754 106.944 78.2055 107.914C77.2356 108.87 76.0197 109.347 74.5576 109.347ZM95.7853 109.347C94.5693 109.347 93.5343 109.036 92.6802 108.414C91.8406 107.791 91.1964 106.879 90.7476 105.678C90.3134 104.476 90.0962 103.021 90.0962 101.313C90.0962 99.5762 90.3134 98.1069 90.7476 96.9054C91.1964 95.7039 91.8406 94.7919 92.6802 94.1694C93.5343 93.547 94.5693 93.2357 95.7853 93.2357C97.0012 93.2357 98.029 93.547 98.8686 94.1694C99.7227 94.7919 100.367 95.7039 100.801 96.9054C101.25 98.1069 101.474 99.5762 101.474 101.313C101.474 103.021 101.25 104.476 100.801 105.678C100.367 106.879 99.7227 107.791 98.8686 108.414C98.029 109.036 97.0012 109.347 95.7853 109.347ZM95.7853 107.523C96.5814 107.523 97.2546 107.292 97.8047 106.829C98.3692 106.351 98.7963 105.649 99.0858 104.722C99.3753 103.796 99.52 102.66 99.52 101.313C99.52 99.967 99.3753 98.8307 99.0858 97.9042C98.7963 96.9633 98.3692 96.254 97.8047 95.7763C97.2546 95.2986 96.5814 95.0597 95.7853 95.0597C94.9891 95.0597 94.3087 95.2986 93.7442 95.7763C93.1941 96.254 92.7743 96.9633 92.4848 97.9042C92.1952 98.8307 92.0505 99.967 92.0505 101.313C92.0505 102.66 92.1952 103.796 92.4848 104.722C92.7743 105.649 93.1941 106.351 93.7442 106.829C94.3087 107.292 94.9891 107.523 95.7853 107.523ZM112.062 109V93.5832H114.711L120.183 106.872V93.5832H122.051V109H119.401L113.93 95.7111V109H112.062ZM133.768 109V93.5832H137.415C138.747 93.5832 139.905 93.8872 140.89 94.4951C141.889 95.0887 142.656 95.9644 143.191 97.1225C143.741 98.2661 144.016 99.663 144.016 101.313C144.016 102.964 143.741 104.36 143.191 105.504C142.656 106.648 141.889 107.516 140.89 108.11C139.905 108.703 138.747 109 137.415 109H133.768ZM135.635 107.176H137.307C138.812 107.176 139.978 106.691 140.803 105.721C141.642 104.737 142.062 103.268 142.062 101.313C142.062 99.359 141.642 97.8897 140.803 96.9054C139.978 95.9065 138.812 95.4071 137.307 95.4071H135.635V107.176ZM154.822 109V107.176H158.665V95.4071H154.822V93.5832H164.376V95.4071H160.532V107.176H164.376V109H154.822ZM180.913 109.347C179.683 109.347 178.64 109.022 177.786 108.37C176.932 107.719 176.281 106.792 175.832 105.591C175.398 104.389 175.181 102.964 175.181 101.313C175.181 99.6486 175.398 98.2154 175.832 97.0139C176.281 95.8124 176.932 94.886 177.786 94.2346C178.64 93.5687 179.683 93.2357 180.913 93.2357C182.274 93.2357 183.432 93.6845 184.387 94.582C185.343 95.465 185.98 96.7027 186.298 98.2951L184.3 98.4253C184.054 97.3107 183.627 96.4711 183.019 95.9065C182.426 95.342 181.724 95.0597 180.913 95.0597C180.088 95.0597 179.393 95.3058 178.829 95.798C178.278 96.2757 177.859 96.985 177.569 97.9259C177.28 98.8524 177.135 99.9815 177.135 101.313C177.135 102.631 177.28 103.752 177.569 104.679C177.859 105.605 178.278 106.315 178.829 106.807C179.393 107.285 180.088 107.523 180.913 107.523C181.811 107.523 182.571 107.212 183.193 106.59C183.816 105.967 184.235 105.041 184.452 103.81L186.428 103.919C186.153 105.613 185.531 106.944 184.561 107.914C183.591 108.87 182.375 109.347 180.913 109.347ZM180.978 113.777C180.283 113.777 179.726 113.611 179.306 113.278C178.886 112.959 178.597 112.561 178.438 112.083L179.545 111.649C179.675 111.968 179.849 112.199 180.066 112.344C180.283 112.489 180.573 112.561 180.935 112.561C181.311 112.561 181.601 112.481 181.803 112.322C182.006 112.177 182.107 111.968 182.107 111.693C182.107 111.417 182.006 111.186 181.803 110.998C181.601 110.824 181.152 110.737 180.457 110.737L179.849 110.086L180.674 108.783H182.064L181.326 109.782C182.035 109.811 182.556 109.999 182.889 110.346C183.236 110.708 183.41 111.171 183.41 111.736C183.41 112.141 183.302 112.496 183.084 112.8C182.882 113.104 182.6 113.343 182.238 113.516C181.876 113.69 181.456 113.777 180.978 113.777ZM196.191 109L200.881 93.5832H203.4L208.09 109H206.093L202.141 95.2768L198.189 109H196.191ZM198.558 104.614L199.209 102.79H205.072L205.724 104.614H198.558ZM203.444 91.846C203.169 91.846 202.908 91.7881 202.662 91.6723C202.416 91.5421 202.17 91.3828 201.924 91.1946C201.678 90.992 201.482 90.8472 201.337 90.7604C201.193 90.6735 201.012 90.6301 200.795 90.6301C200.534 90.6301 200.317 90.7314 200.143 90.9341C199.969 91.1223 199.868 91.4769 199.839 91.998H198.71C198.739 91.1584 198.949 90.5287 199.34 90.1089C199.731 89.6747 200.215 89.4575 200.795 89.4575C201.142 89.4575 201.439 89.5227 201.685 89.6529C201.945 89.7832 202.199 89.9497 202.445 90.1524C202.676 90.3406 202.872 90.4781 203.031 90.5649C203.19 90.6373 203.357 90.6735 203.53 90.6735C203.805 90.6735 204.015 90.5722 204.16 90.3695C204.305 90.1524 204.399 89.776 204.442 89.2404H205.572C205.528 90.0655 205.318 90.7097 204.942 91.1729C204.565 91.6217 204.066 91.846 203.444 91.846ZM223.412 109.347C222.196 109.347 221.161 109.036 220.307 108.414C219.467 107.791 218.823 106.879 218.374 105.678C217.94 104.476 217.723 103.021 217.723 101.313C217.723 99.5762 217.94 98.1069 218.374 96.9054C218.823 95.7039 219.467 94.7919 220.307 94.1694C221.161 93.547 222.196 93.2357 223.412 93.2357C224.628 93.2357 225.656 93.547 226.495 94.1694C227.349 94.7919 227.994 95.7039 228.428 96.9054C228.877 98.1069 229.101 99.5762 229.101 101.313C229.101 103.021 228.877 104.476 228.428 105.678C227.994 106.879 227.349 107.791 226.495 108.414C225.656 109.036 224.628 109.347 223.412 109.347ZM223.412 107.523C224.208 107.523 224.881 107.292 225.431 106.829C225.996 106.351 226.423 105.649 226.712 104.722C227.002 103.796 227.147 102.66 227.147 101.313C227.147 99.967 227.002 98.8307 226.712 97.9042C226.423 96.9633 225.996 96.254 225.431 95.7763C224.881 95.2986 224.208 95.0597 223.412 95.0597C222.616 95.0597 221.935 95.2986 221.371 95.7763C220.821 96.254 220.401 96.9633 220.111 97.9042C219.822 98.8307 219.677 99.967 219.677 101.313C219.677 102.66 219.822 103.796 220.111 104.722C220.401 105.649 220.821 106.351 221.371 106.829C221.935 107.292 222.616 107.523 223.412 107.523ZM261.394 109V93.5832H270.775V95.4071H263.262V100.38H270.514V102.16H263.262V107.176H270.948V109H261.394ZM287.464 109.347C286.378 109.347 285.416 109.123 284.576 108.674C283.736 108.226 283.063 107.61 282.557 106.829C282.05 106.032 281.753 105.113 281.666 104.071L283.621 103.941C283.722 104.708 283.939 105.359 284.272 105.895C284.62 106.431 285.061 106.836 285.597 107.111C286.147 107.386 286.784 107.523 287.507 107.523C288.231 107.523 288.839 107.437 289.331 107.263C289.824 107.075 290.193 106.807 290.439 106.459C290.699 106.098 290.83 105.671 290.83 105.178C290.83 104.686 290.714 104.259 290.482 103.897C290.265 103.521 289.845 103.173 289.223 102.855C288.615 102.537 287.71 102.211 286.509 101.878C285.437 101.574 284.569 101.241 283.903 100.879C283.252 100.517 282.774 100.076 282.47 99.5545C282.18 99.0333 282.036 98.3892 282.036 97.6219C282.036 96.7534 282.238 95.9934 282.644 95.342C283.063 94.6761 283.657 94.1622 284.424 93.8003C285.191 93.4239 286.103 93.2357 287.16 93.2357C288.217 93.2357 289.122 93.4529 289.874 93.8872C290.627 94.307 291.221 94.886 291.655 95.6243C292.104 96.3625 292.386 97.2021 292.502 98.1431L290.547 98.2734C290.461 97.6509 290.28 97.1008 290.005 96.6231C289.73 96.1309 289.353 95.7473 288.875 95.4723C288.398 95.1972 287.811 95.0597 287.117 95.0597C286.161 95.0597 285.401 95.2913 284.837 95.7545C284.272 96.2033 283.99 96.7968 283.99 97.5351C283.99 98.0128 284.091 98.4109 284.294 98.7293C284.511 99.0333 284.887 99.3084 285.423 99.5545C285.959 99.7861 286.711 100.039 287.681 100.314C288.941 100.662 289.939 101.053 290.678 101.487C291.43 101.921 291.966 102.442 292.285 103.05C292.617 103.644 292.784 104.368 292.784 105.222C292.784 106.032 292.56 106.749 292.111 107.371C291.662 107.994 291.04 108.479 290.243 108.826C289.447 109.174 288.521 109.347 287.464 109.347ZM303.936 109V93.5832H308.627C309.698 93.5832 310.631 93.7713 311.428 94.1477C312.224 94.5241 312.839 95.0669 313.273 95.7763C313.708 96.4711 313.925 97.3107 313.925 98.2951C313.925 99.2794 313.708 100.126 313.273 100.836C312.839 101.53 312.224 102.066 311.428 102.442C310.631 102.819 309.698 103.007 308.627 103.007H305.804V109H303.936ZM305.804 101.183H308.409C309.625 101.183 310.523 100.937 311.102 100.445C311.681 99.9381 311.97 99.2215 311.97 98.2951C311.97 97.3541 311.681 96.6376 311.102 96.1454C310.523 95.6532 309.625 95.4071 308.409 95.4071H305.804V101.183ZM325.207 109V93.5832H334.588V95.4071H327.075V100.38H334.327V102.16H327.075V107.176H334.762V109H325.207ZM351.082 109.347C349.851 109.347 348.809 109.022 347.955 108.37C347.101 107.719 346.45 106.792 346.001 105.591C345.567 104.389 345.349 102.964 345.349 101.313C345.349 99.6486 345.567 98.2154 346.001 97.0139C346.45 95.8124 347.101 94.886 347.955 94.2346C348.809 93.5687 349.851 93.2357 351.082 93.2357C352.443 93.2357 353.601 93.6845 354.556 94.582C355.512 95.465 356.148 96.7027 356.467 98.2951L354.469 98.4253C354.223 97.3107 353.796 96.4711 353.188 95.9065C352.595 95.342 351.893 95.0597 351.082 95.0597C350.257 95.0597 349.562 95.3058 348.997 95.798C348.447 96.2757 348.027 96.985 347.738 97.9259C347.448 98.8524 347.304 99.9815 347.304 101.313C347.304 102.631 347.448 103.752 347.738 104.679C348.027 105.605 348.447 106.315 348.997 106.807C349.562 107.285 350.257 107.523 351.082 107.523C351.979 107.523 352.739 107.212 353.362 106.59C353.984 105.967 354.404 105.041 354.621 103.81L356.597 103.919C356.322 105.613 355.7 106.944 354.73 107.914C353.76 108.87 352.544 109.347 351.082 109.347ZM367.533 109V107.176H371.376V95.4071H367.533V93.5832H377.087V95.4071H373.243V107.176H377.087V109H367.533ZM387.631 109L392.321 93.5832H394.84L399.53 109H397.533L393.581 95.2768L389.629 109H387.631ZM389.998 104.614L390.649 102.79H396.512L397.163 104.614H389.998ZM410.509 109V93.5832H412.376V108.131L411.443 107.176H420.063V109H410.509ZM452.834 109V93.5832H456.482C457.814 93.5832 458.972 93.8872 459.956 94.4951C460.955 95.0887 461.722 95.9644 462.258 97.1225C462.808 98.2661 463.083 99.663 463.083 101.313C463.083 102.964 462.808 104.36 462.258 105.504C461.722 106.648 460.955 107.516 459.956 108.11C458.972 108.703 457.814 109 456.482 109H452.834ZM454.701 107.176H456.373C457.879 107.176 459.044 106.691 459.869 105.721C460.709 104.737 461.129 103.268 461.129 101.313C461.129 99.359 460.709 97.8897 459.869 96.9054C459.044 95.9065 457.879 95.4071 456.373 95.4071H454.701V107.176ZM474.105 109V93.5832H483.486V95.4071H475.973V100.38H483.225V102.16H475.973V107.176H483.659V109H474.105ZM498.59 109V106.351H501.282V109H498.59ZM498.59 100.618V97.9694H501.282V100.618H498.59Z" fill="#F5F5F5" fill-opacity="0.7"/>
<path d="M75.1892 281.389C74.1903 279.883 73.4376 278.349 72.9309 276.785C72.4243 275.207 72.1709 273.629 72.1709 272.052C72.1709 268.838 73.177 265.726 75.1892 262.715H76.8177C74.9793 265.841 74.06 268.954 74.06 272.052C74.06 273.6 74.2917 275.157 74.7549 276.72C75.2181 278.269 75.9057 279.825 76.8177 281.389H75.1892ZM82.7371 279V277.176H86.5805V265.407H82.7371V263.583H92.2912V265.407H88.4479V277.176H92.2912V279H82.7371ZM99.7089 277.263L96.7992 265.32H96.9729V279H95.1055V263.583H97.9283L100.968 276.264H100.1L103.14 263.583H105.962V279H104.095V265.32H104.269L101.359 277.263H99.7089ZM108.994 279V263.583H113.684C114.755 263.583 115.689 263.771 116.485 264.148C117.281 264.524 117.897 265.067 118.331 265.776C118.765 266.471 118.982 267.311 118.982 268.295C118.982 269.279 118.765 270.126 118.331 270.836C117.897 271.53 117.281 272.066 116.485 272.442C115.689 272.819 114.755 273.007 113.684 273.007H110.861V279H108.994ZM110.861 271.183H113.467C114.683 271.183 115.58 270.937 116.159 270.445C116.739 269.938 117.028 269.222 117.028 268.295C117.028 267.354 116.739 266.638 116.159 266.145C115.58 265.653 114.683 265.407 113.467 265.407H110.861V271.183ZM122.231 279V263.583H124.098V278.131L123.165 277.176H131.785V279H122.231ZM135.034 279V263.583H144.414V265.407H136.901V270.38H144.153V272.16H136.901V277.176H144.588V279H135.034ZM151.788 277.263L148.879 265.32H149.052V279H147.185V263.583H150.008L153.048 276.264H152.179L155.219 263.583H158.042V279H156.174V265.32H156.348L153.438 277.263H151.788ZM161.073 279V263.583H170.454V265.407H162.941V270.38H170.193V272.16H162.941V277.176H170.627V279H161.073ZM173.659 279V263.583H176.308L181.78 276.872V263.583H183.647V279H180.998L175.526 265.711V279H173.659ZM190.739 279V265.407H186.027V263.583H197.318V265.407H192.607V279H190.739ZM198.743 279L203.433 263.583H205.952L210.642 279H208.645L204.693 265.277L200.741 279H198.743ZM201.11 274.614L201.761 272.79H207.624L208.275 274.614H201.11ZM217.756 279.347C216.525 279.347 215.483 279.022 214.629 278.37C213.775 277.719 213.124 276.792 212.675 275.591C212.241 274.389 212.023 272.964 212.023 271.313C212.023 269.649 212.241 268.215 212.675 267.014C213.124 265.812 213.775 264.886 214.629 264.235C215.483 263.569 216.525 263.236 217.756 263.236C219.117 263.236 220.275 263.684 221.23 264.582C222.186 265.465 222.823 266.703 223.141 268.295L221.143 268.425C220.897 267.311 220.47 266.471 219.862 265.907C219.269 265.342 218.567 265.06 217.756 265.06C216.931 265.06 216.236 265.306 215.671 265.798C215.121 266.276 214.702 266.985 214.412 267.926C214.122 268.852 213.978 269.982 213.978 271.313C213.978 272.631 214.122 273.752 214.412 274.679C214.702 275.605 215.121 276.315 215.671 276.807C216.236 277.285 216.931 277.523 217.756 277.523C218.653 277.523 219.413 277.212 220.036 276.59C220.658 275.967 221.078 275.041 221.295 273.81L223.271 273.919C222.996 275.613 222.374 276.944 221.404 277.914C220.434 278.87 219.218 279.347 217.756 279.347ZM217.821 283.777C217.126 283.777 216.569 283.611 216.149 283.278C215.729 282.959 215.44 282.561 215.281 282.083L216.388 281.649C216.518 281.968 216.692 282.199 216.909 282.344C217.126 282.489 217.416 282.561 217.778 282.561C218.154 282.561 218.444 282.481 218.646 282.322C218.849 282.177 218.95 281.968 218.95 281.693C218.95 281.417 218.849 281.186 218.646 280.998C218.444 280.824 217.995 280.737 217.3 280.737L216.692 280.086L217.517 278.783H218.907L218.168 279.782C218.878 279.811 219.399 279.999 219.732 280.346C220.079 280.708 220.253 281.171 220.253 281.736C220.253 282.141 220.144 282.496 219.927 282.8C219.725 283.104 219.442 283.343 219.08 283.516C218.719 283.69 218.299 283.777 217.821 283.777ZM224.783 279L229.473 263.583H231.992L236.682 279H234.684L230.732 265.277L226.78 279H224.783ZM227.15 274.614L227.801 272.79H233.664L234.315 274.614H227.15ZM232.035 261.846C231.76 261.846 231.5 261.788 231.253 261.672C231.007 261.542 230.761 261.383 230.515 261.195C230.269 260.992 230.074 260.847 229.929 260.76C229.784 260.674 229.603 260.63 229.386 260.63C229.126 260.63 228.908 260.731 228.735 260.934C228.561 261.122 228.46 261.477 228.431 261.998H227.302C227.331 261.158 227.54 260.529 227.931 260.109C228.322 259.675 228.807 259.458 229.386 259.458C229.734 259.458 230.03 259.523 230.276 259.653C230.537 259.783 230.79 259.95 231.036 260.152C231.268 260.341 231.463 260.478 231.623 260.565C231.782 260.637 231.948 260.674 232.122 260.674C232.397 260.674 232.607 260.572 232.752 260.37C232.896 260.152 232.991 259.776 233.034 259.24H234.163C234.12 260.066 233.91 260.71 233.533 261.173C233.157 261.622 232.658 261.846 232.035 261.846ZM243.752 279.347C242.536 279.347 241.501 279.036 240.647 278.414C239.807 277.791 239.163 276.879 238.715 275.678C238.28 274.476 238.063 273.021 238.063 271.313C238.063 269.576 238.28 268.107 238.715 266.905C239.163 265.704 239.807 264.792 240.647 264.169C241.501 263.547 242.536 263.236 243.752 263.236C244.968 263.236 245.996 263.547 246.836 264.169C247.69 264.792 248.334 265.704 248.768 266.905C249.217 268.107 249.441 269.576 249.441 271.313C249.441 273.021 249.217 274.476 248.768 275.678C248.334 276.879 247.69 277.791 246.836 278.414C245.996 279.036 244.968 279.347 243.752 279.347ZM243.752 277.523C244.548 277.523 245.221 277.292 245.772 276.829C246.336 276.351 246.763 275.649 247.053 274.722C247.342 273.796 247.487 272.66 247.487 271.313C247.487 269.967 247.342 268.831 247.053 267.904C246.763 266.963 246.336 266.254 245.772 265.776C245.221 265.299 244.548 265.06 243.752 265.06C242.956 265.06 242.276 265.299 241.711 265.776C241.161 266.254 240.741 266.963 240.452 267.904C240.162 268.831 240.017 269.967 240.017 271.313C240.017 272.66 240.162 273.796 240.452 274.722C240.741 275.649 241.161 276.351 241.711 276.829C242.276 277.292 242.956 277.523 243.752 277.523ZM256.077 281.389H254.449C255.361 279.825 256.048 278.269 256.511 276.72C256.975 275.157 257.206 273.6 257.206 272.052C257.206 268.954 256.287 265.841 254.449 262.715H256.077C258.089 265.726 259.095 268.838 259.095 272.052C259.095 273.629 258.842 275.207 258.335 276.785C257.829 278.349 257.076 279.883 256.077 281.389Z" fill="#F5F5F5" fill-opacity="0.7"/>
<path d="M99.5678 215.612L89.6502 198.693H80.1863V215.612H70.4632V169.33H93.0857C103.781 169.33 109.874 174.969 109.874 184.044C109.874 190.98 106.309 195.841 99.8919 197.786L110.847 215.612H99.5678ZM80.1863 191.045H91.5948C97.1046 191.045 99.9567 188.387 99.9567 184.044C99.9567 179.701 97.1046 177.043 91.5948 177.043H80.1863V191.045ZM147.012 202.972C147.012 212.046 139.428 216.325 130.353 216.519V223.001H127.112V216.454C117.777 215.676 111.49 210.556 110.453 201.546L119.528 200.638C120.046 206.018 123.158 208.546 127.112 209.259V196.101L123.871 195.193C118.101 193.637 111.814 191.433 111.814 182.683C111.814 174.58 118.361 169.848 127.112 169.394V164.338H130.353V169.459C138.974 170.043 144.224 174.839 145.845 183.072L136.835 183.72C136.187 179.636 133.918 177.238 130.353 176.589V188.322L133.594 189.165C140.205 190.85 147.012 192.795 147.012 202.972ZM127.112 187.479V176.395C123.352 176.784 121.018 179.117 121.018 182.164C121.018 185.405 123.482 186.507 126.787 187.35L127.112 187.479ZM130.353 196.943V209.454C134.631 209.259 137.613 206.99 137.613 203.231C137.613 199.277 134.955 198.175 130.677 197.073L130.353 196.943Z" fill="#F5F5F5"/>
<path d="M202.346 171.253C216.263 171.253 231.289 180.49 231.289 201.427C231.289 222.241 216.14 231.724 199.144 231.724C182.148 231.724 169.709 223.349 166.753 207.462L184.488 205.614C185.843 213.497 191.262 218.3 199.144 218.3C207.15 218.3 213.554 212.881 213.554 201.304C213.554 189.973 207.15 184.554 198.898 184.554C192.124 184.554 187.567 187.633 184.735 190.712H168.477L172.542 143.788H225.5V158.075H186.459L184.735 177.288H185.227C189.784 172.977 194.71 171.253 202.346 171.253ZM237.253 211.28H256.836V230H237.253V211.28ZM297.631 142.064C317.706 142.064 332.362 154.134 332.362 186.894C332.362 219.778 317.706 231.724 297.631 231.724C277.432 231.724 262.776 219.778 262.776 186.894C262.776 154.134 277.432 142.064 297.631 142.064ZM297.631 218.423C306.005 218.423 314.257 213.743 314.257 186.894C314.257 160.045 306.005 155.365 297.631 155.365C289.133 155.365 280.881 160.045 280.881 186.894C280.881 213.743 289.133 218.423 297.631 218.423ZM371.776 142.064C391.851 142.064 406.507 154.134 406.507 186.894C406.507 219.778 391.851 231.724 371.776 231.724C351.577 231.724 336.921 219.778 336.921 186.894C336.921 154.134 351.577 142.064 371.776 142.064ZM371.776 218.423C380.15 218.423 388.402 213.743 388.402 186.894C388.402 160.045 380.15 155.365 371.776 155.365C363.278 155.365 355.026 160.045 355.026 186.894C355.026 213.743 363.278 218.423 371.776 218.423ZM445.921 142.064C465.996 142.064 480.652 154.134 480.652 186.894C480.652 219.778 465.996 231.724 445.921 231.724C425.722 231.724 411.066 219.778 411.066 186.894C411.066 154.134 425.722 142.064 445.921 142.064ZM445.921 218.423C454.295 218.423 462.547 213.743 462.547 186.894C462.547 160.045 454.295 155.365 445.921 155.365C437.423 155.365 429.171 160.045 429.171 186.894C429.171 213.743 437.423 218.423 445.921 218.423Z" fill="#F5F5F5"/>
<path d="M75.1892 439.389C74.1903 437.883 73.4376 436.349 72.9309 434.785C72.4243 433.207 72.1709 431.629 72.1709 430.052C72.1709 426.838 73.177 423.726 75.1892 420.715H76.8177C74.9793 423.841 74.06 426.954 74.06 430.052C74.06 431.6 74.2917 433.157 74.7549 434.72C75.2181 436.269 75.9057 437.825 76.8177 439.389H75.1892ZM86.689 435.263L83.7794 423.32H83.9531V437H82.0857V421.583H84.9085L87.9484 434.264H87.0799L90.1198 421.583H92.9426V437H91.0752V423.32H91.2489L88.3393 435.263H86.689ZM95.9741 437V421.583H105.354V423.407H97.8415V428.38H105.094V430.16H97.8415V435.176H105.528V437H95.9741ZM108.56 437V421.583H111.209L116.681 434.872V421.583H118.548V437H115.899L110.427 423.711V437H108.56ZM126.813 437.347C125.727 437.347 124.764 437.123 123.925 436.674C123.085 436.226 122.412 435.61 121.905 434.829C121.399 434.032 121.102 433.113 121.015 432.071L122.969 431.941C123.07 432.708 123.288 433.359 123.621 433.895C123.968 434.431 124.41 434.836 124.945 435.111C125.495 435.386 126.132 435.523 126.856 435.523C127.58 435.523 128.188 435.437 128.68 435.263C129.172 435.075 129.541 434.807 129.787 434.459C130.048 434.098 130.178 433.671 130.178 433.178C130.178 432.686 130.062 432.259 129.831 431.897C129.614 431.521 129.194 431.173 128.571 430.855C127.963 430.537 127.059 430.211 125.857 429.878C124.786 429.574 123.917 429.241 123.251 428.879C122.6 428.517 122.122 428.076 121.818 427.554C121.529 427.033 121.384 426.389 121.384 425.622C121.384 424.753 121.587 423.993 121.992 423.342C122.412 422.676 123.005 422.162 123.773 421.8C124.54 421.424 125.452 421.236 126.509 421.236C127.565 421.236 128.47 421.453 129.223 421.887C129.975 422.307 130.569 422.886 131.003 423.624C131.452 424.363 131.734 425.202 131.85 426.143L129.896 426.273C129.809 425.651 129.628 425.101 129.353 424.623C129.078 424.131 128.702 423.747 128.224 423.472C127.746 423.197 127.16 423.06 126.465 423.06C125.51 423.06 124.75 423.291 124.185 423.755C123.621 424.203 123.338 424.797 123.338 425.535C123.338 426.013 123.44 426.411 123.642 426.729C123.859 427.033 124.236 427.308 124.771 427.554C125.307 427.786 126.06 428.039 127.03 428.314C128.289 428.662 129.288 429.053 130.026 429.487C130.779 429.921 131.315 430.442 131.633 431.05C131.966 431.644 132.132 432.368 132.132 433.222C132.132 434.032 131.908 434.749 131.459 435.371C131.011 435.994 130.388 436.479 129.592 436.826C128.796 437.174 127.869 437.347 126.813 437.347ZM133.644 437L138.334 421.583H140.853L145.543 437H143.545L139.593 423.277L135.642 437H133.644ZM136.011 432.614L136.662 430.79H142.525L143.176 432.614H136.011ZM148.271 437V421.583H150.138V436.131L149.204 435.176H157.825V437H148.271ZM160.856 437V435.176H164.699V423.407H160.856V421.583H170.41V423.407H166.567V435.176H170.41V437H160.856ZM174.093 437V421.583H177.741C179.073 421.583 180.231 421.887 181.215 422.495C182.214 423.089 182.981 423.964 183.517 425.123C184.067 426.266 184.342 427.663 184.342 429.313C184.342 430.964 184.067 432.36 183.517 433.504C182.981 434.648 182.214 435.516 181.215 436.11C180.231 436.703 179.073 437 177.741 437H174.093ZM175.96 435.176H177.632C179.138 435.176 180.303 434.691 181.128 433.721C181.968 432.737 182.388 431.268 182.388 429.313C182.388 427.359 181.968 425.89 181.128 424.905C180.303 423.907 179.138 423.407 177.632 423.407H175.96V435.176ZM185.723 437L190.413 421.583H192.932L197.622 437H195.625L191.673 423.277L187.721 437H185.723ZM188.09 432.614L188.741 430.79H194.604L195.256 432.614H188.09ZM200.133 437V421.583H203.781C205.112 421.583 206.271 421.887 207.255 422.495C208.254 423.089 209.021 423.964 209.557 425.123C210.107 426.266 210.382 427.663 210.382 429.313C210.382 430.964 210.107 432.36 209.557 433.504C209.021 434.648 208.254 435.516 207.255 436.11C206.271 436.703 205.112 437 203.781 437H200.133ZM202 435.176H203.672C205.178 435.176 206.343 434.691 207.168 433.721C208.008 432.737 208.427 431.268 208.427 429.313C208.427 427.359 208.008 425.89 207.168 424.905C206.343 423.907 205.178 423.407 203.672 423.407H202V435.176ZM213.153 437V421.583H222.533V423.407H215.02V428.38H222.272V430.16H215.02V435.176H222.707V437H213.153ZM230.038 439.389H228.409C229.321 437.825 230.009 436.269 230.472 434.72C230.935 433.157 231.167 431.6 231.167 430.052C231.167 426.954 230.247 423.841 228.409 420.715H230.038C232.05 423.726 233.056 426.838 233.056 430.052C233.056 431.629 232.802 433.207 232.296 434.785C231.789 436.349 231.036 437.883 230.038 439.389ZM256.815 437.347C255.585 437.347 254.543 437.022 253.689 436.37C252.835 435.719 252.183 434.792 251.734 433.591C251.3 432.389 251.083 430.964 251.083 429.313C251.083 427.649 251.3 426.215 251.734 425.014C252.183 423.812 252.835 422.886 253.689 422.235C254.543 421.569 255.585 421.236 256.815 421.236C258.176 421.236 259.334 421.684 260.29 422.582C261.245 423.465 261.882 424.703 262.2 426.295L260.203 426.425C259.957 425.311 259.53 424.471 258.922 423.907C258.328 423.342 257.626 423.06 256.815 423.06C255.99 423.06 255.295 423.306 254.731 423.798C254.181 424.276 253.761 424.985 253.471 425.926C253.182 426.852 253.037 427.982 253.037 429.313C253.037 430.631 253.182 431.752 253.471 432.679C253.761 433.605 254.181 434.315 254.731 434.807C255.295 435.285 255.99 435.523 256.815 435.523C257.713 435.523 258.473 435.212 259.095 434.59C259.718 433.967 260.138 433.041 260.355 431.81L262.331 431.919C262.056 433.613 261.433 434.944 260.463 435.914C259.493 436.87 258.277 437.347 256.815 437.347ZM269.792 437.347C268.576 437.347 267.541 437.036 266.687 436.414C265.847 435.791 265.203 434.879 264.754 433.678C264.32 432.476 264.103 431.021 264.103 429.313C264.103 427.576 264.32 426.107 264.754 424.905C265.203 423.704 265.847 422.792 266.687 422.169C267.541 421.547 268.576 421.236 269.792 421.236C271.008 421.236 272.036 421.547 272.875 422.169C273.729 422.792 274.373 423.704 274.808 424.905C275.256 426.107 275.481 427.576 275.481 429.313C275.481 431.021 275.256 432.476 274.808 433.678C274.373 434.879 273.729 435.791 272.875 436.414C272.036 437.036 271.008 437.347 269.792 437.347ZM269.792 435.523C270.588 435.523 271.261 435.292 271.811 434.829C272.376 434.351 272.803 433.649 273.092 432.722C273.382 431.796 273.527 430.66 273.527 429.313C273.527 427.967 273.382 426.831 273.092 425.904C272.803 424.963 272.376 424.254 271.811 423.776C271.261 423.299 270.588 423.06 269.792 423.06C268.996 423.06 268.315 423.299 267.751 423.776C267.201 424.254 266.781 424.963 266.491 425.904C266.202 426.831 266.057 427.967 266.057 429.313C266.057 430.66 266.202 431.796 266.491 432.722C266.781 433.649 267.201 434.351 267.751 434.829C268.315 435.292 268.996 435.523 269.792 435.523ZM281.987 435.263L279.077 423.32H279.251V437H277.383V421.583H280.206L283.246 434.264H282.377L285.417 421.583H288.24V437H286.373V423.32H286.546L283.637 435.263H281.987ZM304.291 437V421.583H308.982C310.053 421.583 310.987 421.771 311.783 422.148C312.579 422.524 313.194 423.067 313.628 423.776C314.063 424.471 314.28 425.311 314.28 426.295C314.28 427.279 314.063 428.126 313.628 428.836C313.194 429.53 312.579 430.066 311.783 430.442C310.987 430.819 310.053 431.007 308.982 431.007H306.159V437H304.291ZM306.159 429.183H308.764C309.98 429.183 310.878 428.937 311.457 428.445C312.036 427.938 312.326 427.222 312.326 426.295C312.326 425.354 312.036 424.638 311.457 424.145C310.878 423.653 309.98 423.407 308.764 423.407H306.159V429.183ZM316.877 437V421.583H321.567C323.188 421.583 324.47 421.996 325.411 422.821C326.351 423.631 326.822 424.753 326.822 426.186C326.822 426.91 326.655 427.554 326.323 428.119C325.99 428.669 325.563 429.103 325.041 429.422C324.52 429.74 323.985 429.921 323.435 429.965L323.348 429.704C324.376 429.762 325.143 430.008 325.649 430.442C326.171 430.877 326.475 431.586 326.561 432.57L326.952 437H325.085L324.716 432.809C324.672 432.332 324.556 431.948 324.368 431.658C324.195 431.354 323.912 431.137 323.521 431.007C323.145 430.862 322.624 430.79 321.958 430.79H318.744V437H316.877ZM318.744 428.966H321.567C322.638 428.966 323.456 428.727 324.021 428.249C324.585 427.757 324.868 427.07 324.868 426.186C324.868 425.289 324.585 424.601 324.021 424.124C323.456 423.646 322.638 423.407 321.567 423.407H318.744V428.966ZM330.114 437V435.176H333.957V423.407H330.114V421.583H339.668V423.407H335.825V435.176H339.668V437H330.114ZM347.086 435.263L344.176 423.32H344.35V437H342.482V421.583H345.305L348.345 434.264H347.477L350.517 421.583H353.339V437H351.472V423.32H351.646L348.736 435.263H347.086ZM356.371 437V421.583H365.751V423.407H358.238V428.38H365.491V430.16H358.238V435.176H365.925V437H356.371ZM369.173 437V435.176H373.017V423.407H369.173V421.583H378.728V423.407H374.884V435.176H378.728V437H369.173ZM381.976 437V421.583H386.666C388.288 421.583 389.569 421.996 390.51 422.821C391.451 423.631 391.921 424.753 391.921 426.186C391.921 426.91 391.755 427.554 391.422 428.119C391.089 428.669 390.662 429.103 390.141 429.422C389.619 429.74 389.084 429.921 388.534 429.965L388.447 429.704C389.475 429.762 390.242 430.008 390.749 430.442C391.27 430.877 391.574 431.586 391.661 432.57L392.051 437H390.184L389.815 432.809C389.771 432.332 389.656 431.948 389.467 431.658C389.294 431.354 389.011 431.137 388.621 431.007C388.244 430.862 387.723 430.79 387.057 430.79H383.844V437H381.976ZM383.844 428.966H386.666C387.738 428.966 388.555 428.727 389.12 428.249C389.685 427.757 389.967 427.07 389.967 426.186C389.967 425.289 389.685 424.601 389.12 424.124C388.555 423.646 387.738 423.407 386.666 423.407H383.844V428.966ZM399.99 437.347C398.774 437.347 397.739 437.036 396.885 436.414C396.045 435.791 395.401 434.879 394.953 433.678C394.518 432.476 394.301 431.021 394.301 429.313C394.301 427.576 394.518 426.107 394.953 424.905C395.401 423.704 396.045 422.792 396.885 422.169C397.739 421.547 398.774 421.236 399.99 421.236C401.206 421.236 402.234 421.547 403.074 422.169C403.928 422.792 404.572 423.704 405.006 424.905C405.455 426.107 405.679 427.576 405.679 429.313C405.679 431.021 405.455 432.476 405.006 433.678C404.572 434.879 403.928 435.791 403.074 436.414C402.234 437.036 401.206 437.347 399.99 437.347ZM399.99 435.523C400.786 435.523 401.459 435.292 402.01 434.829C402.574 434.351 403.001 433.649 403.291 432.722C403.58 431.796 403.725 430.66 403.725 429.313C403.725 427.967 403.58 426.831 403.291 425.904C403.001 424.963 402.574 424.254 402.01 423.776C401.459 423.299 400.786 423.06 399.99 423.06C399.194 423.06 398.514 423.299 397.949 423.776C397.399 424.254 396.979 424.963 396.69 425.904C396.4 426.831 396.255 427.967 396.255 429.313C396.255 430.66 396.4 431.796 396.69 432.722C396.979 433.649 397.399 434.351 397.949 434.829C398.514 435.292 399.194 435.523 399.99 435.523ZM82.9542 462V446.583H87.6444C88.7157 446.583 89.6494 446.771 90.4455 447.148C91.2417 447.524 91.8569 448.067 92.2912 448.776C92.7255 449.471 92.9426 450.311 92.9426 451.295C92.9426 452.279 92.7255 453.126 92.2912 453.836C91.8569 454.53 91.2417 455.066 90.4455 455.442C89.6494 455.819 88.7157 456.007 87.6444 456.007H84.8216V462H82.9542ZM84.8216 454.183H87.4273C88.6433 454.183 89.5408 453.937 90.1198 453.445C90.6989 452.938 90.9884 452.222 90.9884 451.295C90.9884 450.354 90.6989 449.638 90.1198 449.145C89.5408 448.653 88.6433 448.407 87.4273 448.407H84.8216V454.183ZM94.5844 462L99.2746 446.583H101.793L106.484 462H104.486L100.534 448.277L96.5821 462H94.5844ZM96.9512 457.614L97.6026 455.79H103.465L104.117 457.614H96.9512ZM113.51 462.347C112.425 462.347 111.455 462.051 110.601 461.457C109.761 460.849 109.095 459.952 108.603 458.765C108.111 457.563 107.865 456.079 107.865 454.313C107.865 452.649 108.089 451.215 108.538 450.014C109.001 448.812 109.66 447.886 110.514 447.235C111.368 446.569 112.396 446.236 113.597 446.236C114.538 446.236 115.371 446.446 116.094 446.865C116.833 447.285 117.448 447.872 117.94 448.624C118.432 449.363 118.787 450.217 119.004 451.186L117.05 451.317C116.804 450.361 116.391 449.58 115.812 448.972C115.248 448.364 114.509 448.06 113.597 448.06C112.801 448.06 112.121 448.306 111.556 448.798C110.992 449.276 110.557 449.985 110.253 450.926C109.964 451.852 109.819 452.982 109.819 454.313C109.819 455.631 109.971 456.752 110.275 457.679C110.579 458.605 111.013 459.315 111.578 459.807C112.157 460.285 112.859 460.523 113.684 460.523C114.422 460.523 115.052 460.335 115.573 459.959C116.109 459.568 116.529 459.032 116.833 458.352C117.137 457.657 117.303 456.868 117.332 455.985H113.641V454.205H119.069V462H117.332L117.245 458.352L117.766 458.526C117.564 459.264 117.281 459.923 116.919 460.502C116.572 461.081 116.116 461.537 115.552 461.87C115.001 462.188 114.321 462.347 113.51 462.347ZM120.624 462L125.314 446.583H127.833L132.523 462H130.526L126.574 448.277L122.622 462H120.624ZM122.991 457.614L123.642 455.79H129.505L130.156 457.614H122.991ZM138.768 460.263L135.859 448.32H136.032V462H134.165V446.583H136.988L140.028 459.264H139.159L142.199 446.583H145.022V462H143.155V448.32H143.328L140.419 460.263H138.768ZM148.053 462V446.583H157.434V448.407H149.921V453.38H157.173V455.16H149.921V460.176H157.608V462H148.053ZM160.639 462V446.583H163.288L168.76 459.872V446.583H170.627V462H167.978L162.506 448.711V462H160.639ZM177.719 462V448.407H173.007V446.583H184.299V448.407H179.587V462H177.719ZM191.673 462.347C190.457 462.347 189.422 462.036 188.568 461.414C187.728 460.791 187.084 459.879 186.635 458.678C186.201 457.476 185.984 456.021 185.984 454.313C185.984 452.576 186.201 451.107 186.635 449.905C187.084 448.704 187.728 447.792 188.568 447.169C189.422 446.547 190.457 446.236 191.673 446.236C192.889 446.236 193.917 446.547 194.756 447.169C195.61 447.792 196.254 448.704 196.689 449.905C197.137 451.107 197.362 452.576 197.362 454.313C197.362 456.021 197.137 457.476 196.689 458.678C196.254 459.879 195.61 460.791 194.756 461.414C193.917 462.036 192.889 462.347 191.673 462.347ZM191.673 460.523C192.469 460.523 193.142 460.292 193.692 459.829C194.257 459.351 194.684 458.649 194.973 457.722C195.263 456.796 195.408 455.66 195.408 454.313C195.408 452.967 195.263 451.831 194.973 450.904C194.684 449.963 194.257 449.254 193.692 448.776C193.142 448.299 192.469 448.06 191.673 448.06C190.877 448.06 190.196 448.299 189.632 448.776C189.082 449.254 188.662 449.963 188.372 450.904C188.083 451.831 187.938 452.967 187.938 454.313C187.938 455.66 188.083 456.796 188.372 457.722C188.662 458.649 189.082 459.351 189.632 459.829C190.196 460.292 190.877 460.523 191.673 460.523ZM217.951 462.347C216.866 462.347 215.903 462.123 215.063 461.674C214.224 461.226 213.551 460.61 213.044 459.829C212.537 459.032 212.241 458.113 212.154 457.071L214.108 456.941C214.209 457.708 214.426 458.359 214.759 458.895C215.107 459.431 215.548 459.836 216.084 460.111C216.634 460.386 217.271 460.523 217.995 460.523C218.719 460.523 219.327 460.437 219.819 460.263C220.311 460.075 220.68 459.807 220.926 459.459C221.187 459.098 221.317 458.671 221.317 458.178C221.317 457.686 221.201 457.259 220.97 456.897C220.752 456.521 220.333 456.173 219.71 455.855C219.102 455.537 218.197 455.211 216.996 454.878C215.925 454.574 215.056 454.241 214.39 453.879C213.739 453.517 213.261 453.076 212.957 452.554C212.668 452.033 212.523 451.389 212.523 450.622C212.523 449.753 212.726 448.993 213.131 448.342C213.551 447.676 214.144 447.162 214.911 446.8C215.679 446.424 216.591 446.236 217.647 446.236C218.704 446.236 219.609 446.453 220.362 446.887C221.114 447.307 221.708 447.886 222.142 448.624C222.591 449.363 222.873 450.202 222.989 451.143L221.035 451.273C220.948 450.651 220.767 450.101 220.492 449.623C220.217 449.131 219.84 448.747 219.363 448.472C218.885 448.197 218.299 448.06 217.604 448.06C216.649 448.06 215.889 448.291 215.324 448.755C214.759 449.203 214.477 449.797 214.477 450.535C214.477 451.013 214.578 451.411 214.781 451.729C214.998 452.033 215.375 452.308 215.91 452.554C216.446 452.786 217.199 453.039 218.168 453.314C219.428 453.662 220.427 454.053 221.165 454.487C221.918 454.921 222.453 455.442 222.772 456.05C223.105 456.644 223.271 457.368 223.271 458.222C223.271 459.032 223.047 459.749 222.598 460.371C222.149 460.994 221.527 461.479 220.731 461.826C219.935 462.174 219.008 462.347 217.951 462.347ZM230.732 462.347C229.516 462.347 228.481 462.036 227.627 461.414C226.788 460.791 226.143 459.879 225.695 458.678C225.26 457.476 225.043 456.021 225.043 454.313C225.043 452.576 225.26 451.107 225.695 449.905C226.143 448.704 226.788 447.792 227.627 447.169C228.481 446.547 229.516 446.236 230.732 446.236C231.948 446.236 232.976 446.547 233.816 447.169C234.67 447.792 235.314 448.704 235.748 449.905C236.197 451.107 236.421 452.576 236.421 454.313C236.421 456.021 236.197 457.476 235.748 458.678C235.314 459.879 234.67 460.791 233.816 461.414C232.976 462.036 231.948 462.347 230.732 462.347ZM230.732 460.523C231.529 460.523 232.202 460.292 232.752 459.829C233.316 459.351 233.743 458.649 234.033 457.722C234.322 456.796 234.467 455.66 234.467 454.313C234.467 452.967 234.322 451.831 234.033 450.904C233.743 449.963 233.316 449.254 232.752 448.776C232.202 448.299 231.529 448.06 230.732 448.06C229.936 448.06 229.256 448.299 228.691 448.776C228.141 449.254 227.721 449.963 227.432 450.904C227.142 451.831 226.998 452.967 226.998 454.313C226.998 455.66 227.142 456.796 227.432 457.722C227.721 458.649 228.141 459.351 228.691 459.829C229.256 460.292 229.936 460.523 230.732 460.523ZM242.927 460.263L240.017 448.32H240.191V462H238.324V446.583H241.147L244.186 459.264H243.318L246.358 446.583H249.181V462H247.313V448.32H247.487L244.577 460.263H242.927ZM252.212 462V446.583H261.592V448.407H254.079V453.38H261.332V455.16H254.079V460.176H261.766V462H252.212ZM264.798 462V446.583H267.447L272.919 459.872V446.583H274.786V462H272.137L266.665 448.711V462H264.798ZM281.878 462V448.407H277.166V446.583H288.457V448.407H283.745V462H281.878ZM291.272 462V446.583H300.652V448.407H293.139V453.38H300.391V455.16H293.139V460.176H300.826V462H291.272ZM317.311 462V446.583H326.692V448.407H319.179V453.38H326.431V455.16H319.179V460.176H326.865V462H317.311ZM334.066 460.263L331.156 448.32H331.33V462H329.463V446.583H332.285L335.325 459.264H334.457L337.497 446.583H340.319V462H338.452V448.32H338.626L335.716 460.263H334.066ZM354.981 462L359.671 446.583H362.19L366.88 462H364.883L360.931 448.277L356.979 462H354.981ZM357.348 457.614L357.999 455.79H363.862L364.513 457.614H357.348ZM369.391 462V446.583H373.733C375.427 446.583 376.701 446.96 377.555 447.712C378.424 448.465 378.858 449.493 378.858 450.796C378.858 451.433 378.706 452.004 378.402 452.511C378.098 453.018 377.671 453.416 377.121 453.705C376.571 453.995 375.934 454.14 375.21 454.14V454.009C376.107 454.009 376.875 454.161 377.512 454.465C378.163 454.769 378.655 455.196 378.988 455.746C379.336 456.296 379.509 456.948 379.509 457.701C379.509 459.032 379.046 460.082 378.12 460.849C377.193 461.616 375.912 462 374.276 462H369.391ZM371.258 460.176H374.298C375.413 460.176 376.23 459.959 376.752 459.525C377.287 459.09 377.555 458.482 377.555 457.701C377.555 456.876 377.28 456.231 376.73 455.768C376.18 455.305 375.369 455.073 374.298 455.073H371.258V460.176ZM371.258 453.249H373.82C374.891 453.249 375.673 453.039 376.165 452.62C376.658 452.2 376.904 451.606 376.904 450.839C376.904 450.057 376.658 449.457 376.165 449.037C375.673 448.617 374.891 448.407 373.82 448.407H371.258V453.249ZM381.976 462V446.583H386.666C388.288 446.583 389.569 446.996 390.51 447.821C391.451 448.631 391.921 449.753 391.921 451.186C391.921 451.91 391.755 452.554 391.422 453.119C391.089 453.669 390.662 454.103 390.141 454.422C389.619 454.74 389.084 454.921 388.534 454.965L388.447 454.704C389.475 454.762 390.242 455.008 390.749 455.442C391.27 455.877 391.574 456.586 391.661 457.57L392.051 462H390.184L389.815 457.809C389.771 457.332 389.656 456.948 389.467 456.658C389.294 456.354 389.011 456.137 388.621 456.007C388.244 455.862 387.723 455.79 387.057 455.79H383.844V462H381.976ZM383.844 453.966H386.666C387.738 453.966 388.555 453.727 389.12 453.249C389.685 452.757 389.967 452.07 389.967 451.186C389.967 450.289 389.685 449.601 389.12 449.124C388.555 448.646 387.738 448.407 386.666 448.407H383.844V453.966ZM395.213 462V460.176H399.056V448.407H395.213V446.583H404.767V448.407H400.924V460.176H404.767V462H395.213ZM408.667 462V446.583H410.535V461.131L409.601 460.176H418.221V462H408.667Z" fill="#F5F5F5" fill-opacity="0.7"/>
<path d="M99.5678 385.612L89.6502 368.693H80.1863V385.612H70.4632V339.33H93.0857C103.781 339.33 109.874 344.969 109.874 354.044C109.874 360.98 106.309 365.841 99.8919 367.786L110.847 385.612H99.5678ZM80.1863 361.045H91.5948C97.1046 361.045 99.9567 358.387 99.9567 354.044C99.9567 349.701 97.1046 347.043 91.5948 347.043H80.1863V361.045ZM147.012 372.972C147.012 382.046 139.428 386.325 130.353 386.519V393.001H127.112V386.454C117.777 385.676 111.49 380.556 110.453 371.546L119.528 370.638C120.046 376.018 123.158 378.546 127.112 379.259V366.101L123.871 365.193C118.101 363.637 111.814 361.433 111.814 352.683C111.814 344.58 118.361 339.848 127.112 339.394V334.338H130.353V339.459C138.974 340.043 144.224 344.839 145.845 353.072L136.835 353.72C136.187 349.636 133.918 347.238 130.353 346.589V358.322L133.594 359.165C140.205 360.85 147.012 362.795 147.012 372.972ZM127.112 357.479V346.395C123.352 346.784 121.018 349.117 121.018 352.164C121.018 355.405 123.482 356.507 126.787 357.35L127.112 357.479ZM130.353 366.943V379.454C134.631 379.259 137.613 376.99 137.613 373.231C137.613 369.277 134.955 368.175 130.677 367.073L130.353 366.943Z" fill="#F5F5F5"/>
<path d="M230.18 385.344V400H167.492V396.675C167.492 375.861 179.931 367.24 191.262 360.343L201.238 354.061C207.026 350.49 212.569 345.81 212.569 338.543C212.569 330.292 208.258 325.858 199.883 325.858C191.508 325.858 186.089 331.646 185.227 342.608L167.862 341.622C169.216 322.163 183.257 312.187 199.883 312.187C216.633 312.187 230.304 320.193 230.304 337.558C230.304 355.17 218.727 360.958 208.751 366.87L200.129 372.412C192.124 377.462 188.183 382.388 187.937 385.344H230.18ZM236.291 381.28H255.874V400H236.291V381.28ZM296.668 312.064C316.743 312.064 331.399 324.134 331.399 356.894C331.399 389.778 316.743 401.724 296.668 401.724C276.47 401.724 261.814 389.778 261.814 356.894C261.814 324.134 276.47 312.064 296.668 312.064ZM296.668 388.423C305.043 388.423 313.295 383.743 313.295 356.894C313.295 330.045 305.043 325.365 296.668 325.365C288.17 325.365 279.919 330.045 279.919 356.894C279.919 383.743 288.17 388.423 296.668 388.423ZM370.813 312.064C390.888 312.064 405.544 324.134 405.544 356.894C405.544 389.778 390.888 401.724 370.813 401.724C350.615 401.724 335.959 389.778 335.959 356.894C335.959 324.134 350.615 312.064 370.813 312.064ZM370.813 388.423C379.188 388.423 387.44 383.743 387.44 356.894C387.44 330.045 379.188 325.365 370.813 325.365C362.315 325.365 354.064 330.045 354.064 356.894C354.064 383.743 362.315 388.423 370.813 388.423ZM444.958 312.064C465.033 312.064 479.689 324.134 479.689 356.894C479.689 389.778 465.033 401.724 444.958 401.724C424.76 401.724 410.104 389.778 410.104 356.894C410.104 324.134 424.76 312.064 444.958 312.064ZM444.958 388.423C453.333 388.423 461.585 383.743 461.585 356.894C461.585 330.045 453.333 325.365 444.958 325.365C436.46 325.365 428.209 330.045 428.209 356.894C428.209 383.743 436.46 388.423 444.958 388.423Z" fill="#F5F5F5"/>
</svg>
