<svg width="654" height="545" viewBox="0 0 654 545" fill="none" xmlns="http://www.w3.org/2000/svg">
<path d="M0 223.857C0 221.727 1.7269 220 3.85714 220H77.1429C79.2731 220 81 221.727 81 223.857V297.143C81 299.273 79.2731 301 77.1429 301H3.85714C1.7269 301 0 299.273 0 297.143V223.857Z" fill="#2D87E8"/>
<path fill-rule="evenodd" clip-rule="evenodd" d="M33.88 246.701C34.3806 246.701 34.7864 247.113 34.7864 247.621V261.644C34.7864 262.461 34.7872 263.018 34.8221 263.448C34.8561 263.868 34.918 264.086 34.996 264.241C35.1805 264.606 35.4755 264.903 35.8397 265.09C35.9949 265.17 36.2137 265.233 36.6317 265.267C37.06 265.303 37.6134 265.303 38.4235 265.303H46.1751L40.6364 259.721C40.2811 259.363 40.2791 258.781 40.6318 258.42C40.9846 258.06 41.5585 258.058 41.9137 258.416L49.0128 265.57C49.1842 265.743 49.2805 265.978 49.2805 266.223C49.2805 266.468 49.1842 266.703 49.0128 266.876L41.9137 274.03C41.5585 274.388 40.9846 274.386 40.6318 274.026C40.2791 273.665 40.2811 273.083 40.6364 272.725L46.1751 267.143H38.386C37.6227 267.143 36.9954 267.143 36.4851 267.101C35.956 267.057 35.4735 266.964 35.0213 266.732C34.3169 266.37 33.7431 265.793 33.3831 265.08C33.1516 264.622 33.0587 264.134 33.0154 263.599C32.9736 263.084 32.9736 262.451 32.9736 261.683V247.621C32.9736 247.113 33.3794 246.701 33.88 246.701Z" fill="white"/>
<path d="M105.838 282V276.92H116.543V244.14H105.838V239.06H132.449V244.14H121.744V276.92H132.449V282H105.838ZM142.707 282V239.06H152.868C156.577 239.06 159.803 239.906 162.544 241.6C165.326 243.253 167.463 245.692 168.955 248.918C170.487 252.103 171.253 255.994 171.253 260.59C171.253 265.187 170.487 269.078 168.955 272.263C167.463 275.448 165.326 277.867 162.544 279.52C159.803 281.173 156.577 282 152.868 282H142.707ZM147.908 276.92H152.565C156.759 276.92 160.004 275.569 162.302 272.868C164.641 270.126 165.81 266.033 165.81 260.59C165.81 255.147 164.641 251.055 162.302 248.313C160.004 245.531 156.759 244.14 152.565 244.14H147.908V276.92ZM178.971 282V239.06H205.098V244.14H184.172V257.99H204.373V262.949H184.172V276.92H205.582V282H178.971ZM214.026 282V239.06H221.404L236.645 276.073V239.06H241.846V282H234.468L219.227 244.987V282H214.026ZM261.599 282V244.14H248.475V239.06H279.924V244.14H266.8V282H261.599ZM287.158 282V276.92H297.863V244.14H287.158V239.06H313.769V244.14H303.064V276.92H313.769V282H287.158ZM324.632 282V239.06H351.243V244.019H327.172L329.833 241.479V261.195L327.172 258.534H350.154V263.493H327.172L329.833 260.832V282H324.632ZM359.686 282V276.92H370.391V244.14H359.686V239.06H386.297V244.14H375.592V276.92H386.297V282H359.686ZM409.377 282.968C405.95 282.968 403.047 282.06 400.668 280.246C398.289 278.432 396.475 275.851 395.225 272.505C394.015 269.158 393.41 265.187 393.41 260.59C393.41 255.954 394.015 251.962 395.225 248.615C396.475 245.269 398.289 242.688 400.668 240.874C403.047 239.019 405.95 238.092 409.377 238.092C413.167 238.092 416.392 239.342 419.054 241.842C421.715 244.301 423.489 247.749 424.376 252.184L418.812 252.547C418.126 249.442 416.937 247.103 415.243 245.531C413.59 243.958 411.635 243.172 409.377 243.172C407.079 243.172 405.143 243.858 403.571 245.229C402.039 246.559 400.869 248.535 400.063 251.156C399.257 253.736 398.853 256.881 398.853 260.59C398.853 264.259 399.257 267.384 400.063 269.965C400.869 272.545 402.039 274.521 403.571 275.892C405.143 277.222 407.079 277.887 409.377 277.887C411.877 277.887 413.993 277.021 415.727 275.287C417.461 273.553 418.63 270.973 419.235 267.545L424.739 267.848C423.973 272.565 422.239 276.275 419.537 278.976C416.836 281.637 413.449 282.968 409.377 282.968ZM428.949 282L442.012 239.06H449.028L462.091 282H456.527L445.52 243.777L434.513 282H428.949ZM435.541 269.783L437.355 264.703H453.685L455.499 269.783H435.541ZM467.874 282V239.06H480.937C485.453 239.06 489.021 240.209 491.642 242.507C494.263 244.765 495.573 247.89 495.573 251.881C495.573 253.897 495.11 255.691 494.182 257.264C493.255 258.796 492.065 260.006 490.614 260.893C489.162 261.78 487.671 262.284 486.138 262.405L485.896 261.679C488.759 261.84 490.896 262.526 492.307 263.735C493.759 264.945 494.606 266.92 494.847 269.662L495.936 282H490.735L489.707 270.327C489.586 268.997 489.263 267.928 488.739 267.122C488.255 266.275 487.469 265.671 486.38 265.308C485.332 264.904 483.881 264.703 482.026 264.703H473.075V282H467.874ZM473.075 259.623H480.937C483.921 259.623 486.199 258.957 487.771 257.627C489.344 256.256 490.13 254.341 490.13 251.881C490.13 249.381 489.344 247.466 487.771 246.136C486.199 244.805 483.921 244.14 480.937 244.14H473.075V259.623Z" fill="white"/>
<path d="M0 333.857C0 331.727 1.7269 330 3.85714 330H77.1429C79.2731 330 81 331.727 81 333.857V407.143C81 409.273 79.2731 411 77.1429 411H3.85714C1.7269 411 0 409.273 0 407.143V333.857Z" fill="#2D87E8"/>
<path fill-rule="evenodd" clip-rule="evenodd" d="M33.88 356.701C34.3806 356.701 34.7864 357.113 34.7864 357.621V371.644C34.7864 372.461 34.7872 373.018 34.8221 373.448C34.8561 373.868 34.918 374.086 34.996 374.241C35.1805 374.606 35.4755 374.903 35.8397 375.09C35.9949 375.17 36.2137 375.233 36.6317 375.267C37.06 375.303 37.6134 375.303 38.4235 375.303H46.1751L40.6364 369.721C40.2811 369.363 40.2791 368.781 40.6318 368.42C40.9846 368.06 41.5585 368.058 41.9137 368.416L49.0128 375.57C49.1842 375.743 49.2805 375.978 49.2805 376.223C49.2805 376.468 49.1842 376.703 49.0128 376.876L41.9137 384.03C41.5585 384.388 40.9846 384.386 40.6318 384.026C40.2791 383.665 40.2811 383.083 40.6364 382.725L46.1751 377.143H38.386C37.6227 377.143 36.9954 377.143 36.4851 377.101C35.956 377.057 35.4735 376.964 35.0213 376.732C34.3169 376.37 33.7431 375.793 33.3831 375.08C33.1516 374.622 33.0587 374.134 33.0154 373.599C32.9736 373.084 32.9736 372.451 32.9736 371.683V357.621C32.9736 357.113 33.3794 356.701 33.88 356.701Z" fill="white"/>
<path d="M119.12 391.96C115.72 391.96 112.84 391.06 110.48 389.26C108.12 387.46 106.32 384.9 105.08 381.58C103.88 378.26 103.28 374.32 103.28 369.76C103.28 365.16 103.88 361.2 105.08 357.88C106.32 354.56 108.12 352 110.48 350.2C112.84 348.36 115.72 347.44 119.12 347.44C122.88 347.44 126.08 348.68 128.72 351.16C131.36 353.6 133.12 357.02 134 361.42L128.48 361.78C127.8 358.7 126.62 356.38 124.94 354.82C123.3 353.26 121.36 352.48 119.12 352.48C116.84 352.48 114.92 353.16 113.36 354.52C111.84 355.84 110.68 357.8 109.88 360.4C109.08 362.96 108.68 366.08 108.68 369.76C108.68 373.4 109.08 376.5 109.88 379.06C110.68 381.62 111.84 383.58 113.36 384.94C114.92 386.26 116.84 386.92 119.12 386.92C121.6 386.92 123.7 386.06 125.42 384.34C127.14 382.62 128.3 380.06 128.9 376.66L134.36 376.96C133.6 381.64 131.88 385.32 129.2 388C126.52 390.64 123.16 391.96 119.12 391.96ZM154.977 391.96C151.617 391.96 148.757 391.1 146.397 389.38C144.077 387.66 142.297 385.14 141.057 381.82C139.857 378.5 139.257 374.48 139.257 369.76C139.257 364.96 139.857 360.9 141.057 357.58C142.297 354.26 144.077 351.74 146.397 350.02C148.757 348.3 151.617 347.44 154.977 347.44C158.337 347.44 161.177 348.3 163.497 350.02C165.857 351.74 167.637 354.26 168.837 357.58C170.077 360.9 170.697 364.96 170.697 369.76C170.697 374.48 170.077 378.5 168.837 381.82C167.637 385.14 165.857 387.66 163.497 389.38C161.177 391.1 158.337 391.96 154.977 391.96ZM154.977 386.92C157.177 386.92 159.037 386.28 160.557 385C162.117 383.68 163.297 381.74 164.097 379.18C164.897 376.62 165.297 373.48 165.297 369.76C165.297 366.04 164.897 362.9 164.097 360.34C163.297 357.74 162.117 355.78 160.557 354.46C159.037 353.14 157.177 352.48 154.977 352.48C152.777 352.48 150.897 353.14 149.337 354.46C147.817 355.78 146.657 357.74 145.857 360.34C145.057 362.9 144.657 366.04 144.657 369.76C144.657 373.48 145.057 376.62 145.857 379.18C146.657 381.74 147.817 383.68 149.337 385C150.897 386.28 152.777 386.92 154.977 386.92ZM177.153 391V348.4H184.473L199.593 385.12V348.4H204.753V391H197.433L182.313 354.28V391H177.153ZM227.59 391.96C224.59 391.96 221.93 391.34 219.61 390.1C217.29 388.86 215.43 387.16 214.03 385C212.63 382.8 211.81 380.26 211.57 377.38L216.97 377.02C217.25 379.14 217.85 380.94 218.77 382.42C219.73 383.9 220.95 385.02 222.43 385.78C223.95 386.54 225.71 386.92 227.71 386.92C229.71 386.92 231.39 386.68 232.75 386.2C234.11 385.68 235.13 384.94 235.81 383.98C236.53 382.98 236.89 381.8 236.89 380.44C236.89 379.08 236.57 377.9 235.93 376.9C235.33 375.86 234.17 374.9 232.45 374.02C230.77 373.14 228.27 372.24 224.95 371.32C221.99 370.48 219.59 369.56 217.75 368.56C215.95 367.56 214.63 366.34 213.79 364.9C212.99 363.46 212.59 361.68 212.59 359.56C212.59 357.16 213.15 355.06 214.27 353.26C215.43 351.42 217.07 350 219.19 349C221.31 347.96 223.83 347.44 226.75 347.44C229.67 347.44 232.17 348.04 234.25 349.24C236.33 350.4 237.97 352 239.17 354.04C240.41 356.08 241.19 358.4 241.51 361L236.11 361.36C235.87 359.64 235.37 358.12 234.61 356.8C233.85 355.44 232.81 354.38 231.49 353.62C230.17 352.86 228.55 352.48 226.63 352.48C223.99 352.48 221.89 353.12 220.33 354.4C218.77 355.64 217.99 357.28 217.99 359.32C217.99 360.64 218.27 361.74 218.83 362.62C219.43 363.46 220.47 364.22 221.95 364.9C223.43 365.54 225.51 366.24 228.19 367C231.67 367.96 234.43 369.04 236.47 370.24C238.55 371.44 240.03 372.88 240.91 374.56C241.83 376.2 242.29 378.2 242.29 380.56C242.29 382.8 241.67 384.78 240.43 386.5C239.19 388.22 237.47 389.56 235.27 390.52C233.07 391.48 230.51 391.96 227.59 391.96ZM260.326 391V353.44H247.306V348.4H278.506V353.44H265.486V391H260.326ZM285.083 391V348.4H298.043C302.523 348.4 306.063 349.54 308.663 351.82C311.263 354.06 312.563 357.16 312.563 361.12C312.563 363.12 312.103 364.9 311.183 366.46C310.263 367.98 309.083 369.18 307.643 370.06C306.203 370.94 304.723 371.44 303.203 371.56L302.963 370.84C305.803 371 307.923 371.68 309.323 372.88C310.763 374.08 311.603 376.04 311.843 378.76L312.923 391H307.763L306.743 379.42C306.623 378.1 306.303 377.04 305.783 376.24C305.303 375.4 304.523 374.8 303.443 374.44C302.403 374.04 300.963 373.84 299.123 373.84H290.243V391H285.083ZM290.243 368.8H298.043C301.003 368.8 303.263 368.14 304.823 366.82C306.383 365.46 307.163 363.56 307.163 361.12C307.163 358.64 306.383 356.74 304.823 355.42C303.263 354.1 301.003 353.44 298.043 353.44H290.243V368.8ZM334.859 391.96C330.379 391.96 326.859 390.54 324.299 387.7C321.739 384.86 320.459 381 320.459 376.12V348.4H325.619V376.12C325.619 379.64 326.399 382.32 327.959 384.16C329.559 386 331.859 386.92 334.859 386.92C337.859 386.92 340.139 386 341.699 384.16C343.299 382.32 344.099 379.64 344.099 376.12V348.4H349.259V376.12C349.259 381 347.979 384.86 345.419 387.7C342.859 390.54 339.339 391.96 334.859 391.96ZM357.636 391V385.96H368.256V353.44H357.636V348.4H384.036V353.44H373.416V385.96H384.036V391H357.636ZM393.013 391V348.4H405.973C410.453 348.4 413.993 349.54 416.593 351.82C419.193 354.06 420.492 357.16 420.492 361.12C420.492 363.12 420.032 364.9 419.112 366.46C418.193 367.98 417.013 369.18 415.573 370.06C414.133 370.94 412.653 371.44 411.133 371.56L410.893 370.84C413.733 371 415.853 371.68 417.253 372.88C418.693 374.08 419.533 376.04 419.773 378.76L420.853 391H415.693L414.673 379.42C414.553 378.1 414.233 377.04 413.713 376.24C413.233 375.4 412.453 374.8 411.373 374.44C410.333 374.04 408.893 373.84 407.053 373.84H398.173V391H393.013ZM398.173 368.8H405.973C408.933 368.8 411.193 368.14 412.753 366.82C414.313 365.46 415.093 363.56 415.093 361.12C415.093 358.64 414.313 356.74 412.753 355.42C411.193 354.1 408.933 353.44 405.973 353.44H398.173V368.8Z" fill="white"/>
<path d="M0 455.857C0 453.727 1.7269 452 3.85714 452H77.1429C79.2731 452 81 453.727 81 455.857V529.143C81 531.273 79.2731 533 77.1429 533H3.85714C1.7269 533 0 531.273 0 529.143V455.857Z" fill="#2D87E8"/>
<path fill-rule="evenodd" clip-rule="evenodd" d="M33.88 478.701C34.3806 478.701 34.7864 479.113 34.7864 479.621V493.644C34.7864 494.461 34.7872 495.018 34.8221 495.448C34.8561 495.868 34.918 496.086 34.996 496.241C35.1805 496.606 35.4755 496.903 35.8397 497.09C35.9949 497.17 36.2137 497.233 36.6317 497.267C37.06 497.303 37.6134 497.303 38.4235 497.303H46.1751L40.6364 491.721C40.2811 491.363 40.2791 490.781 40.6318 490.42C40.9846 490.06 41.5585 490.058 41.9137 490.416L49.0128 497.57C49.1842 497.743 49.2805 497.978 49.2805 498.223C49.2805 498.468 49.1842 498.703 49.0128 498.876L41.9137 506.03C41.5585 506.388 40.9846 506.386 40.6318 506.026C40.2791 505.665 40.2811 505.083 40.6364 504.725L46.1751 499.143H38.386C37.6227 499.143 36.9954 499.143 36.4851 499.101C35.956 499.057 35.4735 498.964 35.0213 498.732C34.3169 498.37 33.7431 497.793 33.3831 497.08C33.1516 496.622 33.0587 496.134 33.0154 495.599C32.9736 495.084 32.9736 494.451 32.9736 493.683V479.621C32.9736 479.113 33.3794 478.701 33.88 478.701Z" fill="white"/>
<path d="M105.362 483V448.585H126.302V452.657H109.531V463.757H125.72V467.732H109.531V478.928H126.69V483H105.362ZM145.138 483.776C142.715 483.776 140.566 483.275 138.692 482.273C136.817 481.271 135.315 479.898 134.184 478.153C133.053 476.376 132.39 474.324 132.196 471.997L136.559 471.706C136.785 473.419 137.27 474.873 138.013 476.069C138.789 477.264 139.774 478.169 140.97 478.783C142.198 479.397 143.62 479.704 145.235 479.704C146.851 479.704 148.208 479.51 149.307 479.122C150.405 478.702 151.23 478.104 151.779 477.329C152.361 476.521 152.651 475.568 152.651 474.469C152.651 473.37 152.393 472.417 151.876 471.609C151.391 470.769 150.454 469.994 149.064 469.283C147.707 468.572 145.688 467.845 143.006 467.101C140.614 466.423 138.675 465.68 137.189 464.872C135.735 464.064 134.669 463.078 133.99 461.915C133.344 460.752 133.021 459.314 133.021 457.601C133.021 455.662 133.473 453.966 134.378 452.512C135.315 451.025 136.64 449.878 138.352 449.07C140.065 448.23 142.101 447.81 144.46 447.81C146.819 447.81 148.838 448.295 150.519 449.264C152.199 450.201 153.524 451.494 154.493 453.142C155.495 454.79 156.125 456.664 156.384 458.764L152.021 459.055C151.827 457.666 151.423 456.438 150.809 455.371C150.195 454.273 149.355 453.416 148.289 452.802C147.223 452.188 145.914 451.882 144.363 451.882C142.23 451.882 140.534 452.399 139.273 453.433C138.013 454.434 137.383 455.759 137.383 457.407C137.383 458.474 137.609 459.362 138.062 460.073C138.546 460.752 139.386 461.366 140.582 461.915C141.778 462.432 143.458 462.998 145.623 463.612C148.434 464.387 150.664 465.26 152.312 466.229C153.992 467.198 155.188 468.362 155.899 469.719C156.642 471.044 157.014 472.659 157.014 474.566C157.014 476.376 156.513 477.975 155.511 479.365C154.509 480.754 153.12 481.837 151.343 482.612C149.565 483.388 147.497 483.776 145.138 483.776ZM173.766 483.776C171.019 483.776 168.693 483.048 166.786 481.594C164.879 480.14 163.425 478.072 162.424 475.39C161.454 472.708 160.969 469.525 160.969 465.841C160.969 462.125 161.454 458.926 162.424 456.244C163.425 453.562 164.879 451.494 166.786 450.04C168.693 448.553 171.019 447.81 173.766 447.81C176.803 447.81 179.388 448.812 181.521 450.815C183.654 452.786 185.076 455.549 185.787 459.104L181.327 459.395C180.778 456.906 179.825 455.032 178.468 453.772C177.143 452.512 175.575 451.882 173.766 451.882C171.924 451.882 170.373 452.431 169.113 453.53C167.885 454.596 166.948 456.179 166.301 458.28C165.655 460.348 165.332 462.868 165.332 465.841C165.332 468.782 165.655 471.286 166.301 473.354C166.948 475.422 167.885 477.006 169.113 478.104C170.373 479.171 171.924 479.704 173.766 479.704C175.769 479.704 177.466 479.009 178.855 477.62C180.245 476.23 181.182 474.162 181.667 471.415L186.077 471.658C185.464 475.438 184.074 478.411 181.909 480.576C179.744 482.709 177.03 483.776 173.766 483.776ZM189.452 483L199.921 448.585H205.544L216.014 483H211.554L202.733 452.366L193.911 483H189.452ZM194.735 473.209L196.189 469.137H209.276L210.73 473.209H194.735ZM222.102 483V448.585H226.271V481.061L224.186 478.928H243.429V483H222.102ZM247.579 483L258.049 448.585H263.671L274.141 483H269.682L260.86 452.366L252.038 483H247.579ZM252.862 473.209L254.317 469.137H267.404L268.858 473.209H252.862ZM278.776 483V448.585H289.245C292.865 448.585 295.724 449.506 297.825 451.348C299.925 453.158 300.975 455.662 300.975 458.861C300.975 460.477 300.604 461.915 299.861 463.175C299.117 464.403 298.164 465.373 297.001 466.084C295.837 466.794 294.642 467.198 293.414 467.295L293.22 466.714C295.514 466.843 297.227 467.392 298.358 468.362C299.521 469.331 300.2 470.915 300.394 473.112L301.266 483H297.098L296.274 473.645C296.177 472.579 295.918 471.722 295.498 471.076C295.11 470.397 294.48 469.913 293.608 469.622C292.768 469.299 291.604 469.137 290.118 469.137H282.944V483H278.776ZM282.944 465.066H289.245C291.637 465.066 293.462 464.532 294.723 463.466C295.983 462.367 296.613 460.833 296.613 458.861C296.613 456.858 295.983 455.323 294.723 454.257C293.462 453.19 291.637 452.657 289.245 452.657H282.944V465.066ZM348.051 483.776C345.337 483.776 343.027 483.081 341.12 481.691C339.246 480.302 337.808 478.266 336.806 475.584C335.837 472.902 335.352 469.654 335.352 465.841C335.352 461.964 335.837 458.684 336.806 456.002C337.808 453.319 339.246 451.284 341.12 449.894C343.027 448.505 345.337 447.81 348.051 447.81C350.766 447.81 353.06 448.505 354.934 449.894C356.841 451.284 358.279 453.319 359.248 456.002C360.25 458.684 360.751 461.964 360.751 465.841C360.751 469.654 360.25 472.902 359.248 475.584C358.279 478.266 356.841 480.302 354.934 481.691C353.06 483.081 350.766 483.776 348.051 483.776ZM348.051 479.704C349.829 479.704 351.331 479.187 352.559 478.153C353.82 477.087 354.773 475.519 355.419 473.451C356.065 471.383 356.389 468.846 356.389 465.841C356.389 462.836 356.065 460.299 355.419 458.231C354.773 456.131 353.82 454.547 352.559 453.481C351.331 452.415 349.829 451.882 348.051 451.882C346.274 451.882 344.755 452.415 343.495 453.481C342.267 454.547 341.33 456.131 340.684 458.231C340.038 460.299 339.714 462.836 339.714 465.841C339.714 468.846 340.038 471.383 340.684 473.451C341.33 475.519 342.267 477.087 343.495 478.153C344.755 479.187 346.274 479.704 348.051 479.704ZM377.648 483.776C375.225 483.776 373.076 483.275 371.202 482.273C369.328 481.271 367.825 479.898 366.694 478.153C365.563 476.376 364.9 474.324 364.707 471.997L369.069 471.706C369.295 473.419 369.78 474.873 370.523 476.069C371.299 477.264 372.284 478.169 373.48 478.783C374.708 479.397 376.13 479.704 377.745 479.704C379.361 479.704 380.718 479.51 381.817 479.122C382.916 478.702 383.74 478.104 384.289 477.329C384.871 476.521 385.161 475.568 385.161 474.469C385.161 473.37 384.903 472.417 384.386 471.609C383.901 470.769 382.964 469.994 381.575 469.283C380.217 468.572 378.198 467.845 375.516 467.101C373.124 466.423 371.186 465.68 369.699 464.872C368.245 464.064 367.179 463.078 366.5 461.915C365.854 460.752 365.531 459.314 365.531 457.601C365.531 455.662 365.983 453.966 366.888 452.512C367.825 451.025 369.15 449.878 370.862 449.07C372.575 448.23 374.611 447.81 376.97 447.81C379.329 447.81 381.348 448.295 383.029 449.264C384.709 450.201 386.034 451.494 387.003 453.142C388.005 454.79 388.635 456.664 388.894 458.764L384.531 459.055C384.337 457.666 383.934 456.438 383.32 455.371C382.706 454.273 381.865 453.416 380.799 452.802C379.733 452.188 378.424 451.882 376.873 451.882C374.74 451.882 373.044 452.399 371.783 453.433C370.523 454.434 369.893 455.759 369.893 457.407C369.893 458.474 370.119 459.362 370.572 460.073C371.056 460.752 371.897 461.366 373.092 461.915C374.288 462.432 375.968 462.998 378.133 463.612C380.944 464.387 383.174 465.26 384.822 466.229C386.502 467.198 387.698 468.362 388.409 469.719C389.152 471.044 389.524 472.659 389.524 474.566C389.524 476.376 389.023 477.975 388.021 479.365C387.02 480.754 385.63 481.837 383.853 482.612C382.075 483.388 380.007 483.776 377.648 483.776ZM421.962 483L432.431 448.585H438.054L448.524 483H444.065L435.243 452.366L426.421 483H421.962ZM427.245 473.209L428.699 469.137H441.786L443.241 473.209H427.245ZM464.21 483.776C461.786 483.776 459.621 483.113 457.714 481.788C455.84 480.431 454.354 478.428 453.255 475.778C452.156 473.096 451.607 469.784 451.607 465.841C451.607 462.125 452.108 458.926 453.11 456.244C454.144 453.562 455.614 451.494 457.521 450.04C459.427 448.553 461.721 447.81 464.403 447.81C466.504 447.81 468.362 448.278 469.978 449.216C471.626 450.153 472.999 451.461 474.098 453.142C475.196 454.79 475.988 456.696 476.473 458.861L472.11 459.152C471.561 457.019 470.64 455.274 469.348 453.917C468.087 452.56 466.439 451.882 464.403 451.882C462.626 451.882 461.107 452.431 459.847 453.53C458.587 454.596 457.617 456.179 456.939 458.28C456.293 460.348 455.969 462.868 455.969 465.841C455.969 468.782 456.309 471.286 456.987 473.354C457.666 475.422 458.635 477.006 459.896 478.104C461.188 479.171 462.755 479.704 464.597 479.704C466.245 479.704 467.651 479.284 468.814 478.444C470.01 477.571 470.947 476.376 471.626 474.857C472.304 473.306 472.676 471.545 472.741 469.573H464.5V465.599H476.618V483H472.741L472.547 474.857L473.71 475.245C473.258 476.893 472.627 478.363 471.82 479.655C471.044 480.948 470.026 481.966 468.766 482.709C467.538 483.42 466.019 483.776 464.21 483.776ZM483.191 483V448.585H504.131V452.657H487.36V463.757H503.549V467.732H487.36V478.928H504.519V483H483.191ZM511.286 483V448.585H517.199L529.414 478.25V448.585H533.582V483H527.669L515.454 453.336V483H511.286ZM549.414 483V452.657H538.895V448.585H564.1V452.657H553.582V483H549.414ZM570.383 483V448.585H591.322V452.657H574.551V463.757H590.741V467.732H574.551V478.928H591.71V483H570.383ZM610.159 483.776C607.735 483.776 605.586 483.275 603.712 482.273C601.838 481.271 600.335 479.898 599.204 478.153C598.073 476.376 597.411 474.324 597.217 471.997L601.579 471.706C601.805 473.419 602.29 474.873 603.033 476.069C603.809 477.264 604.794 478.169 605.99 478.783C607.218 479.397 608.64 479.704 610.255 479.704C611.871 479.704 613.228 479.51 614.327 479.122C615.426 478.702 616.25 478.104 616.799 477.329C617.381 476.521 617.672 475.568 617.672 474.469C617.672 473.37 617.413 472.417 616.896 471.609C616.411 470.769 615.474 469.994 614.085 469.283C612.727 468.572 610.708 467.845 608.026 467.101C605.635 466.423 603.696 465.68 602.209 464.872C600.755 464.064 599.689 463.078 599.01 461.915C598.364 460.752 598.041 459.314 598.041 457.601C598.041 455.662 598.493 453.966 599.398 452.512C600.335 451.025 601.66 449.878 603.373 449.07C605.085 448.23 607.121 447.81 609.48 447.81C611.839 447.81 613.858 448.295 615.539 449.264C617.219 450.201 618.544 451.494 619.513 453.142C620.515 454.79 621.145 456.664 621.404 458.764L617.041 459.055C616.848 457.666 616.444 456.438 615.83 455.371C615.216 454.273 614.376 453.416 613.309 452.802C612.243 452.188 610.934 451.882 609.383 451.882C607.25 451.882 605.554 452.399 604.294 453.433C603.033 454.434 602.403 455.759 602.403 457.407C602.403 458.474 602.629 459.362 603.082 460.073C603.566 460.752 604.407 461.366 605.602 461.915C606.798 462.432 608.478 462.998 610.643 463.612C613.455 464.387 615.684 465.26 617.332 466.229C619.013 467.198 620.208 468.362 620.919 469.719C621.662 471.044 622.034 472.659 622.034 474.566C622.034 476.376 621.533 477.975 620.531 479.365C619.53 480.754 618.14 481.837 616.363 482.612C614.586 483.388 612.517 483.776 610.159 483.776ZM104.878 536V531.928H113.457V505.657H104.878V501.585H126.205V505.657H117.626V531.928H126.205V536H104.878ZM133.457 536V501.585H139.37L151.585 531.25V501.585H155.753V536H149.84L137.625 506.336V536H133.457ZM171.585 536V505.657H161.066V501.585H186.271V505.657H175.753V536H171.585ZM192.554 536V501.585H213.493V505.657H196.722V516.757H212.912V520.732H196.722V531.928H213.881V536H192.554ZM222.102 536V501.585H226.271V534.061L224.186 531.928H243.429V536H222.102ZM250.197 536V531.928H258.776V505.657H250.197V501.585H271.524V505.657H262.944V531.928H271.524V536H250.197ZM289.827 536.776C287.403 536.776 285.238 536.113 283.332 534.788C281.458 533.431 279.971 531.428 278.873 528.778C277.774 526.096 277.224 522.784 277.224 518.841C277.224 515.125 277.725 511.926 278.727 509.244C279.761 506.562 281.231 504.494 283.138 503.04C285.045 501.553 287.339 500.81 290.021 500.81C292.121 500.81 293.979 501.278 295.595 502.216C297.243 503.153 298.616 504.461 299.715 506.142C300.814 507.79 301.605 509.696 302.09 511.861L297.728 512.152C297.178 510.019 296.257 508.274 294.965 506.917C293.705 505.56 292.057 504.882 290.021 504.882C288.244 504.882 286.725 505.431 285.465 506.53C284.204 507.596 283.235 509.179 282.556 511.28C281.91 513.348 281.587 515.868 281.587 518.841C281.587 521.782 281.926 524.286 282.605 526.354C283.283 528.422 284.253 530.006 285.513 531.104C286.806 532.171 288.373 532.704 290.215 532.704C291.863 532.704 293.268 532.284 294.432 531.444C295.627 530.571 296.564 529.376 297.243 527.857C297.922 526.306 298.293 524.545 298.358 522.573H290.118V518.599H302.236V536H298.358L298.164 527.857L299.327 528.245C298.875 529.893 298.245 531.363 297.437 532.655C296.661 533.948 295.644 534.966 294.383 535.709C293.155 536.42 291.637 536.776 289.827 536.776ZM308.809 536V501.585H329.748V505.657H312.977V516.757H329.167V520.732H312.977V531.928H330.136V536H308.809ZM336.903 536V501.585H342.817L355.031 531.25V501.585H359.2V536H353.286L341.072 506.336V536H336.903ZM375.031 536V505.657H364.513V501.585H389.718V505.657H379.199V536H375.031ZM396 536V501.585H416.94V505.657H400.169V516.757H416.358V520.732H400.169V531.928H417.327V536H396ZM435.776 536.776C433.352 536.776 431.204 536.275 429.329 535.273C427.455 534.271 425.952 532.898 424.821 531.153C423.69 529.376 423.028 527.324 422.834 524.997L427.197 524.706C427.423 526.419 427.907 527.873 428.651 529.069C429.426 530.264 430.412 531.169 431.607 531.783C432.835 532.397 434.257 532.704 435.873 532.704C437.489 532.704 438.846 532.51 439.944 532.122C441.043 531.702 441.867 531.104 442.416 530.329C442.998 529.521 443.289 528.568 443.289 527.469C443.289 526.37 443.03 525.417 442.513 524.609C442.029 523.769 441.092 522.994 439.702 522.283C438.345 521.572 436.325 520.845 433.643 520.101C431.252 519.423 429.313 518.68 427.827 517.872C426.373 517.064 425.306 516.078 424.628 514.915C423.981 513.752 423.658 512.314 423.658 510.601C423.658 508.662 424.111 506.966 425.015 505.512C425.952 504.025 427.277 502.878 428.99 502.07C430.703 501.23 432.738 500.81 435.097 500.81C437.456 500.81 439.476 501.295 441.156 502.264C442.837 503.201 444.161 504.494 445.131 506.142C446.133 507.79 446.763 509.664 447.021 511.764L442.659 512.055C442.465 510.666 442.061 509.438 441.447 508.371C440.833 507.273 439.993 506.416 438.927 505.802C437.86 505.188 436.551 504.882 435 504.882C432.868 504.882 431.171 505.399 429.911 506.433C428.651 507.434 428.021 508.759 428.021 510.407C428.021 511.474 428.247 512.362 428.699 513.073C429.184 513.752 430.024 514.366 431.22 514.915C432.415 515.432 434.096 515.998 436.261 516.612C439.072 517.387 441.302 518.26 442.95 519.229C444.63 520.198 445.826 521.362 446.537 522.719C447.28 524.044 447.651 525.659 447.651 527.566C447.651 529.376 447.151 530.975 446.149 532.365C445.147 533.754 443.758 534.837 441.98 535.612C440.203 536.388 438.135 536.776 435.776 536.776Z" fill="white"/>
<path d="M62.8331 22.1935V80H51.8583V43.3892L37.6999 68.8576H30.3274L15.9177 43.1379V80H4.94287V22.1935H15.9177L34.0137 55.2856L51.8583 22.1935H62.8331ZM81.8166 31.7442V46.0701H107.871V55.6208H81.8166V70.4494H112.144V80H70.8417V22.1935H112.144V31.7442H81.8166ZM159.387 31.7442H142.045V80H131.071V31.7442H113.729V22.1935H159.387V31.7442ZM166.372 74.5545C162.183 70.3656 160.088 63.9985 160.088 55.537V46.489C160.088 38.1113 162.183 31.7442 166.455 27.4715C170.728 23.2827 176.676 21.1044 184.216 21.1044C191.589 21.1044 197.453 23.2827 201.726 27.4715C205.915 31.7442 208.093 38.1113 208.093 46.489V55.537C208.093 63.9147 205.915 70.2818 201.558 74.5545C197.202 78.8271 191.337 80.9216 183.881 80.9216C176.341 80.9216 170.56 78.8271 166.372 74.5545ZM197.118 55.3694V47.0755C197.118 36.1844 192.761 30.7389 184.216 30.7389C179.776 30.7389 176.509 32.0793 174.33 34.7602C172.152 37.441 171.147 41.5461 171.147 47.0755V55.3694C171.147 60.7312 172.152 64.6687 174.33 67.182C176.509 69.7791 179.776 71.0358 184.216 71.0358C192.761 71.0358 197.118 65.8416 197.118 55.3694ZM214.95 22.1935H237.486C245.194 22.1935 251.142 24.288 255.331 28.3931C259.52 32.582 261.698 38.949 261.698 47.4943V54.6154C261.698 63.2445 259.52 69.6116 255.247 73.8005C250.891 77.9893 244.859 80 237.067 80H214.95V22.1935ZM237.402 70.4494C241.926 70.4494 245.278 69.1927 247.456 66.6794C249.634 64.1661 250.723 60.1447 250.723 54.6154V48.0808C250.723 42.3839 249.634 38.2788 247.456 35.6817C245.278 33.0846 241.926 31.7442 237.402 31.7442H225.925V70.4494H237.402ZM274.525 74.5545C270.336 70.3656 268.242 63.9985 268.242 55.537V46.489C268.242 38.1113 270.336 31.7442 274.609 27.4715C278.881 23.2827 284.83 21.1044 292.37 21.1044C299.742 21.1044 305.606 23.2827 309.879 27.4715C314.068 31.7442 316.246 38.1113 316.246 46.489V55.537C316.246 63.9147 314.068 70.2818 309.712 74.5545C305.355 78.8271 299.491 80.9216 292.035 80.9216C284.495 80.9216 278.714 78.8271 274.525 74.5545ZM305.271 55.3694V47.0755C305.271 36.1844 300.915 30.7389 292.37 30.7389C287.929 30.7389 284.662 32.0793 282.484 34.7602C280.306 37.441 279.3 41.5461 279.3 47.0755V55.3694C279.3 60.7312 280.306 64.6687 282.484 67.182C284.662 69.7791 287.929 71.0358 292.37 71.0358C300.915 71.0358 305.271 65.8416 305.271 55.3694ZM323.104 22.1935H334.078V70.4494H363.903V80H323.104V22.1935ZM371.797 74.5545C367.608 70.3656 365.514 63.9985 365.514 55.537V46.489C365.514 38.1113 367.608 31.7442 371.881 27.4715C376.154 23.2827 382.102 21.1044 389.642 21.1044C397.014 21.1044 402.879 23.2827 407.151 27.4715C411.34 31.7442 413.518 38.1113 413.518 46.489V55.537C413.518 63.9147 411.34 70.2818 406.984 74.5545C402.627 78.8271 396.763 80.9216 389.307 80.9216C381.767 80.9216 375.986 78.8271 371.797 74.5545ZM402.544 55.3694V47.0755C402.544 36.1844 398.187 30.7389 389.642 30.7389C385.202 30.7389 381.934 32.0793 379.756 34.7602C377.578 37.441 376.573 41.5461 376.573 47.0755V55.3694C376.573 60.7312 377.578 64.6687 379.756 67.182C381.934 69.7791 385.202 71.0358 389.642 71.0358C398.187 71.0358 402.544 65.8416 402.544 55.3694ZM426.575 74.5545C422.219 70.3656 420.041 63.9985 420.041 55.537V46.489C420.041 38.1113 422.219 31.7442 426.575 27.4715C430.932 23.2827 436.964 21.1044 444.755 21.1044C449.363 21.1044 453.468 21.9422 456.986 23.4502C460.505 24.9582 463.186 27.2202 465.113 30.1524C467.04 33.1684 468.045 36.6033 468.045 40.6246V41.2948H457.07V40.9597C457.07 37.9437 455.981 35.4304 453.803 33.5873C451.625 31.7442 448.609 30.7389 444.755 30.7389C440.147 30.7389 436.712 32.0793 434.45 34.7602C432.188 37.441 431.099 41.4624 431.099 46.9917V55.2856C431.099 60.7312 432.188 64.7525 434.45 67.2658C436.712 69.7791 440.147 71.0358 444.839 71.0358C449.028 71.0358 452.127 70.198 454.138 68.3549C456.149 66.5118 457.154 63.8309 457.154 60.1447V58.0503H444.504V49.0023H468.045V58.553C468.045 66.0929 465.951 71.706 461.762 75.3922C457.573 79.0784 451.876 80.9216 444.671 80.9216C436.964 80.9216 430.932 78.8271 426.575 74.5545ZM475.405 22.1935H486.38V80H475.405V22.1935ZM530.76 68.7738H506.214L502.025 80H490.296L514.005 22.1935H522.969L546.678 80H534.949L530.76 68.7738ZM527.325 59.6421L518.445 36.1006L509.648 59.6421H527.325ZM8.79663 173.895C4.94287 170.795 2.76466 166.271 2.34577 160.407H12.818C13.1531 163.506 14.4097 165.768 16.5042 167.109C18.5986 168.449 21.6984 169.12 25.7197 169.12C33.5948 169.12 37.5323 166.522 37.5323 161.328C37.5323 159.066 36.6945 157.307 35.1865 156.134C33.5948 154.961 30.9977 154.123 27.479 153.705L21.3633 152.951C9.63441 151.526 3.76999 146.165 3.76999 136.781C3.76999 131.42 5.69687 127.147 9.63441 124.047C13.4882 120.948 18.8499 119.356 25.6359 119.356C32.1705 119.356 37.281 120.864 40.9672 123.796C44.6534 126.812 46.6641 131.085 47.1667 136.614H36.6108C36.3594 133.849 35.3541 131.839 33.511 130.498C31.6679 129.242 28.987 128.571 25.3846 128.571C21.6984 128.571 19.0175 129.242 17.1744 130.498C15.3313 131.839 14.4097 133.598 14.4097 135.944C14.4097 138.122 15.1637 139.714 16.8393 140.887C18.431 142.059 21.0281 142.897 24.6306 143.316L31.5841 144.238C37.0296 144.992 41.2185 146.751 44.0669 149.432C46.9154 152.113 48.3396 155.799 48.3396 160.491C48.3396 166.355 46.2452 170.795 42.1401 173.895C37.9512 176.995 32.3381 178.503 25.1332 178.503C18.0959 178.503 12.6504 176.995 8.79663 173.895ZM65.0447 129.744V144.07H91.0995V153.621H65.0447V168.449H95.3721V178H54.0698V120.194H95.3721V129.744H65.0447ZM142.615 129.744H125.273V178H114.299V129.744H96.9567V120.194H142.615V129.744ZM190.761 129.744H173.419V178H162.444V129.744H145.102V120.194H190.761V129.744ZM205.308 129.744V144.07H231.363V153.621H205.308V168.449H235.635V178H194.333V120.194H235.635V129.744H205.308ZM259.464 120.194H270.439V178H259.464V120.194ZM314.819 166.774H290.273L286.084 178H274.355L298.064 120.194H307.028L330.737 178H319.008L314.819 166.774ZM311.384 157.642L302.504 134.101L293.707 157.642H311.384Z" fill="#F5F5F5"/>
</svg>
