<svg width="615" height="359" viewBox="0 0 615 359" fill="none" xmlns="http://www.w3.org/2000/svg">
<path d="M11.0586 74.5545C6.7022 70.3656 4.60776 63.9985 4.60776 55.537V46.489C4.60776 38.1113 6.78597 31.7442 11.1424 27.4715C15.4988 23.2827 21.5308 21.1044 29.3221 21.1044C36.3594 21.1044 42.0563 22.8638 46.2452 26.3824C50.434 29.9011 52.6123 34.6764 52.6123 40.8759V41.5461H41.6374V41.211C41.6374 38.0275 40.5483 35.4304 38.3701 33.5873C36.1919 31.7442 33.1759 30.7389 29.3221 30.7389C24.7144 30.7389 21.2795 32.0793 19.0175 34.7602C16.7555 37.441 15.6664 41.5461 15.6664 47.0755V55.3694C15.6664 60.7312 16.7555 64.6687 19.1013 67.182C21.3633 69.7791 24.7981 71.0358 29.4059 71.0358C33.2597 71.0358 36.1919 70.198 38.3701 68.3549C40.5483 66.5118 41.6374 63.9985 41.6374 60.815V60.3961H52.5285V60.815C52.5285 67.182 50.434 72.1249 46.2452 75.6436C42.0563 79.1622 36.3594 80.9216 29.2383 80.9216C21.447 80.9216 15.4151 78.8271 11.0586 74.5545ZM65.4178 74.5545C61.2289 70.3656 59.1345 63.9985 59.1345 55.537V46.489C59.1345 38.1113 61.2289 31.7442 65.5015 27.4715C69.7742 23.2827 75.7224 21.1044 83.2624 21.1044C90.6348 21.1044 96.4992 23.2827 100.772 27.4715C104.961 31.7442 107.139 38.1113 107.139 46.489V55.537C107.139 63.9147 104.961 70.2818 100.604 74.5545C96.2479 78.8271 90.3835 80.9216 82.9273 80.9216C75.3873 80.9216 69.6066 78.8271 65.4178 74.5545ZM96.1641 55.3694V47.0755C96.1641 36.1844 91.8077 30.7389 83.2624 30.7389C78.8222 30.7389 75.5548 32.0793 73.3766 34.7602C71.1984 37.441 70.1931 41.5461 70.1931 47.0755V55.3694C70.1931 60.7312 71.1984 64.6687 73.3766 67.182C75.5548 69.7791 78.8222 71.0358 83.2624 71.0358C91.8077 71.0358 96.1641 65.8416 96.1641 55.3694ZM162.671 22.1935V80H151.696L124.971 41.7137V80H113.996V22.1935H124.971L151.696 60.5636V22.1935H162.671ZM170.732 22.1935H193.268C200.976 22.1935 206.924 24.288 211.113 28.3931C215.302 32.582 217.48 38.949 217.48 47.4943V54.6154C217.48 63.2445 215.302 69.6116 211.029 73.8005C206.672 77.9893 200.64 80 192.849 80H170.732V22.1935ZM193.184 70.4494C197.708 70.4494 201.059 69.1927 203.238 66.6794C205.416 64.1661 206.505 60.1447 206.505 54.6154V48.0808C206.505 42.3839 205.416 38.2788 203.238 35.6817C201.059 33.0846 197.708 31.7442 193.184 31.7442H181.707V70.4494H193.184ZM224.861 22.1935H235.836V80H224.861V22.1935ZM281.054 41.5461V41.211C281.054 38.0275 279.965 35.4304 277.787 33.5873C275.609 31.7442 272.593 30.7389 268.739 30.7389C264.131 30.7389 260.696 32.0793 258.435 34.7602C256.173 37.441 255.083 41.5461 255.083 47.0755V55.3694C255.083 60.7312 256.173 64.6687 258.518 67.182C260.78 69.7791 264.215 71.0358 268.823 71.0358C272.677 71.0358 275.609 70.198 277.787 68.3549C279.965 66.5118 281.054 63.9985 281.054 60.815V60.3961H291.945V60.815C291.945 66.3443 290.354 70.7845 287.17 74.1356C283.987 77.5705 279.714 79.6649 274.185 80.5027L269.074 93.0693H259.105L265.388 80.754C258.602 80.2513 253.324 77.8218 249.638 73.6329C245.868 69.444 244.025 63.4121 244.025 55.537V46.489C244.025 38.1113 246.203 31.7442 250.559 27.4715C254.916 23.2827 260.948 21.1044 268.739 21.1044C275.776 21.1044 281.473 22.8638 285.662 26.3824C289.851 29.9011 292.029 34.6764 292.029 40.8759V41.5461H281.054ZM304.835 74.5545C300.646 70.3656 298.551 63.9985 298.551 55.537V46.489C298.551 38.1113 300.646 31.7442 304.919 27.4715C309.191 23.2827 315.139 21.1044 322.679 21.1044C330.052 21.1044 335.916 23.2827 340.189 27.4715C344.378 31.7442 346.556 38.1113 346.556 46.489V55.537C346.556 63.9147 344.378 70.2818 340.021 74.5545C335.665 78.8271 329.8 80.9216 322.344 80.9216C314.804 80.9216 309.024 78.8271 304.835 74.5545ZM335.581 55.3694V47.0755C335.581 36.1844 331.225 30.7389 322.679 30.7389C318.239 30.7389 314.972 32.0793 312.794 34.7602C310.615 37.441 309.61 41.5461 309.61 47.0755V55.3694C309.61 60.7312 310.615 64.6687 312.794 67.182C314.972 69.7791 318.239 71.0358 322.679 71.0358C331.225 71.0358 335.581 65.8416 335.581 55.3694ZM309.191 9.37559C310.532 8.11893 311.705 7.19738 312.877 6.69471C314.05 6.19205 315.391 5.85694 316.899 5.85694C318.072 5.85694 319.161 6.0245 320.166 6.27583C321.088 6.61094 322.177 7.02982 323.433 7.53249C324.523 8.03515 325.444 8.45404 326.282 8.70538C327.036 8.9567 327.874 9.04048 328.879 9.04048C330.052 9.04048 331.057 8.87293 332.062 8.37027C332.984 7.8676 334.241 7.02982 335.916 5.68939V13.3969C334.576 14.7374 333.319 15.6589 332.146 16.1616C330.973 16.6642 329.717 16.9156 328.292 16.9156C327.036 16.9156 325.947 16.8318 325.025 16.4967C324.02 16.1616 322.931 15.7427 321.674 15.1562C321.507 15.1562 321.004 14.9887 320.334 14.6536C319.58 14.3185 318.909 14.1509 318.239 13.9834C317.569 13.8158 316.983 13.732 316.396 13.732C315.223 13.732 314.134 13.9834 313.129 14.486C312.123 14.9887 310.783 15.8265 309.191 16.9993V9.37559ZM364.388 31.7442V46.0701H390.443V55.6208H364.388V70.4494H394.716V80H353.413V22.1935H394.716V31.7442H364.388ZM404.594 75.8949C400.74 72.7951 398.562 68.2712 398.143 62.4067H408.615C408.951 65.5065 410.207 67.7685 412.302 69.1089C414.396 70.4494 417.496 71.1196 421.517 71.1196C429.392 71.1196 433.33 68.5225 433.33 63.3283C433.33 61.0663 432.492 59.307 430.984 58.1341C429.392 56.9612 426.795 56.1234 423.276 55.7045L417.161 54.9505C405.432 53.5263 399.567 48.1646 399.567 38.7815C399.567 33.4197 401.494 29.1471 405.432 26.0473C409.286 22.9475 414.647 21.3558 421.433 21.3558C427.968 21.3558 433.078 22.8638 436.765 25.796C440.451 28.812 442.462 33.0846 442.964 38.6139H432.408C432.157 35.8493 431.152 33.8386 429.308 32.4982C427.465 31.2415 424.784 30.5713 421.182 30.5713C417.496 30.5713 414.815 31.2415 412.972 32.4982C411.129 33.8386 410.207 35.5979 410.207 37.9437C410.207 40.1219 410.961 41.7137 412.637 42.8866C414.229 44.0595 416.826 44.8972 420.428 45.3161L427.382 46.2377C432.827 46.9917 437.016 48.751 439.864 51.4319C442.713 54.1128 444.137 57.799 444.137 62.4905C444.137 68.3549 442.043 72.7951 437.938 75.8949C433.749 78.9947 428.136 80.5027 420.931 80.5027C413.893 80.5027 408.448 78.9947 404.594 75.8949ZM11.0586 172.554C6.7022 168.366 4.60776 161.999 4.60776 153.537V144.489C4.60776 136.111 6.78597 129.744 11.1424 125.472C15.4988 121.283 21.5308 119.104 29.3221 119.104C36.3594 119.104 42.0563 120.864 46.2452 124.382C50.434 127.901 52.6123 132.676 52.6123 138.876V139.546H41.6374V139.211C41.6374 136.027 40.5483 133.43 38.3701 131.587C36.1919 129.744 33.1759 128.739 29.3221 128.739C24.7144 128.739 21.2795 130.079 19.0175 132.76C16.7555 135.441 15.6664 139.546 15.6664 145.075V153.369C15.6664 158.731 16.7555 162.669 19.1013 165.182C21.3633 167.779 24.7981 169.036 29.4059 169.036C33.2597 169.036 36.1919 168.198 38.3701 166.355C40.5483 164.512 41.6374 161.999 41.6374 158.815V158.396H52.5285V158.815C52.5285 165.182 50.434 170.125 46.2452 173.644C42.0563 177.162 36.3594 178.922 29.2383 178.922C21.447 178.922 15.4151 176.827 11.0586 172.554ZM65.4178 172.554C61.2289 168.366 59.1345 161.999 59.1345 153.537V144.489C59.1345 136.111 61.2289 129.744 65.5015 125.472C69.7742 121.283 75.7224 119.104 83.2624 119.104C90.6348 119.104 96.4992 121.283 100.772 125.472C104.961 129.744 107.139 136.111 107.139 144.489V153.537C107.139 161.915 104.961 168.282 100.604 172.554C96.2479 176.827 90.3835 178.922 82.9273 178.922C75.3873 178.922 69.6066 176.827 65.4178 172.554ZM96.1641 153.369V145.075C96.1641 134.184 91.8077 128.739 83.2624 128.739C78.8222 128.739 75.5548 130.079 73.3766 132.76C71.1984 135.441 70.1931 139.546 70.1931 145.075V153.369C70.1931 158.731 71.1984 162.669 73.3766 165.182C75.5548 167.779 78.8222 169.036 83.2624 169.036C91.8077 169.036 96.1641 163.842 96.1641 153.369ZM171.886 120.194V178H160.912V141.389L146.753 166.858H139.381L124.971 141.138V178H113.996V120.194H124.971L143.067 153.286L160.912 120.194H171.886ZM190.87 129.744V144.07H216.925V153.621H190.87V168.449H221.197V178H179.895V120.194H221.197V129.744H190.87ZM249.675 155.296H238.197V178H227.222V120.194H252.355C258.639 120.194 263.582 121.702 267.268 124.718C270.954 127.734 272.797 132.09 272.797 137.787C272.797 141.976 271.792 145.411 269.781 148.091C267.77 150.772 264.922 152.783 261.068 153.956L275.394 178H262.325L249.675 155.296ZM238.197 145.913H252.691C258.806 145.913 261.906 143.232 261.906 137.787C261.906 135.106 261.068 133.095 259.476 131.755C257.801 130.414 255.539 129.744 252.691 129.744H238.197V145.913ZM285.492 172.554C281.136 168.366 279.041 161.999 279.041 153.537V144.489C279.041 136.111 281.219 129.744 285.576 125.472C289.932 121.283 295.964 119.104 303.755 119.104C310.793 119.104 316.49 120.864 320.679 124.382C324.867 127.901 327.046 132.676 327.046 138.876V139.546H316.071V139.211C316.071 136.027 314.982 133.43 312.803 131.587C310.625 129.744 307.609 128.739 303.755 128.739C299.148 128.739 295.713 130.079 293.451 132.76C291.189 135.441 290.1 139.546 290.1 145.075V153.369C290.1 158.731 291.189 162.669 293.535 165.182C295.797 167.779 299.232 169.036 303.839 169.036C307.693 169.036 310.625 168.198 312.803 166.355C314.982 164.512 316.071 161.999 316.071 158.815V158.396H326.962V158.815C326.962 165.182 324.867 170.125 320.679 173.644C316.49 177.162 310.793 178.922 303.672 178.922C295.88 178.922 289.848 176.827 285.492 172.554ZM334.406 120.194H345.38V178H334.406V120.194ZM389.761 166.774H365.214L361.025 178H349.296L373.005 120.194H381.97L405.679 178H393.95L389.761 166.774ZM386.326 157.642L377.446 134.101L368.649 157.642H386.326ZM409.588 120.194H420.563V178H409.588V120.194ZM432.122 173.895C428.268 170.795 426.09 166.271 425.671 160.407H436.144C436.479 163.506 437.735 165.768 439.83 167.109C441.924 168.449 445.024 169.12 449.045 169.12C456.92 169.12 460.858 166.522 460.858 161.328C460.858 159.066 460.02 157.307 458.512 156.134C456.92 154.961 454.323 154.123 450.805 153.705L444.689 152.951C432.96 151.526 427.096 146.165 427.096 136.781C427.096 131.42 429.022 127.147 432.96 124.047C436.814 120.948 442.176 119.356 448.961 119.356C455.496 119.356 460.607 120.864 464.293 123.796C467.979 126.812 469.99 131.085 470.492 136.614H459.936C459.685 133.849 458.68 131.839 456.837 130.498C454.993 129.242 452.313 128.571 448.71 128.571C445.024 128.571 442.343 129.242 440.5 130.498C438.657 131.839 437.735 133.598 437.735 135.944C437.735 138.122 438.489 139.714 440.165 140.887C441.757 142.059 444.354 142.897 447.956 143.316L454.91 144.238C460.355 144.992 464.544 146.751 467.393 149.432C470.241 152.113 471.665 155.799 471.665 160.491C471.665 166.355 469.571 170.795 465.466 173.895C461.277 176.995 455.664 178.503 448.459 178.503C441.422 178.503 435.976 176.995 432.122 173.895Z" fill="#F5F5F5"/>
<path d="M11.4657 255.607C9.3143 255.607 7.49194 255.038 5.99861 253.899C4.50529 252.76 3.36631 251.14 2.58168 249.039C1.82236 246.939 1.4427 244.445 1.4427 241.56C1.4427 238.649 1.82236 236.144 2.58168 234.043C3.36631 231.942 4.50529 230.322 5.99861 229.183C7.49194 228.019 9.3143 227.437 11.4657 227.437C13.8449 227.437 15.8697 228.221 17.5402 229.791C19.2107 231.335 20.3244 233.499 20.8812 236.283L17.3884 236.511C16.9581 234.562 16.2114 233.094 15.1484 232.107C14.1107 231.119 12.8831 230.626 11.4657 230.626C10.023 230.626 8.80809 231.056 7.82097 231.917C6.85917 232.752 6.12516 233.992 5.61895 235.637C5.11274 237.257 4.85963 239.232 4.85963 241.56C4.85963 243.863 5.11274 245.825 5.61895 247.445C6.12516 249.065 6.85917 250.305 7.82097 251.165C8.80809 252.001 10.023 252.418 11.4657 252.418C13.035 252.418 14.3638 251.874 15.4521 250.786C16.5405 249.697 17.2745 248.078 17.6541 245.926L21.109 246.116C20.6281 249.077 19.5398 251.406 17.844 253.102C16.1482 254.772 14.0221 255.607 11.4657 255.607ZM34.1545 255.456C32.3068 255.456 30.6869 255.025 29.2948 254.165C27.9281 253.304 26.865 252.089 26.1057 250.52C25.3464 248.925 24.9667 247.065 24.9667 244.939C24.9667 242.788 25.3464 240.927 26.1057 239.358C26.865 237.789 27.9281 236.574 29.2948 235.713C30.6869 234.853 32.3068 234.422 34.1545 234.422C36.0021 234.422 37.6094 234.853 38.9761 235.713C40.3682 236.574 41.4439 237.789 42.2032 239.358C42.9626 240.927 43.3422 242.788 43.3422 244.939C43.3422 247.065 42.9626 248.925 42.2032 250.52C41.4439 252.089 40.3682 253.304 38.9761 254.165C37.6094 255.025 36.0021 255.456 34.1545 255.456ZM34.1545 252.418C36.0021 252.418 37.4322 251.76 38.4446 250.444C39.4824 249.103 40.0012 247.268 40.0012 244.939C40.0012 242.61 39.4824 240.788 38.4446 239.472C37.4322 238.13 36.0021 237.46 34.1545 237.46C32.3068 237.46 30.8641 238.13 29.8264 239.472C28.8139 240.788 28.3077 242.61 28.3077 244.939C28.3077 247.268 28.8139 249.103 29.8264 250.444C30.8641 251.76 32.3068 252.418 34.1545 252.418ZM48.7185 255V234.878H51.6419L51.7558 240.003L51.3762 239.662C51.6293 238.472 52.0849 237.498 52.7429 236.738C53.4263 235.954 54.2363 235.372 55.1727 234.992C56.1092 234.612 57.0963 234.422 58.1341 234.422C59.678 234.422 60.9562 234.764 61.9686 235.448C63.0064 236.131 63.791 237.055 64.3225 238.219C64.854 239.358 65.1198 240.636 65.1198 242.054V255H61.9307V242.965C61.9307 241.092 61.5637 239.674 60.8297 238.713C60.0957 237.726 58.9693 237.232 57.4507 237.232C56.413 237.232 55.4765 237.46 54.6412 237.915C53.806 238.346 53.1352 238.991 52.629 239.852C52.1481 240.687 51.9077 241.725 51.9077 242.965V255H48.7185ZM82.6452 255C80.6963 255 79.2409 254.544 78.2791 253.633C77.3173 252.722 76.8364 251.33 76.8364 249.457V230.17H80.0256V249.457C80.0256 250.393 80.2407 251.09 80.671 251.545C81.1013 251.975 81.7593 252.191 82.6452 252.191H88.0364V255H82.6452ZM70.1924 237.688V234.878H88.0364V237.688H70.1924ZM99.715 255V234.878H102.373L102.676 239.966L102.373 239.89C102.626 238.168 103.17 236.903 104.005 236.093C104.866 235.283 106.005 234.878 107.422 234.878H111.56V237.763H107.46C106.473 237.763 105.638 237.966 104.954 238.371C104.296 238.751 103.79 239.32 103.436 240.079C103.081 240.813 102.904 241.737 102.904 242.851V255H99.715ZM94.4757 255V252.191H109.282V255H94.4757ZM94.4757 237.688V234.878H101.461V237.688H94.4757ZM122.556 255.456C121.29 255.456 120.151 255.228 119.139 254.772C118.126 254.317 117.329 253.684 116.747 252.874C116.165 252.039 115.874 251.077 115.874 249.989C115.874 248.267 116.38 246.939 117.392 246.002C118.43 245.04 120.05 244.344 122.252 243.914L129.01 242.547C129.01 240.826 128.618 239.548 127.833 238.713C127.074 237.877 125.973 237.46 124.53 237.46C123.138 237.46 122.049 237.776 121.265 238.409C120.48 239.016 119.936 239.902 119.632 241.067L116.253 240.801C116.633 238.902 117.532 237.371 118.949 236.207C120.392 235.017 122.252 234.422 124.53 234.422C126.96 234.422 128.845 235.156 130.187 236.625C131.528 238.067 132.199 240.067 132.199 242.623V250.976C132.199 251.431 132.3 251.748 132.503 251.925C132.705 252.102 133.009 252.191 133.414 252.191H134.705V255C134.553 255.025 134.312 255.038 133.983 255.038C133.654 255.063 133.338 255.076 133.034 255.076C132.174 255.076 131.44 254.937 130.832 254.658C130.25 254.38 129.807 253.937 129.503 253.33C129.2 252.697 129.035 251.887 129.01 250.9H129.617C129.44 251.76 129.01 252.545 128.326 253.254C127.668 253.937 126.833 254.481 125.821 254.886C124.808 255.266 123.72 255.456 122.556 255.456ZM122.859 252.646C124.226 252.646 125.365 252.418 126.276 251.963C127.188 251.482 127.871 250.824 128.326 249.989C128.782 249.128 129.01 248.141 129.01 247.027V245.281L122.859 246.496C121.493 246.749 120.543 247.141 120.012 247.673C119.48 248.179 119.215 248.85 119.215 249.685C119.215 250.621 119.531 251.355 120.164 251.887C120.822 252.393 121.72 252.646 122.859 252.646ZM150.939 255C148.99 255 147.535 254.544 146.573 253.633C145.611 252.722 145.131 251.33 145.131 249.457V230.17H148.32V249.457C148.32 250.393 148.535 251.09 148.965 251.545C149.395 251.975 150.053 252.191 150.939 252.191H156.33V255H150.939ZM138.487 237.688V234.878H156.33V237.688H138.487ZM170.743 255.456C168.895 255.456 167.275 255.025 165.883 254.165C164.516 253.304 163.453 252.089 162.694 250.52C161.935 248.925 161.555 247.065 161.555 244.939C161.555 242.788 161.935 240.927 162.694 239.358C163.453 237.789 164.516 236.574 165.883 235.713C167.275 234.853 168.895 234.422 170.743 234.422C172.59 234.422 174.198 234.853 175.564 235.713C176.956 236.574 178.032 237.789 178.791 239.358C179.551 240.927 179.93 242.788 179.93 244.939C179.93 247.065 179.551 248.925 178.791 250.52C178.032 252.089 176.956 253.304 175.564 254.165C174.198 255.025 172.59 255.456 170.743 255.456ZM170.743 252.418C172.59 252.418 174.02 251.76 175.033 250.444C176.071 249.103 176.589 247.268 176.589 244.939C176.589 242.61 176.071 240.788 175.033 239.472C174.02 238.13 172.59 237.46 170.743 237.46C168.895 237.46 167.452 238.13 166.415 239.472C165.402 240.788 164.896 242.61 164.896 244.939C164.896 247.268 165.402 249.103 166.415 250.444C167.452 251.76 168.895 252.418 170.743 252.418ZM206.401 255V234.878H209.324L209.438 239.358L209.059 239.282C209.286 237.789 209.767 236.612 210.501 235.751C211.261 234.865 212.222 234.422 213.387 234.422C214.576 234.422 215.487 234.853 216.12 235.713C216.778 236.574 217.183 237.839 217.335 239.51H216.955C217.183 237.941 217.69 236.7 218.474 235.789C219.284 234.878 220.296 234.422 221.511 234.422C223.131 234.422 224.308 234.979 225.042 236.093C225.776 237.207 226.143 239.054 226.143 241.636V255H222.954V242.092C222.954 240.295 222.764 239.042 222.385 238.333C222.005 237.599 221.41 237.232 220.6 237.232C220.069 237.232 219.6 237.409 219.195 237.763C218.791 238.093 218.461 238.624 218.208 239.358C217.981 240.092 217.867 241.029 217.867 242.168V255H214.678V242.092C214.678 240.37 214.488 239.13 214.108 238.371C213.754 237.612 213.159 237.232 212.324 237.232C211.792 237.232 211.324 237.409 210.919 237.763C210.514 238.093 210.185 238.624 209.932 239.358C209.704 240.092 209.59 241.029 209.59 242.168V255H206.401ZM238.771 255V234.878H241.96V255H238.771ZM230.684 255V252.191H248.908V255H230.684ZM231.064 237.688V234.878H241.96V237.688H231.064ZM238.733 232.22L241.239 227.361H244.808L241.391 232.22H238.733ZM253.601 255V234.878H256.524L256.638 240.003L256.258 239.662C256.512 238.472 256.967 237.498 257.625 236.738C258.309 235.954 259.119 235.372 260.055 234.992C260.992 234.612 261.979 234.422 263.016 234.422C264.56 234.422 265.839 234.764 266.851 235.448C267.889 236.131 268.673 237.055 269.205 238.219C269.736 239.358 270.002 240.636 270.002 242.054V255H266.813V242.965C266.813 241.092 266.446 239.674 265.712 238.713C264.978 237.726 263.852 237.232 262.333 237.232C261.295 237.232 260.359 237.46 259.524 237.915C258.688 238.346 258.018 238.991 257.511 239.852C257.03 240.687 256.79 241.725 256.79 242.965V255H253.601ZM284.3 255V234.878H287.49V255H284.3ZM276.214 255V252.191H294.437V255H276.214ZM276.593 237.688V234.878H287.49V237.688H276.593ZM283.997 231.727V228.006H287.338V231.727H283.997ZM297.46 255V234.878H300.383L300.497 239.358L300.117 239.282C300.345 237.789 300.826 236.612 301.56 235.751C302.319 234.865 303.281 234.422 304.446 234.422C305.635 234.422 306.546 234.853 307.179 235.713C307.837 236.574 308.242 237.839 308.394 239.51H308.014C308.242 237.941 308.748 236.7 309.533 235.789C310.343 234.878 311.355 234.422 312.57 234.422C314.19 234.422 315.367 234.979 316.101 236.093C316.835 237.207 317.202 239.054 317.202 241.636V255H314.013V242.092C314.013 240.295 313.823 239.042 313.443 238.333C313.064 237.599 312.469 237.232 311.659 237.232C311.128 237.232 310.659 237.409 310.254 237.763C309.849 238.093 309.52 238.624 309.267 239.358C309.039 240.092 308.925 241.029 308.925 242.168V255H305.736V242.092C305.736 240.37 305.547 239.13 305.167 238.371C304.813 237.612 304.218 237.232 303.382 237.232C302.851 237.232 302.383 237.409 301.978 237.763C301.573 238.093 301.244 238.624 300.991 239.358C300.763 240.092 300.649 241.029 300.649 242.168V255H297.46ZM330.096 255.456C328.248 255.456 326.628 255.025 325.236 254.165C323.869 253.304 322.806 252.089 322.047 250.52C321.288 248.925 320.908 247.065 320.908 244.939C320.908 242.788 321.288 240.927 322.047 239.358C322.806 237.789 323.869 236.574 325.236 235.713C326.628 234.853 328.248 234.422 330.096 234.422C331.943 234.422 333.551 234.853 334.917 235.713C336.309 236.574 337.385 237.789 338.144 239.358C338.904 240.927 339.283 242.788 339.283 244.939C339.283 247.065 338.904 248.925 338.144 250.52C337.385 252.089 336.309 253.304 334.917 254.165C333.551 255.025 331.943 255.456 330.096 255.456ZM330.096 252.418C331.943 252.418 333.373 251.76 334.386 250.444C335.423 249.103 335.942 247.268 335.942 244.939C335.942 242.61 335.423 240.788 334.386 239.472C333.373 238.13 331.943 237.46 330.096 237.46C328.248 237.46 326.805 238.13 325.767 239.472C324.755 240.788 324.249 242.61 324.249 244.939C324.249 247.268 324.755 249.103 325.767 250.444C326.805 251.76 328.248 252.418 330.096 252.418ZM350.848 260.923L352.633 255H350.582V250.368H355.138V254.468L352.746 260.923H350.848ZM395.049 255V233.587C395.049 231.79 395.504 230.423 396.416 229.487C397.352 228.525 398.769 228.044 400.668 228.044H407.122V230.854H400.668C399.883 230.854 399.276 231.107 398.845 231.613C398.44 232.094 398.238 232.752 398.238 233.587V255H395.049ZM389.658 237.688V234.878H406.742V237.688H389.658ZM421.154 255.456C419.307 255.456 417.687 255.025 416.295 254.165C414.928 253.304 413.865 252.089 413.106 250.52C412.346 248.925 411.967 247.065 411.967 244.939C411.967 242.788 412.346 240.927 413.106 239.358C413.865 237.789 414.928 236.574 416.295 235.713C417.687 234.853 419.307 234.422 421.154 234.422C423.002 234.422 424.609 234.853 425.976 235.713C427.368 236.574 428.444 237.789 429.203 239.358C429.963 240.927 430.342 242.788 430.342 244.939C430.342 247.065 429.963 248.925 429.203 250.52C428.444 252.089 427.368 253.304 425.976 254.165C424.609 255.025 423.002 255.456 421.154 255.456ZM421.154 252.418C423.002 252.418 424.432 251.76 425.445 250.444C426.482 249.103 427.001 247.268 427.001 244.939C427.001 242.61 426.482 240.788 425.445 239.472C424.432 238.13 423.002 237.46 421.154 237.46C419.307 237.46 417.864 238.13 416.826 239.472C415.814 240.788 415.308 242.61 415.308 244.939C415.308 247.268 415.814 249.103 416.826 250.444C417.864 251.76 419.307 252.418 421.154 252.418ZM441.186 255V234.878H443.843L444.147 239.966L443.843 239.89C444.096 238.168 444.64 236.903 445.476 236.093C446.336 235.283 447.475 234.878 448.893 234.878H453.031V237.763H448.931C447.944 237.763 447.108 237.966 446.425 238.371C445.767 238.751 445.261 239.32 444.906 240.079C444.552 240.813 444.375 241.737 444.375 242.851V255H441.186ZM435.946 255V252.191H450.753V255H435.946ZM435.946 237.688V234.878H442.932V237.688H435.946ZM456.813 255V234.878H459.736L459.85 239.358L459.47 239.282C459.698 237.789 460.179 236.612 460.913 235.751C461.672 234.865 462.634 234.422 463.798 234.422C464.988 234.422 465.899 234.853 466.532 235.713C467.19 236.574 467.595 237.839 467.747 239.51H467.367C467.595 237.941 468.101 236.7 468.886 235.789C469.696 234.878 470.708 234.422 471.923 234.422C473.543 234.422 474.72 234.979 475.454 236.093C476.188 237.207 476.555 239.054 476.555 241.636V255H473.366V242.092C473.366 240.295 473.176 239.042 472.796 238.333C472.417 237.599 471.822 237.232 471.012 237.232C470.48 237.232 470.012 237.409 469.607 237.763C469.202 238.093 468.873 238.624 468.62 239.358C468.392 240.092 468.278 241.029 468.278 242.168V255H465.089V242.092C465.089 240.37 464.899 239.13 464.52 238.371C464.165 237.612 463.571 237.232 462.735 237.232C462.204 237.232 461.736 237.409 461.331 237.763C460.926 238.093 460.597 238.624 460.344 239.358C460.116 240.092 460.002 241.029 460.002 242.168V255H456.813ZM486.791 255.456C485.525 255.456 484.386 255.228 483.374 254.772C482.362 254.317 481.564 253.684 480.982 252.874C480.4 252.039 480.109 251.077 480.109 249.989C480.109 248.267 480.615 246.939 481.628 246.002C482.665 245.04 484.285 244.344 486.487 243.914L493.245 242.547C493.245 240.826 492.853 239.548 492.068 238.713C491.309 237.877 490.208 237.46 488.765 237.46C487.373 237.46 486.285 237.776 485.5 238.409C484.715 239.016 484.171 239.902 483.868 241.067L480.489 240.801C480.868 238.902 481.767 237.371 483.184 236.207C484.627 235.017 486.487 234.422 488.765 234.422C491.195 234.422 493.081 235.156 494.422 236.625C495.764 238.067 496.434 240.067 496.434 242.623V250.976C496.434 251.431 496.536 251.748 496.738 251.925C496.94 252.102 497.244 252.191 497.649 252.191H498.94V255C498.788 255.025 498.548 255.038 498.219 255.038C497.89 255.063 497.573 255.076 497.27 255.076C496.409 255.076 495.675 254.937 495.067 254.658C494.485 254.38 494.042 253.937 493.739 253.33C493.435 252.697 493.27 251.887 493.245 250.9H493.853C493.675 251.76 493.245 252.545 492.562 253.254C491.904 253.937 491.068 254.481 490.056 254.886C489.044 255.266 487.955 255.456 486.791 255.456ZM487.095 252.646C488.461 252.646 489.6 252.418 490.512 251.963C491.423 251.482 492.106 250.824 492.562 249.989C493.017 249.128 493.245 248.141 493.245 247.027V245.281L487.095 246.496C485.728 246.749 484.779 247.141 484.247 247.673C483.716 248.179 483.45 248.85 483.45 249.685C483.45 250.621 483.766 251.355 484.399 251.887C485.057 252.393 485.956 252.646 487.095 252.646ZM533.725 255.456C531.953 255.456 530.422 255.025 529.131 254.165C527.84 253.304 526.841 252.089 526.132 250.52C525.449 248.951 525.107 247.09 525.107 244.939C525.107 242.788 525.449 240.927 526.132 239.358C526.841 237.789 527.84 236.574 529.131 235.713C530.422 234.853 531.953 234.422 533.725 234.422C535.142 234.422 536.383 234.764 537.446 235.448C538.509 236.106 539.281 236.852 539.762 237.688V228.044H542.951V255H540.065L539.951 251.963C539.395 253.051 538.572 253.912 537.484 254.544C536.395 255.152 535.142 255.456 533.725 255.456ZM533.915 252.418C535.13 252.418 536.168 252.115 537.028 251.507C537.914 250.9 538.585 250.039 539.04 248.925C539.521 247.786 539.762 246.458 539.762 244.939C539.762 243.37 539.521 242.028 539.04 240.915C538.585 239.801 537.914 238.953 537.028 238.371C536.142 237.763 535.079 237.46 533.839 237.46C532.194 237.46 530.878 238.13 529.891 239.472C528.929 240.788 528.448 242.61 528.448 244.939C528.448 247.242 528.929 249.065 529.891 250.406C530.878 251.748 532.219 252.418 533.915 252.418ZM558.084 255.456C556.186 255.456 554.541 255.025 553.149 254.165C551.782 253.304 550.719 252.089 549.96 250.52C549.226 248.925 548.859 247.065 548.859 244.939C548.859 242.813 549.226 240.965 549.96 239.396C550.719 237.827 551.769 236.612 553.111 235.751C554.478 234.865 556.085 234.422 557.933 234.422C559.679 234.422 561.223 234.84 562.564 235.675C563.906 236.485 564.956 237.675 565.716 239.244C566.475 240.813 566.854 242.724 566.854 244.977V245.926H552.2C552.326 248.078 552.896 249.697 553.908 250.786C554.946 251.874 556.338 252.418 558.084 252.418C559.401 252.418 560.476 252.115 561.311 251.507C562.172 250.874 562.767 250.052 563.096 249.039L566.513 249.305C565.981 251.102 564.969 252.583 563.476 253.747C562.008 254.886 560.21 255.456 558.084 255.456ZM552.2 243.117H563.362C563.21 241.168 562.64 239.738 561.653 238.827C560.666 237.915 559.426 237.46 557.933 237.46C556.389 237.46 555.11 237.941 554.098 238.902C553.111 239.839 552.478 241.244 552.2 243.117ZM3.03727 307.695V281.878H5.99861L6.07454 286.434L5.61895 286.206C6.12516 284.637 6.96041 283.447 8.1247 282.637C9.3143 281.827 10.6811 281.422 12.225 281.422C14.2246 281.422 15.8571 281.916 17.1226 282.903C18.4135 283.89 19.3626 285.181 19.9701 286.776C20.5775 288.37 20.8812 290.091 20.8812 291.939C20.8812 293.787 20.5775 295.508 19.9701 297.102C19.3626 298.697 18.4135 299.988 17.1226 300.975C15.8571 301.962 14.2246 302.456 12.225 302.456C11.1873 302.456 10.2128 302.278 9.30164 301.924C8.41577 301.57 7.65645 301.076 7.02369 300.443C6.41624 299.811 5.99861 299.064 5.77082 298.203L6.22641 297.672V307.695H3.03727ZM11.9213 299.418C13.6677 299.418 15.0345 298.76 16.0216 297.444C17.034 296.128 17.5402 294.293 17.5402 291.939C17.5402 289.585 17.034 287.75 16.0216 286.434C15.0345 285.118 13.6677 284.46 11.9213 284.46C10.757 284.46 9.74458 284.738 8.88402 285.295C8.04877 285.852 7.39069 286.687 6.90979 287.801C6.4542 288.914 6.22641 290.294 6.22641 291.939C6.22641 293.584 6.4542 294.964 6.90979 296.077C7.36538 297.191 8.02346 298.026 8.88402 298.583C9.74458 299.14 10.757 299.418 11.9213 299.418ZM31.4969 302.456C30.2313 302.456 29.0924 302.228 28.0799 301.772C27.0675 301.317 26.2702 300.684 25.6881 299.874C25.1059 299.039 24.8149 298.077 24.8149 296.989C24.8149 295.267 25.3211 293.939 26.3335 293.002C27.3712 292.04 28.9911 291.344 31.1931 290.914L37.9511 289.547C37.9511 287.826 37.5587 286.548 36.7741 285.713C36.0148 284.877 34.9138 284.46 33.4711 284.46C32.079 284.46 30.9906 284.776 30.206 285.409C29.4214 286.016 28.8772 286.902 28.5735 288.067L25.1945 287.801C25.5742 285.902 26.4727 284.371 27.8901 283.207C29.3328 282.017 31.1931 281.422 33.4711 281.422C35.9009 281.422 37.7865 282.156 39.128 283.625C40.4695 285.067 41.1402 287.067 41.1402 289.623V297.976C41.1402 298.431 41.2414 298.748 41.4439 298.925C41.6464 299.102 41.9501 299.191 42.3551 299.191H43.6459V302C43.4941 302.025 43.2536 302.038 42.9246 302.038C42.5956 302.063 42.2792 302.076 41.9754 302.076C41.1149 302.076 40.3809 301.937 39.7734 301.658C39.1913 301.38 38.7483 300.937 38.4446 300.33C38.1409 299.697 37.9764 298.887 37.9511 297.9H38.5585C38.3813 298.76 37.9511 299.545 37.2677 300.254C36.6096 300.937 35.7743 301.481 34.7619 301.886C33.7495 302.266 32.6611 302.456 31.4969 302.456ZM31.8006 299.646C33.1674 299.646 34.3063 299.418 35.2175 298.963C36.1287 298.482 36.8121 297.824 37.2677 296.989C37.7233 296.128 37.9511 295.141 37.9511 294.027V292.281L31.8006 293.496C30.4338 293.749 29.4847 294.141 28.9531 294.673C28.4216 295.179 28.1559 295.85 28.1559 296.685C28.1559 297.621 28.4722 298.355 29.105 298.887C29.7631 299.393 30.6616 299.646 31.8006 299.646ZM56.8053 308.15C55.3626 308.15 54.0591 307.91 52.8948 307.429C51.7305 306.948 50.756 306.265 49.9714 305.379C49.1868 304.493 48.6553 303.468 48.3768 302.304L51.7178 302.076C52.0216 303.012 52.5531 303.746 53.3124 304.278C54.097 304.835 55.2613 305.113 56.8053 305.113C58.6276 305.113 60.0197 304.746 60.9815 304.012C61.9686 303.278 62.4622 302.177 62.4622 300.709V297.444C61.9813 298.507 61.2093 299.355 60.1463 299.988C59.0832 300.621 57.8936 300.937 56.5775 300.937C54.8817 300.937 53.363 300.519 52.0216 299.684C50.7054 298.849 49.6677 297.697 48.9084 296.229C48.1744 294.761 47.8074 293.078 47.8074 291.18C47.8074 289.256 48.1744 287.573 48.9084 286.13C49.6424 284.662 50.6548 283.511 51.9456 282.675C53.2618 281.84 54.7551 281.422 56.4256 281.422C57.843 281.422 59.1085 281.752 60.2222 282.41C61.3612 283.068 62.1585 283.954 62.6141 285.067V281.878H65.6513V300.633C65.6513 302.202 65.297 303.544 64.5883 304.658C63.8796 305.797 62.8672 306.657 61.551 307.239C60.2349 307.847 58.653 308.15 56.8053 308.15ZM56.7293 297.9C58.4505 297.9 59.8299 297.305 60.8676 296.115C61.9054 294.9 62.4369 293.255 62.4622 291.18C62.4875 289.788 62.2597 288.598 61.7788 287.611C61.3232 286.599 60.6525 285.827 59.7666 285.295C58.9061 284.738 57.8936 284.46 56.7293 284.46C54.9576 284.46 53.5782 285.067 52.5911 286.282C51.6293 287.472 51.1484 289.104 51.1484 291.18C51.1484 293.255 51.6419 294.9 52.629 296.115C53.6415 297.305 55.0082 297.9 56.7293 297.9ZM77.0263 302.456C75.7607 302.456 74.6218 302.228 73.6093 301.772C72.5969 301.317 71.7996 300.684 71.2175 299.874C70.6353 299.039 70.3443 298.077 70.3443 296.989C70.3443 295.267 70.8505 293.939 71.8629 293.002C72.9006 292.04 74.5205 291.344 76.7225 290.914L83.4805 289.547C83.4805 287.826 83.0882 286.548 82.3035 285.713C81.5442 284.877 80.4432 284.46 79.0005 284.46C77.6084 284.46 76.5201 284.776 75.7354 285.409C74.9508 286.016 74.4066 286.902 74.1029 288.067L70.7239 287.801C71.1036 285.902 72.0021 284.371 73.4195 283.207C74.8622 282.017 76.7225 281.422 79.0005 281.422C81.4303 281.422 83.316 282.156 84.6574 283.625C85.9989 285.067 86.6696 287.067 86.6696 289.623V297.976C86.6696 298.431 86.7708 298.748 86.9733 298.925C87.1758 299.102 87.4795 299.191 87.8845 299.191H89.1754V302C89.0235 302.025 88.783 302.038 88.454 302.038C88.125 302.063 87.8086 302.076 87.5049 302.076C86.6443 302.076 85.9103 301.937 85.3028 301.658C84.7207 301.38 84.2778 300.937 83.974 300.33C83.6703 299.697 83.5058 298.887 83.4805 297.9H84.0879C83.9107 298.76 83.4805 299.545 82.7971 300.254C82.139 300.937 81.3038 301.481 80.2913 301.886C79.2789 302.266 78.1906 302.456 77.0263 302.456ZM77.33 299.646C78.6968 299.646 79.8357 299.418 80.7469 298.963C81.6581 298.482 82.3415 297.824 82.7971 296.989C83.2527 296.128 83.4805 295.141 83.4805 294.027V292.281L77.33 293.496C75.9632 293.749 75.0141 294.141 74.4826 294.673C73.951 295.179 73.6853 295.85 73.6853 296.685C73.6853 297.621 74.0017 298.355 74.6344 298.887C75.2925 299.393 76.191 299.646 77.33 299.646ZM92.5775 302V281.878H95.5008L95.6147 286.358L95.2351 286.282C95.4629 284.789 95.9438 283.612 96.6778 282.751C97.4371 281.865 98.3989 281.422 99.5632 281.422C100.753 281.422 101.664 281.853 102.297 282.713C102.955 283.574 103.36 284.839 103.512 286.51H103.132C103.36 284.941 103.866 283.7 104.651 282.789C105.461 281.878 106.473 281.422 107.688 281.422C109.308 281.422 110.485 281.979 111.219 283.093C111.953 284.207 112.32 286.054 112.32 288.636V302H109.131V289.092C109.131 287.295 108.941 286.042 108.561 285.333C108.181 284.599 107.587 284.232 106.777 284.232C106.245 284.232 105.777 284.409 105.372 284.763C104.967 285.093 104.638 285.624 104.385 286.358C104.157 287.092 104.043 288.029 104.043 289.168V302H100.854V289.092C100.854 287.37 100.664 286.13 100.285 285.371C99.9302 284.612 99.3354 284.232 98.5001 284.232C97.9686 284.232 97.5004 284.409 97.0954 284.763C96.6904 285.093 96.3614 285.624 96.1083 286.358C95.8805 287.092 95.7666 288.029 95.7666 289.168V302H92.5775ZM125.555 302.456C123.657 302.456 122.011 302.025 120.619 301.165C119.253 300.304 118.19 299.089 117.43 297.52C116.696 295.925 116.329 294.065 116.329 291.939C116.329 289.813 116.696 287.965 117.43 286.396C118.19 284.827 119.24 283.612 120.581 282.751C121.948 281.865 123.555 281.422 125.403 281.422C127.15 281.422 128.693 281.84 130.035 282.675C131.376 283.485 132.427 284.675 133.186 286.244C133.945 287.813 134.325 289.724 134.325 291.977V292.926H119.67C119.797 295.078 120.366 296.697 121.379 297.786C122.416 298.874 123.809 299.418 125.555 299.418C126.871 299.418 127.947 299.115 128.782 298.507C129.643 297.874 130.237 297.052 130.566 296.039L133.983 296.305C133.452 298.102 132.439 299.583 130.946 300.747C129.478 301.886 127.681 302.456 125.555 302.456ZM119.67 290.117H130.832C130.68 288.168 130.111 286.738 129.124 285.827C128.137 284.915 126.896 284.46 125.403 284.46C123.859 284.46 122.581 284.941 121.569 285.902C120.581 286.839 119.949 288.244 119.67 290.117ZM139.777 302V281.878H142.701L142.815 287.003L142.435 286.662C142.688 285.472 143.144 284.498 143.802 283.738C144.485 282.954 145.295 282.372 146.232 281.992C147.168 281.612 148.155 281.422 149.193 281.422C150.737 281.422 152.015 281.764 153.027 282.448C154.065 283.131 154.85 284.055 155.381 285.219C155.913 286.358 156.179 287.636 156.179 289.054V302H152.989V289.965C152.989 288.092 152.622 286.674 151.888 285.713C151.154 284.726 150.028 284.232 148.51 284.232C147.472 284.232 146.535 284.46 145.7 284.915C144.865 285.346 144.194 285.991 143.688 286.852C143.207 287.687 142.966 288.725 142.966 289.965V302H139.777ZM173.704 302C171.755 302 170.3 301.544 169.338 300.633C168.376 299.722 167.895 298.33 167.895 296.457V277.17H171.084V296.457C171.084 297.393 171.3 298.09 171.73 298.545C172.16 298.975 172.818 299.191 173.704 299.191H179.095V302H173.704ZM161.251 284.688V281.878H179.095V284.688H161.251ZM193.507 302.456C191.66 302.456 190.04 302.025 188.648 301.165C187.281 300.304 186.218 299.089 185.459 297.52C184.699 295.925 184.32 294.065 184.32 291.939C184.32 289.788 184.699 287.927 185.459 286.358C186.218 284.789 187.281 283.574 188.648 282.713C190.04 281.853 191.66 281.422 193.507 281.422C195.355 281.422 196.962 281.853 198.329 282.713C199.721 283.574 200.797 284.789 201.556 286.358C202.315 287.927 202.695 289.788 202.695 291.939C202.695 294.065 202.315 295.925 201.556 297.52C200.797 299.089 199.721 300.304 198.329 301.165C196.962 302.025 195.355 302.456 193.507 302.456ZM193.507 299.418C195.355 299.418 196.785 298.76 197.798 297.444C198.835 296.103 199.354 294.268 199.354 291.939C199.354 289.61 198.835 287.788 197.798 286.472C196.785 285.13 195.355 284.46 193.507 284.46C191.66 284.46 190.217 285.13 189.179 286.472C188.167 287.788 187.661 289.61 187.661 291.939C187.661 294.268 188.167 296.103 189.179 297.444C190.217 298.76 191.66 299.418 193.507 299.418ZM214.26 307.923L216.044 302H213.994V297.368H218.55V301.468L216.158 307.923H214.26ZM253.449 307.695V281.878H256.41L256.486 286.434L256.031 286.206C256.537 284.637 257.372 283.447 258.536 282.637C259.726 281.827 261.093 281.422 262.637 281.422C264.636 281.422 266.269 281.916 267.534 282.903C268.825 283.89 269.774 285.181 270.382 286.776C270.989 288.37 271.293 290.091 271.293 291.939C271.293 293.787 270.989 295.508 270.382 297.102C269.774 298.697 268.825 299.988 267.534 300.975C266.269 301.962 264.636 302.456 262.637 302.456C261.599 302.456 260.625 302.278 259.713 301.924C258.828 301.57 258.068 301.076 257.435 300.443C256.828 299.811 256.41 299.064 256.183 298.203L256.638 297.672V307.695H253.449ZM262.333 299.418C264.079 299.418 265.446 298.76 266.433 297.444C267.446 296.128 267.952 294.293 267.952 291.939C267.952 289.585 267.446 287.75 266.433 286.434C265.446 285.118 264.079 284.46 262.333 284.46C261.169 284.46 260.156 284.738 259.296 285.295C258.461 285.852 257.802 286.687 257.322 287.801C256.866 288.914 256.638 290.294 256.638 291.939C256.638 293.584 256.866 294.964 257.322 296.077C257.777 297.191 258.435 298.026 259.296 298.583C260.156 299.14 261.169 299.418 262.333 299.418ZM281.833 302V281.878H284.49L284.794 286.966L284.49 286.89C284.743 285.168 285.288 283.903 286.123 283.093C286.983 282.283 288.122 281.878 289.54 281.878H293.678V284.763H289.578C288.591 284.763 287.755 284.966 287.072 285.371C286.414 285.751 285.908 286.32 285.553 287.079C285.199 287.813 285.022 288.737 285.022 289.851V302H281.833ZM276.593 302V299.191H291.4V302H276.593ZM276.593 284.688V281.878H283.579V284.688H276.593ZM304.673 302.456C303.408 302.456 302.269 302.228 301.256 301.772C300.244 301.317 299.447 300.684 298.865 299.874C298.282 299.039 297.991 298.077 297.991 296.989C297.991 295.267 298.498 293.939 299.51 293.002C300.548 292.04 302.168 291.344 304.37 290.914L311.128 289.547C311.128 287.826 310.735 286.548 309.951 285.713C309.191 284.877 308.09 284.46 306.648 284.46C305.255 284.46 304.167 284.776 303.382 285.409C302.598 286.016 302.054 286.902 301.75 288.067L298.371 287.801C298.751 285.902 299.649 284.371 301.067 283.207C302.509 282.017 304.37 281.422 306.648 281.422C309.077 281.422 310.963 282.156 312.304 283.625C313.646 285.067 314.317 287.067 314.317 289.623V297.976C314.317 298.431 314.418 298.748 314.62 298.925C314.823 299.102 315.127 299.191 315.532 299.191H316.822V302C316.671 302.025 316.43 302.038 316.101 302.038C315.772 302.063 315.456 302.076 315.152 302.076C314.291 302.076 313.557 301.937 312.95 301.658C312.368 301.38 311.925 300.937 311.621 300.33C311.317 299.697 311.153 298.887 311.128 297.9H311.735C311.558 298.76 311.128 299.545 310.444 300.254C309.786 300.937 308.951 301.481 307.938 301.886C306.926 302.266 305.838 302.456 304.673 302.456ZM304.977 299.646C306.344 299.646 307.483 299.418 308.394 298.963C309.305 298.482 309.989 297.824 310.444 296.989C310.9 296.128 311.128 295.141 311.128 294.027V292.281L304.977 293.496C303.61 293.749 302.661 294.141 302.13 294.673C301.598 295.179 301.332 295.85 301.332 296.685C301.332 297.621 301.649 298.355 302.281 298.887C302.94 299.393 303.838 299.646 304.977 299.646ZM321.819 302V298.811L334.576 284.688H322.199V281.878H338.068V285.067L325.312 299.191H338.372V302H321.819ZM352.86 302.456C351.013 302.456 349.393 302.025 348.001 301.165C346.634 300.304 345.571 299.089 344.812 297.52C344.052 295.925 343.673 294.065 343.673 291.939C343.673 289.788 344.052 287.927 344.812 286.358C345.571 284.789 346.634 283.574 348.001 282.713C349.393 281.853 351.013 281.422 352.86 281.422C354.708 281.422 356.315 281.853 357.682 282.713C359.074 283.574 360.15 284.789 360.909 286.358C361.668 287.927 362.048 289.788 362.048 291.939C362.048 294.065 361.668 295.925 360.909 297.52C360.15 299.089 359.074 300.304 357.682 301.165C356.315 302.025 354.708 302.456 352.86 302.456ZM352.86 299.418C354.708 299.418 356.138 298.76 357.15 297.444C358.188 296.103 358.707 294.268 358.707 291.939C358.707 289.61 358.188 287.788 357.15 286.472C356.138 285.13 354.708 284.46 352.86 284.46C351.013 284.46 349.57 285.13 348.532 286.472C347.52 287.788 347.014 289.61 347.014 291.939C347.014 294.268 347.52 296.103 348.532 297.444C349.57 298.76 351.013 299.418 352.86 299.418ZM397.137 302.456C395.365 302.456 393.834 302.025 392.543 301.165C391.252 300.304 390.252 299.089 389.544 297.52C388.86 295.951 388.519 294.09 388.519 291.939C388.519 289.788 388.86 287.927 389.544 286.358C390.252 284.789 391.252 283.574 392.543 282.713C393.834 281.853 395.365 281.422 397.137 281.422C398.554 281.422 399.794 281.764 400.858 282.448C401.921 283.106 402.693 283.852 403.173 284.688V275.044H406.363V302H403.477L403.363 298.963C402.806 300.051 401.984 300.912 400.895 301.544C399.807 302.152 398.554 302.456 397.137 302.456ZM397.327 299.418C398.542 299.418 399.579 299.115 400.44 298.507C401.326 297.9 401.996 297.039 402.452 295.925C402.933 294.786 403.173 293.458 403.173 291.939C403.173 290.37 402.933 289.028 402.452 287.915C401.996 286.801 401.326 285.953 400.44 285.371C399.554 284.763 398.491 284.46 397.251 284.46C395.606 284.46 394.289 285.13 393.302 286.472C392.341 287.788 391.86 289.61 391.86 291.939C391.86 294.242 392.341 296.065 393.302 297.406C394.289 298.748 395.631 299.418 397.327 299.418ZM421.496 302.456C419.598 302.456 417.953 302.025 416.561 301.165C415.194 300.304 414.131 299.089 413.371 297.52C412.637 295.925 412.27 294.065 412.27 291.939C412.27 289.813 412.637 287.965 413.371 286.396C414.131 284.827 415.181 283.612 416.523 282.751C417.889 281.865 419.497 281.422 421.344 281.422C423.091 281.422 424.635 281.84 425.976 282.675C427.318 283.485 428.368 284.675 429.127 286.244C429.887 287.813 430.266 289.724 430.266 291.977V292.926H415.611C415.738 295.078 416.307 296.697 417.32 297.786C418.358 298.874 419.75 299.418 421.496 299.418C422.812 299.418 423.888 299.115 424.723 298.507C425.584 297.874 426.179 297.052 426.508 296.039L429.925 296.305C429.393 298.102 428.381 299.583 426.887 300.747C425.419 301.886 423.622 302.456 421.496 302.456ZM415.611 290.117H426.773C426.622 288.168 426.052 286.738 425.065 285.827C424.078 284.915 422.838 284.46 421.344 284.46C419.8 284.46 418.522 284.941 417.51 285.902C416.523 286.839 415.89 288.244 415.611 290.117ZM466.418 302V281.878H469.607V302H466.418ZM458.331 302V299.191H476.555V302H458.331ZM458.711 284.688V281.878H469.607V284.688H458.711ZM466.114 278.727V275.006H469.455V278.727H466.114ZM481.248 302V281.878H484.171L484.285 287.003L483.906 286.662C484.159 285.472 484.614 284.498 485.272 283.738C485.956 282.954 486.766 282.372 487.702 281.992C488.639 281.612 489.626 281.422 490.663 281.422C492.207 281.422 493.486 281.764 494.498 282.448C495.536 283.131 496.32 284.055 496.852 285.219C497.383 286.358 497.649 287.636 497.649 289.054V302H494.46V289.965C494.46 288.092 494.093 286.674 493.359 285.713C492.625 284.726 491.499 284.232 489.98 284.232C488.942 284.232 488.006 284.46 487.171 284.915C486.335 285.346 485.665 285.991 485.158 286.852C484.677 287.687 484.437 288.725 484.437 289.965V302H481.248ZM511.947 302V281.878H515.137V302H511.947ZM503.861 302V299.191H522.084V302H503.861ZM504.24 284.688V281.878H515.137V284.688H504.24ZM511.91 279.22L514.415 274.361H517.984L514.567 279.22H511.91ZM535.509 302.456C533.637 302.456 532.004 302.025 530.612 301.165C529.22 300.304 528.144 299.089 527.385 297.52C526.625 295.925 526.246 294.065 526.246 291.939C526.246 289.813 526.625 287.965 527.385 286.396C528.144 284.827 529.22 283.612 530.612 282.751C532.004 281.865 533.637 281.422 535.509 281.422C537.003 281.422 538.332 281.701 539.496 282.258C540.66 282.789 541.622 283.574 542.381 284.612C543.141 285.649 543.659 286.915 543.938 288.408L540.597 288.636C540.293 287.295 539.686 286.269 538.775 285.561C537.889 284.827 536.8 284.46 535.509 284.46C533.662 284.46 532.206 285.13 531.143 286.472C530.106 287.788 529.587 289.61 529.587 291.939C529.587 294.268 530.106 296.103 531.143 297.444C532.206 298.76 533.662 299.418 535.509 299.418C536.8 299.418 537.914 299.039 538.85 298.279C539.812 297.52 540.445 296.381 540.749 294.862L544.09 295.09C543.811 296.584 543.28 297.887 542.495 299.001C541.711 300.089 540.723 300.937 539.534 301.544C538.344 302.152 537.003 302.456 535.509 302.456ZM557.477 302V281.878H560.666V302H557.477ZM549.39 302V299.191H567.614V302H549.39ZM549.77 284.688V281.878H560.666V284.688H549.77ZM557.173 278.727V275.006H560.514V278.727H557.173ZM580.507 302.456C578.66 302.456 577.04 302.025 575.648 301.165C574.281 300.304 573.218 299.089 572.459 297.52C571.699 295.925 571.32 294.065 571.32 291.939C571.32 289.788 571.699 287.927 572.459 286.358C573.218 284.789 574.281 283.574 575.648 282.713C577.04 281.853 578.66 281.422 580.507 281.422C582.355 281.422 583.962 281.853 585.329 282.713C586.721 283.574 587.797 284.789 588.556 286.358C589.315 287.927 589.695 289.788 589.695 291.939C589.695 294.065 589.315 295.925 588.556 297.52C587.797 299.089 586.721 300.304 585.329 301.165C583.962 302.025 582.355 302.456 580.507 302.456ZM580.507 299.418C582.355 299.418 583.785 298.76 584.798 297.444C585.835 296.103 586.354 294.268 586.354 291.939C586.354 289.61 585.835 287.788 584.798 286.472C583.785 285.13 582.355 284.46 580.507 284.46C578.66 284.46 577.217 285.13 576.179 286.472C575.167 287.788 574.661 289.61 574.661 291.939C574.661 294.268 575.167 296.103 576.179 297.444C577.217 298.76 578.66 299.418 580.507 299.418ZM11.7315 349.456C9.83317 349.456 8.18798 349.025 6.79589 348.165C5.42912 347.304 4.36608 346.089 3.60676 344.52C2.87275 342.925 2.50575 341.065 2.50575 338.939C2.50575 336.813 2.87275 334.965 3.60676 333.396C4.36608 331.827 5.41647 330.612 6.75793 329.751C8.1247 328.865 9.73192 328.422 11.5796 328.422C13.326 328.422 14.87 328.84 16.2114 329.675C17.5529 330.485 18.6033 331.675 19.3626 333.244C20.1219 334.813 20.5016 336.724 20.5016 338.977V339.926H5.84675C5.9733 342.078 6.54279 343.697 7.55521 344.786C8.59295 345.874 9.98503 346.418 11.7315 346.418C13.0476 346.418 14.1233 346.115 14.9586 345.507C15.8191 344.874 16.4139 344.052 16.743 343.039L20.1599 343.305C19.6284 345.102 18.6159 346.583 17.1226 347.747C15.6546 348.886 13.8575 349.456 11.7315 349.456ZM5.84675 337.117H17.0087C16.8569 335.168 16.2874 333.738 15.3003 332.827C14.3131 331.915 13.0729 331.46 11.5796 331.46C10.0357 331.46 8.75747 331.941 7.74504 332.902C6.75793 333.839 6.12516 335.244 5.84675 337.117ZM56.8053 355.15C55.3626 355.15 54.0591 354.91 52.8948 354.429C51.7305 353.948 50.756 353.265 49.9714 352.379C49.1868 351.493 48.6553 350.468 48.3768 349.304L51.7178 349.076C52.0216 350.012 52.5531 350.746 53.3124 351.278C54.097 351.835 55.2613 352.113 56.8053 352.113C58.6276 352.113 60.0197 351.746 60.9815 351.012C61.9686 350.278 62.4622 349.177 62.4622 347.709V344.444C61.9813 345.507 61.2093 346.355 60.1463 346.988C59.0832 347.621 57.8936 347.937 56.5775 347.937C54.8817 347.937 53.363 347.519 52.0216 346.684C50.7054 345.849 49.6677 344.697 48.9084 343.229C48.1744 341.761 47.8074 340.078 47.8074 338.18C47.8074 336.256 48.1744 334.573 48.9084 333.13C49.6424 331.662 50.6548 330.511 51.9456 329.675C53.2618 328.84 54.7551 328.422 56.4256 328.422C57.843 328.422 59.1085 328.752 60.2222 329.41C61.3612 330.068 62.1585 330.954 62.6141 332.067V328.878H65.6513V347.633C65.6513 349.202 65.297 350.544 64.5883 351.658C63.8796 352.797 62.8672 353.657 61.551 354.239C60.2349 354.847 58.653 355.15 56.8053 355.15ZM56.7293 344.9C58.4505 344.9 59.8299 344.305 60.8676 343.115C61.9054 341.9 62.4369 340.255 62.4622 338.18C62.4875 336.788 62.2597 335.598 61.7788 334.611C61.3232 333.599 60.6525 332.827 59.7666 332.295C58.9061 331.738 57.8936 331.46 56.7293 331.46C54.9576 331.46 53.5782 332.067 52.5911 333.282C51.6293 334.472 51.1484 336.104 51.1484 338.18C51.1484 340.255 51.6419 341.9 52.629 343.115C53.6415 344.305 55.0082 344.9 56.7293 344.9ZM77.0263 349.456C75.7607 349.456 74.6218 349.228 73.6093 348.772C72.5969 348.317 71.7996 347.684 71.2175 346.874C70.6353 346.039 70.3443 345.077 70.3443 343.989C70.3443 342.267 70.8505 340.939 71.8629 340.002C72.9006 339.04 74.5205 338.344 76.7225 337.914L83.4805 336.547C83.4805 334.826 83.0882 333.548 82.3035 332.713C81.5442 331.877 80.4432 331.46 79.0005 331.46C77.6084 331.46 76.5201 331.776 75.7354 332.409C74.9508 333.016 74.4066 333.902 74.1029 335.067L70.7239 334.801C71.1036 332.902 72.0021 331.371 73.4195 330.207C74.8622 329.017 76.7225 328.422 79.0005 328.422C81.4303 328.422 83.316 329.156 84.6574 330.625C85.9989 332.067 86.6696 334.067 86.6696 336.623V344.976C86.6696 345.431 86.7708 345.748 86.9733 345.925C87.1758 346.102 87.4795 346.191 87.8845 346.191H89.1754V349C89.0235 349.025 88.783 349.038 88.454 349.038C88.125 349.063 87.8086 349.076 87.5049 349.076C86.6443 349.076 85.9103 348.937 85.3028 348.658C84.7207 348.38 84.2778 347.937 83.974 347.33C83.6703 346.697 83.5058 345.887 83.4805 344.9H84.0879C83.9107 345.76 83.4805 346.545 82.7971 347.254C82.139 347.937 81.3038 348.481 80.2913 348.886C79.2789 349.266 78.1906 349.456 77.0263 349.456ZM77.33 346.646C78.6968 346.646 79.8357 346.418 80.7469 345.963C81.6581 345.482 82.3415 344.824 82.7971 343.989C83.2527 343.128 83.4805 342.141 83.4805 341.027V339.281L77.33 340.496C75.9632 340.749 75.0141 341.141 74.4826 341.673C73.951 342.179 73.6853 342.85 73.6853 343.685C73.6853 344.621 74.0017 345.355 74.6344 345.887C75.2925 346.393 76.191 346.646 77.33 346.646ZM99.715 349V328.878H102.373L102.676 333.966L102.373 333.89C102.626 332.168 103.17 330.903 104.005 330.093C104.866 329.283 106.005 328.878 107.422 328.878H111.56V331.763H107.46C106.473 331.763 105.638 331.966 104.954 332.371C104.296 332.751 103.79 333.32 103.436 334.079C103.081 334.813 102.904 335.737 102.904 336.851V349H99.715ZM94.4757 349V346.191H109.282V349H94.4757ZM94.4757 331.688V328.878H101.461V331.688H94.4757ZM122.556 349.456C121.29 349.456 120.151 349.228 119.139 348.772C118.126 348.317 117.329 347.684 116.747 346.874C116.165 346.039 115.874 345.077 115.874 343.989C115.874 342.267 116.38 340.939 117.392 340.002C118.43 339.04 120.05 338.344 122.252 337.914L129.01 336.547C129.01 334.826 128.618 333.548 127.833 332.713C127.074 331.877 125.973 331.46 124.53 331.46C123.138 331.46 122.049 331.776 121.265 332.409C120.48 333.016 119.936 333.902 119.632 335.067L116.253 334.801C116.633 332.902 117.532 331.371 118.949 330.207C120.392 329.017 122.252 328.422 124.53 328.422C126.96 328.422 128.845 329.156 130.187 330.625C131.528 332.067 132.199 334.067 132.199 336.623V344.976C132.199 345.431 132.3 345.748 132.503 345.925C132.705 346.102 133.009 346.191 133.414 346.191H134.705V349C134.553 349.025 134.312 349.038 133.983 349.038C133.654 349.063 133.338 349.076 133.034 349.076C132.174 349.076 131.44 348.937 130.832 348.658C130.25 348.38 129.807 347.937 129.503 347.33C129.2 346.697 129.035 345.887 129.01 344.9H129.617C129.44 345.76 129.01 346.545 128.326 347.254C127.668 347.937 126.833 348.481 125.821 348.886C124.808 349.266 123.72 349.456 122.556 349.456ZM122.859 346.646C124.226 346.646 125.365 346.418 126.276 345.963C127.188 345.482 127.871 344.824 128.326 343.989C128.782 343.128 129.01 342.141 129.01 341.027V339.281L122.859 340.496C121.493 340.749 120.543 341.141 120.012 341.673C119.48 342.179 119.215 342.85 119.215 343.685C119.215 344.621 119.531 345.355 120.164 345.887C120.822 346.393 121.72 346.646 122.859 346.646ZM139.777 349V328.878H142.701L142.815 334.003L142.435 333.662C142.688 332.472 143.144 331.498 143.802 330.738C144.485 329.954 145.295 329.372 146.232 328.992C147.168 328.612 148.155 328.422 149.193 328.422C150.737 328.422 152.015 328.764 153.027 329.448C154.065 330.131 154.85 331.055 155.381 332.219C155.913 333.358 156.179 334.636 156.179 336.054V349H152.989V336.965C152.989 335.092 152.622 333.674 151.888 332.713C151.154 331.726 150.028 331.232 148.51 331.232C147.472 331.232 146.535 331.46 145.7 331.915C144.865 332.346 144.194 332.991 143.688 333.852C143.207 334.687 142.966 335.725 142.966 336.965V349H139.777ZM173.704 349C171.755 349 170.3 348.544 169.338 347.633C168.376 346.722 167.895 345.33 167.895 343.457V324.17H171.084V343.457C171.084 344.393 171.3 345.09 171.73 345.545C172.16 345.975 172.818 346.191 173.704 346.191H179.095V349H173.704ZM161.251 331.688V328.878H179.095V331.688H161.251ZM193.242 349V328.878H196.431V349H193.242ZM185.155 349V346.191H203.379V349H185.155ZM185.535 331.688V328.878H196.431V331.688H185.535ZM192.938 325.727V322.006H196.279V325.727H192.938ZM213.614 349.456C212.349 349.456 211.21 349.228 210.198 348.772C209.185 348.317 208.388 347.684 207.806 346.874C207.224 346.039 206.932 345.077 206.932 343.989C206.932 342.267 207.439 340.939 208.451 340.002C209.489 339.04 211.109 338.344 213.311 337.914L220.069 336.547C220.069 334.826 219.676 333.548 218.892 332.713C218.132 331.877 217.031 331.46 215.589 331.46C214.197 331.46 213.108 331.776 212.324 332.409C211.539 333.016 210.995 333.902 210.691 335.067L207.312 334.801C207.692 332.902 208.59 331.371 210.008 330.207C211.45 329.017 213.311 328.422 215.589 328.422C218.019 328.422 219.904 329.156 221.246 330.625C222.587 332.067 223.258 334.067 223.258 336.623V344.976C223.258 345.431 223.359 345.748 223.562 345.925C223.764 346.102 224.068 346.191 224.473 346.191H225.764V349C225.612 349.025 225.371 349.038 225.042 349.038C224.713 349.063 224.397 349.076 224.093 349.076C223.233 349.076 222.499 348.937 221.891 348.658C221.309 348.38 220.866 347.937 220.562 347.33C220.259 346.697 220.094 345.887 220.069 344.9H220.676C220.499 345.76 220.069 346.545 219.385 347.254C218.727 347.937 217.892 348.481 216.88 348.886C215.867 349.266 214.779 349.456 213.614 349.456ZM213.918 346.646C215.285 346.646 216.424 346.418 217.335 345.963C218.246 345.482 218.93 344.824 219.385 343.989C219.841 343.128 220.069 342.141 220.069 341.027V339.281L213.918 340.496C212.551 340.749 211.602 341.141 211.071 341.673C210.539 342.179 210.273 342.85 210.273 343.685C210.273 344.621 210.59 345.355 211.223 345.887C211.881 346.393 212.779 346.646 213.918 346.646ZM239.416 349.456C237.67 349.456 236.164 349.152 234.899 348.544C233.633 347.937 232.633 347.127 231.899 346.115C231.191 345.077 230.786 343.925 230.684 342.66L234.025 342.432C234.228 343.672 234.772 344.647 235.658 345.355C236.569 346.064 237.822 346.418 239.416 346.418C240.91 346.418 242.061 346.203 242.871 345.773C243.707 345.343 244.124 344.672 244.124 343.761C244.124 343.179 243.985 342.698 243.707 342.318C243.428 341.938 242.909 341.622 242.15 341.369C241.391 341.09 240.277 340.825 238.809 340.572C236.86 340.217 235.329 339.787 234.215 339.281C233.127 338.749 232.355 338.091 231.899 337.307C231.444 336.522 231.216 335.585 231.216 334.497C231.216 333.333 231.507 332.295 232.089 331.384C232.671 330.473 233.532 329.751 234.671 329.22C235.81 328.688 237.202 328.422 238.847 328.422C240.517 328.422 241.91 328.726 243.023 329.334C244.162 329.916 245.061 330.7 245.719 331.688C246.377 332.649 246.807 333.712 247.01 334.877L243.669 335.104C243.517 334.396 243.226 333.776 242.795 333.244C242.39 332.687 241.846 332.257 241.163 331.953C240.505 331.624 239.72 331.46 238.809 331.46C237.341 331.46 236.253 331.751 235.544 332.333C234.835 332.915 234.481 333.636 234.481 334.497C234.481 335.18 234.645 335.725 234.974 336.13C235.303 336.535 235.835 336.864 236.569 337.117C237.303 337.344 238.277 337.56 239.492 337.762C241.568 338.091 243.175 338.521 244.314 339.053C245.453 339.559 246.25 340.192 246.706 340.951C247.162 341.711 247.389 342.647 247.389 343.761C247.389 344.95 247.035 345.975 246.326 346.836C245.643 347.671 244.694 348.317 243.479 348.772C242.289 349.228 240.935 349.456 239.416 349.456ZM284.566 349.456C282.719 349.456 281.099 349.025 279.707 348.165C278.34 347.304 277.277 346.089 276.517 344.52C275.758 342.925 275.378 341.065 275.378 338.939C275.378 336.788 275.758 334.927 276.517 333.358C277.277 331.789 278.34 330.574 279.707 329.713C281.099 328.853 282.719 328.422 284.566 328.422C286.414 328.422 288.021 328.853 289.388 329.713C290.78 330.574 291.856 331.789 292.615 333.358C293.374 334.927 293.754 336.788 293.754 338.939C293.754 341.065 293.374 342.925 292.615 344.52C291.856 346.089 290.78 347.304 289.388 348.165C288.021 349.025 286.414 349.456 284.566 349.456ZM284.566 346.418C286.414 346.418 287.844 345.76 288.856 344.444C289.894 343.103 290.413 341.268 290.413 338.939C290.413 336.61 289.894 334.788 288.856 333.472C287.844 332.13 286.414 331.46 284.566 331.46C282.719 331.46 281.276 332.13 280.238 333.472C279.226 334.788 278.719 336.61 278.719 338.939C278.719 341.268 279.226 343.103 280.238 344.444C281.276 345.76 282.719 346.418 284.566 346.418ZM303.99 349V327.587C303.99 325.79 304.446 324.423 305.357 323.487C306.293 322.525 307.711 322.044 309.609 322.044H316.063V324.854H309.609C308.824 324.854 308.217 325.107 307.787 325.613C307.382 326.094 307.179 326.752 307.179 327.587V349H303.99ZM298.599 331.688V328.878H315.683V331.688H298.599ZM330.437 349.456C328.539 349.456 326.894 349.025 325.502 348.165C324.135 347.304 323.072 346.089 322.313 344.52C321.579 342.925 321.212 341.065 321.212 338.939C321.212 336.813 321.579 334.965 322.313 333.396C323.072 331.827 324.122 330.612 325.464 329.751C326.831 328.865 328.438 328.422 330.285 328.422C332.032 328.422 333.576 328.84 334.917 329.675C336.259 330.485 337.309 331.675 338.068 333.244C338.828 334.813 339.207 336.724 339.207 338.977V339.926H324.553C324.679 342.078 325.249 343.697 326.261 344.786C327.299 345.874 328.691 346.418 330.437 346.418C331.753 346.418 332.829 346.115 333.664 345.507C334.525 344.874 335.12 344.052 335.449 343.039L338.866 343.305C338.334 345.102 337.322 346.583 335.828 347.747C334.36 348.886 332.563 349.456 330.437 349.456ZM324.553 337.117H335.715C335.563 335.168 334.993 333.738 334.006 332.827C333.019 331.915 331.779 331.46 330.285 331.46C328.741 331.46 327.463 331.941 326.451 332.902C325.464 333.839 324.831 335.244 324.553 337.117ZM350.127 349V328.878H352.784L353.088 333.966L352.784 333.89C353.037 332.168 353.582 330.903 354.417 330.093C355.277 329.283 356.416 328.878 357.834 328.878H361.972V331.763H357.872C356.885 331.763 356.049 331.966 355.366 332.371C354.708 332.751 354.202 333.32 353.847 334.079C353.493 334.813 353.316 335.737 353.316 336.851V349H350.127ZM344.887 349V346.191H359.694V349H344.887ZM344.887 331.688V328.878H351.873V331.688H344.887ZM375.967 349.456C374.068 349.456 372.423 349.025 371.031 348.165C369.664 347.304 368.601 346.089 367.842 344.52C367.108 342.925 366.741 341.065 366.741 338.939C366.741 336.813 367.108 334.965 367.842 333.396C368.601 331.827 369.652 330.612 370.993 329.751C372.36 328.865 373.967 328.422 375.815 328.422C377.561 328.422 379.105 328.84 380.447 329.675C381.788 330.485 382.839 331.675 383.598 333.244C384.357 334.813 384.737 336.724 384.737 338.977V339.926H370.082C370.209 342.078 370.778 343.697 371.79 344.786C372.828 345.874 374.22 346.418 375.967 346.418C377.283 346.418 378.359 346.115 379.194 345.507C380.054 344.874 380.649 344.052 380.978 343.039L384.395 343.305C383.864 345.102 382.851 346.583 381.358 347.747C379.89 348.886 378.093 349.456 375.967 349.456ZM370.082 337.117H381.244C381.092 335.168 380.523 333.738 379.536 332.827C378.548 331.915 377.308 331.46 375.815 331.46C374.271 331.46 372.993 331.941 371.98 332.902C370.993 333.839 370.36 335.244 370.082 337.117ZM398.921 349.456C397.048 349.456 395.416 349.025 394.024 348.165C392.632 347.304 391.556 346.089 390.797 344.52C390.037 342.925 389.658 341.065 389.658 338.939C389.658 336.813 390.037 334.965 390.797 333.396C391.556 331.827 392.632 330.612 394.024 329.751C395.416 328.865 397.048 328.422 398.921 328.422C400.415 328.422 401.743 328.701 402.908 329.258C404.072 329.789 405.034 330.574 405.793 331.612C406.552 332.649 407.071 333.915 407.35 335.408L404.009 335.636C403.705 334.295 403.098 333.269 402.186 332.561C401.3 331.827 400.212 331.46 398.921 331.46C397.074 331.46 395.618 332.13 394.555 333.472C393.517 334.788 392.999 336.61 392.999 338.939C392.999 341.268 393.517 343.103 394.555 344.444C395.618 345.76 397.074 346.418 398.921 346.418C400.212 346.418 401.326 346.039 402.262 345.279C403.224 344.52 403.857 343.381 404.161 341.862L407.502 342.09C407.223 343.584 406.692 344.887 405.907 346.001C405.122 347.089 404.135 347.937 402.946 348.544C401.756 349.152 400.415 349.456 398.921 349.456ZM420.889 349V328.878H424.078V349H420.889ZM412.802 349V346.191H431.026V349H412.802ZM413.182 331.688V328.878H424.078V331.688H413.182ZM420.585 325.727V322.006H423.926V325.727H420.585ZM442.666 349.456C440.895 349.456 439.363 349.025 438.072 348.165C436.782 347.304 435.782 346.089 435.073 344.52C434.39 342.951 434.048 341.09 434.048 338.939C434.048 336.788 434.39 334.927 435.073 333.358C435.782 331.789 436.782 330.574 438.072 329.713C439.363 328.853 440.895 328.422 442.666 328.422C444.084 328.422 445.324 328.764 446.387 329.448C447.45 330.106 448.222 330.852 448.703 331.688V322.044H451.892V349H449.007L448.893 345.963C448.336 347.051 447.513 347.912 446.425 348.544C445.337 349.152 444.084 349.456 442.666 349.456ZM442.856 346.418C444.071 346.418 445.109 346.115 445.969 345.507C446.855 344.9 447.526 344.039 447.981 342.925C448.462 341.786 448.703 340.458 448.703 338.939C448.703 337.37 448.462 336.028 447.981 334.915C447.526 333.801 446.855 332.953 445.969 332.371C445.083 331.763 444.02 331.46 442.78 331.46C441.135 331.46 439.819 332.13 438.832 333.472C437.87 334.788 437.389 336.61 437.389 338.939C437.389 341.242 437.87 343.065 438.832 344.406C439.819 345.748 441.16 346.418 442.856 346.418ZM464.026 349.456C462.761 349.456 461.622 349.228 460.609 348.772C459.597 348.317 458.8 347.684 458.217 346.874C457.635 346.039 457.344 345.077 457.344 343.989C457.344 342.267 457.85 340.939 458.863 340.002C459.901 339.04 461.52 338.344 463.722 337.914L470.48 336.547C470.48 334.826 470.088 333.548 469.303 332.713C468.544 331.877 467.443 331.46 466 331.46C464.608 331.46 463.52 331.776 462.735 332.409C461.951 333.016 461.407 333.902 461.103 335.067L457.724 334.801C458.104 332.902 459.002 331.371 460.419 330.207C461.862 329.017 463.722 328.422 466 328.422C468.43 328.422 470.316 329.156 471.657 330.625C472.999 332.067 473.67 334.067 473.67 336.623V344.976C473.67 345.431 473.771 345.748 473.973 345.925C474.176 346.102 474.479 346.191 474.884 346.191H476.175V349C476.023 349.025 475.783 349.038 475.454 349.038C475.125 349.063 474.809 349.076 474.505 349.076C473.644 349.076 472.91 348.937 472.303 348.658C471.721 348.38 471.278 347.937 470.974 347.33C470.67 346.697 470.506 345.887 470.48 344.9H471.088C470.911 345.76 470.48 346.545 469.797 347.254C469.139 347.937 468.304 348.481 467.291 348.886C466.279 349.266 465.191 349.456 464.026 349.456ZM464.33 346.646C465.697 346.646 466.836 346.418 467.747 345.963C468.658 345.482 469.341 344.824 469.797 343.989C470.253 343.128 470.48 342.141 470.48 341.027V339.281L464.33 340.496C462.963 340.749 462.014 341.141 461.483 341.673C460.951 342.179 460.685 342.85 460.685 343.685C460.685 344.621 461.002 345.355 461.634 345.887C462.292 346.393 463.191 346.646 464.33 346.646ZM489.828 349.456C488.082 349.456 486.576 349.152 485.31 348.544C484.045 347.937 483.045 347.127 482.311 346.115C481.602 345.077 481.197 343.925 481.096 342.66L484.437 342.432C484.64 343.672 485.184 344.647 486.07 345.355C486.981 346.064 488.234 346.418 489.828 346.418C491.322 346.418 492.473 346.203 493.283 345.773C494.118 345.343 494.536 344.672 494.536 343.761C494.536 343.179 494.397 342.698 494.118 342.318C493.84 341.938 493.321 341.622 492.562 341.369C491.802 341.09 490.689 340.825 489.221 340.572C487.272 340.217 485.741 339.787 484.627 339.281C483.539 338.749 482.767 338.091 482.311 337.307C481.855 336.522 481.628 335.585 481.628 334.497C481.628 333.333 481.919 332.295 482.501 331.384C483.083 330.473 483.943 329.751 485.082 329.22C486.221 328.688 487.614 328.422 489.259 328.422C490.929 328.422 492.321 328.726 493.435 329.334C494.574 329.916 495.472 330.7 496.131 331.688C496.789 332.649 497.219 333.712 497.421 334.877L494.08 335.104C493.929 334.396 493.637 333.776 493.207 333.244C492.802 332.687 492.258 332.257 491.575 331.953C490.917 331.624 490.132 331.46 489.221 331.46C487.753 331.46 486.664 331.751 485.956 332.333C485.247 332.915 484.893 333.636 484.893 334.497C484.893 335.18 485.057 335.725 485.386 336.13C485.715 336.535 486.247 336.864 486.981 337.117C487.715 337.344 488.689 337.56 489.904 337.762C491.98 338.091 493.587 338.521 494.726 339.053C495.865 339.559 496.662 340.192 497.118 340.951C497.573 341.711 497.801 342.647 497.801 343.761C497.801 344.95 497.447 345.975 496.738 346.836C496.055 347.671 495.105 348.317 493.891 348.772C492.701 349.228 491.347 349.456 489.828 349.456Z" fill="#F5F5F5" fill-opacity="0.7"/>
</svg>
