<svg width="1515" height="454" viewBox="0 0 1515 454" fill="none" xmlns="http://www.w3.org/2000/svg">
<path d="M49.2767 70.7159L57.8095 86.715L50.2366 90.7681L41.3838 74.2357C38.184 75.1957 34.5575 75.6223 30.5044 75.6223C20.6917 75.6223 13.2254 72.9558 7.89239 67.5161C2.55937 62.0764 -0.000483958 53.9702 -0.000483958 43.1975V32.4248C-0.000483958 21.7587 2.66603 13.6525 7.99905 8.21286C13.3321 2.77317 21.0116 -1.27127e-06 30.8244 -1.27127e-06C40.5305 -1.27127e-06 47.9967 2.77317 53.3298 8.21286C58.6628 13.6525 61.3293 21.7587 61.3293 32.4248V43.1975C61.3293 56.3167 57.2762 65.4896 49.2767 70.7159ZM51.7299 32.9581C51.7299 24.6386 49.9166 18.5589 46.5035 14.6125C42.9837 10.7727 37.7573 8.74616 30.7177 8.74616C23.5715 8.74616 18.2385 10.7727 14.8253 14.6125C11.4122 18.5589 9.70562 24.6386 9.70562 32.9581V43.3042C9.70562 51.4104 11.4122 57.2767 14.8253 61.1165C18.2385 64.9562 23.5715 66.8761 30.7177 66.8761C37.7573 66.8761 42.9837 64.9562 46.5035 61.1165C49.9166 57.2767 51.7299 51.4104 51.7299 43.3042V32.9581ZM80.6682 68.2627C75.5485 63.5697 72.9886 56.85 72.9886 48.3172V1.0666H82.6947V47.6772C82.6947 60.4765 89.201 66.7695 102.214 66.7695C115.226 66.7695 121.732 60.4765 121.732 47.6772V1.0666H131.439V48.3172C131.439 56.85 128.772 63.5697 123.652 68.2627C118.533 72.9558 111.386 75.3023 102.214 75.3023C93.0408 75.3023 85.7879 72.9558 80.6682 68.2627ZM187.645 58.0233H151.594L144.981 74.6624H134.848L165.567 1.0666H173.779L204.604 74.6624H194.365L187.645 58.0233ZM184.339 49.8105L169.62 13.0126L154.901 49.8105H184.339ZM272.122 1.0666V74.6624H262.416L220.285 17.7056V74.6624H210.579V1.0666H220.285L262.416 58.13V1.0666H272.122ZM335.34 9.70611H311.555V74.6624H301.955V9.70611H278.17V1.0666H335.34V9.70611ZM345.098 67.5161C339.765 62.0764 337.205 53.9702 337.205 43.1975V32.4248C337.205 21.7587 339.872 13.6525 345.205 8.21286C350.538 2.77317 358.217 -1.27127e-06 368.03 -1.27127e-06C377.736 -1.27127e-06 385.202 2.77317 390.535 8.21286C395.868 13.6525 398.535 21.7587 398.535 32.4248V43.1975C398.535 53.9702 395.762 62.0764 390.429 67.5161C385.096 72.9558 377.523 75.6223 367.71 75.6223C357.897 75.6223 350.431 72.9558 345.098 67.5161ZM383.709 61.1165C387.122 57.2767 388.935 51.4104 388.935 43.3042V32.9581C388.935 24.6386 387.122 18.5589 383.709 14.6125C380.189 10.7727 374.963 8.74616 367.923 8.74616C360.777 8.74616 355.444 10.7727 352.031 14.6125C348.618 18.5589 346.911 24.6386 346.911 32.9581V43.3042C346.911 51.4104 348.618 57.2767 352.031 61.1165C355.444 64.9562 360.777 66.8761 367.923 66.8761C374.963 66.8761 380.189 64.9562 383.709 61.1165ZM437.798 67.5161C432.464 62.0764 429.798 53.9702 429.798 43.1975V32.4248C429.798 21.7587 432.464 13.6525 437.904 8.21286C443.237 2.77317 450.917 -1.27127e-06 460.836 -1.27127e-06C469.689 -1.27127e-06 476.729 2.13321 481.848 6.18631C486.968 10.3461 489.528 16.1057 489.528 23.4653V23.9986H479.822V23.572C479.822 18.8789 478.115 15.1458 474.809 12.5859C471.502 10.0261 466.809 8.74616 460.73 8.74616C453.477 8.74616 448.144 10.7727 444.73 14.6125C441.211 18.5589 439.504 24.6386 439.504 32.9581V43.3042C439.504 51.4104 441.211 57.2767 444.73 61.1165C448.25 64.9562 453.583 66.8761 460.836 66.8761C466.916 66.8761 471.609 65.5962 474.915 63.0364C478.115 60.4765 479.822 56.85 479.822 51.9437V51.517H489.421V52.0503C489.421 59.5166 486.755 65.2762 481.635 69.436C476.515 73.5957 469.476 75.6223 460.623 75.6223C450.81 75.6223 443.131 72.9558 437.798 67.5161ZM508.8 68.2627C503.68 63.5697 501.121 56.85 501.121 48.3172V1.0666H510.827V47.6772C510.827 60.4765 517.333 66.7695 530.346 66.7695C543.358 66.7695 549.864 60.4765 549.864 47.6772V1.0666H559.57V48.3172C559.57 56.85 556.904 63.5697 551.784 68.2627C546.665 72.9558 539.518 75.3023 530.346 75.3023C521.173 75.3023 513.92 72.9558 508.8 68.2627ZM576.25 69.756C571.344 66.1295 568.677 60.6898 568.251 53.4369H577.637C578.064 58.2366 579.877 61.6498 583.077 63.783C586.276 65.9162 590.969 66.9828 597.156 66.9828C609.742 66.9828 616.141 62.823 616.141 54.2902C616.141 50.6637 614.861 47.7839 612.515 45.7574C610.062 43.8375 606.329 42.5575 601.316 41.9176L591.396 40.7443C577.104 39.0377 569.957 32.4248 569.957 21.0121C569.957 14.3992 572.304 9.27946 577.21 5.65301C582.01 2.02655 588.623 0.106658 597.049 0.106658C605.155 0.106658 611.555 1.91989 616.248 5.43968C620.941 8.95948 623.608 14.1858 624.354 21.0121H614.968C614.541 16.7457 612.942 13.6525 610.062 11.5193C607.075 9.38612 602.809 8.31952 597.049 8.31952C591.183 8.31952 586.81 9.38612 583.823 11.4127C580.837 13.5459 579.344 16.5324 579.344 20.3722C579.344 23.7853 580.41 26.4518 582.757 28.3717C585.103 30.2916 588.73 31.5715 593.636 32.2115L603.982 33.3847C618.488 35.3046 625.741 42.1309 625.741 53.6502C625.741 60.5832 623.181 65.9162 618.061 69.6493C612.942 73.4891 605.795 75.3023 596.729 75.3023C587.876 75.3023 581.05 73.4891 576.25 69.756ZM685.719 9.70611H661.934V74.6624H652.334V9.70611H628.549V1.0666H685.719V9.70611ZM729.931 58.0233H693.88L687.267 74.6624H677.135L707.853 1.0666H716.066L746.891 74.6624H736.651L729.931 58.0233ZM726.625 49.8105L711.906 13.0126L697.187 49.8105H726.625ZM783.903 43.3042H762.571V74.6624H752.865V1.0666H784.97C793.076 1.0666 799.262 2.87983 803.529 6.50629C807.795 10.1327 810.035 15.3591 810.035 22.1854C810.035 27.5184 808.649 31.9982 805.875 35.4113C803.102 38.8244 799.156 41.171 793.929 42.3442L812.168 74.6624H801.076L783.903 43.3042ZM762.571 34.878H785.183C790.303 34.878 794.143 33.918 796.596 31.7848C799.049 29.7583 800.329 26.5585 800.329 22.1854C800.329 17.919 798.943 14.8258 796.383 12.7993C793.823 10.7727 789.876 9.70611 784.543 9.70611H762.571V34.878ZM821.99 1.0666H831.696V74.6624H821.99V1.0666ZM891.215 58.0233H855.164L848.551 74.6624H838.419L869.137 1.0666H877.35L908.174 74.6624H897.935L891.215 58.0233ZM887.909 49.8105L873.19 13.0126L858.471 49.8105H887.909ZM941.753 67.5161C936.42 62.0764 933.753 53.9702 933.753 43.1975V32.4248C933.753 21.7587 936.42 13.6525 941.859 8.21286C947.192 2.77317 954.872 -1.27127e-06 964.791 -1.27127e-06C973.644 -1.27127e-06 980.684 2.13321 985.803 6.18631C990.923 10.3461 993.483 16.1057 993.483 23.4653V23.9986H983.777V23.572C983.777 18.8789 982.07 15.1458 978.764 12.5859C975.457 10.0261 970.764 8.74616 964.685 8.74616C957.432 8.74616 952.099 10.7727 948.685 14.6125C945.166 18.5589 943.459 24.6386 943.459 32.9581V43.3042C943.459 51.4104 945.166 57.2767 948.685 61.1165C952.205 64.9562 957.538 66.8761 964.791 66.8761C970.871 66.8761 975.564 65.5962 978.87 63.0364C982.07 60.4765 983.777 56.85 983.777 51.9437V51.517H993.376V52.0503C993.376 59.5166 990.71 65.2762 985.59 69.436C980.47 73.5957 973.431 75.6223 964.578 75.6223C954.765 75.6223 947.086 72.9558 941.753 67.5161ZM1011.8 67.5161C1006.46 62.0764 1003.9 53.9702 1003.9 43.1975V32.4248C1003.9 21.7587 1006.57 13.6525 1011.9 8.21286C1017.23 2.77317 1024.91 -1.27127e-06 1034.73 -1.27127e-06C1044.43 -1.27127e-06 1051.9 2.77317 1057.23 8.21286C1062.57 13.6525 1065.23 21.7587 1065.23 32.4248V43.1975C1065.23 53.9702 1062.46 62.0764 1057.13 67.5161C1051.79 72.9558 1044.22 75.6223 1034.41 75.6223C1024.59 75.6223 1017.13 72.9558 1011.8 67.5161ZM1050.41 61.1165C1053.82 57.2767 1055.63 51.4104 1055.63 43.3042V32.9581C1055.63 24.6386 1053.82 18.5589 1050.41 14.6125C1046.89 10.7727 1041.66 8.74616 1034.62 8.74616C1027.47 8.74616 1022.14 10.7727 1018.73 14.6125C1015.31 18.5589 1013.61 24.6386 1013.61 32.9581V43.3042C1013.61 51.4104 1015.31 57.2767 1018.73 61.1165C1022.14 64.9562 1027.47 66.8761 1034.62 66.8761C1041.66 66.8761 1046.89 64.9562 1050.41 61.1165ZM1138.43 1.0666V74.6624H1128.73L1086.6 17.7056V74.6624H1076.89V1.0666H1086.6L1128.73 58.13V1.0666H1138.43ZM1201.65 9.70611H1177.87V74.6624H1168.27V9.70611H1144.48V1.0666H1201.65V9.70611ZM1238.75 43.3042H1217.42V74.6624H1207.71V1.0666H1239.82C1247.92 1.0666 1254.11 2.87983 1258.38 6.50629C1262.64 10.1327 1264.88 15.3591 1264.88 22.1854C1264.88 27.5184 1263.49 31.9982 1260.72 35.4113C1257.95 38.8244 1254 41.171 1248.78 42.3442L1267.01 74.6624H1255.92L1238.75 43.3042ZM1217.42 34.878H1240.03C1245.15 34.878 1248.99 33.918 1251.44 31.7848C1253.9 29.7583 1255.18 26.5585 1255.18 22.1854C1255.18 17.919 1253.79 14.8258 1251.23 12.7993C1248.67 10.7727 1244.72 9.70611 1239.39 9.70611H1217.42V34.878ZM1322.06 58.0233H1286L1279.39 74.6624H1269.26L1299.98 1.0666H1308.19L1339.01 74.6624H1328.78L1322.06 58.0233ZM1318.75 49.8105L1304.03 13.0126L1289.31 49.8105H1318.75ZM1387.62 9.70611H1363.84V74.6624H1354.24V9.70611H1330.45V1.0666H1387.62V9.70611ZM1431.84 58.0233H1395.78L1389.17 74.6624H1379.04L1409.76 1.0666H1417.97L1448.79 74.6624H1438.55L1431.84 58.0233ZM1428.53 49.8105L1413.81 13.0126L1399.09 49.8105H1428.53ZM1485.81 43.3042H1464.47V74.6624H1454.77V1.0666H1486.87C1494.98 1.0666 1501.17 2.87983 1505.43 6.50629C1509.7 10.1327 1511.94 15.3591 1511.94 22.1854C1511.94 27.5184 1510.55 31.9982 1507.78 35.4113C1505.01 38.8244 1501.06 41.171 1495.83 42.3442L1514.07 74.6624H1502.98L1485.81 43.3042ZM1464.47 34.878H1487.09C1492.21 34.878 1496.05 33.918 1498.5 31.7848C1500.95 29.7583 1502.23 26.5585 1502.23 22.1854C1502.23 17.919 1500.85 14.8258 1498.29 12.7993C1495.73 10.7727 1491.78 9.70611 1486.45 9.70611H1464.47V34.878ZM19.4721 135.706V158.958H55.2034V167.598H19.4721V192.023H61.1764V200.662H9.76604V127.067H61.1764V135.706H19.4721ZM118.645 196.716L127.178 212.715L119.605 216.768L110.752 200.236C107.552 201.196 103.926 201.622 99.8725 201.622C90.0597 201.622 82.5935 198.956 77.2605 193.516C71.9274 188.076 69.3676 179.97 69.3676 169.198V158.425C69.3676 147.759 72.0341 139.653 77.3671 134.213C82.7002 128.773 90.3797 126 100.192 126C109.899 126 117.365 128.773 122.698 134.213C128.031 139.653 130.697 147.759 130.697 158.425V169.198C130.697 182.317 126.644 191.49 118.645 196.716ZM121.098 158.958C121.098 150.639 119.285 144.559 115.872 140.612C112.352 136.773 107.125 134.746 100.086 134.746C92.9396 134.746 87.6065 136.773 84.1934 140.612C80.7803 144.559 79.0737 150.639 79.0737 158.958V169.304C79.0737 177.41 80.7803 183.277 84.1934 187.116C87.6065 190.956 92.9396 192.876 100.086 192.876C107.125 192.876 112.352 190.956 115.872 187.116C119.285 183.277 121.098 177.41 121.098 169.304V158.958ZM150.036 194.263C144.917 189.57 142.357 182.85 142.357 174.317V127.067H152.063V173.677C152.063 186.477 158.569 192.769 171.582 192.769C184.594 192.769 191.101 186.477 191.101 173.677V127.067H200.807V174.317C200.807 182.85 198.14 189.57 193.02 194.263C187.901 198.956 180.754 201.302 171.582 201.302C162.409 201.302 155.156 198.956 150.036 194.263ZM214.607 127.067H224.313V200.662H214.607V127.067ZM288.738 132.72C293.005 136.453 295.245 141.892 295.245 149.145C295.245 156.292 293.005 161.731 288.738 165.464C284.472 169.304 278.179 171.117 269.966 171.117H247.781V200.662H238.075V127.067H269.966C278.072 127.067 284.365 128.986 288.738 132.72ZM281.805 159.385C284.259 157.252 285.538 153.945 285.538 149.252C285.538 144.452 284.259 141.039 281.699 138.906C279.139 136.773 275.086 135.706 269.539 135.706H247.781V162.478H270.179C275.406 162.478 279.245 161.518 281.805 159.385ZM313.347 135.706V158.958H349.078V167.598H313.347V192.023H355.051V200.662H303.641V127.067H355.051V135.706H313.347ZM443.417 127.067V200.662H433.817V167.384H395.42V200.662H385.713V127.067H395.42V158.851H433.817V127.067H443.417ZM464.063 194.263C458.943 189.57 456.384 182.85 456.384 174.317V127.067H466.09V173.677C466.09 186.477 472.596 192.769 485.609 192.769C498.621 192.769 505.127 186.477 505.127 173.677V127.067H514.834V174.317C514.834 182.85 512.167 189.57 507.047 194.263C501.928 198.956 494.781 201.302 485.609 201.302C476.436 201.302 469.183 198.956 464.063 194.263ZM600.736 127.067V200.662H591.137V144.986L567.778 186.05H560.952L537.593 144.986V200.662H527.887V127.067H537.593L564.365 174.851L591.137 127.067H600.736ZM659.522 184.023H623.471L616.858 200.662H606.725L637.443 127.067H645.656L676.481 200.662H666.241L659.522 184.023ZM656.215 175.81L641.496 139.013L626.777 175.81H656.215ZM743.999 127.067V200.662H734.293L692.162 143.706V200.662H682.455V127.067H692.162L734.293 184.13V127.067H743.999ZM802.737 184.023H766.686L760.073 200.662H749.94L780.658 127.067H788.871L819.696 200.662H809.456L802.737 184.023ZM799.43 175.81L784.711 139.013L769.992 175.81H799.43ZM856.154 135.706V158.958H891.885V167.598H856.154V192.023H897.858V200.662H846.448V127.067H897.858V135.706H856.154ZM955.326 196.716L963.859 212.715L956.286 216.768L947.433 200.236C944.234 201.196 940.607 201.622 936.554 201.622C926.741 201.622 919.275 198.956 913.942 193.516C908.609 188.076 906.049 179.97 906.049 169.198V158.425C906.049 147.759 908.716 139.653 914.049 134.213C919.382 128.773 927.061 126 936.874 126C946.58 126 954.046 128.773 959.379 134.213C964.712 139.653 967.379 147.759 967.379 158.425V169.198C967.379 182.317 963.326 191.49 955.326 196.716ZM957.78 158.958C957.78 150.639 955.966 144.559 952.553 140.612C949.033 136.773 943.807 134.746 936.767 134.746C929.621 134.746 924.288 136.773 920.875 140.612C917.462 144.559 915.755 150.639 915.755 158.958V169.304C915.755 177.41 917.462 183.277 920.875 187.116C924.288 190.956 929.621 192.876 936.767 192.876C943.807 192.876 949.033 190.956 952.553 187.116C955.966 183.277 957.78 177.41 957.78 169.304V158.958ZM986.718 194.263C981.598 189.57 979.038 182.85 979.038 174.317V127.067H988.744V173.677C988.744 186.477 995.251 192.769 1008.26 192.769C1021.28 192.769 1027.78 186.477 1027.78 173.677V127.067H1037.49V174.317C1037.49 182.85 1034.82 189.57 1029.7 194.263C1024.58 198.956 1017.44 201.302 1008.26 201.302C999.09 201.302 991.838 198.956 986.718 194.263ZM1051.29 127.067H1060.99V200.662H1051.29V127.067ZM1067.72 127.067H1077.85L1099.5 187.543L1120.83 127.067H1130.97L1103.55 200.662H1095.45L1067.72 127.067ZM1179 184.023H1142.95L1136.33 200.662H1126.2L1156.92 127.067H1165.13L1195.96 200.662H1185.72L1179 184.023ZM1175.69 175.81L1160.97 139.013L1146.25 175.81H1175.69ZM1201.93 127.067H1211.64V192.023H1252.91V200.662H1201.93V127.067ZM1271.06 135.706V158.958H1306.79V167.598H1271.06V192.023H1312.76V200.662H1261.35V127.067H1312.76V135.706H1271.06ZM1384.19 127.067V200.662H1374.48L1332.35 143.706V200.662H1322.65V127.067H1332.35L1374.48 184.13V127.067H1384.19ZM1447.41 135.706H1423.62V200.662H1414.02V135.706H1390.24V127.067H1447.41V135.706ZM1463.17 135.706V158.958H1498.9V167.598H1463.17V192.023H1504.88V200.662H1453.47V127.067H1504.88V135.706H1463.17ZM560.557 253.067H570.69L592.342 313.543L613.674 253.067H623.807L596.395 326.662H588.289L560.557 253.067ZM639.536 261.706V284.958H675.267V293.598H639.536V318.023H681.24V326.662H629.83V253.067H681.24V261.706H639.536ZM722.164 295.304H700.832V326.662H691.125V253.067H723.23C731.336 253.067 737.523 254.88 741.789 258.506C746.056 262.133 748.295 267.359 748.295 274.185C748.295 279.518 746.909 283.998 744.136 287.411C741.363 290.824 737.416 293.171 732.19 294.344L750.429 326.662H739.336L722.164 295.304ZM700.832 286.878H723.444C728.563 286.878 732.403 285.918 734.856 283.785C737.309 281.758 738.589 278.558 738.589 274.185C738.589 269.919 737.203 266.826 734.643 264.799C732.083 262.773 728.137 261.706 722.804 261.706H700.832V286.878ZM763.339 321.756C758.432 318.13 755.766 312.69 755.339 305.437H764.725C765.152 310.237 766.965 313.65 770.165 315.783C773.365 317.916 778.058 318.983 784.244 318.983C796.83 318.983 803.23 314.823 803.23 306.29C803.23 302.664 801.95 299.784 799.603 297.757C797.15 295.837 793.417 294.558 788.404 293.918L778.485 292.744C764.192 291.038 757.046 284.425 757.046 273.012C757.046 266.399 759.392 261.279 764.299 257.653C769.098 254.027 775.711 252.107 784.138 252.107C792.244 252.107 798.643 253.92 803.336 257.44C808.029 260.959 810.696 266.186 811.443 273.012H802.056C801.63 268.746 800.03 265.653 797.15 263.519C794.164 261.386 789.897 260.32 784.138 260.32C778.271 260.32 773.898 261.386 770.912 263.413C767.925 265.546 766.432 268.532 766.432 272.372C766.432 275.785 767.498 278.452 769.845 280.372C772.192 282.292 775.818 283.572 780.724 284.211L791.07 285.385C805.576 287.305 812.829 294.131 812.829 305.65C812.829 312.583 810.269 317.916 805.15 321.649C800.03 325.489 792.884 327.302 783.818 327.302C774.965 327.302 768.138 325.489 763.339 321.756ZM830.25 320.263C825.13 315.57 822.57 308.85 822.57 300.317V253.067H832.276V299.677C832.276 312.477 838.783 318.769 851.795 318.769C864.808 318.769 871.314 312.477 871.314 299.677V253.067H881.02V300.317C881.02 308.85 878.354 315.57 873.234 320.263C868.114 324.956 860.968 327.302 851.795 327.302C842.622 327.302 835.37 324.956 830.25 320.263ZM897.7 321.756C892.794 318.13 890.127 312.69 889.701 305.437H899.087C899.513 310.237 901.327 313.65 904.526 315.783C907.726 317.916 912.419 318.983 918.606 318.983C931.192 318.983 937.591 314.823 937.591 306.29C937.591 302.664 936.311 299.784 933.965 297.757C931.512 295.837 927.778 294.558 922.765 293.918L912.846 292.744C898.553 291.038 891.407 284.425 891.407 273.012C891.407 266.399 893.754 261.279 898.66 257.653C903.46 254.027 910.073 252.107 918.499 252.107C926.605 252.107 933.005 253.92 937.698 257.44C942.391 260.959 945.057 266.186 945.804 273.012H936.418C935.991 268.746 934.391 265.653 931.512 263.519C928.525 261.386 924.259 260.32 918.499 260.32C912.633 260.32 908.26 261.386 905.273 263.413C902.287 265.546 900.793 268.532 900.793 272.372C900.793 275.785 901.86 278.452 904.206 280.372C906.553 282.292 910.179 283.572 915.086 284.211L925.432 285.385C939.938 287.305 947.191 294.131 947.191 305.65C947.191 312.583 944.631 317.916 939.511 321.649C934.391 325.489 927.245 327.302 918.179 327.302C909.326 327.302 902.5 325.489 897.7 321.756Z" fill="#737373"/>
<path d="M90.2373 379.067H104.21V452.662H90.2373V379.067ZM177.031 379.067V452.662H163.059L129.034 403.919V452.662H115.062V379.067H129.034L163.059 427.917V379.067H177.031ZM181.428 379.067H196.36L214.173 432.077L232.092 379.067H247.024L219.719 452.662H208.52L181.428 379.067ZM265.375 391.226V409.465H298.546V421.624H265.375V440.503H303.986V452.662H251.402V379.067H303.986V391.226H265.375ZM316.563 447.436C311.656 443.49 308.883 437.73 308.35 430.264H321.682C322.109 434.21 323.709 437.09 326.375 438.796C329.042 440.503 332.988 441.356 338.108 441.356C348.134 441.356 353.147 438.05 353.147 431.437C353.147 428.557 352.08 426.317 350.161 424.824C348.134 423.331 344.828 422.264 340.348 421.731L332.562 420.771C317.629 418.958 310.163 412.131 310.163 400.185C310.163 393.359 312.616 387.919 317.629 383.973C322.536 380.027 329.362 378 338.001 378C346.321 378 352.827 379.92 357.52 383.653C362.213 387.493 364.773 392.932 365.413 399.972H351.974C351.654 396.452 350.374 393.892 348.027 392.186C345.681 390.586 342.268 389.733 337.681 389.733C332.988 389.733 329.575 390.586 327.229 392.186C324.882 393.892 323.709 396.132 323.709 399.119C323.709 401.892 324.669 403.919 326.802 405.412C328.828 406.905 332.135 407.972 336.721 408.505L345.574 409.678C352.507 410.638 357.84 412.878 361.467 416.291C365.093 419.704 366.906 424.397 366.906 430.37C366.906 437.837 364.24 443.49 359.013 447.436C353.68 451.382 346.534 453.302 337.361 453.302C328.402 453.302 321.469 451.382 316.563 447.436ZM426.679 391.226H404.6V452.662H390.627V391.226H368.549V379.067H426.679V391.226ZM431.867 379.067H445.839V452.662H431.867V379.067ZM530.393 379.067V452.662H516.421V406.052L498.395 438.477H489.009L470.664 405.732V452.662H456.691V379.067H470.664L493.702 421.198L516.421 379.067H530.393ZM554.562 391.226V409.465H587.733V421.624H554.562V440.503H593.173V452.662H540.59V379.067H593.173V391.226H554.562ZM662.813 379.067V452.662H648.841L614.816 403.919V452.662H600.844V379.067H614.816L648.841 427.917V379.067H662.813ZM725.553 391.226H703.474V452.662H689.502V391.226H667.423V379.067H725.553V391.226ZM734.445 445.729C729.112 440.396 726.445 432.29 726.445 421.517V409.998C726.445 399.332 729.112 391.226 734.552 385.786C739.991 380.453 747.564 377.68 757.164 377.68C766.55 377.68 774.016 380.453 779.456 385.786C784.789 391.226 787.562 399.332 787.562 409.998V421.517C787.562 432.184 784.789 440.29 779.242 445.729C773.696 451.169 766.23 453.836 756.737 453.836C747.138 453.836 739.778 451.169 734.445 445.729ZM773.589 421.304V410.745C773.589 396.879 768.043 389.946 757.164 389.946C751.511 389.946 747.351 391.653 744.578 395.066C741.805 398.479 740.525 403.705 740.525 410.745V421.304C740.525 428.13 741.805 433.143 744.578 436.343C747.351 439.65 751.511 441.25 757.164 441.25C768.043 441.25 773.589 434.637 773.589 421.304ZM880.289 379.067V452.662H866.317L832.292 403.919V452.662H818.319V379.067H832.292L866.317 427.917V379.067H880.289ZM936.203 438.37H904.951L899.618 452.662H884.685L914.87 379.067H926.283L956.468 452.662H941.536L936.203 438.37ZM931.829 426.744L920.523 396.772L909.324 426.744H931.829ZM987.739 447.436C982.832 443.49 980.059 437.73 979.526 430.264H992.858C993.285 434.21 994.885 437.09 997.551 438.796C1000.22 440.503 1004.16 441.356 1009.28 441.356C1019.31 441.356 1024.32 438.05 1024.32 431.437C1024.32 428.557 1023.26 426.317 1021.34 424.824C1019.31 423.331 1016 422.264 1011.52 421.731L1003.74 420.771C988.805 418.958 981.339 412.131 981.339 400.185C981.339 393.359 983.792 387.919 988.805 383.973C993.712 380.027 1000.54 378 1009.18 378C1017.5 378 1024 379.92 1028.7 383.653C1033.39 387.493 1035.95 392.932 1036.59 399.972H1023.15C1022.83 396.452 1021.55 393.892 1019.2 392.186C1016.86 390.586 1013.44 389.733 1008.86 389.733C1004.16 389.733 1000.75 390.586 998.405 392.186C996.058 393.892 994.885 396.132 994.885 399.119C994.885 401.892 995.845 403.919 997.978 405.412C1000 406.905 1003.31 407.972 1007.9 408.505L1016.75 409.678C1023.68 410.638 1029.02 412.878 1032.64 416.291C1036.27 419.704 1038.08 424.397 1038.08 430.37C1038.08 437.837 1035.42 443.49 1030.19 447.436C1024.86 451.382 1017.71 453.302 1008.54 453.302C999.578 453.302 992.645 451.382 987.739 447.436ZM1059.35 391.226V409.465H1092.52V421.624H1059.35V440.503H1097.96V452.662H1045.38V379.067H1097.96V391.226H1059.35ZM1158.11 391.226H1136.03V452.662H1122.06V391.226H1099.98V379.067H1158.11V391.226ZM1219.4 391.226H1197.33V452.662H1183.35V391.226H1161.27V379.067H1219.4V391.226ZM1237.93 391.226V409.465H1271.1V421.624H1237.93V440.503H1276.54V452.662H1223.95V379.067H1276.54V391.226H1237.93ZM1306.87 379.067H1320.85V452.662H1306.87V379.067ZM1377.35 438.37H1346.1L1340.76 452.662H1325.83L1356.02 379.067H1367.43L1397.61 452.662H1382.68L1377.35 438.37ZM1372.98 426.744L1361.67 396.772L1350.47 426.744H1372.98ZM1414.86 427.17C1414.86 423.757 1415.18 421.091 1416.03 419.064C1416.78 417.144 1418.38 415.011 1420.94 412.665L1426.38 407.012C1428.3 405.198 1429.68 403.599 1430.54 402.212C1431.28 400.932 1431.71 399.439 1431.71 397.732C1431.71 395.279 1430.86 393.359 1429.15 392.079C1427.44 390.799 1424.88 390.053 1421.47 390.053C1418.06 390.053 1415.5 390.799 1413.9 392.186C1412.3 393.572 1411.44 395.706 1411.44 398.479H1398.54C1398.96 384.826 1406.64 378 1421.79 378C1429.15 378 1434.91 379.707 1439.07 383.12C1443.23 386.533 1445.36 391.119 1445.36 397.092C1445.36 403.065 1443.02 408.185 1438.43 412.451L1432.35 418.958C1430.64 420.558 1429.58 422.051 1428.94 423.331C1428.3 424.717 1428.08 426.531 1428.08 428.77V432.077H1414.86V427.17ZM1414.43 439.223H1428.4V452.662H1414.43V439.223Z" fill="black"/>
</svg>
