<svg width="1232" height="259" viewBox="0 0 1232 259" fill="none" xmlns="http://www.w3.org/2000/svg">
<path d="M0.000389552 1.77008H19.0628L41.8015 69.4416L64.6764 1.77008H83.7388L48.8818 95.7205H34.585L0.000389552 1.77008ZM140.158 77.475H100.263L93.4551 95.7205H74.3927L112.926 1.77008H127.495L166.028 95.7205H146.966L140.158 77.475ZM134.575 62.6336L120.142 24.3726L105.846 62.6336H134.575ZM265.652 1.77008V95.7205H247.815V36.2186L224.804 77.6112H212.822L189.402 35.8101V95.7205H171.565V1.77008H189.402L218.813 55.5533L247.815 1.77008H265.652ZM288.335 86.8701C281.527 80.0621 278.123 69.7139 278.123 55.9618V41.2565C278.123 27.6405 281.527 17.2923 288.471 10.3482C295.415 3.54016 305.083 5.69389e-06 317.337 5.69389e-06C329.319 5.69389e-06 338.851 3.54016 345.795 10.3482C352.603 17.2923 356.143 27.6405 356.143 41.2565V55.9618C356.143 69.5778 352.603 79.9259 345.522 86.8701C338.442 93.8142 328.911 97.2182 316.793 97.2182C304.538 97.2182 295.143 93.8142 288.335 86.8701ZM338.306 55.6894V42.2096C338.306 24.5088 331.226 15.6584 317.337 15.6584C310.121 15.6584 304.811 17.837 301.27 22.1941C297.73 26.5512 296.096 33.223 296.096 42.2096V55.6894C296.096 64.4037 297.73 70.8032 301.27 74.888C304.811 79.109 310.121 81.1514 317.337 81.1514C331.226 81.1514 338.306 72.7094 338.306 55.6894ZM373.551 89.0486C367.288 84.0107 363.748 76.6581 363.067 67.1269H380.087C380.631 72.1648 382.674 75.8411 386.078 78.0197C389.482 80.1982 394.52 81.2875 401.055 81.2875C413.854 81.2875 420.254 77.0666 420.254 68.6246C420.254 64.9483 418.892 62.089 416.442 60.1827C413.854 58.2765 409.634 56.9149 403.915 56.2341L393.975 55.0086C374.913 52.6939 365.382 43.9797 365.382 28.7298C365.382 20.0155 368.513 13.0714 374.913 8.03344C381.176 2.99552 389.89 0.40848 400.919 0.40848C411.54 0.40848 419.846 2.85936 425.837 7.62497C431.828 12.5267 435.095 19.4709 435.912 28.4574H418.756C418.348 23.9642 416.714 20.6963 413.718 18.5178C410.723 16.4754 406.366 15.3861 400.511 15.3861C394.52 15.3861 390.163 16.4754 387.167 18.5178C384.172 20.6963 382.674 23.5557 382.674 27.3682C382.674 30.9083 383.899 33.4954 386.622 35.4016C389.21 37.3078 393.43 38.6694 399.285 39.3502L410.587 40.848C419.437 42.0734 426.245 44.9328 430.874 49.2899C435.504 53.647 437.819 59.6381 437.819 67.263C437.819 76.7942 434.415 84.0107 427.743 89.0486C420.935 94.0866 411.812 96.5374 400.102 96.5374C388.665 96.5374 379.814 94.0866 373.551 89.0486ZM542.242 17.2923H514.057V95.7205H496.22V17.2923H468.034V1.77008H542.242V17.2923ZM584.538 58.8211H565.885V95.7205H548.048V1.77008H588.896C599.108 1.77008 607.141 4.22096 613.132 9.12272C619.123 14.0245 622.119 21.1048 622.119 30.3637C622.119 37.1717 620.485 42.7542 617.217 47.1114C613.949 51.4685 609.32 54.7363 603.056 56.6426L626.34 95.7205H605.099L584.538 58.8211ZM565.885 43.5712H589.44C599.38 43.5712 604.418 39.2141 604.418 30.3637C604.418 26.0066 603.056 22.7387 600.469 20.5602C597.746 18.3816 594.07 17.2923 589.44 17.2923H565.885V43.5712ZM693.747 77.475H653.852L647.044 95.7205H627.982L666.515 1.77008H681.084L719.618 95.7205H700.555L693.747 77.475ZM688.165 62.6336L673.732 24.3726L659.435 62.6336H688.165ZM796.23 55.6894C798.681 59.3658 800.043 63.7229 800.043 68.7608C800.043 77.475 797.183 84.1469 791.601 88.7763C786.018 93.4058 777.985 95.7205 767.636 95.7205H725.155V1.77008H765.866C776.487 1.77008 784.52 4.0848 790.239 8.57808C795.822 13.0714 798.681 19.4709 798.681 27.9128C798.681 32.2699 797.456 36.0824 795.141 39.4864C792.826 42.8904 789.558 45.4774 785.337 47.3837C790.103 49.2899 793.779 52.1493 796.23 55.6894ZM742.991 17.2923V40.1672H766.003C775.806 40.1672 780.844 36.4909 780.844 29.0021C780.844 21.241 776.078 17.2923 766.683 17.2923H742.991ZM782.342 67.5354C782.342 59.6381 777.304 55.6894 767.228 55.6894H742.991V80.1982H767.909C777.44 80.1982 782.342 75.9773 782.342 67.5354ZM869.525 77.475H829.63L822.822 95.7205H803.759L842.293 1.77008H856.862L895.395 95.7205H876.333L869.525 77.475ZM863.942 62.6336L849.509 24.3726L835.212 62.6336H863.942ZM900.932 1.77008H918.769V80.1982H967.242V95.7205H900.932V1.77008ZM1050.89 1.77008V95.7205H1033.05V55.9618H993.427V95.7205H975.59V1.77008H993.427V40.4395H1033.05V1.77008H1050.89ZM1122.22 77.475H1082.33L1075.52 95.7205H1056.46L1094.99 1.77008H1109.56L1148.09 95.7205H1129.03L1122.22 77.475ZM1116.64 62.6336L1102.21 24.3726L1087.91 62.6336H1116.64ZM1190.12 58.8211H1171.46V95.7205H1153.63V1.77008H1194.48C1204.69 1.77008 1212.72 4.22096 1218.71 9.12272C1224.7 14.0245 1227.7 21.1048 1227.7 30.3637C1227.7 37.1717 1226.06 42.7542 1222.8 47.1114C1219.53 51.4685 1214.9 54.7363 1208.64 56.6426L1231.92 95.7205H1210.68L1190.12 58.8211ZM1171.46 43.5712H1195.02C1204.96 43.5712 1210 39.2141 1210 30.3637C1210 26.0066 1208.64 22.7387 1206.05 20.5602C1203.33 18.3816 1199.65 17.2923 1195.02 17.2923H1171.46V43.5712ZM354.61 241.062H362.916C367.001 241.062 369.86 240.381 371.494 238.747C372.992 237.113 373.809 234.254 373.809 230.169V162.77H391.782V233.165C391.782 241.062 389.74 246.917 385.655 250.866C381.57 254.814 375.443 256.72 367.546 256.72H354.61V241.062ZM423.685 253.316C417.966 250.593 413.473 246.508 410.341 241.334C407.21 236.16 405.712 230.033 405.712 222.953V162.77H423.549V222.408C423.549 228.808 425.183 233.709 428.723 236.977C432.127 240.381 437.029 242.015 443.564 242.015C449.964 242.015 455.002 240.381 458.542 236.977C462.082 233.709 463.852 228.808 463.852 222.408V162.77H481.689V222.953C481.689 230.033 480.055 236.16 476.924 241.334C473.792 246.508 469.299 250.593 463.58 253.316C457.861 256.176 451.189 257.537 443.564 257.537C435.939 257.537 429.404 256.176 423.685 253.316ZM573.84 162.77V256.72H556.003L512.568 194.495V256.72H494.731V162.77H512.568L556.003 225.131V162.77H573.84ZM653.932 178.292H625.747V256.72H607.91V178.292H579.724V162.77H653.932V178.292ZM665.283 247.87C658.475 241.062 655.071 230.714 655.071 216.962V202.256C655.071 188.64 658.475 178.292 665.419 171.348C672.363 164.54 682.031 161 694.285 161C706.267 161 715.798 164.54 722.742 171.348C729.55 178.292 733.091 188.64 733.091 202.256V216.962C733.091 230.578 729.55 240.926 722.47 247.87C715.39 254.814 705.859 258.218 693.74 258.218C681.486 258.218 672.091 254.814 665.283 247.87ZM715.254 216.689V203.21C715.254 185.509 708.173 176.658 694.285 176.658C687.069 176.658 681.758 178.837 678.218 183.194C674.678 187.551 673.044 194.223 673.044 203.21V216.689C673.044 225.404 674.678 231.803 678.218 235.888C681.758 240.109 687.069 242.151 694.285 242.151C708.173 242.151 715.254 233.709 715.254 216.689ZM750.499 250.049C744.236 245.011 740.695 237.658 740.015 228.127H757.035C757.579 233.165 759.622 236.841 763.026 239.02C766.43 241.198 771.468 242.288 778.003 242.288C790.802 242.288 797.202 238.067 797.202 229.625C797.202 225.948 795.84 223.089 793.389 221.183C790.802 219.276 786.581 217.915 780.863 217.234L770.923 216.009C751.86 213.694 742.329 204.98 742.329 189.73C742.329 181.016 745.461 174.071 751.86 169.033C758.124 163.996 766.838 161.408 777.867 161.408C788.488 161.408 796.793 163.859 802.784 168.625C808.775 173.527 812.043 180.471 812.86 189.457H795.704C795.296 184.964 793.662 181.696 790.666 179.518C787.671 177.475 783.313 176.386 777.459 176.386C771.468 176.386 767.11 177.475 764.115 179.518C761.119 181.696 759.622 184.556 759.622 188.368C759.622 191.908 760.847 194.495 763.57 196.402C766.157 198.308 770.378 199.669 776.233 200.35L787.534 201.848C796.385 203.073 803.193 205.933 807.822 210.29C812.452 214.647 814.766 220.638 814.766 228.263C814.766 237.794 811.362 245.011 804.691 250.049C797.883 255.087 788.76 257.537 777.05 257.537C765.613 257.537 756.762 255.087 750.499 250.049ZM840.555 224.178C840.555 219.821 840.963 216.417 842.053 213.83C843.006 211.379 845.048 208.656 848.316 205.66L855.26 198.444C857.711 196.129 859.481 194.087 860.57 192.317C861.524 190.683 862.068 188.777 862.068 186.598C862.068 183.466 860.979 181.016 858.8 179.382C856.622 177.748 853.354 176.795 848.997 176.795C844.64 176.795 841.372 177.748 839.33 179.518C837.287 181.288 836.198 184.011 836.198 187.551H819.722C820.267 170.123 830.071 161.408 849.405 161.408C858.8 161.408 866.153 163.587 871.463 167.944C876.774 172.301 879.497 178.156 879.497 185.781C879.497 193.406 876.501 199.942 870.646 205.388L862.885 213.694C860.707 215.736 859.345 217.643 858.528 219.276C857.711 221.047 857.439 223.361 857.439 226.221V230.442H840.555V224.178ZM840.01 239.564H857.847V256.72H840.01V239.564Z" fill="white"/>
</svg>
