<svg width="1207" height="1080" viewBox="0 0 1207 1080" fill="none" xmlns="http://www.w3.org/2000/svg">
<path d="M1205.21 484.035L1204.42 485.584C1196.23 501.817 1176.61 531.984 1166.45 548.858L1084.91 684.216L1084.91 684.217C1004.67 818.066 923.509 955.445 841.599 1088.09C825.089 1116.21 808.245 1144.14 791.072 1171.87L790.099 1173.45L789.224 1171.81L670.677 950.936L670.414 950.446L670.664 949.95C677.935 935.508 694.477 909.61 703.181 895.076V895.075L768.782 785.761L779.99 767.042C836.055 673.276 892.502 577.045 949.715 484.566L950.027 484.061H950.622L1203.47 484.035H1205.21ZM258.701 594.51C322.326 593.617 387.698 594.375 451.439 594.332L765.173 594.287L767.107 594.286L766.076 595.924C760.05 605.496 726.694 661.9 693.944 716.564C677.575 743.888 661.361 770.768 648.803 791.125C642.524 801.302 637.155 809.856 633.135 816.02C631.126 819.1 629.448 821.593 628.158 823.397C627.514 824.298 626.959 825.038 626.504 825.598C626.077 826.122 625.66 826.586 625.303 826.836L625.054 827.01L624.75 827.026C600.123 828.367 569.197 827.293 544.047 827.242V827.241L220.704 827.198C187.771 827.221 151.489 828.096 118.789 826.861L116.963 826.793L117.919 825.236C125.292 813.228 158.144 757.356 190.229 703.618C206.266 676.757 222.109 650.434 234.47 630.41C240.65 620.399 245.963 611.956 249.998 605.805C252.015 602.73 253.718 600.219 255.053 598.368C255.72 597.443 256.302 596.674 256.789 596.078C257.261 595.501 257.693 595.024 258.056 594.738L258.34 594.515L258.701 594.51ZM417.718 -92.5049L536.265 128.374L536.527 128.863L536.278 129.359C529.007 143.802 512.465 169.7 503.761 184.233V184.234L438.159 293.549C378.409 393.186 318.253 496.101 257.227 594.744L256.914 595.25H256.319L3.4707 595.274H1.73535L2.51758 593.726C10.709 577.493 30.3305 547.326 40.4941 530.451L122.027 395.093L137.084 369.956C212.42 244.089 288.552 115.575 365.343 -8.77637C381.853 -36.9026 398.697 -64.8317 415.869 -92.5625L416.843 -94.1348L417.718 -92.5049ZM582.191 252.283C606.818 250.943 637.745 252.018 662.895 252.068H662.894L986.236 252.11C1019.17 252.088 1055.45 251.214 1088.15 252.448L1089.98 252.517L1089.02 254.074C1081.65 266.083 1048.8 321.955 1016.71 375.692C1000.68 402.553 984.833 428.876 972.472 448.899C966.292 458.91 960.978 467.354 956.943 473.505C954.927 476.579 953.224 479.09 951.889 480.941C951.222 481.866 950.64 482.636 950.152 483.232C949.681 483.809 949.249 484.285 948.886 484.571L948.602 484.796L948.24 484.801C888.591 485.637 827.408 485.023 767.472 484.979L755.502 484.978L441.77 485.023H439.835L440.865 483.387C446.891 473.815 480.248 417.411 512.997 362.746C529.366 335.423 545.58 308.541 558.139 288.185C564.417 278.007 569.786 269.454 573.807 263.29C575.816 260.209 577.495 257.716 578.784 255.912C579.428 255.011 579.982 254.271 580.438 253.712C580.864 253.187 581.281 252.724 581.639 252.475L581.888 252.3L582.191 252.283Z" stroke="black" stroke-opacity="0.07" stroke-width="2.13577"/>
</svg>
